<?xml version="1.0" encoding="utf-8" standalone="no"?>
<!DOCTYPE svg PUBLIC "-//W3C//DTD SVG 1.1//EN"
  "http://www.w3.org/Graphics/SVG/1.1/DTD/svg11.dtd">
<!-- Created with matplotlib (https://matplotlib.org/) -->
<svg height="372.471562pt" version="1.1" viewBox="0 0 864.7625 372.471562" width="864.7625pt" xmlns="http://www.w3.org/2000/svg" xmlns:xlink="http://www.w3.org/1999/xlink">
 <defs>
  <style type="text/css">
*{stroke-linecap:butt;stroke-linejoin:round;}
  </style>
 </defs>
 <g id="figure_1">
  <g id="patch_1">
   <path d="M 0 372.471562 
L 864.7625 372.471562 
L 864.7625 0 
L 0 0 
z
" style="fill:none;"/>
  </g>
  <g id="axes_1">
   <g id="patch_2">
    <path d="M 20.5625 315 
L 401.017045 315 
L 401.017045 43.2 
L 20.5625 43.2 
z
" style="fill:#ffffff;"/>
   </g>
   <g id="PolyCollection_1">
    <defs>
     <path d="M 329.039158 -294.115952 
L 329.039158 -278.554736 
L 331.609797 -280.226513 
L 334.180436 -281.804905 
L 336.751075 -283.293727 
L 339.321714 -284.696819 
L 341.892353 -286.018012 
L 344.462991 -287.261109 
L 347.03363 -288.42986 
L 349.604269 -289.527948 
L 352.174908 -290.55897 
L 354.745547 -291.526428 
L 357.316186 -292.433718 
L 359.886824 -293.284122 
L 362.457463 -294.080804 
L 365.028102 -294.826804 
L 367.598741 -295.525034 
L 370.16938 -296.178283 
L 372.740018 -296.78921 
L 375.310657 -297.36035 
L 377.881296 -297.894112 
L 380.451935 -298.392783 
L 383.022574 -298.858533 
L 385.593213 -299.293413 
L 388.163851 -299.699366 
L 390.73449 -300.078223 
L 393.305129 -300.431713 
L 395.875768 -300.761466 
L 398.446407 -301.069014 
L 401.017045 -301.355801 
L 401.017045 -316.917017 
L 401.017045 -316.917017 
L 398.446407 -316.63023 
L 395.875768 -316.322682 
L 393.305129 -315.992929 
L 390.73449 -315.639439 
L 388.163851 -315.260582 
L 385.593213 -314.85463 
L 383.022574 -314.419749 
L 380.451935 -313.953999 
L 377.881296 -313.455328 
L 375.310657 -312.921566 
L 372.740018 -312.350426 
L 370.16938 -311.739499 
L 367.598741 -311.08625 
L 365.028102 -310.38802 
L 362.457463 -309.642021 
L 359.886824 -308.845339 
L 357.316186 -307.994934 
L 354.745547 -307.087644 
L 352.174908 -306.120186 
L 349.604269 -305.089164 
L 347.03363 -303.991076 
L 344.462991 -302.822325 
L 341.892353 -301.579228 
L 339.321714 -300.258035 
L 336.751075 -298.854944 
L 334.180436 -297.366121 
L 331.609797 -295.78773 
L 329.039158 -294.115952 
z
" id="ma83a4246e9" style="stroke:#0000ff;stroke-opacity:0.3;"/>
    </defs>
    <g clip-path="url(#p6c329f06d4)">
     <use style="fill:#0000ff;fill-opacity:0.3;stroke:#0000ff;stroke-opacity:0.3;" x="0" xlink:href="#ma83a4246e9" y="372.471562"/>
    </g>
   </g>
   <g id="matplotlib.axis_1">
    <g id="xtick_1">
     <g id="line2d_1">
      <path clip-path="url(#p6c329f06d4)" d="M 20.5625 315 
L 20.5625 43.2 
" style="fill:none;stroke:#b0b0b0;stroke-linecap:square;stroke-width:0.8;"/>
     </g>
     <g id="line2d_2">
      <defs>
       <path d="M 0 0 
L 0 3.5 
" id="m78db2072a2" style="stroke:#000000;stroke-width:0.8;"/>
      </defs>
      <g>
       <use style="stroke:#000000;stroke-width:0.8;" x="20.5625" xlink:href="#m78db2072a2" y="315"/>
      </g>
     </g>
    </g>
    <g id="xtick_2">
     <g id="line2d_3">
      <path clip-path="url(#p6c329f06d4)" d="M 46.268888 315 
L 46.268888 43.2 
" style="fill:none;stroke:#b0b0b0;stroke-linecap:square;stroke-width:0.8;"/>
     </g>
     <g id="line2d_4">
      <g>
       <use style="stroke:#000000;stroke-width:0.8;" x="46.268888" xlink:href="#m78db2072a2" y="315"/>
      </g>
     </g>
     <g id="text_1">
      <!-- Feb -->
      <defs>
       <path d="M 9.8125 72.90625 
L 51.703125 72.90625 
L 51.703125 64.59375 
L 19.671875 64.59375 
L 19.671875 43.109375 
L 48.578125 43.109375 
L 48.578125 34.8125 
L 19.671875 34.8125 
L 19.671875 0 
L 9.8125 0 
z
" id="DejaVuSans-70"/>
       <path d="M 56.203125 29.59375 
L 56.203125 25.203125 
L 14.890625 25.203125 
Q 15.484375 15.921875 20.484375 11.0625 
Q 25.484375 6.203125 34.421875 6.203125 
Q 39.59375 6.203125 44.453125 7.46875 
Q 49.3125 8.734375 54.109375 11.28125 
L 54.109375 2.78125 
Q 49.265625 0.734375 44.1875 -0.34375 
Q 39.109375 -1.421875 33.890625 -1.421875 
Q 20.796875 -1.421875 13.15625 6.1875 
Q 5.515625 13.8125 5.515625 26.8125 
Q 5.515625 40.234375 12.765625 48.109375 
Q 20.015625 56 32.328125 56 
Q 43.359375 56 49.78125 48.890625 
Q 56.203125 41.796875 56.203125 29.59375 
z
M 47.21875 32.234375 
Q 47.125 39.59375 43.09375 43.984375 
Q 39.0625 48.390625 32.421875 48.390625 
Q 24.90625 48.390625 20.390625 44.140625 
Q 15.875 39.890625 15.1875 32.171875 
z
" id="DejaVuSans-101"/>
       <path d="M 48.6875 27.296875 
Q 48.6875 37.203125 44.609375 42.84375 
Q 40.53125 48.484375 33.40625 48.484375 
Q 26.265625 48.484375 22.1875 42.84375 
Q 18.109375 37.203125 18.109375 27.296875 
Q 18.109375 17.390625 22.1875 11.75 
Q 26.265625 6.109375 33.40625 6.109375 
Q 40.53125 6.109375 44.609375 11.75 
Q 48.6875 17.390625 48.6875 27.296875 
z
M 18.109375 46.390625 
Q 20.953125 51.265625 25.265625 53.625 
Q 29.59375 56 35.59375 56 
Q 45.5625 56 51.78125 48.09375 
Q 58.015625 40.1875 58.015625 27.296875 
Q 58.015625 14.40625 51.78125 6.484375 
Q 45.5625 -1.421875 35.59375 -1.421875 
Q 29.59375 -1.421875 25.265625 0.953125 
Q 20.953125 3.328125 18.109375 8.203125 
L 18.109375 0 
L 9.078125 0 
L 9.078125 75.984375 
L 18.109375 75.984375 
z
" id="DejaVuSans-98"/>
      </defs>
      <g transform="translate(37.417326 329.598437)scale(0.1 -0.1)">
       <use xlink:href="#DejaVuSans-70"/>
       <use x="52.019531" xlink:href="#DejaVuSans-101"/>
       <use x="113.542969" xlink:href="#DejaVuSans-98"/>
      </g>
      <!-- 2020 -->
      <defs>
       <path d="M 19.1875 8.296875 
L 53.609375 8.296875 
L 53.609375 0 
L 7.328125 0 
L 7.328125 8.296875 
Q 12.9375 14.109375 22.625 23.890625 
Q 32.328125 33.6875 34.8125 36.53125 
Q 39.546875 41.84375 41.421875 45.53125 
Q 43.3125 49.21875 43.3125 52.78125 
Q 43.3125 58.59375 39.234375 62.25 
Q 35.15625 65.921875 28.609375 65.921875 
Q 23.96875 65.921875 18.8125 64.3125 
Q 13.671875 62.703125 7.8125 59.421875 
L 7.8125 69.390625 
Q 13.765625 71.78125 18.9375 73 
Q 24.125 74.21875 28.421875 74.21875 
Q 39.75 74.21875 46.484375 68.546875 
Q 53.21875 62.890625 53.21875 53.421875 
Q 53.21875 48.921875 51.53125 44.890625 
Q 49.859375 40.875 45.40625 35.40625 
Q 44.1875 33.984375 37.640625 27.21875 
Q 31.109375 20.453125 19.1875 8.296875 
z
" id="DejaVuSans-50"/>
       <path d="M 31.78125 66.40625 
Q 24.171875 66.40625 20.328125 58.90625 
Q 16.5 51.421875 16.5 36.375 
Q 16.5 21.390625 20.328125 13.890625 
Q 24.171875 6.390625 31.78125 6.390625 
Q 39.453125 6.390625 43.28125 13.890625 
Q 47.125 21.390625 47.125 36.375 
Q 47.125 51.421875 43.28125 58.90625 
Q 39.453125 66.40625 31.78125 66.40625 
z
M 31.78125 74.21875 
Q 44.046875 74.21875 50.515625 64.515625 
Q 56.984375 54.828125 56.984375 36.375 
Q 56.984375 17.96875 50.515625 8.265625 
Q 44.046875 -1.421875 31.78125 -1.421875 
Q 19.53125 -1.421875 13.0625 8.265625 
Q 6.59375 17.96875 6.59375 36.375 
Q 6.59375 54.828125 13.0625 64.515625 
Q 19.53125 74.21875 31.78125 74.21875 
z
" id="DejaVuSans-48"/>
      </defs>
      <g transform="translate(33.543888 340.79625)scale(0.1 -0.1)">
       <use xlink:href="#DejaVuSans-50"/>
       <use x="63.623047" xlink:href="#DejaVuSans-48"/>
       <use x="127.246094" xlink:href="#DejaVuSans-50"/>
       <use x="190.869141" xlink:href="#DejaVuSans-48"/>
      </g>
     </g>
    </g>
    <g id="xtick_3">
     <g id="line2d_5">
      <path clip-path="url(#p6c329f06d4)" d="M 120.817414 315 
L 120.817414 43.2 
" style="fill:none;stroke:#b0b0b0;stroke-linecap:square;stroke-width:0.8;"/>
     </g>
     <g id="line2d_6">
      <g>
       <use style="stroke:#000000;stroke-width:0.8;" x="120.817414" xlink:href="#m78db2072a2" y="315"/>
      </g>
     </g>
     <g id="text_2">
      <!-- Mar -->
      <defs>
       <path d="M 9.8125 72.90625 
L 24.515625 72.90625 
L 43.109375 23.296875 
L 61.8125 72.90625 
L 76.515625 72.90625 
L 76.515625 0 
L 66.890625 0 
L 66.890625 64.015625 
L 48.09375 14.015625 
L 38.1875 14.015625 
L 19.390625 64.015625 
L 19.390625 0 
L 9.8125 0 
z
" id="DejaVuSans-77"/>
       <path d="M 34.28125 27.484375 
Q 23.390625 27.484375 19.1875 25 
Q 14.984375 22.515625 14.984375 16.5 
Q 14.984375 11.71875 18.140625 8.90625 
Q 21.296875 6.109375 26.703125 6.109375 
Q 34.1875 6.109375 38.703125 11.40625 
Q 43.21875 16.703125 43.21875 25.484375 
L 43.21875 27.484375 
z
M 52.203125 31.203125 
L 52.203125 0 
L 43.21875 0 
L 43.21875 8.296875 
Q 40.140625 3.328125 35.546875 0.953125 
Q 30.953125 -1.421875 24.3125 -1.421875 
Q 15.921875 -1.421875 10.953125 3.296875 
Q 6 8.015625 6 15.921875 
Q 6 25.140625 12.171875 29.828125 
Q 18.359375 34.515625 30.609375 34.515625 
L 43.21875 34.515625 
L 43.21875 35.40625 
Q 43.21875 41.609375 39.140625 45 
Q 35.0625 48.390625 27.6875 48.390625 
Q 23 48.390625 18.546875 47.265625 
Q 14.109375 46.140625 10.015625 43.890625 
L 10.015625 52.203125 
Q 14.9375 54.109375 19.578125 55.046875 
Q 24.21875 56 28.609375 56 
Q 40.484375 56 46.34375 49.84375 
Q 52.203125 43.703125 52.203125 31.203125 
z
" id="DejaVuSans-97"/>
       <path d="M 41.109375 46.296875 
Q 39.59375 47.171875 37.8125 47.578125 
Q 36.03125 48 33.890625 48 
Q 26.265625 48 22.1875 43.046875 
Q 18.109375 38.09375 18.109375 28.8125 
L 18.109375 0 
L 9.078125 0 
L 9.078125 54.6875 
L 18.109375 54.6875 
L 18.109375 46.1875 
Q 20.953125 51.171875 25.484375 53.578125 
Q 30.03125 56 36.53125 56 
Q 37.453125 56 38.578125 55.875 
Q 39.703125 55.765625 41.0625 55.515625 
z
" id="DejaVuSans-114"/>
      </defs>
      <g transform="translate(111.38382 329.598437)scale(0.1 -0.1)">
       <use xlink:href="#DejaVuSans-77"/>
       <use x="86.279297" xlink:href="#DejaVuSans-97"/>
       <use x="147.558594" xlink:href="#DejaVuSans-114"/>
      </g>
     </g>
    </g>
    <g id="xtick_4">
     <g id="line2d_7">
      <path clip-path="url(#p6c329f06d4)" d="M 200.507217 315 
L 200.507217 43.2 
" style="fill:none;stroke:#b0b0b0;stroke-linecap:square;stroke-width:0.8;"/>
     </g>
     <g id="line2d_8">
      <g>
       <use style="stroke:#000000;stroke-width:0.8;" x="200.507217" xlink:href="#m78db2072a2" y="315"/>
      </g>
     </g>
     <g id="text_3">
      <!-- Apr -->
      <defs>
       <path d="M 34.1875 63.1875 
L 20.796875 26.90625 
L 47.609375 26.90625 
z
M 28.609375 72.90625 
L 39.796875 72.90625 
L 67.578125 0 
L 57.328125 0 
L 50.6875 18.703125 
L 17.828125 18.703125 
L 11.1875 0 
L 0.78125 0 
z
" id="DejaVuSans-65"/>
       <path d="M 18.109375 8.203125 
L 18.109375 -20.796875 
L 9.078125 -20.796875 
L 9.078125 54.6875 
L 18.109375 54.6875 
L 18.109375 46.390625 
Q 20.953125 51.265625 25.265625 53.625 
Q 29.59375 56 35.59375 56 
Q 45.5625 56 51.78125 48.09375 
Q 58.015625 40.1875 58.015625 27.296875 
Q 58.015625 14.40625 51.78125 6.484375 
Q 45.5625 -1.421875 35.59375 -1.421875 
Q 29.59375 -1.421875 25.265625 0.953125 
Q 20.953125 3.328125 18.109375 8.203125 
z
M 48.6875 27.296875 
Q 48.6875 37.203125 44.609375 42.84375 
Q 40.53125 48.484375 33.40625 48.484375 
Q 26.265625 48.484375 22.1875 42.84375 
Q 18.109375 37.203125 18.109375 27.296875 
Q 18.109375 17.390625 22.1875 11.75 
Q 26.265625 6.109375 33.40625 6.109375 
Q 40.53125 6.109375 44.609375 11.75 
Q 48.6875 17.390625 48.6875 27.296875 
z
" id="DejaVuSans-112"/>
      </defs>
      <g transform="translate(191.857217 329.598437)scale(0.1 -0.1)">
       <use xlink:href="#DejaVuSans-65"/>
       <use x="68.408203" xlink:href="#DejaVuSans-112"/>
       <use x="131.884766" xlink:href="#DejaVuSans-114"/>
      </g>
     </g>
    </g>
    <g id="xtick_5">
     <g id="line2d_9">
      <path clip-path="url(#p6c329f06d4)" d="M 277.626382 315 
L 277.626382 43.2 
" style="fill:none;stroke:#b0b0b0;stroke-linecap:square;stroke-width:0.8;"/>
     </g>
     <g id="line2d_10">
      <g>
       <use style="stroke:#000000;stroke-width:0.8;" x="277.626382" xlink:href="#m78db2072a2" y="315"/>
      </g>
     </g>
     <g id="text_4">
      <!-- May -->
      <defs>
       <path d="M 32.171875 -5.078125 
Q 28.375 -14.84375 24.75 -17.8125 
Q 21.140625 -20.796875 15.09375 -20.796875 
L 7.90625 -20.796875 
L 7.90625 -13.28125 
L 13.1875 -13.28125 
Q 16.890625 -13.28125 18.9375 -11.515625 
Q 21 -9.765625 23.484375 -3.21875 
L 25.09375 0.875 
L 2.984375 54.6875 
L 12.5 54.6875 
L 29.59375 11.921875 
L 46.6875 54.6875 
L 56.203125 54.6875 
z
" id="DejaVuSans-121"/>
      </defs>
      <g transform="translate(267.288882 329.598437)scale(0.1 -0.1)">
       <use xlink:href="#DejaVuSans-77"/>
       <use x="86.279297" xlink:href="#DejaVuSans-97"/>
       <use x="147.558594" xlink:href="#DejaVuSans-121"/>
      </g>
     </g>
    </g>
    <g id="xtick_6">
     <g id="line2d_11">
      <path clip-path="url(#p6c329f06d4)" d="M 357.316186 315 
L 357.316186 43.2 
" style="fill:none;stroke:#b0b0b0;stroke-linecap:square;stroke-width:0.8;"/>
     </g>
     <g id="line2d_12">
      <g>
       <use style="stroke:#000000;stroke-width:0.8;" x="357.316186" xlink:href="#m78db2072a2" y="315"/>
      </g>
     </g>
     <g id="text_5">
      <!-- Jun -->
      <defs>
       <path d="M 9.8125 72.90625 
L 19.671875 72.90625 
L 19.671875 5.078125 
Q 19.671875 -8.109375 14.671875 -14.0625 
Q 9.671875 -20.015625 -1.421875 -20.015625 
L -5.171875 -20.015625 
L -5.171875 -11.71875 
L -2.09375 -11.71875 
Q 4.4375 -11.71875 7.125 -8.046875 
Q 9.8125 -4.390625 9.8125 5.078125 
z
" id="DejaVuSans-74"/>
       <path d="M 8.5 21.578125 
L 8.5 54.6875 
L 17.484375 54.6875 
L 17.484375 21.921875 
Q 17.484375 14.15625 20.5 10.265625 
Q 23.53125 6.390625 29.59375 6.390625 
Q 36.859375 6.390625 41.078125 11.03125 
Q 45.3125 15.671875 45.3125 23.6875 
L 45.3125 54.6875 
L 54.296875 54.6875 
L 54.296875 0 
L 45.3125 0 
L 45.3125 8.40625 
Q 42.046875 3.421875 37.71875 1 
Q 33.40625 -1.421875 27.6875 -1.421875 
Q 18.265625 -1.421875 13.375 4.4375 
Q 8.5 10.296875 8.5 21.578125 
z
M 31.109375 56 
z
" id="DejaVuSans-117"/>
       <path d="M 54.890625 33.015625 
L 54.890625 0 
L 45.90625 0 
L 45.90625 32.71875 
Q 45.90625 40.484375 42.875 44.328125 
Q 39.84375 48.1875 33.796875 48.1875 
Q 26.515625 48.1875 22.3125 43.546875 
Q 18.109375 38.921875 18.109375 30.90625 
L 18.109375 0 
L 9.078125 0 
L 9.078125 54.6875 
L 18.109375 54.6875 
L 18.109375 46.1875 
Q 21.34375 51.125 25.703125 53.5625 
Q 30.078125 56 35.796875 56 
Q 45.21875 56 50.046875 50.171875 
Q 54.890625 44.34375 54.890625 33.015625 
z
" id="DejaVuSans-110"/>
      </defs>
      <g transform="translate(349.503686 329.598437)scale(0.1 -0.1)">
       <use xlink:href="#DejaVuSans-74"/>
       <use x="29.492188" xlink:href="#DejaVuSans-117"/>
       <use x="92.871094" xlink:href="#DejaVuSans-110"/>
      </g>
     </g>
    </g>
    <g id="xtick_7">
     <g id="line2d_13">
      <path clip-path="url(#p6c329f06d4)" d="M 401.017045 315 
L 401.017045 43.2 
" style="fill:none;stroke:#b0b0b0;stroke-linecap:square;stroke-width:0.8;"/>
     </g>
     <g id="line2d_14">
      <g>
       <use style="stroke:#000000;stroke-width:0.8;" x="401.017045" xlink:href="#m78db2072a2" y="315"/>
      </g>
     </g>
    </g>
    <g id="xtick_8">
     <g id="line2d_15">
      <defs>
       <path d="M 0 0 
L 0 2 
" id="m40230c72a3" style="stroke:#000000;stroke-width:0.6;"/>
      </defs>
      <g>
       <use style="stroke:#000000;stroke-width:0.6;" x="33.415694" xlink:href="#m40230c72a3" y="315"/>
      </g>
     </g>
    </g>
    <g id="xtick_9">
     <g id="line2d_16">
      <g>
       <use style="stroke:#000000;stroke-width:0.6;" x="51.410166" xlink:href="#m40230c72a3" y="315"/>
      </g>
     </g>
    </g>
    <g id="xtick_10">
     <g id="line2d_17">
      <g>
       <use style="stroke:#000000;stroke-width:0.6;" x="69.404638" xlink:href="#m40230c72a3" y="315"/>
      </g>
     </g>
    </g>
    <g id="xtick_11">
     <g id="line2d_18">
      <g>
       <use style="stroke:#000000;stroke-width:0.6;" x="87.399109" xlink:href="#m40230c72a3" y="315"/>
      </g>
     </g>
    </g>
    <g id="xtick_12">
     <g id="line2d_19">
      <g>
       <use style="stroke:#000000;stroke-width:0.6;" x="105.393581" xlink:href="#m40230c72a3" y="315"/>
      </g>
     </g>
    </g>
    <g id="xtick_13">
     <g id="line2d_20">
      <g>
       <use style="stroke:#000000;stroke-width:0.6;" x="123.388053" xlink:href="#m40230c72a3" y="315"/>
      </g>
     </g>
    </g>
    <g id="xtick_14">
     <g id="line2d_21">
      <g>
       <use style="stroke:#000000;stroke-width:0.6;" x="141.382525" xlink:href="#m40230c72a3" y="315"/>
      </g>
     </g>
    </g>
    <g id="xtick_15">
     <g id="line2d_22">
      <g>
       <use style="stroke:#000000;stroke-width:0.6;" x="159.376996" xlink:href="#m40230c72a3" y="315"/>
      </g>
     </g>
    </g>
    <g id="xtick_16">
     <g id="line2d_23">
      <g>
       <use style="stroke:#000000;stroke-width:0.6;" x="177.371468" xlink:href="#m40230c72a3" y="315"/>
      </g>
     </g>
    </g>
    <g id="xtick_17">
     <g id="line2d_24">
      <g>
       <use style="stroke:#000000;stroke-width:0.6;" x="195.36594" xlink:href="#m40230c72a3" y="315"/>
      </g>
     </g>
    </g>
    <g id="xtick_18">
     <g id="line2d_25">
      <g>
       <use style="stroke:#000000;stroke-width:0.6;" x="213.360412" xlink:href="#m40230c72a3" y="315"/>
      </g>
     </g>
    </g>
    <g id="xtick_19">
     <g id="line2d_26">
      <g>
       <use style="stroke:#000000;stroke-width:0.6;" x="231.354883" xlink:href="#m40230c72a3" y="315"/>
      </g>
     </g>
    </g>
    <g id="xtick_20">
     <g id="line2d_27">
      <g>
       <use style="stroke:#000000;stroke-width:0.6;" x="249.349355" xlink:href="#m40230c72a3" y="315"/>
      </g>
     </g>
    </g>
    <g id="xtick_21">
     <g id="line2d_28">
      <g>
       <use style="stroke:#000000;stroke-width:0.6;" x="267.343827" xlink:href="#m40230c72a3" y="315"/>
      </g>
     </g>
    </g>
    <g id="xtick_22">
     <g id="line2d_29">
      <g>
       <use style="stroke:#000000;stroke-width:0.6;" x="285.338299" xlink:href="#m40230c72a3" y="315"/>
      </g>
     </g>
    </g>
    <g id="xtick_23">
     <g id="line2d_30">
      <g>
       <use style="stroke:#000000;stroke-width:0.6;" x="303.33277" xlink:href="#m40230c72a3" y="315"/>
      </g>
     </g>
    </g>
    <g id="xtick_24">
     <g id="line2d_31">
      <g>
       <use style="stroke:#000000;stroke-width:0.6;" x="321.327242" xlink:href="#m40230c72a3" y="315"/>
      </g>
     </g>
    </g>
    <g id="xtick_25">
     <g id="line2d_32">
      <g>
       <use style="stroke:#000000;stroke-width:0.6;" x="339.321714" xlink:href="#m40230c72a3" y="315"/>
      </g>
     </g>
    </g>
    <g id="xtick_26">
     <g id="line2d_33">
      <g>
       <use style="stroke:#000000;stroke-width:0.6;" x="375.310657" xlink:href="#m40230c72a3" y="315"/>
      </g>
     </g>
    </g>
    <g id="xtick_27">
     <g id="line2d_34">
      <g>
       <use style="stroke:#000000;stroke-width:0.6;" x="393.305129" xlink:href="#m40230c72a3" y="315"/>
      </g>
     </g>
    </g>
   </g>
   <g id="matplotlib.axis_2">
    <g id="ytick_1">
     <g id="line2d_35">
      <path clip-path="url(#p6c329f06d4)" d="M 20.5625 302.670387 
L 401.017045 302.670387 
" style="fill:none;stroke:#b0b0b0;stroke-linecap:square;stroke-width:0.8;"/>
     </g>
     <g id="line2d_36">
      <defs>
       <path d="M 0 0 
L -3.5 0 
" id="md3670deb9a" style="stroke:#000000;stroke-width:0.8;"/>
      </defs>
      <g>
       <use style="stroke:#000000;stroke-width:0.8;" x="20.5625" xlink:href="#md3670deb9a" y="302.670387"/>
      </g>
     </g>
     <g id="text_6">
      <!-- 0 -->
      <g transform="translate(7.2 306.469605)scale(0.1 -0.1)">
       <use xlink:href="#DejaVuSans-48"/>
      </g>
     </g>
    </g>
    <g id="ytick_2">
     <g id="line2d_37">
      <path clip-path="url(#p6c329f06d4)" d="M 20.5625 257.747726 
L 401.017045 257.747726 
" style="fill:none;stroke:#b0b0b0;stroke-linecap:square;stroke-width:0.8;"/>
     </g>
     <g id="line2d_38">
      <g>
       <use style="stroke:#000000;stroke-width:0.8;" x="20.5625" xlink:href="#md3670deb9a" y="257.747726"/>
      </g>
     </g>
     <g id="text_7">
      <!-- 1 -->
      <defs>
       <path d="M 12.40625 8.296875 
L 28.515625 8.296875 
L 28.515625 63.921875 
L 10.984375 60.40625 
L 10.984375 69.390625 
L 28.421875 72.90625 
L 38.28125 72.90625 
L 38.28125 8.296875 
L 54.390625 8.296875 
L 54.390625 0 
L 12.40625 0 
z
" id="DejaVuSans-49"/>
      </defs>
      <g transform="translate(7.2 261.546945)scale(0.1 -0.1)">
       <use xlink:href="#DejaVuSans-49"/>
      </g>
     </g>
    </g>
    <g id="ytick_3">
     <g id="line2d_39">
      <path clip-path="url(#p6c329f06d4)" d="M 20.5625 212.825065 
L 401.017045 212.825065 
" style="fill:none;stroke:#b0b0b0;stroke-linecap:square;stroke-width:0.8;"/>
     </g>
     <g id="line2d_40">
      <g>
       <use style="stroke:#000000;stroke-width:0.8;" x="20.5625" xlink:href="#md3670deb9a" y="212.825065"/>
      </g>
     </g>
     <g id="text_8">
      <!-- 2 -->
      <g transform="translate(7.2 216.624284)scale(0.1 -0.1)">
       <use xlink:href="#DejaVuSans-50"/>
      </g>
     </g>
    </g>
    <g id="ytick_4">
     <g id="line2d_41">
      <path clip-path="url(#p6c329f06d4)" d="M 20.5625 167.902404 
L 401.017045 167.902404 
" style="fill:none;stroke:#b0b0b0;stroke-linecap:square;stroke-width:0.8;"/>
     </g>
     <g id="line2d_42">
      <g>
       <use style="stroke:#000000;stroke-width:0.8;" x="20.5625" xlink:href="#md3670deb9a" y="167.902404"/>
      </g>
     </g>
     <g id="text_9">
      <!-- 3 -->
      <defs>
       <path d="M 40.578125 39.3125 
Q 47.65625 37.796875 51.625 33 
Q 55.609375 28.21875 55.609375 21.1875 
Q 55.609375 10.40625 48.1875 4.484375 
Q 40.765625 -1.421875 27.09375 -1.421875 
Q 22.515625 -1.421875 17.65625 -0.515625 
Q 12.796875 0.390625 7.625 2.203125 
L 7.625 11.71875 
Q 11.71875 9.328125 16.59375 8.109375 
Q 21.484375 6.890625 26.8125 6.890625 
Q 36.078125 6.890625 40.9375 10.546875 
Q 45.796875 14.203125 45.796875 21.1875 
Q 45.796875 27.640625 41.28125 31.265625 
Q 36.765625 34.90625 28.71875 34.90625 
L 20.21875 34.90625 
L 20.21875 43.015625 
L 29.109375 43.015625 
Q 36.375 43.015625 40.234375 45.921875 
Q 44.09375 48.828125 44.09375 54.296875 
Q 44.09375 59.90625 40.109375 62.90625 
Q 36.140625 65.921875 28.71875 65.921875 
Q 24.65625 65.921875 20.015625 65.03125 
Q 15.375 64.15625 9.8125 62.3125 
L 9.8125 71.09375 
Q 15.4375 72.65625 20.34375 73.4375 
Q 25.25 74.21875 29.59375 74.21875 
Q 40.828125 74.21875 47.359375 69.109375 
Q 53.90625 64.015625 53.90625 55.328125 
Q 53.90625 49.265625 50.4375 45.09375 
Q 46.96875 40.921875 40.578125 39.3125 
z
" id="DejaVuSans-51"/>
      </defs>
      <g transform="translate(7.2 171.701623)scale(0.1 -0.1)">
       <use xlink:href="#DejaVuSans-51"/>
      </g>
     </g>
    </g>
    <g id="ytick_5">
     <g id="line2d_43">
      <path clip-path="url(#p6c329f06d4)" d="M 20.5625 122.979743 
L 401.017045 122.979743 
" style="fill:none;stroke:#b0b0b0;stroke-linecap:square;stroke-width:0.8;"/>
     </g>
     <g id="line2d_44">
      <g>
       <use style="stroke:#000000;stroke-width:0.8;" x="20.5625" xlink:href="#md3670deb9a" y="122.979743"/>
      </g>
     </g>
     <g id="text_10">
      <!-- 4 -->
      <defs>
       <path d="M 37.796875 64.3125 
L 12.890625 25.390625 
L 37.796875 25.390625 
z
M 35.203125 72.90625 
L 47.609375 72.90625 
L 47.609375 25.390625 
L 58.015625 25.390625 
L 58.015625 17.1875 
L 47.609375 17.1875 
L 47.609375 0 
L 37.796875 0 
L 37.796875 17.1875 
L 4.890625 17.1875 
L 4.890625 26.703125 
z
" id="DejaVuSans-52"/>
      </defs>
      <g transform="translate(7.2 126.778962)scale(0.1 -0.1)">
       <use xlink:href="#DejaVuSans-52"/>
      </g>
     </g>
    </g>
    <g id="ytick_6">
     <g id="line2d_45">
      <path clip-path="url(#p6c329f06d4)" d="M 20.5625 78.057082 
L 401.017045 78.057082 
" style="fill:none;stroke:#b0b0b0;stroke-linecap:square;stroke-width:0.8;"/>
     </g>
     <g id="line2d_46">
      <g>
       <use style="stroke:#000000;stroke-width:0.8;" x="20.5625" xlink:href="#md3670deb9a" y="78.057082"/>
      </g>
     </g>
     <g id="text_11">
      <!-- 5 -->
      <defs>
       <path d="M 10.796875 72.90625 
L 49.515625 72.90625 
L 49.515625 64.59375 
L 19.828125 64.59375 
L 19.828125 46.734375 
Q 21.96875 47.46875 24.109375 47.828125 
Q 26.265625 48.1875 28.421875 48.1875 
Q 40.625 48.1875 47.75 41.5 
Q 54.890625 34.8125 54.890625 23.390625 
Q 54.890625 11.625 47.5625 5.09375 
Q 40.234375 -1.421875 26.90625 -1.421875 
Q 22.3125 -1.421875 17.546875 -0.640625 
Q 12.796875 0.140625 7.71875 1.703125 
L 7.71875 11.625 
Q 12.109375 9.234375 16.796875 8.0625 
Q 21.484375 6.890625 26.703125 6.890625 
Q 35.15625 6.890625 40.078125 11.328125 
Q 45.015625 15.765625 45.015625 23.390625 
Q 45.015625 31 40.078125 35.4375 
Q 35.15625 39.890625 26.703125 39.890625 
Q 22.75 39.890625 18.8125 39.015625 
Q 14.890625 38.140625 10.796875 36.28125 
z
" id="DejaVuSans-53"/>
      </defs>
      <g transform="translate(7.2 81.856301)scale(0.1 -0.1)">
       <use xlink:href="#DejaVuSans-53"/>
      </g>
     </g>
    </g>
    <g id="text_12">
     <!-- 1e6 -->
     <defs>
      <path d="M 33.015625 40.375 
Q 26.375 40.375 22.484375 35.828125 
Q 18.609375 31.296875 18.609375 23.390625 
Q 18.609375 15.53125 22.484375 10.953125 
Q 26.375 6.390625 33.015625 6.390625 
Q 39.65625 6.390625 43.53125 10.953125 
Q 47.40625 15.53125 47.40625 23.390625 
Q 47.40625 31.296875 43.53125 35.828125 
Q 39.65625 40.375 33.015625 40.375 
z
M 52.59375 71.296875 
L 52.59375 62.3125 
Q 48.875 64.0625 45.09375 64.984375 
Q 41.3125 65.921875 37.59375 65.921875 
Q 27.828125 65.921875 22.671875 59.328125 
Q 17.53125 52.734375 16.796875 39.40625 
Q 19.671875 43.65625 24.015625 45.921875 
Q 28.375 48.1875 33.59375 48.1875 
Q 44.578125 48.1875 50.953125 41.515625 
Q 57.328125 34.859375 57.328125 23.390625 
Q 57.328125 12.15625 50.6875 5.359375 
Q 44.046875 -1.421875 33.015625 -1.421875 
Q 20.359375 -1.421875 13.671875 8.265625 
Q 6.984375 17.96875 6.984375 36.375 
Q 6.984375 53.65625 15.1875 63.9375 
Q 23.390625 74.21875 37.203125 74.21875 
Q 40.921875 74.21875 44.703125 73.484375 
Q 48.484375 72.75 52.59375 71.296875 
z
" id="DejaVuSans-54"/>
     </defs>
     <g transform="translate(20.5625 40.2)scale(0.1 -0.1)">
      <use xlink:href="#DejaVuSans-49"/>
      <use x="63.623047" xlink:href="#DejaVuSans-101"/>
      <use x="125.146484" xlink:href="#DejaVuSans-54"/>
     </g>
    </g>
   </g>
   <g id="line2d_47">
    <defs>
     <path d="M 0 1.5 
C 0.397805 1.5 0.77937 1.341951 1.06066 1.06066 
C 1.341951 0.77937 1.5 0.397805 1.5 0 
C 1.5 -0.397805 1.341951 -0.77937 1.06066 -1.06066 
C 0.77937 -1.341951 0.397805 -1.5 0 -1.5 
C -0.397805 -1.5 -0.77937 -1.341951 -1.06066 -1.06066 
C -1.341951 -0.77937 -1.5 -0.397805 -1.5 0 
C -1.5 0.397805 -1.341951 0.77937 -1.06066 1.06066 
C -0.77937 1.341951 -0.397805 1.5 0 1.5 
z
" id="m7c8f6673ba" style="stroke:#000000;"/>
    </defs>
    <g clip-path="url(#p6c329f06d4)">
     <use style="stroke:#000000;" x="20.5625" xlink:href="#m7c8f6673ba" y="302.645455"/>
     <use style="stroke:#000000;" x="23.133139" xlink:href="#m7c8f6673ba" y="302.641007"/>
     <use style="stroke:#000000;" x="25.703778" xlink:href="#m7c8f6673ba" y="302.628114"/>
     <use style="stroke:#000000;" x="28.274416" xlink:href="#m7c8f6673ba" y="302.605968"/>
     <use style="stroke:#000000;" x="30.845055" xlink:href="#m7c8f6673ba" y="302.57524"/>
     <use style="stroke:#000000;" x="33.415694" xlink:href="#m7c8f6673ba" y="302.538898"/>
     <use style="stroke:#000000;" x="35.986333" xlink:href="#m7c8f6673ba" y="302.419808"/>
     <use style="stroke:#000000;" x="38.556972" xlink:href="#m7c8f6673ba" y="302.393393"/>
     <use style="stroke:#000000;" x="41.127611" xlink:href="#m7c8f6673ba" y="302.300493"/>
     <use style="stroke:#000000;" x="43.698249" xlink:href="#m7c8f6673ba" y="302.224439"/>
     <use style="stroke:#000000;" x="46.268888" xlink:href="#m7c8f6673ba" y="302.129608"/>
     <use style="stroke:#000000;" x="48.839527" xlink:href="#m7c8f6673ba" y="301.91627"/>
     <use style="stroke:#000000;" x="51.410166" xlink:href="#m7c8f6673ba" y="301.777279"/>
     <use style="stroke:#000000;" x="53.980805" xlink:href="#m7c8f6673ba" y="301.597094"/>
     <use style="stroke:#000000;" x="56.551443" xlink:href="#m7c8f6673ba" y="301.428949"/>
     <use style="stroke:#000000;" x="59.122082" xlink:href="#m7c8f6673ba" y="301.287038"/>
     <use style="stroke:#000000;" x="61.692721" xlink:href="#m7c8f6673ba" y="301.125451"/>
     <use style="stroke:#000000;" x="64.26336" xlink:href="#m7c8f6673ba" y="301.002857"/>
     <use style="stroke:#000000;" x="66.833999" xlink:href="#m7c8f6673ba" y="300.866742"/>
     <use style="stroke:#000000;" x="69.404638" xlink:href="#m7c8f6673ba" y="300.749404"/>
     <use style="stroke:#000000;" x="71.975276" xlink:href="#m7c8f6673ba" y="300.657762"/>
     <use style="stroke:#000000;" x="74.545915" xlink:href="#m7c8f6673ba" y="300.638939"/>
     <use style="stroke:#000000;" x="77.116554" xlink:href="#m7c8f6673ba" y="299.958495"/>
     <use style="stroke:#000000;" x="79.687193" xlink:href="#m7c8f6673ba" y="299.665734"/>
     <use style="stroke:#000000;" x="82.257832" xlink:href="#m7c8f6673ba" y="299.569375"/>
     <use style="stroke:#000000;" x="84.828471" xlink:href="#m7c8f6673ba" y="299.470815"/>
     <use style="stroke:#000000;" x="87.399109" xlink:href="#m7c8f6673ba" y="299.379442"/>
     <use style="stroke:#000000;" x="89.969748" xlink:href="#m7c8f6673ba" y="299.295078"/>
     <use style="stroke:#000000;" x="92.540387" xlink:href="#m7c8f6673ba" y="299.272481"/>
     <use style="stroke:#000000;" x="95.111026" xlink:href="#m7c8f6673ba" y="299.247415"/>
     <use style="stroke:#000000;" x="97.681665" xlink:href="#m7c8f6673ba" y="299.219473"/>
     <use style="stroke:#000000;" x="100.252303" xlink:href="#m7c8f6673ba" y="299.140723"/>
     <use style="stroke:#000000;" x="102.822942" xlink:href="#m7c8f6673ba" y="299.123383"/>
     <use style="stroke:#000000;" x="105.393581" xlink:href="#m7c8f6673ba" y="299.096295"/>
     <use style="stroke:#000000;" x="107.96422" xlink:href="#m7c8f6673ba" y="299.058335"/>
     <use style="stroke:#000000;" x="110.534859" xlink:href="#m7c8f6673ba" y="299.014221"/>
     <use style="stroke:#000000;" x="113.105498" xlink:href="#m7c8f6673ba" y="298.953216"/>
     <use style="stroke:#000000;" x="115.676136" xlink:href="#m7c8f6673ba" y="298.891852"/>
     <use style="stroke:#000000;" x="118.246775" xlink:href="#m7c8f6673ba" y="298.806544"/>
     <use style="stroke:#000000;" x="120.817414" xlink:href="#m7c8f6673ba" y="298.700616"/>
     <use style="stroke:#000000;" x="123.388053" xlink:href="#m7c8f6673ba" y="298.613601"/>
     <use style="stroke:#000000;" x="125.958692" xlink:href="#m7c8f6673ba" y="298.499767"/>
     <use style="stroke:#000000;" x="128.52933" xlink:href="#m7c8f6673ba" y="298.397343"/>
     <use style="stroke:#000000;" x="131.099969" xlink:href="#m7c8f6673ba" y="298.272997"/>
     <use style="stroke:#000000;" x="133.670608" xlink:href="#m7c8f6673ba" y="298.09699"/>
     <use style="stroke:#000000;" x="136.241247" xlink:href="#m7c8f6673ba" y="297.915413"/>
     <use style="stroke:#000000;" x="138.811886" xlink:href="#m7c8f6673ba" y="297.73689"/>
     <use style="stroke:#000000;" x="141.382525" xlink:href="#m7c8f6673ba" y="297.567397"/>
     <use style="stroke:#000000;" x="143.953163" xlink:href="#m7c8f6673ba" y="297.341526"/>
     <use style="stroke:#000000;" x="146.523802" xlink:href="#m7c8f6673ba" y="297.015567"/>
     <use style="stroke:#000000;" x="149.094441" xlink:href="#m7c8f6673ba" y="296.904294"/>
     <use style="stroke:#000000;" x="151.66508" xlink:href="#m7c8f6673ba" y="296.146493"/>
     <use style="stroke:#000000;" x="154.235719" xlink:href="#m7c8f6673ba" y="295.657061"/>
     <use style="stroke:#000000;" x="156.806357" xlink:href="#m7c8f6673ba" y="295.145526"/>
     <use style="stroke:#000000;" x="159.376996" xlink:href="#m7c8f6673ba" y="294.510051"/>
     <use style="stroke:#000000;" x="161.947635" xlink:href="#m7c8f6673ba" y="293.813884"/>
     <use style="stroke:#000000;" x="164.518274" xlink:href="#m7c8f6673ba" y="293.01772"/>
     <use style="stroke:#000000;" x="167.088913" xlink:href="#m7c8f6673ba" y="291.770712"/>
     <use style="stroke:#000000;" x="169.659552" xlink:href="#m7c8f6673ba" y="290.439563"/>
     <use style="stroke:#000000;" x="172.23019" xlink:href="#m7c8f6673ba" y="288.987843"/>
     <use style="stroke:#000000;" x="174.800829" xlink:href="#m7c8f6673ba" y="287.530462"/>
     <use style="stroke:#000000;" x="177.371468" xlink:href="#m7c8f6673ba" y="285.676099"/>
     <use style="stroke:#000000;" x="179.942107" xlink:href="#m7c8f6673ba" y="283.879462"/>
     <use style="stroke:#000000;" x="182.512746" xlink:href="#m7c8f6673ba" y="281.654802"/>
     <use style="stroke:#000000;" x="185.083385" xlink:href="#m7c8f6673ba" y="278.873865"/>
     <use style="stroke:#000000;" x="187.654023" xlink:href="#m7c8f6673ba" y="275.996928"/>
     <use style="stroke:#000000;" x="190.224662" xlink:href="#m7c8f6673ba" y="272.968691"/>
     <use style="stroke:#000000;" x="192.795301" xlink:href="#m7c8f6673ba" y="270.312998"/>
     <use style="stroke:#000000;" x="195.36594" xlink:href="#m7c8f6673ba" y="267.504209"/>
     <use style="stroke:#000000;" x="197.936579" xlink:href="#m7c8f6673ba" y="264.144353"/>
     <use style="stroke:#000000;" x="200.507217" xlink:href="#m7c8f6673ba" y="260.757095"/>
     <use style="stroke:#000000;" x="203.077856" xlink:href="#m7c8f6673ba" y="257.124963"/>
     <use style="stroke:#000000;" x="205.648495" xlink:href="#m7c8f6673ba" y="253.420595"/>
     <use style="stroke:#000000;" x="208.219134" xlink:href="#m7c8f6673ba" y="249.821751"/>
     <use style="stroke:#000000;" x="210.789773" xlink:href="#m7c8f6673ba" y="246.528606"/>
     <use style="stroke:#000000;" x="213.360412" xlink:href="#m7c8f6673ba" y="243.307965"/>
     <use style="stroke:#000000;" x="215.93105" xlink:href="#m7c8f6673ba" y="239.938676"/>
     <use style="stroke:#000000;" x="218.501689" xlink:href="#m7c8f6673ba" y="236.174426"/>
     <use style="stroke:#000000;" x="221.072328" xlink:href="#m7c8f6673ba" y="232.316918"/>
     <use style="stroke:#000000;" x="223.642967" xlink:href="#m7c8f6673ba" y="228.17689"/>
     <use style="stroke:#000000;" x="226.213606" xlink:href="#m7c8f6673ba" y="224.666139"/>
     <use style="stroke:#000000;" x="228.784244" xlink:href="#m7c8f6673ba" y="220.23079"/>
     <use style="stroke:#000000;" x="231.354883" xlink:href="#m7c8f6673ba" y="217.085305"/>
     <use style="stroke:#000000;" x="233.925522" xlink:href="#m7c8f6673ba" y="213.922705"/>
     <use style="stroke:#000000;" x="236.496161" xlink:href="#m7c8f6673ba" y="210.320716"/>
     <use style="stroke:#000000;" x="239.0668" xlink:href="#m7c8f6673ba" y="205.988689"/>
     <use style="stroke:#000000;" x="241.637439" xlink:href="#m7c8f6673ba" y="202.044076"/>
     <use style="stroke:#000000;" x="244.208077" xlink:href="#m7c8f6673ba" y="198.556011"/>
     <use style="stroke:#000000;" x="246.778716" xlink:href="#m7c8f6673ba" y="194.820646"/>
     <use style="stroke:#000000;" x="249.349355" xlink:href="#m7c8f6673ba" y="191.616672"/>
     <use style="stroke:#000000;" x="251.919994" xlink:href="#m7c8f6673ba" y="188.160458"/>
     <use style="stroke:#000000;" x="254.490633" xlink:href="#m7c8f6673ba" y="184.766012"/>
     <use style="stroke:#000000;" x="257.061271" xlink:href="#m7c8f6673ba" y="181.001717"/>
     <use style="stroke:#000000;" x="259.63191" xlink:href="#m7c8f6673ba" y="177.078711"/>
     <use style="stroke:#000000;" x="262.202549" xlink:href="#m7c8f6673ba" y="173.241912"/>
     <use style="stroke:#000000;" x="264.773188" xlink:href="#m7c8f6673ba" y="169.922441"/>
     <use style="stroke:#000000;" x="267.343827" xlink:href="#m7c8f6673ba" y="166.836749"/>
     <use style="stroke:#000000;" x="269.914466" xlink:href="#m7c8f6673ba" y="163.534619"/>
     <use style="stroke:#000000;" x="272.485104" xlink:href="#m7c8f6673ba" y="160.162814"/>
     <use style="stroke:#000000;" x="275.055743" xlink:href="#m7c8f6673ba" y="156.361323"/>
     <use style="stroke:#000000;" x="277.626382" xlink:href="#m7c8f6673ba" y="152.379019"/>
     <use style="stroke:#000000;" x="280.197021" xlink:href="#m7c8f6673ba" y="148.694193"/>
     <use style="stroke:#000000;" x="282.76766" xlink:href="#m7c8f6673ba" y="145.138789"/>
     <use style="stroke:#000000;" x="285.338299" xlink:href="#m7c8f6673ba" y="141.710022"/>
     <use style="stroke:#000000;" x="287.908937" xlink:href="#m7c8f6673ba" y="138.132561"/>
     <use style="stroke:#000000;" x="290.479576" xlink:href="#m7c8f6673ba" y="133.937773"/>
     <use style="stroke:#000000;" x="293.050215" xlink:href="#m7c8f6673ba" y="129.910501"/>
     <use style="stroke:#000000;" x="295.620854" xlink:href="#m7c8f6673ba" y="125.762073"/>
     <use style="stroke:#000000;" x="298.191493" xlink:href="#m7c8f6673ba" y="121.901195"/>
     <use style="stroke:#000000;" x="300.762131" xlink:href="#m7c8f6673ba" y="118.411153"/>
     <use style="stroke:#000000;" x="303.33277" xlink:href="#m7c8f6673ba" y="115.005881"/>
     <use style="stroke:#000000;" x="305.903409" xlink:href="#m7c8f6673ba" y="111.221371"/>
     <use style="stroke:#000000;" x="308.474048" xlink:href="#m7c8f6673ba" y="107.390771"/>
     <use style="stroke:#000000;" x="311.044687" xlink:href="#m7c8f6673ba" y="103.116605"/>
     <use style="stroke:#000000;" x="313.615326" xlink:href="#m7c8f6673ba" y="98.616073"/>
     <use style="stroke:#000000;" x="316.185964" xlink:href="#m7c8f6673ba" y="94.495721"/>
     <use style="stroke:#000000;" x="318.756603" xlink:href="#m7c8f6673ba" y="90.922034"/>
     <use style="stroke:#000000;" x="321.327242" xlink:href="#m7c8f6673ba" y="86.95433"/>
     <use style="stroke:#000000;" x="323.897881" xlink:href="#m7c8f6673ba" y="82.662014"/>
     <use style="stroke:#000000;" x="326.46852" xlink:href="#m7c8f6673ba" y="78.215569"/>
    </g>
   </g>
   <g id="line2d_48">
    <path clip-path="url(#p6c329f06d4)" d="M 20.5625 302.360547 
L 46.268888 302.032285 
L 64.26336 301.613139 
L 79.687193 301.042008 
L 92.540387 300.338757 
L 102.822942 299.565827 
L 113.105498 298.541065 
L 120.817414 297.560675 
L 128.52933 296.353669 
L 136.241247 294.870887 
L 141.382525 293.70083 
L 146.523802 292.362929 
L 151.66508 290.83555 
L 156.806357 289.095032 
L 161.947635 287.115748 
L 167.088913 284.870253 
L 172.23019 282.329556 
L 177.371468 279.463547 
L 182.512746 276.241604 
L 187.654023 272.633408 
L 192.795301 268.609997 
L 197.936579 264.145046 
L 203.077856 259.216388 
L 208.219134 253.807706 
L 213.360412 247.91035 
L 218.501689 241.525147 
L 223.642967 234.664073 
L 228.784244 227.351592 
L 233.925522 219.625491 
L 239.0668 211.537021 
L 246.778716 198.868079 
L 257.061271 181.392712 
L 269.914466 159.61383 
L 277.626382 147.109648 
L 282.76766 139.167789 
L 287.908937 131.611662 
L 293.050215 124.486837 
L 298.191493 117.82539 
L 303.33277 111.646351 
L 308.474048 105.95678 
L 313.615326 100.753267 
L 318.756603 96.023686 
L 323.897881 91.749022 
L 326.46852 89.774897 
L 326.46852 89.774897 
" style="fill:none;stroke:#008000;stroke-linecap:square;stroke-width:1.5;"/>
   </g>
   <g id="line2d_49">
    <path clip-path="url(#p6c329f06d4)" d="M 329.039158 86.136218 
L 334.180436 82.886049 
L 339.321714 79.994135 
L 344.462991 77.429845 
L 349.604269 75.163007 
L 354.745547 73.164527 
L 359.886824 71.406832 
L 365.028102 69.864151 
L 370.16938 68.512671 
L 375.310657 67.330605 
L 383.022574 65.832422 
L 390.73449 64.612731 
L 398.446407 63.62194 
L 401.017045 63.335154 
L 401.017045 63.335154 
" style="fill:none;stroke:#ff0000;stroke-linecap:square;stroke-width:1.5;"/>
   </g>
   <g id="patch_3">
    <path d="M 20.5625 315 
L 20.5625 43.2 
" style="fill:none;stroke:#000000;stroke-linecap:square;stroke-linejoin:miter;stroke-width:0.8;"/>
   </g>
   <g id="patch_4">
    <path d="M 401.017045 315 
L 401.017045 43.2 
" style="fill:none;stroke:#000000;stroke-linecap:square;stroke-linejoin:miter;stroke-width:0.8;"/>
   </g>
   <g id="patch_5">
    <path d="M 20.5625 315 
L 401.017045 315 
" style="fill:none;stroke:#000000;stroke-linecap:square;stroke-linejoin:miter;stroke-width:0.8;"/>
   </g>
   <g id="patch_6">
    <path d="M 20.5625 43.2 
L 401.017045 43.2 
" style="fill:none;stroke:#000000;stroke-linecap:square;stroke-linejoin:miter;stroke-width:0.8;"/>
   </g>
   <g id="text_13">
    <!-- Parametric Fitting -->
    <defs>
     <path d="M 19.671875 64.796875 
L 19.671875 37.40625 
L 32.078125 37.40625 
Q 38.96875 37.40625 42.71875 40.96875 
Q 46.484375 44.53125 46.484375 51.125 
Q 46.484375 57.671875 42.71875 61.234375 
Q 38.96875 64.796875 32.078125 64.796875 
z
M 9.8125 72.90625 
L 32.078125 72.90625 
Q 44.34375 72.90625 50.609375 67.359375 
Q 56.890625 61.8125 56.890625 51.125 
Q 56.890625 40.328125 50.609375 34.8125 
Q 44.34375 29.296875 32.078125 29.296875 
L 19.671875 29.296875 
L 19.671875 0 
L 9.8125 0 
z
" id="DejaVuSans-80"/>
     <path d="M 52 44.1875 
Q 55.375 50.25 60.0625 53.125 
Q 64.75 56 71.09375 56 
Q 79.640625 56 84.28125 50.015625 
Q 88.921875 44.046875 88.921875 33.015625 
L 88.921875 0 
L 79.890625 0 
L 79.890625 32.71875 
Q 79.890625 40.578125 77.09375 44.375 
Q 74.3125 48.1875 68.609375 48.1875 
Q 61.625 48.1875 57.5625 43.546875 
Q 53.515625 38.921875 53.515625 30.90625 
L 53.515625 0 
L 44.484375 0 
L 44.484375 32.71875 
Q 44.484375 40.625 41.703125 44.40625 
Q 38.921875 48.1875 33.109375 48.1875 
Q 26.21875 48.1875 22.15625 43.53125 
Q 18.109375 38.875 18.109375 30.90625 
L 18.109375 0 
L 9.078125 0 
L 9.078125 54.6875 
L 18.109375 54.6875 
L 18.109375 46.1875 
Q 21.1875 51.21875 25.484375 53.609375 
Q 29.78125 56 35.6875 56 
Q 41.65625 56 45.828125 52.96875 
Q 50 49.953125 52 44.1875 
z
" id="DejaVuSans-109"/>
     <path d="M 18.3125 70.21875 
L 18.3125 54.6875 
L 36.8125 54.6875 
L 36.8125 47.703125 
L 18.3125 47.703125 
L 18.3125 18.015625 
Q 18.3125 11.328125 20.140625 9.421875 
Q 21.96875 7.515625 27.59375 7.515625 
L 36.8125 7.515625 
L 36.8125 0 
L 27.59375 0 
Q 17.1875 0 13.234375 3.875 
Q 9.28125 7.765625 9.28125 18.015625 
L 9.28125 47.703125 
L 2.6875 47.703125 
L 2.6875 54.6875 
L 9.28125 54.6875 
L 9.28125 70.21875 
z
" id="DejaVuSans-116"/>
     <path d="M 9.421875 54.6875 
L 18.40625 54.6875 
L 18.40625 0 
L 9.421875 0 
z
M 9.421875 75.984375 
L 18.40625 75.984375 
L 18.40625 64.59375 
L 9.421875 64.59375 
z
" id="DejaVuSans-105"/>
     <path d="M 48.78125 52.59375 
L 48.78125 44.1875 
Q 44.96875 46.296875 41.140625 47.34375 
Q 37.3125 48.390625 33.40625 48.390625 
Q 24.65625 48.390625 19.8125 42.84375 
Q 14.984375 37.3125 14.984375 27.296875 
Q 14.984375 17.28125 19.8125 11.734375 
Q 24.65625 6.203125 33.40625 6.203125 
Q 37.3125 6.203125 41.140625 7.25 
Q 44.96875 8.296875 48.78125 10.40625 
L 48.78125 2.09375 
Q 45.015625 0.34375 40.984375 -0.53125 
Q 36.96875 -1.421875 32.421875 -1.421875 
Q 20.0625 -1.421875 12.78125 6.34375 
Q 5.515625 14.109375 5.515625 27.296875 
Q 5.515625 40.671875 12.859375 48.328125 
Q 20.21875 56 33.015625 56 
Q 37.15625 56 41.109375 55.140625 
Q 45.0625 54.296875 48.78125 52.59375 
z
" id="DejaVuSans-99"/>
     <path id="DejaVuSans-32"/>
     <path d="M 45.40625 27.984375 
Q 45.40625 37.75 41.375 43.109375 
Q 37.359375 48.484375 30.078125 48.484375 
Q 22.859375 48.484375 18.828125 43.109375 
Q 14.796875 37.75 14.796875 27.984375 
Q 14.796875 18.265625 18.828125 12.890625 
Q 22.859375 7.515625 30.078125 7.515625 
Q 37.359375 7.515625 41.375 12.890625 
Q 45.40625 18.265625 45.40625 27.984375 
z
M 54.390625 6.78125 
Q 54.390625 -7.171875 48.1875 -13.984375 
Q 42 -20.796875 29.203125 -20.796875 
Q 24.46875 -20.796875 20.265625 -20.09375 
Q 16.0625 -19.390625 12.109375 -17.921875 
L 12.109375 -9.1875 
Q 16.0625 -11.328125 19.921875 -12.34375 
Q 23.78125 -13.375 27.78125 -13.375 
Q 36.625 -13.375 41.015625 -8.765625 
Q 45.40625 -4.15625 45.40625 5.171875 
L 45.40625 9.625 
Q 42.625 4.78125 38.28125 2.390625 
Q 33.9375 0 27.875 0 
Q 17.828125 0 11.671875 7.65625 
Q 5.515625 15.328125 5.515625 27.984375 
Q 5.515625 40.671875 11.671875 48.328125 
Q 17.828125 56 27.875 56 
Q 33.9375 56 38.28125 53.609375 
Q 42.625 51.21875 45.40625 46.390625 
L 45.40625 54.6875 
L 54.390625 54.6875 
z
" id="DejaVuSans-103"/>
    </defs>
    <g transform="translate(157.72821 37.2)scale(0.12 -0.12)">
     <use xlink:href="#DejaVuSans-80"/>
     <use x="55.802734" xlink:href="#DejaVuSans-97"/>
     <use x="117.082031" xlink:href="#DejaVuSans-114"/>
     <use x="158.195312" xlink:href="#DejaVuSans-97"/>
     <use x="219.474609" xlink:href="#DejaVuSans-109"/>
     <use x="316.886719" xlink:href="#DejaVuSans-101"/>
     <use x="378.410156" xlink:href="#DejaVuSans-116"/>
     <use x="417.619141" xlink:href="#DejaVuSans-114"/>
     <use x="458.732422" xlink:href="#DejaVuSans-105"/>
     <use x="486.515625" xlink:href="#DejaVuSans-99"/>
     <use x="541.496094" xlink:href="#DejaVuSans-32"/>
     <use x="573.283203" xlink:href="#DejaVuSans-70"/>
     <use x="623.552734" xlink:href="#DejaVuSans-105"/>
     <use x="651.335938" xlink:href="#DejaVuSans-116"/>
     <use x="690.544922" xlink:href="#DejaVuSans-116"/>
     <use x="729.753906" xlink:href="#DejaVuSans-105"/>
     <use x="757.537109" xlink:href="#DejaVuSans-110"/>
     <use x="820.916016" xlink:href="#DejaVuSans-103"/>
    </g>
   </g>
   <g id="legend_1">
    <g id="patch_7">
     <path d="M 27.5625 80.55625 
L 99.996875 80.55625 
Q 101.996875 80.55625 101.996875 78.55625 
L 101.996875 50.2 
Q 101.996875 48.2 99.996875 48.2 
L 27.5625 48.2 
Q 25.5625 48.2 25.5625 50.2 
L 25.5625 78.55625 
Q 25.5625 80.55625 27.5625 80.55625 
z
" style="fill:#ffffff;opacity:0.8;stroke:#cccccc;stroke-linejoin:miter;"/>
    </g>
    <g id="line2d_50"/>
    <g id="line2d_51">
     <g>
      <use style="stroke:#000000;" x="39.5625" xlink:href="#m7c8f6673ba" y="56.298437"/>
     </g>
    </g>
    <g id="text_14">
     <!-- model -->
     <defs>
      <path d="M 30.609375 48.390625 
Q 23.390625 48.390625 19.1875 42.75 
Q 14.984375 37.109375 14.984375 27.296875 
Q 14.984375 17.484375 19.15625 11.84375 
Q 23.34375 6.203125 30.609375 6.203125 
Q 37.796875 6.203125 41.984375 11.859375 
Q 46.1875 17.53125 46.1875 27.296875 
Q 46.1875 37.015625 41.984375 42.703125 
Q 37.796875 48.390625 30.609375 48.390625 
z
M 30.609375 56 
Q 42.328125 56 49.015625 48.375 
Q 55.71875 40.765625 55.71875 27.296875 
Q 55.71875 13.875 49.015625 6.21875 
Q 42.328125 -1.421875 30.609375 -1.421875 
Q 18.84375 -1.421875 12.171875 6.21875 
Q 5.515625 13.875 5.515625 27.296875 
Q 5.515625 40.765625 12.171875 48.375 
Q 18.84375 56 30.609375 56 
z
" id="DejaVuSans-111"/>
      <path d="M 45.40625 46.390625 
L 45.40625 75.984375 
L 54.390625 75.984375 
L 54.390625 0 
L 45.40625 0 
L 45.40625 8.203125 
Q 42.578125 3.328125 38.25 0.953125 
Q 33.9375 -1.421875 27.875 -1.421875 
Q 17.96875 -1.421875 11.734375 6.484375 
Q 5.515625 14.40625 5.515625 27.296875 
Q 5.515625 40.1875 11.734375 48.09375 
Q 17.96875 56 27.875 56 
Q 33.9375 56 38.25 53.625 
Q 42.578125 51.265625 45.40625 46.390625 
z
M 14.796875 27.296875 
Q 14.796875 17.390625 18.875 11.75 
Q 22.953125 6.109375 30.078125 6.109375 
Q 37.203125 6.109375 41.296875 11.75 
Q 45.40625 17.390625 45.40625 27.296875 
Q 45.40625 37.203125 41.296875 42.84375 
Q 37.203125 48.484375 30.078125 48.484375 
Q 22.953125 48.484375 18.875 42.84375 
Q 14.796875 37.203125 14.796875 27.296875 
z
" id="DejaVuSans-100"/>
      <path d="M 9.421875 75.984375 
L 18.40625 75.984375 
L 18.40625 0 
L 9.421875 0 
z
" id="DejaVuSans-108"/>
     </defs>
     <g transform="translate(57.5625 59.798437)scale(0.1 -0.1)">
      <use xlink:href="#DejaVuSans-109"/>
      <use x="97.412109" xlink:href="#DejaVuSans-111"/>
      <use x="158.59375" xlink:href="#DejaVuSans-100"/>
      <use x="222.070312" xlink:href="#DejaVuSans-101"/>
      <use x="283.59375" xlink:href="#DejaVuSans-108"/>
     </g>
    </g>
    <g id="line2d_52">
     <path d="M 29.5625 70.976562 
L 49.5625 70.976562 
" style="fill:none;stroke:#008000;stroke-linecap:square;stroke-width:1.5;"/>
    </g>
    <g id="line2d_53"/>
    <g id="text_15">
     <!-- forecast -->
     <defs>
      <path d="M 37.109375 75.984375 
L 37.109375 68.5 
L 28.515625 68.5 
Q 23.6875 68.5 21.796875 66.546875 
Q 19.921875 64.59375 19.921875 59.515625 
L 19.921875 54.6875 
L 34.71875 54.6875 
L 34.71875 47.703125 
L 19.921875 47.703125 
L 19.921875 0 
L 10.890625 0 
L 10.890625 47.703125 
L 2.296875 47.703125 
L 2.296875 54.6875 
L 10.890625 54.6875 
L 10.890625 58.5 
Q 10.890625 67.625 15.140625 71.796875 
Q 19.390625 75.984375 28.609375 75.984375 
z
" id="DejaVuSans-102"/>
      <path d="M 44.28125 53.078125 
L 44.28125 44.578125 
Q 40.484375 46.53125 36.375 47.5 
Q 32.28125 48.484375 27.875 48.484375 
Q 21.1875 48.484375 17.84375 46.4375 
Q 14.5 44.390625 14.5 40.28125 
Q 14.5 37.15625 16.890625 35.375 
Q 19.28125 33.59375 26.515625 31.984375 
L 29.59375 31.296875 
Q 39.15625 29.25 43.1875 25.515625 
Q 47.21875 21.78125 47.21875 15.09375 
Q 47.21875 7.46875 41.1875 3.015625 
Q 35.15625 -1.421875 24.609375 -1.421875 
Q 20.21875 -1.421875 15.453125 -0.5625 
Q 10.6875 0.296875 5.421875 2 
L 5.421875 11.28125 
Q 10.40625 8.6875 15.234375 7.390625 
Q 20.0625 6.109375 24.8125 6.109375 
Q 31.15625 6.109375 34.5625 8.28125 
Q 37.984375 10.453125 37.984375 14.40625 
Q 37.984375 18.0625 35.515625 20.015625 
Q 33.0625 21.96875 24.703125 23.78125 
L 21.578125 24.515625 
Q 13.234375 26.265625 9.515625 29.90625 
Q 5.8125 33.546875 5.8125 39.890625 
Q 5.8125 47.609375 11.28125 51.796875 
Q 16.75 56 26.8125 56 
Q 31.78125 56 36.171875 55.265625 
Q 40.578125 54.546875 44.28125 53.078125 
z
" id="DejaVuSans-115"/>
     </defs>
     <g transform="translate(57.5625 74.476562)scale(0.1 -0.1)">
      <use xlink:href="#DejaVuSans-102"/>
      <use x="35.205078" xlink:href="#DejaVuSans-111"/>
      <use x="96.386719" xlink:href="#DejaVuSans-114"/>
      <use x="135.25" xlink:href="#DejaVuSans-101"/>
      <use x="196.773438" xlink:href="#DejaVuSans-99"/>
      <use x="251.753906" xlink:href="#DejaVuSans-97"/>
      <use x="313.033203" xlink:href="#DejaVuSans-115"/>
      <use x="365.132812" xlink:href="#DejaVuSans-116"/>
     </g>
    </g>
   </g>
  </g>
  <g id="axes_2">
   <g id="patch_8">
    <path d="M 477.107955 315 
L 857.5625 315 
L 857.5625 43.2 
L 477.107955 43.2 
z
" style="fill:#ffffff;"/>
   </g>
   <g id="PolyCollection_2">
    <defs>
     <path d="M 673.894788 -275.067348 
L 673.894788 -246.505886 
L 680.45435 -249.57431 
L 687.013911 -252.471331 
L 693.573472 -255.203955 
L 700.133033 -257.779226 
L 706.692594 -260.204178 
L 713.252155 -262.48579 
L 719.811716 -264.630947 
L 726.371277 -266.646405 
L 732.930839 -268.53877 
L 739.4904 -270.314467 
L 746.049961 -271.979731 
L 752.609522 -273.540586 
L 759.169083 -275.002837 
L 765.728644 -276.372063 
L 772.288205 -277.653614 
L 778.847766 -278.852604 
L 785.407328 -279.973916 
L 791.966889 -281.0222 
L 798.52645 -282.001881 
L 805.086011 -282.917155 
L 811.645572 -283.772004 
L 818.205133 -284.570196 
L 824.764694 -285.315291 
L 831.324255 -286.010655 
L 837.883817 -286.659461 
L 844.443378 -287.264697 
L 851.002939 -287.829179 
L 857.5625 -288.355555 
L 857.5625 -316.917017 
L 857.5625 -316.917017 
L 851.002939 -316.390641 
L 844.443378 -315.826159 
L 837.883817 -315.220923 
L 831.324255 -314.572117 
L 824.764694 -313.876753 
L 818.205133 -313.131658 
L 811.645572 -312.333466 
L 805.086011 -311.478617 
L 798.52645 -310.563343 
L 791.966889 -309.583662 
L 785.407328 -308.535378 
L 778.847766 -307.414066 
L 772.288205 -306.215076 
L 765.728644 -304.933525 
L 759.169083 -303.564299 
L 752.609522 -302.102048 
L 746.049961 -300.541193 
L 739.4904 -298.875929 
L 732.930839 -297.100232 
L 726.371277 -295.207867 
L 719.811716 -293.192409 
L 713.252155 -291.047252 
L 706.692594 -288.76564 
L 700.133033 -286.340688 
L 693.573472 -283.765417 
L 687.013911 -281.032793 
L 680.45435 -278.135772 
L 673.894788 -275.067348 
z
" id="m21e31422df" style="stroke:#0000ff;stroke-opacity:0.3;"/>
    </defs>
    <g clip-path="url(#p0babe71149)">
     <use style="fill:#0000ff;fill-opacity:0.3;stroke:#0000ff;stroke-opacity:0.3;" x="0" xlink:href="#m21e31422df" y="372.471562"/>
    </g>
   </g>
   <g id="matplotlib.axis_3">
    <g id="xtick_28">
     <g id="line2d_54">
      <path clip-path="url(#p0babe71149)" d="M 477.107955 315 
L 477.107955 43.2 
" style="fill:none;stroke:#b0b0b0;stroke-linecap:square;stroke-width:0.8;"/>
     </g>
     <g id="line2d_55">
      <g>
       <use style="stroke:#000000;stroke-width:0.8;" x="477.107955" xlink:href="#m78db2072a2" y="315"/>
      </g>
     </g>
    </g>
    <g id="xtick_29">
     <g id="line2d_56">
      <path clip-path="url(#p0babe71149)" d="M 542.703566 315 
L 542.703566 43.2 
" style="fill:none;stroke:#b0b0b0;stroke-linecap:square;stroke-width:0.8;"/>
     </g>
     <g id="line2d_57">
      <g>
       <use style="stroke:#000000;stroke-width:0.8;" x="542.703566" xlink:href="#m78db2072a2" y="315"/>
      </g>
     </g>
     <g id="text_16">
      <!--  -->
      <g transform="translate(542.703566 329.598437)scale(0.1 -0.1)"/>
      <!--  -->
      <g transform="translate(542.703566 340.79625)scale(0.1 -0.1)"/>
      <!-- May -->
      <g transform="translate(532.366066 351.994062)scale(0.1 -0.1)">
       <use xlink:href="#DejaVuSans-77"/>
       <use x="86.279297" xlink:href="#DejaVuSans-97"/>
       <use x="147.558594" xlink:href="#DejaVuSans-121"/>
      </g>
      <!-- 2020 -->
      <g transform="translate(529.978566 363.191875)scale(0.1 -0.1)">
       <use xlink:href="#DejaVuSans-50"/>
       <use x="63.623047" xlink:href="#DejaVuSans-48"/>
       <use x="127.246094" xlink:href="#DejaVuSans-50"/>
       <use x="190.869141" xlink:href="#DejaVuSans-48"/>
      </g>
     </g>
    </g>
    <g id="xtick_30">
     <g id="line2d_58">
      <path clip-path="url(#p0babe71149)" d="M 746.049961 315 
L 746.049961 43.2 
" style="fill:none;stroke:#b0b0b0;stroke-linecap:square;stroke-width:0.8;"/>
     </g>
     <g id="line2d_59">
      <g>
       <use style="stroke:#000000;stroke-width:0.8;" x="746.049961" xlink:href="#m78db2072a2" y="315"/>
      </g>
     </g>
     <g id="text_17">
      <!--  -->
      <g transform="translate(746.049961 329.598437)scale(0.1 -0.1)"/>
      <!--  -->
      <g transform="translate(746.049961 340.79625)scale(0.1 -0.1)"/>
      <!-- Jun -->
      <g transform="translate(738.237461 351.994062)scale(0.1 -0.1)">
       <use xlink:href="#DejaVuSans-74"/>
       <use x="29.492188" xlink:href="#DejaVuSans-117"/>
       <use x="92.871094" xlink:href="#DejaVuSans-110"/>
      </g>
     </g>
    </g>
    <g id="xtick_31">
     <g id="line2d_60">
      <path clip-path="url(#p0babe71149)" d="M 857.5625 315 
L 857.5625 43.2 
" style="fill:none;stroke:#b0b0b0;stroke-linecap:square;stroke-width:0.8;"/>
     </g>
     <g id="line2d_61">
      <g>
       <use style="stroke:#000000;stroke-width:0.8;" x="857.5625" xlink:href="#m78db2072a2" y="315"/>
      </g>
     </g>
    </g>
    <g id="xtick_32">
     <g id="line2d_62">
      <g>
       <use style="stroke:#000000;stroke-width:0.6;" x="483.667516" xlink:href="#m40230c72a3" y="315"/>
      </g>
     </g>
    </g>
    <g id="xtick_33">
     <g id="line2d_63">
      <g>
       <use style="stroke:#000000;stroke-width:0.6;" x="490.227077" xlink:href="#m40230c72a3" y="315"/>
      </g>
     </g>
    </g>
    <g id="xtick_34">
     <g id="line2d_64">
      <g>
       <use style="stroke:#000000;stroke-width:0.6;" x="496.786638" xlink:href="#m40230c72a3" y="315"/>
      </g>
     </g>
    </g>
    <g id="xtick_35">
     <g id="line2d_65">
      <g>
       <use style="stroke:#000000;stroke-width:0.6;" x="503.346199" xlink:href="#m40230c72a3" y="315"/>
      </g>
     </g>
    </g>
    <g id="xtick_36">
     <g id="line2d_66">
      <g>
       <use style="stroke:#000000;stroke-width:0.6;" x="509.90576" xlink:href="#m40230c72a3" y="315"/>
      </g>
     </g>
    </g>
    <g id="xtick_37">
     <g id="line2d_67">
      <g>
       <use style="stroke:#000000;stroke-width:0.6;" x="516.465321" xlink:href="#m40230c72a3" y="315"/>
      </g>
     </g>
     <g id="text_18">
      <!-- 27 -->
      <defs>
       <path d="M 8.203125 72.90625 
L 55.078125 72.90625 
L 55.078125 68.703125 
L 28.609375 0 
L 18.3125 0 
L 43.21875 64.59375 
L 8.203125 64.59375 
z
" id="DejaVuSans-55"/>
      </defs>
      <g transform="translate(510.102821 327.998437)scale(0.1 -0.1)">
       <use xlink:href="#DejaVuSans-50"/>
       <use x="63.623047" xlink:href="#DejaVuSans-55"/>
      </g>
     </g>
    </g>
    <g id="xtick_38">
     <g id="line2d_68">
      <g>
       <use style="stroke:#000000;stroke-width:0.6;" x="523.024882" xlink:href="#m40230c72a3" y="315"/>
      </g>
     </g>
    </g>
    <g id="xtick_39">
     <g id="line2d_69">
      <g>
       <use style="stroke:#000000;stroke-width:0.6;" x="529.584444" xlink:href="#m40230c72a3" y="315"/>
      </g>
     </g>
    </g>
    <g id="xtick_40">
     <g id="line2d_70">
      <g>
       <use style="stroke:#000000;stroke-width:0.6;" x="536.144005" xlink:href="#m40230c72a3" y="315"/>
      </g>
     </g>
    </g>
    <g id="xtick_41">
     <g id="line2d_71">
      <g>
       <use style="stroke:#000000;stroke-width:0.6;" x="549.263127" xlink:href="#m40230c72a3" y="315"/>
      </g>
     </g>
    </g>
    <g id="xtick_42">
     <g id="line2d_72">
      <g>
       <use style="stroke:#000000;stroke-width:0.6;" x="555.822688" xlink:href="#m40230c72a3" y="315"/>
      </g>
     </g>
    </g>
    <g id="xtick_43">
     <g id="line2d_73">
      <g>
       <use style="stroke:#000000;stroke-width:0.6;" x="562.382249" xlink:href="#m40230c72a3" y="315"/>
      </g>
     </g>
     <g id="text_19">
      <!-- 04 -->
      <g transform="translate(556.019749 327.998437)scale(0.1 -0.1)">
       <use xlink:href="#DejaVuSans-48"/>
       <use x="63.623047" xlink:href="#DejaVuSans-52"/>
      </g>
     </g>
    </g>
    <g id="xtick_44">
     <g id="line2d_74">
      <g>
       <use style="stroke:#000000;stroke-width:0.6;" x="568.94181" xlink:href="#m40230c72a3" y="315"/>
      </g>
     </g>
    </g>
    <g id="xtick_45">
     <g id="line2d_75">
      <g>
       <use style="stroke:#000000;stroke-width:0.6;" x="575.501371" xlink:href="#m40230c72a3" y="315"/>
      </g>
     </g>
    </g>
    <g id="xtick_46">
     <g id="line2d_76">
      <g>
       <use style="stroke:#000000;stroke-width:0.6;" x="582.060933" xlink:href="#m40230c72a3" y="315"/>
      </g>
     </g>
    </g>
    <g id="xtick_47">
     <g id="line2d_77">
      <g>
       <use style="stroke:#000000;stroke-width:0.6;" x="588.620494" xlink:href="#m40230c72a3" y="315"/>
      </g>
     </g>
    </g>
    <g id="xtick_48">
     <g id="line2d_78">
      <g>
       <use style="stroke:#000000;stroke-width:0.6;" x="595.180055" xlink:href="#m40230c72a3" y="315"/>
      </g>
     </g>
    </g>
    <g id="xtick_49">
     <g id="line2d_79">
      <g>
       <use style="stroke:#000000;stroke-width:0.6;" x="601.739616" xlink:href="#m40230c72a3" y="315"/>
      </g>
     </g>
    </g>
    <g id="xtick_50">
     <g id="line2d_80">
      <g>
       <use style="stroke:#000000;stroke-width:0.6;" x="608.299177" xlink:href="#m40230c72a3" y="315"/>
      </g>
     </g>
     <g id="text_20">
      <!-- 11 -->
      <g transform="translate(601.936677 327.998437)scale(0.1 -0.1)">
       <use xlink:href="#DejaVuSans-49"/>
       <use x="63.623047" xlink:href="#DejaVuSans-49"/>
      </g>
     </g>
    </g>
    <g id="xtick_51">
     <g id="line2d_81">
      <g>
       <use style="stroke:#000000;stroke-width:0.6;" x="614.858738" xlink:href="#m40230c72a3" y="315"/>
      </g>
     </g>
    </g>
    <g id="xtick_52">
     <g id="line2d_82">
      <g>
       <use style="stroke:#000000;stroke-width:0.6;" x="621.418299" xlink:href="#m40230c72a3" y="315"/>
      </g>
     </g>
    </g>
    <g id="xtick_53">
     <g id="line2d_83">
      <g>
       <use style="stroke:#000000;stroke-width:0.6;" x="627.977861" xlink:href="#m40230c72a3" y="315"/>
      </g>
     </g>
    </g>
    <g id="xtick_54">
     <g id="line2d_84">
      <g>
       <use style="stroke:#000000;stroke-width:0.6;" x="634.537422" xlink:href="#m40230c72a3" y="315"/>
      </g>
     </g>
    </g>
    <g id="xtick_55">
     <g id="line2d_85">
      <g>
       <use style="stroke:#000000;stroke-width:0.6;" x="641.096983" xlink:href="#m40230c72a3" y="315"/>
      </g>
     </g>
    </g>
    <g id="xtick_56">
     <g id="line2d_86">
      <g>
       <use style="stroke:#000000;stroke-width:0.6;" x="647.656544" xlink:href="#m40230c72a3" y="315"/>
      </g>
     </g>
    </g>
    <g id="xtick_57">
     <g id="line2d_87">
      <g>
       <use style="stroke:#000000;stroke-width:0.6;" x="654.216105" xlink:href="#m40230c72a3" y="315"/>
      </g>
     </g>
     <g id="text_21">
      <!-- 18 -->
      <defs>
       <path d="M 31.78125 34.625 
Q 24.75 34.625 20.71875 30.859375 
Q 16.703125 27.09375 16.703125 20.515625 
Q 16.703125 13.921875 20.71875 10.15625 
Q 24.75 6.390625 31.78125 6.390625 
Q 38.8125 6.390625 42.859375 10.171875 
Q 46.921875 13.96875 46.921875 20.515625 
Q 46.921875 27.09375 42.890625 30.859375 
Q 38.875 34.625 31.78125 34.625 
z
M 21.921875 38.8125 
Q 15.578125 40.375 12.03125 44.71875 
Q 8.5 49.078125 8.5 55.328125 
Q 8.5 64.0625 14.71875 69.140625 
Q 20.953125 74.21875 31.78125 74.21875 
Q 42.671875 74.21875 48.875 69.140625 
Q 55.078125 64.0625 55.078125 55.328125 
Q 55.078125 49.078125 51.53125 44.71875 
Q 48 40.375 41.703125 38.8125 
Q 48.828125 37.15625 52.796875 32.3125 
Q 56.78125 27.484375 56.78125 20.515625 
Q 56.78125 9.90625 50.3125 4.234375 
Q 43.84375 -1.421875 31.78125 -1.421875 
Q 19.734375 -1.421875 13.25 4.234375 
Q 6.78125 9.90625 6.78125 20.515625 
Q 6.78125 27.484375 10.78125 32.3125 
Q 14.796875 37.15625 21.921875 38.8125 
z
M 18.3125 54.390625 
Q 18.3125 48.734375 21.84375 45.5625 
Q 25.390625 42.390625 31.78125 42.390625 
Q 38.140625 42.390625 41.71875 45.5625 
Q 45.3125 48.734375 45.3125 54.390625 
Q 45.3125 60.0625 41.71875 63.234375 
Q 38.140625 66.40625 31.78125 66.40625 
Q 25.390625 66.40625 21.84375 63.234375 
Q 18.3125 60.0625 18.3125 54.390625 
z
" id="DejaVuSans-56"/>
      </defs>
      <g transform="translate(647.853605 327.998437)scale(0.1 -0.1)">
       <use xlink:href="#DejaVuSans-49"/>
       <use x="63.623047" xlink:href="#DejaVuSans-56"/>
      </g>
     </g>
    </g>
    <g id="xtick_58">
     <g id="line2d_88">
      <g>
       <use style="stroke:#000000;stroke-width:0.6;" x="660.775666" xlink:href="#m40230c72a3" y="315"/>
      </g>
     </g>
    </g>
    <g id="xtick_59">
     <g id="line2d_89">
      <g>
       <use style="stroke:#000000;stroke-width:0.6;" x="667.335227" xlink:href="#m40230c72a3" y="315"/>
      </g>
     </g>
    </g>
    <g id="xtick_60">
     <g id="line2d_90">
      <g>
       <use style="stroke:#000000;stroke-width:0.6;" x="673.894788" xlink:href="#m40230c72a3" y="315"/>
      </g>
     </g>
    </g>
    <g id="xtick_61">
     <g id="line2d_91">
      <g>
       <use style="stroke:#000000;stroke-width:0.6;" x="680.45435" xlink:href="#m40230c72a3" y="315"/>
      </g>
     </g>
    </g>
    <g id="xtick_62">
     <g id="line2d_92">
      <g>
       <use style="stroke:#000000;stroke-width:0.6;" x="687.013911" xlink:href="#m40230c72a3" y="315"/>
      </g>
     </g>
    </g>
    <g id="xtick_63">
     <g id="line2d_93">
      <g>
       <use style="stroke:#000000;stroke-width:0.6;" x="693.573472" xlink:href="#m40230c72a3" y="315"/>
      </g>
     </g>
    </g>
    <g id="xtick_64">
     <g id="line2d_94">
      <g>
       <use style="stroke:#000000;stroke-width:0.6;" x="700.133033" xlink:href="#m40230c72a3" y="315"/>
      </g>
     </g>
     <g id="text_22">
      <!-- 25 -->
      <g transform="translate(693.770533 327.998437)scale(0.1 -0.1)">
       <use xlink:href="#DejaVuSans-50"/>
       <use x="63.623047" xlink:href="#DejaVuSans-53"/>
      </g>
     </g>
    </g>
    <g id="xtick_65">
     <g id="line2d_95">
      <g>
       <use style="stroke:#000000;stroke-width:0.6;" x="706.692594" xlink:href="#m40230c72a3" y="315"/>
      </g>
     </g>
    </g>
    <g id="xtick_66">
     <g id="line2d_96">
      <g>
       <use style="stroke:#000000;stroke-width:0.6;" x="713.252155" xlink:href="#m40230c72a3" y="315"/>
      </g>
     </g>
    </g>
    <g id="xtick_67">
     <g id="line2d_97">
      <g>
       <use style="stroke:#000000;stroke-width:0.6;" x="719.811716" xlink:href="#m40230c72a3" y="315"/>
      </g>
     </g>
    </g>
    <g id="xtick_68">
     <g id="line2d_98">
      <g>
       <use style="stroke:#000000;stroke-width:0.6;" x="726.371277" xlink:href="#m40230c72a3" y="315"/>
      </g>
     </g>
    </g>
    <g id="xtick_69">
     <g id="line2d_99">
      <g>
       <use style="stroke:#000000;stroke-width:0.6;" x="732.930839" xlink:href="#m40230c72a3" y="315"/>
      </g>
     </g>
    </g>
    <g id="xtick_70">
     <g id="line2d_100">
      <g>
       <use style="stroke:#000000;stroke-width:0.6;" x="739.4904" xlink:href="#m40230c72a3" y="315"/>
      </g>
     </g>
    </g>
    <g id="xtick_71">
     <g id="line2d_101">
      <g>
       <use style="stroke:#000000;stroke-width:0.6;" x="752.609522" xlink:href="#m40230c72a3" y="315"/>
      </g>
     </g>
    </g>
    <g id="xtick_72">
     <g id="line2d_102">
      <g>
       <use style="stroke:#000000;stroke-width:0.6;" x="759.169083" xlink:href="#m40230c72a3" y="315"/>
      </g>
     </g>
    </g>
    <g id="xtick_73">
     <g id="line2d_103">
      <g>
       <use style="stroke:#000000;stroke-width:0.6;" x="765.728644" xlink:href="#m40230c72a3" y="315"/>
      </g>
     </g>
    </g>
    <g id="xtick_74">
     <g id="line2d_104">
      <g>
       <use style="stroke:#000000;stroke-width:0.6;" x="772.288205" xlink:href="#m40230c72a3" y="315"/>
      </g>
     </g>
    </g>
    <g id="xtick_75">
     <g id="line2d_105">
      <g>
       <use style="stroke:#000000;stroke-width:0.6;" x="778.847766" xlink:href="#m40230c72a3" y="315"/>
      </g>
     </g>
    </g>
    <g id="xtick_76">
     <g id="line2d_106">
      <g>
       <use style="stroke:#000000;stroke-width:0.6;" x="785.407328" xlink:href="#m40230c72a3" y="315"/>
      </g>
     </g>
    </g>
    <g id="xtick_77">
     <g id="line2d_107">
      <g>
       <use style="stroke:#000000;stroke-width:0.6;" x="791.966889" xlink:href="#m40230c72a3" y="315"/>
      </g>
     </g>
     <g id="text_23">
      <!-- 08 -->
      <g transform="translate(785.604389 327.998437)scale(0.1 -0.1)">
       <use xlink:href="#DejaVuSans-48"/>
       <use x="63.623047" xlink:href="#DejaVuSans-56"/>
      </g>
     </g>
    </g>
    <g id="xtick_78">
     <g id="line2d_108">
      <g>
       <use style="stroke:#000000;stroke-width:0.6;" x="798.52645" xlink:href="#m40230c72a3" y="315"/>
      </g>
     </g>
    </g>
    <g id="xtick_79">
     <g id="line2d_109">
      <g>
       <use style="stroke:#000000;stroke-width:0.6;" x="805.086011" xlink:href="#m40230c72a3" y="315"/>
      </g>
     </g>
    </g>
    <g id="xtick_80">
     <g id="line2d_110">
      <g>
       <use style="stroke:#000000;stroke-width:0.6;" x="811.645572" xlink:href="#m40230c72a3" y="315"/>
      </g>
     </g>
    </g>
    <g id="xtick_81">
     <g id="line2d_111">
      <g>
       <use style="stroke:#000000;stroke-width:0.6;" x="818.205133" xlink:href="#m40230c72a3" y="315"/>
      </g>
     </g>
    </g>
    <g id="xtick_82">
     <g id="line2d_112">
      <g>
       <use style="stroke:#000000;stroke-width:0.6;" x="824.764694" xlink:href="#m40230c72a3" y="315"/>
      </g>
     </g>
    </g>
    <g id="xtick_83">
     <g id="line2d_113">
      <g>
       <use style="stroke:#000000;stroke-width:0.6;" x="831.324255" xlink:href="#m40230c72a3" y="315"/>
      </g>
     </g>
    </g>
    <g id="xtick_84">
     <g id="line2d_114">
      <g>
       <use style="stroke:#000000;stroke-width:0.6;" x="837.883817" xlink:href="#m40230c72a3" y="315"/>
      </g>
     </g>
     <g id="text_24">
      <!-- 15 -->
      <g transform="translate(831.521317 327.998437)scale(0.1 -0.1)">
       <use xlink:href="#DejaVuSans-49"/>
       <use x="63.623047" xlink:href="#DejaVuSans-53"/>
      </g>
     </g>
    </g>
    <g id="xtick_85">
     <g id="line2d_115">
      <g>
       <use style="stroke:#000000;stroke-width:0.6;" x="844.443378" xlink:href="#m40230c72a3" y="315"/>
      </g>
     </g>
    </g>
    <g id="xtick_86">
     <g id="line2d_116">
      <g>
       <use style="stroke:#000000;stroke-width:0.6;" x="851.002939" xlink:href="#m40230c72a3" y="315"/>
      </g>
     </g>
    </g>
   </g>
   <g id="matplotlib.axis_4">
    <g id="ytick_7">
     <g id="line2d_117">
      <path clip-path="url(#p0babe71149)" d="M 477.107955 302.986845 
L 857.5625 302.986845 
" style="fill:none;stroke:#b0b0b0;stroke-linecap:square;stroke-width:0.8;"/>
     </g>
     <g id="line2d_118">
      <g>
       <use style="stroke:#000000;stroke-width:0.8;" x="477.107955" xlink:href="#md3670deb9a" y="302.986845"/>
      </g>
     </g>
     <g id="text_25">
      <!-- 2.5 -->
      <defs>
       <path d="M 10.6875 12.40625 
L 21 12.40625 
L 21 0 
L 10.6875 0 
z
" id="DejaVuSans-46"/>
      </defs>
      <g transform="translate(454.20483 306.786064)scale(0.1 -0.1)">
       <use xlink:href="#DejaVuSans-50"/>
       <use x="63.623047" xlink:href="#DejaVuSans-46"/>
       <use x="95.410156" xlink:href="#DejaVuSans-53"/>
      </g>
     </g>
    </g>
    <g id="ytick_8">
     <g id="line2d_119">
      <path clip-path="url(#p0babe71149)" d="M 477.107955 261.760734 
L 857.5625 261.760734 
" style="fill:none;stroke:#b0b0b0;stroke-linecap:square;stroke-width:0.8;"/>
     </g>
     <g id="line2d_120">
      <g>
       <use style="stroke:#000000;stroke-width:0.8;" x="477.107955" xlink:href="#md3670deb9a" y="261.760734"/>
      </g>
     </g>
     <g id="text_26">
      <!-- 3.0 -->
      <g transform="translate(454.20483 265.559953)scale(0.1 -0.1)">
       <use xlink:href="#DejaVuSans-51"/>
       <use x="63.623047" xlink:href="#DejaVuSans-46"/>
       <use x="95.410156" xlink:href="#DejaVuSans-48"/>
      </g>
     </g>
    </g>
    <g id="ytick_9">
     <g id="line2d_121">
      <path clip-path="url(#p0babe71149)" d="M 477.107955 220.534623 
L 857.5625 220.534623 
" style="fill:none;stroke:#b0b0b0;stroke-linecap:square;stroke-width:0.8;"/>
     </g>
     <g id="line2d_122">
      <g>
       <use style="stroke:#000000;stroke-width:0.8;" x="477.107955" xlink:href="#md3670deb9a" y="220.534623"/>
      </g>
     </g>
     <g id="text_27">
      <!-- 3.5 -->
      <g transform="translate(454.20483 224.333841)scale(0.1 -0.1)">
       <use xlink:href="#DejaVuSans-51"/>
       <use x="63.623047" xlink:href="#DejaVuSans-46"/>
       <use x="95.410156" xlink:href="#DejaVuSans-53"/>
      </g>
     </g>
    </g>
    <g id="ytick_10">
     <g id="line2d_123">
      <path clip-path="url(#p0babe71149)" d="M 477.107955 179.308511 
L 857.5625 179.308511 
" style="fill:none;stroke:#b0b0b0;stroke-linecap:square;stroke-width:0.8;"/>
     </g>
     <g id="line2d_124">
      <g>
       <use style="stroke:#000000;stroke-width:0.8;" x="477.107955" xlink:href="#md3670deb9a" y="179.308511"/>
      </g>
     </g>
     <g id="text_28">
      <!-- 4.0 -->
      <g transform="translate(454.20483 183.10773)scale(0.1 -0.1)">
       <use xlink:href="#DejaVuSans-52"/>
       <use x="63.623047" xlink:href="#DejaVuSans-46"/>
       <use x="95.410156" xlink:href="#DejaVuSans-48"/>
      </g>
     </g>
    </g>
    <g id="ytick_11">
     <g id="line2d_125">
      <path clip-path="url(#p0babe71149)" d="M 477.107955 138.0824 
L 857.5625 138.0824 
" style="fill:none;stroke:#b0b0b0;stroke-linecap:square;stroke-width:0.8;"/>
     </g>
     <g id="line2d_126">
      <g>
       <use style="stroke:#000000;stroke-width:0.8;" x="477.107955" xlink:href="#md3670deb9a" y="138.0824"/>
      </g>
     </g>
     <g id="text_29">
      <!-- 4.5 -->
      <g transform="translate(454.20483 141.881618)scale(0.1 -0.1)">
       <use xlink:href="#DejaVuSans-52"/>
       <use x="63.623047" xlink:href="#DejaVuSans-46"/>
       <use x="95.410156" xlink:href="#DejaVuSans-53"/>
      </g>
     </g>
    </g>
    <g id="ytick_12">
     <g id="line2d_127">
      <path clip-path="url(#p0babe71149)" d="M 477.107955 96.856288 
L 857.5625 96.856288 
" style="fill:none;stroke:#b0b0b0;stroke-linecap:square;stroke-width:0.8;"/>
     </g>
     <g id="line2d_128">
      <g>
       <use style="stroke:#000000;stroke-width:0.8;" x="477.107955" xlink:href="#md3670deb9a" y="96.856288"/>
      </g>
     </g>
     <g id="text_30">
      <!-- 5.0 -->
      <g transform="translate(454.20483 100.655507)scale(0.1 -0.1)">
       <use xlink:href="#DejaVuSans-53"/>
       <use x="63.623047" xlink:href="#DejaVuSans-46"/>
       <use x="95.410156" xlink:href="#DejaVuSans-48"/>
      </g>
     </g>
    </g>
    <g id="ytick_13">
     <g id="line2d_129">
      <path clip-path="url(#p0babe71149)" d="M 477.107955 55.630177 
L 857.5625 55.630177 
" style="fill:none;stroke:#b0b0b0;stroke-linecap:square;stroke-width:0.8;"/>
     </g>
     <g id="line2d_130">
      <g>
       <use style="stroke:#000000;stroke-width:0.8;" x="477.107955" xlink:href="#md3670deb9a" y="55.630177"/>
      </g>
     </g>
     <g id="text_31">
      <!-- 5.5 -->
      <g transform="translate(454.20483 59.429396)scale(0.1 -0.1)">
       <use xlink:href="#DejaVuSans-53"/>
       <use x="63.623047" xlink:href="#DejaVuSans-46"/>
       <use x="95.410156" xlink:href="#DejaVuSans-53"/>
      </g>
     </g>
    </g>
    <g id="text_32">
     <!-- 1e6 -->
     <g transform="translate(477.107955 40.2)scale(0.1 -0.1)">
      <use xlink:href="#DejaVuSans-49"/>
      <use x="63.623047" xlink:href="#DejaVuSans-101"/>
      <use x="125.146484" xlink:href="#DejaVuSans-54"/>
     </g>
    </g>
   </g>
   <g id="line2d_131">
    <g clip-path="url(#p0babe71149)">
     <use style="stroke:#000000;" x="477.107955" xlink:href="#m7c8f6673ba" y="298.942894"/>
     <use style="stroke:#000000;" x="483.667516" xlink:href="#m7c8f6673ba" y="292.712639"/>
     <use style="stroke:#000000;" x="490.227077" xlink:href="#m7c8f6673ba" y="285.803555"/>
     <use style="stroke:#000000;" x="496.786638" xlink:href="#m7c8f6673ba" y="278.603167"/>
     <use style="stroke:#000000;" x="503.346199" xlink:href="#m7c8f6673ba" y="271.561005"/>
     <use style="stroke:#000000;" x="509.90576" xlink:href="#m7c8f6673ba" y="265.468363"/>
     <use style="stroke:#000000;" x="516.465321" xlink:href="#m7c8f6673ba" y="259.804802"/>
     <use style="stroke:#000000;" x="523.024882" xlink:href="#m7c8f6673ba" y="253.743987"/>
     <use style="stroke:#000000;" x="529.584444" xlink:href="#m7c8f6673ba" y="247.555288"/>
     <use style="stroke:#000000;" x="536.144005" xlink:href="#m7c8f6673ba" y="240.577933"/>
     <use style="stroke:#000000;" x="542.703566" xlink:href="#m7c8f6673ba" y="233.268709"/>
     <use style="stroke:#000000;" x="549.263127" xlink:href="#m7c8f6673ba" y="226.505483"/>
     <use style="stroke:#000000;" x="555.822688" xlink:href="#m7c8f6673ba" y="219.979802"/>
     <use style="stroke:#000000;" x="562.382249" xlink:href="#m7c8f6673ba" y="213.686553"/>
     <use style="stroke:#000000;" x="568.94181" xlink:href="#m7c8f6673ba" y="207.120388"/>
     <use style="stroke:#000000;" x="575.501371" xlink:href="#m7c8f6673ba" y="199.421164"/>
     <use style="stroke:#000000;" x="582.060933" xlink:href="#m7c8f6673ba" y="192.029405"/>
     <use style="stroke:#000000;" x="588.620494" xlink:href="#m7c8f6673ba" y="184.415272"/>
     <use style="stroke:#000000;" x="595.180055" xlink:href="#m7c8f6673ba" y="177.328916"/>
     <use style="stroke:#000000;" x="601.739616" xlink:href="#m7c8f6673ba" y="170.923202"/>
     <use style="stroke:#000000;" x="608.299177" xlink:href="#m7c8f6673ba" y="164.673077"/>
     <use style="stroke:#000000;" x="614.858738" xlink:href="#m7c8f6673ba" y="157.726889"/>
     <use style="stroke:#000000;" x="621.418299" xlink:href="#m7c8f6673ba" y="150.696106"/>
     <use style="stroke:#000000;" x="627.977861" xlink:href="#m7c8f6673ba" y="142.851189"/>
     <use style="stroke:#000000;" x="634.537422" xlink:href="#m7c8f6673ba" y="134.590795"/>
     <use style="stroke:#000000;" x="641.096983" xlink:href="#m7c8f6673ba" y="127.028195"/>
     <use style="stroke:#000000;" x="647.656544" xlink:href="#m7c8f6673ba" y="120.468956"/>
     <use style="stroke:#000000;" x="654.216105" xlink:href="#m7c8f6673ba" y="113.186528"/>
     <use style="stroke:#000000;" x="660.775666" xlink:href="#m7c8f6673ba" y="105.308301"/>
     <use style="stroke:#000000;" x="667.335227" xlink:href="#m7c8f6673ba" y="97.14718"/>
    </g>
   </g>
   <g id="line2d_132">
    <path clip-path="url(#p0babe71149)" d="M 477.107955 302.645455 
L 483.667516 294.594675 
L 490.227077 286.521198 
L 496.786638 278.446118 
L 503.346199 270.390547 
L 509.90576 262.375394 
L 516.465321 254.421147 
L 523.024882 246.547669 
L 529.584444 238.774005 
L 536.144005 231.118204 
L 542.703566 223.597167 
L 549.263127 216.226513 
L 555.822688 209.020473 
L 562.382249 201.99181 
L 568.94181 195.151759 
L 575.501371 188.510005 
L 582.060933 182.074671 
L 588.620494 175.852336 
L 595.180055 169.848077 
L 601.739616 164.065519 
L 608.299177 158.506908 
L 614.858738 153.173193 
L 621.418299 148.06412 
L 627.977861 143.178328 
L 634.537422 138.513457 
L 641.096983 134.06625 
L 647.656544 129.832662 
L 654.216105 125.807961 
L 660.775666 121.986832 
L 667.335227 118.363472 
" style="fill:none;stroke:#008000;stroke-linecap:square;stroke-width:1.5;"/>
   </g>
   <g id="line2d_133">
    <path clip-path="url(#p0babe71149)" d="M 673.894788 111.684945 
L 680.45435 108.616521 
L 687.013911 105.7195 
L 693.573472 102.986877 
L 700.133033 100.411606 
L 706.692594 97.986654 
L 713.252155 95.705041 
L 719.811716 93.559885 
L 726.371277 91.544426 
L 732.930839 89.652062 
L 739.4904 87.876364 
L 746.049961 86.2111 
L 752.609522 84.650246 
L 759.169083 83.187995 
L 765.728644 81.818768 
L 772.288205 80.537218 
L 778.847766 79.338228 
L 785.407328 78.216916 
L 791.966889 77.168631 
L 798.52645 76.188951 
L 805.086011 75.273676 
L 811.645572 74.418827 
L 818.205133 73.620636 
L 824.764694 72.87554 
L 831.324255 72.180176 
L 837.883817 71.531371 
L 844.443378 70.926135 
L 851.002939 70.361652 
L 857.5625 69.835276 
" style="fill:none;stroke:#ff0000;stroke-linecap:square;stroke-width:1.5;"/>
   </g>
   <g id="patch_9">
    <path d="M 477.107955 315 
L 477.107955 43.2 
" style="fill:none;stroke:#000000;stroke-linecap:square;stroke-linejoin:miter;stroke-width:0.8;"/>
   </g>
   <g id="patch_10">
    <path d="M 857.5625 315 
L 857.5625 43.2 
" style="fill:none;stroke:#000000;stroke-linecap:square;stroke-linejoin:miter;stroke-width:0.8;"/>
   </g>
   <g id="patch_11">
    <path d="M 477.107955 315 
L 857.5625 315 
" style="fill:none;stroke:#000000;stroke-linecap:square;stroke-linejoin:miter;stroke-width:0.8;"/>
   </g>
   <g id="patch_12">
    <path d="M 477.107955 43.2 
L 857.5625 43.2 
" style="fill:none;stroke:#000000;stroke-linecap:square;stroke-linejoin:miter;stroke-width:0.8;"/>
   </g>
   <g id="text_33">
    <!-- Zoom on the last 30 observations -->
    <defs>
     <path d="M 5.609375 72.90625 
L 62.890625 72.90625 
L 62.890625 65.375 
L 16.796875 8.296875 
L 64.015625 8.296875 
L 64.015625 0 
L 4.5 0 
L 4.5 7.515625 
L 50.59375 64.59375 
L 5.609375 64.59375 
z
" id="DejaVuSans-90"/>
     <path d="M 54.890625 33.015625 
L 54.890625 0 
L 45.90625 0 
L 45.90625 32.71875 
Q 45.90625 40.484375 42.875 44.328125 
Q 39.84375 48.1875 33.796875 48.1875 
Q 26.515625 48.1875 22.3125 43.546875 
Q 18.109375 38.921875 18.109375 30.90625 
L 18.109375 0 
L 9.078125 0 
L 9.078125 75.984375 
L 18.109375 75.984375 
L 18.109375 46.1875 
Q 21.34375 51.125 25.703125 53.5625 
Q 30.078125 56 35.796875 56 
Q 45.21875 56 50.046875 50.171875 
Q 54.890625 44.34375 54.890625 33.015625 
z
" id="DejaVuSans-104"/>
     <path d="M 2.984375 54.6875 
L 12.5 54.6875 
L 29.59375 8.796875 
L 46.6875 54.6875 
L 56.203125 54.6875 
L 35.6875 0 
L 23.484375 0 
z
" id="DejaVuSans-118"/>
    </defs>
    <g transform="translate(566.116165 37.2)scale(0.12 -0.12)">
     <use xlink:href="#DejaVuSans-90"/>
     <use x="68.505859" xlink:href="#DejaVuSans-111"/>
     <use x="129.6875" xlink:href="#DejaVuSans-111"/>
     <use x="190.869141" xlink:href="#DejaVuSans-109"/>
     <use x="288.28125" xlink:href="#DejaVuSans-32"/>
     <use x="320.068359" xlink:href="#DejaVuSans-111"/>
     <use x="381.25" xlink:href="#DejaVuSans-110"/>
     <use x="444.628906" xlink:href="#DejaVuSans-32"/>
     <use x="476.416016" xlink:href="#DejaVuSans-116"/>
     <use x="515.625" xlink:href="#DejaVuSans-104"/>
     <use x="579.003906" xlink:href="#DejaVuSans-101"/>
     <use x="640.527344" xlink:href="#DejaVuSans-32"/>
     <use x="672.314453" xlink:href="#DejaVuSans-108"/>
     <use x="700.097656" xlink:href="#DejaVuSans-97"/>
     <use x="761.376953" xlink:href="#DejaVuSans-115"/>
     <use x="813.476562" xlink:href="#DejaVuSans-116"/>
     <use x="852.685547" xlink:href="#DejaVuSans-32"/>
     <use x="884.472656" xlink:href="#DejaVuSans-51"/>
     <use x="948.095703" xlink:href="#DejaVuSans-48"/>
     <use x="1011.71875" xlink:href="#DejaVuSans-32"/>
     <use x="1043.505859" xlink:href="#DejaVuSans-111"/>
     <use x="1104.6875" xlink:href="#DejaVuSans-98"/>
     <use x="1168.164062" xlink:href="#DejaVuSans-115"/>
     <use x="1220.263672" xlink:href="#DejaVuSans-101"/>
     <use x="1281.787109" xlink:href="#DejaVuSans-114"/>
     <use x="1322.900391" xlink:href="#DejaVuSans-118"/>
     <use x="1382.080078" xlink:href="#DejaVuSans-97"/>
     <use x="1443.359375" xlink:href="#DejaVuSans-116"/>
     <use x="1482.568359" xlink:href="#DejaVuSans-105"/>
     <use x="1510.351562" xlink:href="#DejaVuSans-111"/>
     <use x="1571.533203" xlink:href="#DejaVuSans-110"/>
     <use x="1634.912109" xlink:href="#DejaVuSans-115"/>
    </g>
   </g>
  </g>
  <g id="text_34">
   <!-- Global's COVID-19 Outbreak Forecasting to Date -->
   <defs>
    <path d="M 59.515625 10.40625 
L 59.515625 29.984375 
L 43.40625 29.984375 
L 43.40625 38.09375 
L 69.28125 38.09375 
L 69.28125 6.78125 
Q 63.578125 2.734375 56.6875 0.65625 
Q 49.8125 -1.421875 42 -1.421875 
Q 24.90625 -1.421875 15.25 8.5625 
Q 5.609375 18.5625 5.609375 36.375 
Q 5.609375 54.25 15.25 64.234375 
Q 24.90625 74.21875 42 74.21875 
Q 49.125 74.21875 55.546875 72.453125 
Q 61.96875 70.703125 67.390625 67.28125 
L 67.390625 56.78125 
Q 61.921875 61.421875 55.765625 63.765625 
Q 49.609375 66.109375 42.828125 66.109375 
Q 29.4375 66.109375 22.71875 58.640625 
Q 16.015625 51.171875 16.015625 36.375 
Q 16.015625 21.625 22.71875 14.15625 
Q 29.4375 6.6875 42.828125 6.6875 
Q 48.046875 6.6875 52.140625 7.59375 
Q 56.25 8.5 59.515625 10.40625 
z
" id="DejaVuSans-71"/>
    <path d="M 17.921875 72.90625 
L 17.921875 45.796875 
L 9.625 45.796875 
L 9.625 72.90625 
z
" id="DejaVuSans-39"/>
    <path d="M 64.40625 67.28125 
L 64.40625 56.890625 
Q 59.421875 61.53125 53.78125 63.8125 
Q 48.140625 66.109375 41.796875 66.109375 
Q 29.296875 66.109375 22.65625 58.46875 
Q 16.015625 50.828125 16.015625 36.375 
Q 16.015625 21.96875 22.65625 14.328125 
Q 29.296875 6.6875 41.796875 6.6875 
Q 48.140625 6.6875 53.78125 8.984375 
Q 59.421875 11.28125 64.40625 15.921875 
L 64.40625 5.609375 
Q 59.234375 2.09375 53.4375 0.328125 
Q 47.65625 -1.421875 41.21875 -1.421875 
Q 24.65625 -1.421875 15.125 8.703125 
Q 5.609375 18.84375 5.609375 36.375 
Q 5.609375 53.953125 15.125 64.078125 
Q 24.65625 74.21875 41.21875 74.21875 
Q 47.75 74.21875 53.53125 72.484375 
Q 59.328125 70.75 64.40625 67.28125 
z
" id="DejaVuSans-67"/>
    <path d="M 39.40625 66.21875 
Q 28.65625 66.21875 22.328125 58.203125 
Q 16.015625 50.203125 16.015625 36.375 
Q 16.015625 22.609375 22.328125 14.59375 
Q 28.65625 6.59375 39.40625 6.59375 
Q 50.140625 6.59375 56.421875 14.59375 
Q 62.703125 22.609375 62.703125 36.375 
Q 62.703125 50.203125 56.421875 58.203125 
Q 50.140625 66.21875 39.40625 66.21875 
z
M 39.40625 74.21875 
Q 54.734375 74.21875 63.90625 63.9375 
Q 73.09375 53.65625 73.09375 36.375 
Q 73.09375 19.140625 63.90625 8.859375 
Q 54.734375 -1.421875 39.40625 -1.421875 
Q 24.03125 -1.421875 14.8125 8.828125 
Q 5.609375 19.09375 5.609375 36.375 
Q 5.609375 53.65625 14.8125 63.9375 
Q 24.03125 74.21875 39.40625 74.21875 
z
" id="DejaVuSans-79"/>
    <path d="M 28.609375 0 
L 0.78125 72.90625 
L 11.078125 72.90625 
L 34.1875 11.53125 
L 57.328125 72.90625 
L 67.578125 72.90625 
L 39.796875 0 
z
" id="DejaVuSans-86"/>
    <path d="M 9.8125 72.90625 
L 19.671875 72.90625 
L 19.671875 0 
L 9.8125 0 
z
" id="DejaVuSans-73"/>
    <path d="M 19.671875 64.796875 
L 19.671875 8.109375 
L 31.59375 8.109375 
Q 46.6875 8.109375 53.6875 14.9375 
Q 60.6875 21.78125 60.6875 36.53125 
Q 60.6875 51.171875 53.6875 57.984375 
Q 46.6875 64.796875 31.59375 64.796875 
z
M 9.8125 72.90625 
L 30.078125 72.90625 
Q 51.265625 72.90625 61.171875 64.09375 
Q 71.09375 55.28125 71.09375 36.53125 
Q 71.09375 17.671875 61.125 8.828125 
Q 51.171875 0 30.078125 0 
L 9.8125 0 
z
" id="DejaVuSans-68"/>
    <path d="M 4.890625 31.390625 
L 31.203125 31.390625 
L 31.203125 23.390625 
L 4.890625 23.390625 
z
" id="DejaVuSans-45"/>
    <path d="M 10.984375 1.515625 
L 10.984375 10.5 
Q 14.703125 8.734375 18.5 7.8125 
Q 22.3125 6.890625 25.984375 6.890625 
Q 35.75 6.890625 40.890625 13.453125 
Q 46.046875 20.015625 46.78125 33.40625 
Q 43.953125 29.203125 39.59375 26.953125 
Q 35.25 24.703125 29.984375 24.703125 
Q 19.046875 24.703125 12.671875 31.3125 
Q 6.296875 37.9375 6.296875 49.421875 
Q 6.296875 60.640625 12.9375 67.421875 
Q 19.578125 74.21875 30.609375 74.21875 
Q 43.265625 74.21875 49.921875 64.515625 
Q 56.59375 54.828125 56.59375 36.375 
Q 56.59375 19.140625 48.40625 8.859375 
Q 40.234375 -1.421875 26.421875 -1.421875 
Q 22.703125 -1.421875 18.890625 -0.6875 
Q 15.09375 0.046875 10.984375 1.515625 
z
M 30.609375 32.421875 
Q 37.25 32.421875 41.125 36.953125 
Q 45.015625 41.5 45.015625 49.421875 
Q 45.015625 57.28125 41.125 61.84375 
Q 37.25 66.40625 30.609375 66.40625 
Q 23.96875 66.40625 20.09375 61.84375 
Q 16.21875 57.28125 16.21875 49.421875 
Q 16.21875 41.5 20.09375 36.953125 
Q 23.96875 32.421875 30.609375 32.421875 
z
" id="DejaVuSans-57"/>
    <path d="M 9.078125 75.984375 
L 18.109375 75.984375 
L 18.109375 31.109375 
L 44.921875 54.6875 
L 56.390625 54.6875 
L 27.390625 29.109375 
L 57.625 0 
L 45.90625 0 
L 18.109375 26.703125 
L 18.109375 0 
L 9.078125 0 
z
" id="DejaVuSans-107"/>
   </defs>
   <g transform="translate(280.125313 16.318125)scale(0.12 -0.12)">
    <use xlink:href="#DejaVuSans-71"/>
    <use x="77.490234" xlink:href="#DejaVuSans-108"/>
    <use x="105.273438" xlink:href="#DejaVuSans-111"/>
    <use x="166.455078" xlink:href="#DejaVuSans-98"/>
    <use x="229.931641" xlink:href="#DejaVuSans-97"/>
    <use x="291.210938" xlink:href="#DejaVuSans-108"/>
    <use x="318.994141" xlink:href="#DejaVuSans-39"/>
    <use x="346.484375" xlink:href="#DejaVuSans-115"/>
    <use x="398.583984" xlink:href="#DejaVuSans-32"/>
    <use x="430.371094" xlink:href="#DejaVuSans-67"/>
    <use x="500.195312" xlink:href="#DejaVuSans-79"/>
    <use x="577.15625" xlink:href="#DejaVuSans-86"/>
    <use x="645.564453" xlink:href="#DejaVuSans-73"/>
    <use x="675.056641" xlink:href="#DejaVuSans-68"/>
    <use x="752.058594" xlink:href="#DejaVuSans-45"/>
    <use x="788.142578" xlink:href="#DejaVuSans-49"/>
    <use x="851.765625" xlink:href="#DejaVuSans-57"/>
    <use x="915.388672" xlink:href="#DejaVuSans-32"/>
    <use x="947.175781" xlink:href="#DejaVuSans-79"/>
    <use x="1025.886719" xlink:href="#DejaVuSans-117"/>
    <use x="1089.265625" xlink:href="#DejaVuSans-116"/>
    <use x="1128.474609" xlink:href="#DejaVuSans-98"/>
    <use x="1191.951172" xlink:href="#DejaVuSans-114"/>
    <use x="1230.814453" xlink:href="#DejaVuSans-101"/>
    <use x="1292.337891" xlink:href="#DejaVuSans-97"/>
    <use x="1353.617188" xlink:href="#DejaVuSans-107"/>
    <use x="1411.527344" xlink:href="#DejaVuSans-32"/>
    <use x="1443.314453" xlink:href="#DejaVuSans-70"/>
    <use x="1497.208984" xlink:href="#DejaVuSans-111"/>
    <use x="1558.390625" xlink:href="#DejaVuSans-114"/>
    <use x="1597.253906" xlink:href="#DejaVuSans-101"/>
    <use x="1658.777344" xlink:href="#DejaVuSans-99"/>
    <use x="1713.757812" xlink:href="#DejaVuSans-97"/>
    <use x="1775.037109" xlink:href="#DejaVuSans-115"/>
    <use x="1827.136719" xlink:href="#DejaVuSans-116"/>
    <use x="1866.345703" xlink:href="#DejaVuSans-105"/>
    <use x="1894.128906" xlink:href="#DejaVuSans-110"/>
    <use x="1957.507812" xlink:href="#DejaVuSans-103"/>
    <use x="2020.984375" xlink:href="#DejaVuSans-32"/>
    <use x="2052.771484" xlink:href="#DejaVuSans-116"/>
    <use x="2091.980469" xlink:href="#DejaVuSans-111"/>
    <use x="2153.162109" xlink:href="#DejaVuSans-32"/>
    <use x="2184.949219" xlink:href="#DejaVuSans-68"/>
    <use x="2261.951172" xlink:href="#DejaVuSans-97"/>
    <use x="2323.230469" xlink:href="#DejaVuSans-116"/>
    <use x="2362.439453" xlink:href="#DejaVuSans-101"/>
   </g>
  </g>
 </g>
 <defs>
  <clipPath id="p6c329f06d4">
   <rect height="271.8" width="380.454545" x="20.5625" y="43.2"/>
  </clipPath>
  <clipPath id="p0babe71149">
   <rect height="271.8" width="380.454545" x="477.107955" y="43.2"/>
  </clipPath>
 </defs>
</svg>
