<?xml version="1.0" encoding="utf-8" standalone="no"?>
<!DOCTYPE svg PUBLIC "-//W3C//DTD SVG 1.1//EN"
  "http://www.w3.org/Graphics/SVG/1.1/DTD/svg11.dtd">
<!-- Created with matplotlib (https://matplotlib.org/) -->
<svg height="372.471562pt" version="1.1" viewBox="0 0 890.2125 372.471562" width="890.2125pt" xmlns="http://www.w3.org/2000/svg" xmlns:xlink="http://www.w3.org/1999/xlink">
 <defs>
  <style type="text/css">
*{stroke-linecap:butt;stroke-linejoin:round;}
  </style>
 </defs>
 <g id="figure_1">
  <g id="patch_1">
   <path d="M 0 372.471562 
L 890.2125 372.471562 
L 890.2125 0 
L 0 0 
z
" style="fill:none;"/>
  </g>
  <g id="axes_1">
   <g id="patch_2">
    <path d="M 46.0125 315 
L 426.467045 315 
L 426.467045 43.2 
L 46.0125 43.2 
z
" style="fill:#ffffff;"/>
   </g>
   <g id="PolyCollection_1">
    <defs>
     <path d="M 354.489158 -276.265301 
L 354.489158 -263.127049 
L 357.059797 -265.966228 
L 359.630436 -268.671377 
L 362.201075 -271.244558 
L 364.771714 -273.688356 
L 367.342353 -276.005805 
L 369.912991 -278.200323 
L 372.48363 -280.27564 
L 375.054269 -282.235737 
L 377.624908 -284.084791 
L 380.195547 -285.827118 
L 382.766186 -287.467128 
L 385.336824 -289.00928 
L 387.907463 -290.458044 
L 390.478102 -291.817868 
L 393.048741 -293.093149 
L 395.61938 -294.28821 
L 398.190018 -295.407277 
L 400.760657 -296.454465 
L 403.331296 -297.433762 
L 405.901935 -298.34902 
L 408.472574 -299.203949 
L 411.043213 -300.002105 
L 413.613851 -300.746896 
L 416.18449 -301.441572 
L 418.755129 -302.089229 
L 421.325768 -302.692811 
L 423.896407 -303.255108 
L 426.467045 -303.778765 
L 426.467045 -316.917017 
L 426.467045 -316.917017 
L 423.896407 -316.39336 
L 421.325768 -315.831063 
L 418.755129 -315.227481 
L 416.18449 -314.579824 
L 413.613851 -313.885148 
L 411.043213 -313.140358 
L 408.472574 -312.342201 
L 405.901935 -311.487272 
L 403.331296 -310.572014 
L 400.760657 -309.592717 
L 398.190018 -308.545529 
L 395.61938 -307.426462 
L 393.048741 -306.231401 
L 390.478102 -304.95612 
L 387.907463 -303.596296 
L 385.336824 -302.147533 
L 382.766186 -300.605381 
L 380.195547 -298.96537 
L 377.624908 -297.223043 
L 375.054269 -295.373989 
L 372.48363 -293.413892 
L 369.912991 -291.338575 
L 367.342353 -289.144057 
L 364.771714 -286.826608 
L 362.201075 -284.38281 
L 359.630436 -281.809629 
L 357.059797 -279.10448 
L 354.489158 -276.265301 
z
" id="m818d4cba3c" style="stroke:#0000ff;stroke-opacity:0.3;"/>
    </defs>
    <g clip-path="url(#p8700586bc6)">
     <use style="fill:#0000ff;fill-opacity:0.3;stroke:#0000ff;stroke-opacity:0.3;" x="0" xlink:href="#m818d4cba3c" y="372.471562"/>
    </g>
   </g>
   <g id="matplotlib.axis_1">
    <g id="xtick_1">
     <g id="line2d_1">
      <path clip-path="url(#p8700586bc6)" d="M 46.0125 315 
L 46.0125 43.2 
" style="fill:none;stroke:#b0b0b0;stroke-linecap:square;stroke-width:0.8;"/>
     </g>
     <g id="line2d_2">
      <defs>
       <path d="M 0 0 
L 0 3.5 
" id="mb210aece4a" style="stroke:#000000;stroke-width:0.8;"/>
      </defs>
      <g>
       <use style="stroke:#000000;stroke-width:0.8;" x="46.0125" xlink:href="#mb210aece4a" y="315"/>
      </g>
     </g>
    </g>
    <g id="xtick_2">
     <g id="line2d_3">
      <path clip-path="url(#p8700586bc6)" d="M 71.718888 315 
L 71.718888 43.2 
" style="fill:none;stroke:#b0b0b0;stroke-linecap:square;stroke-width:0.8;"/>
     </g>
     <g id="line2d_4">
      <g>
       <use style="stroke:#000000;stroke-width:0.8;" x="71.718888" xlink:href="#mb210aece4a" y="315"/>
      </g>
     </g>
     <g id="text_1">
      <!-- Feb -->
      <defs>
       <path d="M 9.8125 72.90625 
L 51.703125 72.90625 
L 51.703125 64.59375 
L 19.671875 64.59375 
L 19.671875 43.109375 
L 48.578125 43.109375 
L 48.578125 34.8125 
L 19.671875 34.8125 
L 19.671875 0 
L 9.8125 0 
z
" id="DejaVuSans-70"/>
       <path d="M 56.203125 29.59375 
L 56.203125 25.203125 
L 14.890625 25.203125 
Q 15.484375 15.921875 20.484375 11.0625 
Q 25.484375 6.203125 34.421875 6.203125 
Q 39.59375 6.203125 44.453125 7.46875 
Q 49.3125 8.734375 54.109375 11.28125 
L 54.109375 2.78125 
Q 49.265625 0.734375 44.1875 -0.34375 
Q 39.109375 -1.421875 33.890625 -1.421875 
Q 20.796875 -1.421875 13.15625 6.1875 
Q 5.515625 13.8125 5.515625 26.8125 
Q 5.515625 40.234375 12.765625 48.109375 
Q 20.015625 56 32.328125 56 
Q 43.359375 56 49.78125 48.890625 
Q 56.203125 41.796875 56.203125 29.59375 
z
M 47.21875 32.234375 
Q 47.125 39.59375 43.09375 43.984375 
Q 39.0625 48.390625 32.421875 48.390625 
Q 24.90625 48.390625 20.390625 44.140625 
Q 15.875 39.890625 15.1875 32.171875 
z
" id="DejaVuSans-101"/>
       <path d="M 48.6875 27.296875 
Q 48.6875 37.203125 44.609375 42.84375 
Q 40.53125 48.484375 33.40625 48.484375 
Q 26.265625 48.484375 22.1875 42.84375 
Q 18.109375 37.203125 18.109375 27.296875 
Q 18.109375 17.390625 22.1875 11.75 
Q 26.265625 6.109375 33.40625 6.109375 
Q 40.53125 6.109375 44.609375 11.75 
Q 48.6875 17.390625 48.6875 27.296875 
z
M 18.109375 46.390625 
Q 20.953125 51.265625 25.265625 53.625 
Q 29.59375 56 35.59375 56 
Q 45.5625 56 51.78125 48.09375 
Q 58.015625 40.1875 58.015625 27.296875 
Q 58.015625 14.40625 51.78125 6.484375 
Q 45.5625 -1.421875 35.59375 -1.421875 
Q 29.59375 -1.421875 25.265625 0.953125 
Q 20.953125 3.328125 18.109375 8.203125 
L 18.109375 0 
L 9.078125 0 
L 9.078125 75.984375 
L 18.109375 75.984375 
z
" id="DejaVuSans-98"/>
      </defs>
      <g transform="translate(62.867326 329.598437)scale(0.1 -0.1)">
       <use xlink:href="#DejaVuSans-70"/>
       <use x="52.019531" xlink:href="#DejaVuSans-101"/>
       <use x="113.542969" xlink:href="#DejaVuSans-98"/>
      </g>
      <!-- 2020 -->
      <defs>
       <path d="M 19.1875 8.296875 
L 53.609375 8.296875 
L 53.609375 0 
L 7.328125 0 
L 7.328125 8.296875 
Q 12.9375 14.109375 22.625 23.890625 
Q 32.328125 33.6875 34.8125 36.53125 
Q 39.546875 41.84375 41.421875 45.53125 
Q 43.3125 49.21875 43.3125 52.78125 
Q 43.3125 58.59375 39.234375 62.25 
Q 35.15625 65.921875 28.609375 65.921875 
Q 23.96875 65.921875 18.8125 64.3125 
Q 13.671875 62.703125 7.8125 59.421875 
L 7.8125 69.390625 
Q 13.765625 71.78125 18.9375 73 
Q 24.125 74.21875 28.421875 74.21875 
Q 39.75 74.21875 46.484375 68.546875 
Q 53.21875 62.890625 53.21875 53.421875 
Q 53.21875 48.921875 51.53125 44.890625 
Q 49.859375 40.875 45.40625 35.40625 
Q 44.1875 33.984375 37.640625 27.21875 
Q 31.109375 20.453125 19.1875 8.296875 
z
" id="DejaVuSans-50"/>
       <path d="M 31.78125 66.40625 
Q 24.171875 66.40625 20.328125 58.90625 
Q 16.5 51.421875 16.5 36.375 
Q 16.5 21.390625 20.328125 13.890625 
Q 24.171875 6.390625 31.78125 6.390625 
Q 39.453125 6.390625 43.28125 13.890625 
Q 47.125 21.390625 47.125 36.375 
Q 47.125 51.421875 43.28125 58.90625 
Q 39.453125 66.40625 31.78125 66.40625 
z
M 31.78125 74.21875 
Q 44.046875 74.21875 50.515625 64.515625 
Q 56.984375 54.828125 56.984375 36.375 
Q 56.984375 17.96875 50.515625 8.265625 
Q 44.046875 -1.421875 31.78125 -1.421875 
Q 19.53125 -1.421875 13.0625 8.265625 
Q 6.59375 17.96875 6.59375 36.375 
Q 6.59375 54.828125 13.0625 64.515625 
Q 19.53125 74.21875 31.78125 74.21875 
z
" id="DejaVuSans-48"/>
      </defs>
      <g transform="translate(58.993888 340.79625)scale(0.1 -0.1)">
       <use xlink:href="#DejaVuSans-50"/>
       <use x="63.623047" xlink:href="#DejaVuSans-48"/>
       <use x="127.246094" xlink:href="#DejaVuSans-50"/>
       <use x="190.869141" xlink:href="#DejaVuSans-48"/>
      </g>
     </g>
    </g>
    <g id="xtick_3">
     <g id="line2d_5">
      <path clip-path="url(#p8700586bc6)" d="M 146.267414 315 
L 146.267414 43.2 
" style="fill:none;stroke:#b0b0b0;stroke-linecap:square;stroke-width:0.8;"/>
     </g>
     <g id="line2d_6">
      <g>
       <use style="stroke:#000000;stroke-width:0.8;" x="146.267414" xlink:href="#mb210aece4a" y="315"/>
      </g>
     </g>
     <g id="text_2">
      <!-- Mar -->
      <defs>
       <path d="M 9.8125 72.90625 
L 24.515625 72.90625 
L 43.109375 23.296875 
L 61.8125 72.90625 
L 76.515625 72.90625 
L 76.515625 0 
L 66.890625 0 
L 66.890625 64.015625 
L 48.09375 14.015625 
L 38.1875 14.015625 
L 19.390625 64.015625 
L 19.390625 0 
L 9.8125 0 
z
" id="DejaVuSans-77"/>
       <path d="M 34.28125 27.484375 
Q 23.390625 27.484375 19.1875 25 
Q 14.984375 22.515625 14.984375 16.5 
Q 14.984375 11.71875 18.140625 8.90625 
Q 21.296875 6.109375 26.703125 6.109375 
Q 34.1875 6.109375 38.703125 11.40625 
Q 43.21875 16.703125 43.21875 25.484375 
L 43.21875 27.484375 
z
M 52.203125 31.203125 
L 52.203125 0 
L 43.21875 0 
L 43.21875 8.296875 
Q 40.140625 3.328125 35.546875 0.953125 
Q 30.953125 -1.421875 24.3125 -1.421875 
Q 15.921875 -1.421875 10.953125 3.296875 
Q 6 8.015625 6 15.921875 
Q 6 25.140625 12.171875 29.828125 
Q 18.359375 34.515625 30.609375 34.515625 
L 43.21875 34.515625 
L 43.21875 35.40625 
Q 43.21875 41.609375 39.140625 45 
Q 35.0625 48.390625 27.6875 48.390625 
Q 23 48.390625 18.546875 47.265625 
Q 14.109375 46.140625 10.015625 43.890625 
L 10.015625 52.203125 
Q 14.9375 54.109375 19.578125 55.046875 
Q 24.21875 56 28.609375 56 
Q 40.484375 56 46.34375 49.84375 
Q 52.203125 43.703125 52.203125 31.203125 
z
" id="DejaVuSans-97"/>
       <path d="M 41.109375 46.296875 
Q 39.59375 47.171875 37.8125 47.578125 
Q 36.03125 48 33.890625 48 
Q 26.265625 48 22.1875 43.046875 
Q 18.109375 38.09375 18.109375 28.8125 
L 18.109375 0 
L 9.078125 0 
L 9.078125 54.6875 
L 18.109375 54.6875 
L 18.109375 46.1875 
Q 20.953125 51.171875 25.484375 53.578125 
Q 30.03125 56 36.53125 56 
Q 37.453125 56 38.578125 55.875 
Q 39.703125 55.765625 41.0625 55.515625 
z
" id="DejaVuSans-114"/>
      </defs>
      <g transform="translate(136.83382 329.598437)scale(0.1 -0.1)">
       <use xlink:href="#DejaVuSans-77"/>
       <use x="86.279297" xlink:href="#DejaVuSans-97"/>
       <use x="147.558594" xlink:href="#DejaVuSans-114"/>
      </g>
     </g>
    </g>
    <g id="xtick_4">
     <g id="line2d_7">
      <path clip-path="url(#p8700586bc6)" d="M 225.957217 315 
L 225.957217 43.2 
" style="fill:none;stroke:#b0b0b0;stroke-linecap:square;stroke-width:0.8;"/>
     </g>
     <g id="line2d_8">
      <g>
       <use style="stroke:#000000;stroke-width:0.8;" x="225.957217" xlink:href="#mb210aece4a" y="315"/>
      </g>
     </g>
     <g id="text_3">
      <!-- Apr -->
      <defs>
       <path d="M 34.1875 63.1875 
L 20.796875 26.90625 
L 47.609375 26.90625 
z
M 28.609375 72.90625 
L 39.796875 72.90625 
L 67.578125 0 
L 57.328125 0 
L 50.6875 18.703125 
L 17.828125 18.703125 
L 11.1875 0 
L 0.78125 0 
z
" id="DejaVuSans-65"/>
       <path d="M 18.109375 8.203125 
L 18.109375 -20.796875 
L 9.078125 -20.796875 
L 9.078125 54.6875 
L 18.109375 54.6875 
L 18.109375 46.390625 
Q 20.953125 51.265625 25.265625 53.625 
Q 29.59375 56 35.59375 56 
Q 45.5625 56 51.78125 48.09375 
Q 58.015625 40.1875 58.015625 27.296875 
Q 58.015625 14.40625 51.78125 6.484375 
Q 45.5625 -1.421875 35.59375 -1.421875 
Q 29.59375 -1.421875 25.265625 0.953125 
Q 20.953125 3.328125 18.109375 8.203125 
z
M 48.6875 27.296875 
Q 48.6875 37.203125 44.609375 42.84375 
Q 40.53125 48.484375 33.40625 48.484375 
Q 26.265625 48.484375 22.1875 42.84375 
Q 18.109375 37.203125 18.109375 27.296875 
Q 18.109375 17.390625 22.1875 11.75 
Q 26.265625 6.109375 33.40625 6.109375 
Q 40.53125 6.109375 44.609375 11.75 
Q 48.6875 17.390625 48.6875 27.296875 
z
" id="DejaVuSans-112"/>
      </defs>
      <g transform="translate(217.307217 329.598437)scale(0.1 -0.1)">
       <use xlink:href="#DejaVuSans-65"/>
       <use x="68.408203" xlink:href="#DejaVuSans-112"/>
       <use x="131.884766" xlink:href="#DejaVuSans-114"/>
      </g>
     </g>
    </g>
    <g id="xtick_5">
     <g id="line2d_9">
      <path clip-path="url(#p8700586bc6)" d="M 303.076382 315 
L 303.076382 43.2 
" style="fill:none;stroke:#b0b0b0;stroke-linecap:square;stroke-width:0.8;"/>
     </g>
     <g id="line2d_10">
      <g>
       <use style="stroke:#000000;stroke-width:0.8;" x="303.076382" xlink:href="#mb210aece4a" y="315"/>
      </g>
     </g>
     <g id="text_4">
      <!-- May -->
      <defs>
       <path d="M 32.171875 -5.078125 
Q 28.375 -14.84375 24.75 -17.8125 
Q 21.140625 -20.796875 15.09375 -20.796875 
L 7.90625 -20.796875 
L 7.90625 -13.28125 
L 13.1875 -13.28125 
Q 16.890625 -13.28125 18.9375 -11.515625 
Q 21 -9.765625 23.484375 -3.21875 
L 25.09375 0.875 
L 2.984375 54.6875 
L 12.5 54.6875 
L 29.59375 11.921875 
L 46.6875 54.6875 
L 56.203125 54.6875 
z
" id="DejaVuSans-121"/>
      </defs>
      <g transform="translate(292.738882 329.598437)scale(0.1 -0.1)">
       <use xlink:href="#DejaVuSans-77"/>
       <use x="86.279297" xlink:href="#DejaVuSans-97"/>
       <use x="147.558594" xlink:href="#DejaVuSans-121"/>
      </g>
     </g>
    </g>
    <g id="xtick_6">
     <g id="line2d_11">
      <path clip-path="url(#p8700586bc6)" d="M 382.766186 315 
L 382.766186 43.2 
" style="fill:none;stroke:#b0b0b0;stroke-linecap:square;stroke-width:0.8;"/>
     </g>
     <g id="line2d_12">
      <g>
       <use style="stroke:#000000;stroke-width:0.8;" x="382.766186" xlink:href="#mb210aece4a" y="315"/>
      </g>
     </g>
     <g id="text_5">
      <!-- Jun -->
      <defs>
       <path d="M 9.8125 72.90625 
L 19.671875 72.90625 
L 19.671875 5.078125 
Q 19.671875 -8.109375 14.671875 -14.0625 
Q 9.671875 -20.015625 -1.421875 -20.015625 
L -5.171875 -20.015625 
L -5.171875 -11.71875 
L -2.09375 -11.71875 
Q 4.4375 -11.71875 7.125 -8.046875 
Q 9.8125 -4.390625 9.8125 5.078125 
z
" id="DejaVuSans-74"/>
       <path d="M 8.5 21.578125 
L 8.5 54.6875 
L 17.484375 54.6875 
L 17.484375 21.921875 
Q 17.484375 14.15625 20.5 10.265625 
Q 23.53125 6.390625 29.59375 6.390625 
Q 36.859375 6.390625 41.078125 11.03125 
Q 45.3125 15.671875 45.3125 23.6875 
L 45.3125 54.6875 
L 54.296875 54.6875 
L 54.296875 0 
L 45.3125 0 
L 45.3125 8.40625 
Q 42.046875 3.421875 37.71875 1 
Q 33.40625 -1.421875 27.6875 -1.421875 
Q 18.265625 -1.421875 13.375 4.4375 
Q 8.5 10.296875 8.5 21.578125 
z
M 31.109375 56 
z
" id="DejaVuSans-117"/>
       <path d="M 54.890625 33.015625 
L 54.890625 0 
L 45.90625 0 
L 45.90625 32.71875 
Q 45.90625 40.484375 42.875 44.328125 
Q 39.84375 48.1875 33.796875 48.1875 
Q 26.515625 48.1875 22.3125 43.546875 
Q 18.109375 38.921875 18.109375 30.90625 
L 18.109375 0 
L 9.078125 0 
L 9.078125 54.6875 
L 18.109375 54.6875 
L 18.109375 46.1875 
Q 21.34375 51.125 25.703125 53.5625 
Q 30.078125 56 35.796875 56 
Q 45.21875 56 50.046875 50.171875 
Q 54.890625 44.34375 54.890625 33.015625 
z
" id="DejaVuSans-110"/>
      </defs>
      <g transform="translate(374.953686 329.598437)scale(0.1 -0.1)">
       <use xlink:href="#DejaVuSans-74"/>
       <use x="29.492188" xlink:href="#DejaVuSans-117"/>
       <use x="92.871094" xlink:href="#DejaVuSans-110"/>
      </g>
     </g>
    </g>
    <g id="xtick_7">
     <g id="line2d_13">
      <path clip-path="url(#p8700586bc6)" d="M 426.467045 315 
L 426.467045 43.2 
" style="fill:none;stroke:#b0b0b0;stroke-linecap:square;stroke-width:0.8;"/>
     </g>
     <g id="line2d_14">
      <g>
       <use style="stroke:#000000;stroke-width:0.8;" x="426.467045" xlink:href="#mb210aece4a" y="315"/>
      </g>
     </g>
    </g>
    <g id="xtick_8">
     <g id="line2d_15">
      <defs>
       <path d="M 0 0 
L 0 2 
" id="m2f8eb44fe1" style="stroke:#000000;stroke-width:0.6;"/>
      </defs>
      <g>
       <use style="stroke:#000000;stroke-width:0.6;" x="58.865694" xlink:href="#m2f8eb44fe1" y="315"/>
      </g>
     </g>
    </g>
    <g id="xtick_9">
     <g id="line2d_16">
      <g>
       <use style="stroke:#000000;stroke-width:0.6;" x="76.860166" xlink:href="#m2f8eb44fe1" y="315"/>
      </g>
     </g>
    </g>
    <g id="xtick_10">
     <g id="line2d_17">
      <g>
       <use style="stroke:#000000;stroke-width:0.6;" x="94.854638" xlink:href="#m2f8eb44fe1" y="315"/>
      </g>
     </g>
    </g>
    <g id="xtick_11">
     <g id="line2d_18">
      <g>
       <use style="stroke:#000000;stroke-width:0.6;" x="112.849109" xlink:href="#m2f8eb44fe1" y="315"/>
      </g>
     </g>
    </g>
    <g id="xtick_12">
     <g id="line2d_19">
      <g>
       <use style="stroke:#000000;stroke-width:0.6;" x="130.843581" xlink:href="#m2f8eb44fe1" y="315"/>
      </g>
     </g>
    </g>
    <g id="xtick_13">
     <g id="line2d_20">
      <g>
       <use style="stroke:#000000;stroke-width:0.6;" x="148.838053" xlink:href="#m2f8eb44fe1" y="315"/>
      </g>
     </g>
    </g>
    <g id="xtick_14">
     <g id="line2d_21">
      <g>
       <use style="stroke:#000000;stroke-width:0.6;" x="166.832525" xlink:href="#m2f8eb44fe1" y="315"/>
      </g>
     </g>
    </g>
    <g id="xtick_15">
     <g id="line2d_22">
      <g>
       <use style="stroke:#000000;stroke-width:0.6;" x="184.826996" xlink:href="#m2f8eb44fe1" y="315"/>
      </g>
     </g>
    </g>
    <g id="xtick_16">
     <g id="line2d_23">
      <g>
       <use style="stroke:#000000;stroke-width:0.6;" x="202.821468" xlink:href="#m2f8eb44fe1" y="315"/>
      </g>
     </g>
    </g>
    <g id="xtick_17">
     <g id="line2d_24">
      <g>
       <use style="stroke:#000000;stroke-width:0.6;" x="220.81594" xlink:href="#m2f8eb44fe1" y="315"/>
      </g>
     </g>
    </g>
    <g id="xtick_18">
     <g id="line2d_25">
      <g>
       <use style="stroke:#000000;stroke-width:0.6;" x="238.810412" xlink:href="#m2f8eb44fe1" y="315"/>
      </g>
     </g>
    </g>
    <g id="xtick_19">
     <g id="line2d_26">
      <g>
       <use style="stroke:#000000;stroke-width:0.6;" x="256.804883" xlink:href="#m2f8eb44fe1" y="315"/>
      </g>
     </g>
    </g>
    <g id="xtick_20">
     <g id="line2d_27">
      <g>
       <use style="stroke:#000000;stroke-width:0.6;" x="274.799355" xlink:href="#m2f8eb44fe1" y="315"/>
      </g>
     </g>
    </g>
    <g id="xtick_21">
     <g id="line2d_28">
      <g>
       <use style="stroke:#000000;stroke-width:0.6;" x="292.793827" xlink:href="#m2f8eb44fe1" y="315"/>
      </g>
     </g>
    </g>
    <g id="xtick_22">
     <g id="line2d_29">
      <g>
       <use style="stroke:#000000;stroke-width:0.6;" x="310.788299" xlink:href="#m2f8eb44fe1" y="315"/>
      </g>
     </g>
    </g>
    <g id="xtick_23">
     <g id="line2d_30">
      <g>
       <use style="stroke:#000000;stroke-width:0.6;" x="328.78277" xlink:href="#m2f8eb44fe1" y="315"/>
      </g>
     </g>
    </g>
    <g id="xtick_24">
     <g id="line2d_31">
      <g>
       <use style="stroke:#000000;stroke-width:0.6;" x="346.777242" xlink:href="#m2f8eb44fe1" y="315"/>
      </g>
     </g>
    </g>
    <g id="xtick_25">
     <g id="line2d_32">
      <g>
       <use style="stroke:#000000;stroke-width:0.6;" x="364.771714" xlink:href="#m2f8eb44fe1" y="315"/>
      </g>
     </g>
    </g>
    <g id="xtick_26">
     <g id="line2d_33">
      <g>
       <use style="stroke:#000000;stroke-width:0.6;" x="400.760657" xlink:href="#m2f8eb44fe1" y="315"/>
      </g>
     </g>
    </g>
    <g id="xtick_27">
     <g id="line2d_34">
      <g>
       <use style="stroke:#000000;stroke-width:0.6;" x="418.755129" xlink:href="#m2f8eb44fe1" y="315"/>
      </g>
     </g>
    </g>
   </g>
   <g id="matplotlib.axis_2">
    <g id="ytick_1">
     <g id="line2d_35">
      <path clip-path="url(#p8700586bc6)" d="M 46.0125 302.645455 
L 426.467045 302.645455 
" style="fill:none;stroke:#b0b0b0;stroke-linecap:square;stroke-width:0.8;"/>
     </g>
     <g id="line2d_36">
      <defs>
       <path d="M 0 0 
L -3.5 0 
" id="mdd5c177564" style="stroke:#000000;stroke-width:0.8;"/>
      </defs>
      <g>
       <use style="stroke:#000000;stroke-width:0.8;" x="46.0125" xlink:href="#mdd5c177564" y="302.645455"/>
      </g>
     </g>
     <g id="text_6">
      <!-- 0 -->
      <g transform="translate(32.65 306.444673)scale(0.1 -0.1)">
       <use xlink:href="#DejaVuSans-48"/>
      </g>
     </g>
    </g>
    <g id="ytick_2">
     <g id="line2d_37">
      <path clip-path="url(#p8700586bc6)" d="M 46.0125 249.209225 
L 426.467045 249.209225 
" style="fill:none;stroke:#b0b0b0;stroke-linecap:square;stroke-width:0.8;"/>
     </g>
     <g id="line2d_38">
      <g>
       <use style="stroke:#000000;stroke-width:0.8;" x="46.0125" xlink:href="#mdd5c177564" y="249.209225"/>
      </g>
     </g>
     <g id="text_7">
      <!-- 5000 -->
      <defs>
       <path d="M 10.796875 72.90625 
L 49.515625 72.90625 
L 49.515625 64.59375 
L 19.828125 64.59375 
L 19.828125 46.734375 
Q 21.96875 47.46875 24.109375 47.828125 
Q 26.265625 48.1875 28.421875 48.1875 
Q 40.625 48.1875 47.75 41.5 
Q 54.890625 34.8125 54.890625 23.390625 
Q 54.890625 11.625 47.5625 5.09375 
Q 40.234375 -1.421875 26.90625 -1.421875 
Q 22.3125 -1.421875 17.546875 -0.640625 
Q 12.796875 0.140625 7.71875 1.703125 
L 7.71875 11.625 
Q 12.109375 9.234375 16.796875 8.0625 
Q 21.484375 6.890625 26.703125 6.890625 
Q 35.15625 6.890625 40.078125 11.328125 
Q 45.015625 15.765625 45.015625 23.390625 
Q 45.015625 31 40.078125 35.4375 
Q 35.15625 39.890625 26.703125 39.890625 
Q 22.75 39.890625 18.8125 39.015625 
Q 14.890625 38.140625 10.796875 36.28125 
z
" id="DejaVuSans-53"/>
      </defs>
      <g transform="translate(13.5625 253.008443)scale(0.1 -0.1)">
       <use xlink:href="#DejaVuSans-53"/>
       <use x="63.623047" xlink:href="#DejaVuSans-48"/>
       <use x="127.246094" xlink:href="#DejaVuSans-48"/>
       <use x="190.869141" xlink:href="#DejaVuSans-48"/>
      </g>
     </g>
    </g>
    <g id="ytick_3">
     <g id="line2d_39">
      <path clip-path="url(#p8700586bc6)" d="M 46.0125 195.772995 
L 426.467045 195.772995 
" style="fill:none;stroke:#b0b0b0;stroke-linecap:square;stroke-width:0.8;"/>
     </g>
     <g id="line2d_40">
      <g>
       <use style="stroke:#000000;stroke-width:0.8;" x="46.0125" xlink:href="#mdd5c177564" y="195.772995"/>
      </g>
     </g>
     <g id="text_8">
      <!-- 10000 -->
      <defs>
       <path d="M 12.40625 8.296875 
L 28.515625 8.296875 
L 28.515625 63.921875 
L 10.984375 60.40625 
L 10.984375 69.390625 
L 28.421875 72.90625 
L 38.28125 72.90625 
L 38.28125 8.296875 
L 54.390625 8.296875 
L 54.390625 0 
L 12.40625 0 
z
" id="DejaVuSans-49"/>
      </defs>
      <g transform="translate(7.2 199.572214)scale(0.1 -0.1)">
       <use xlink:href="#DejaVuSans-49"/>
       <use x="63.623047" xlink:href="#DejaVuSans-48"/>
       <use x="127.246094" xlink:href="#DejaVuSans-48"/>
       <use x="190.869141" xlink:href="#DejaVuSans-48"/>
       <use x="254.492188" xlink:href="#DejaVuSans-48"/>
      </g>
     </g>
    </g>
    <g id="ytick_4">
     <g id="line2d_41">
      <path clip-path="url(#p8700586bc6)" d="M 46.0125 142.336765 
L 426.467045 142.336765 
" style="fill:none;stroke:#b0b0b0;stroke-linecap:square;stroke-width:0.8;"/>
     </g>
     <g id="line2d_42">
      <g>
       <use style="stroke:#000000;stroke-width:0.8;" x="46.0125" xlink:href="#mdd5c177564" y="142.336765"/>
      </g>
     </g>
     <g id="text_9">
      <!-- 15000 -->
      <g transform="translate(7.2 146.135984)scale(0.1 -0.1)">
       <use xlink:href="#DejaVuSans-49"/>
       <use x="63.623047" xlink:href="#DejaVuSans-53"/>
       <use x="127.246094" xlink:href="#DejaVuSans-48"/>
       <use x="190.869141" xlink:href="#DejaVuSans-48"/>
       <use x="254.492188" xlink:href="#DejaVuSans-48"/>
      </g>
     </g>
    </g>
    <g id="ytick_5">
     <g id="line2d_43">
      <path clip-path="url(#p8700586bc6)" d="M 46.0125 88.900535 
L 426.467045 88.900535 
" style="fill:none;stroke:#b0b0b0;stroke-linecap:square;stroke-width:0.8;"/>
     </g>
     <g id="line2d_44">
      <g>
       <use style="stroke:#000000;stroke-width:0.8;" x="46.0125" xlink:href="#mdd5c177564" y="88.900535"/>
      </g>
     </g>
     <g id="text_10">
      <!-- 20000 -->
      <g transform="translate(7.2 92.699754)scale(0.1 -0.1)">
       <use xlink:href="#DejaVuSans-50"/>
       <use x="63.623047" xlink:href="#DejaVuSans-48"/>
       <use x="127.246094" xlink:href="#DejaVuSans-48"/>
       <use x="190.869141" xlink:href="#DejaVuSans-48"/>
       <use x="254.492188" xlink:href="#DejaVuSans-48"/>
      </g>
     </g>
    </g>
   </g>
   <g id="line2d_45">
    <defs>
     <path d="M 0 1.5 
C 0.397805 1.5 0.77937 1.341951 1.06066 1.06066 
C 1.341951 0.77937 1.5 0.397805 1.5 0 
C 1.5 -0.397805 1.341951 -0.77937 1.06066 -1.06066 
C 0.77937 -1.341951 0.397805 -1.5 0 -1.5 
C -0.397805 -1.5 -0.77937 -1.341951 -1.06066 -1.06066 
C -1.341951 -0.77937 -1.5 -0.397805 -1.5 0 
C -1.5 0.397805 -1.341951 0.77937 -1.06066 1.06066 
C -0.77937 1.341951 -0.397805 1.5 0 1.5 
z
" id="m2b418301be" style="stroke:#000000;"/>
    </defs>
    <g clip-path="url(#p8700586bc6)">
     <use style="stroke:#000000;" x="46.0125" xlink:href="#m2b418301be" y="302.645455"/>
     <use style="stroke:#000000;" x="48.583139" xlink:href="#m2b418301be" y="302.645455"/>
     <use style="stroke:#000000;" x="51.153778" xlink:href="#m2b418301be" y="302.645455"/>
     <use style="stroke:#000000;" x="53.724416" xlink:href="#m2b418301be" y="302.645455"/>
     <use style="stroke:#000000;" x="56.295055" xlink:href="#m2b418301be" y="302.645455"/>
     <use style="stroke:#000000;" x="58.865694" xlink:href="#m2b418301be" y="302.645455"/>
     <use style="stroke:#000000;" x="61.436333" xlink:href="#m2b418301be" y="302.645455"/>
     <use style="stroke:#000000;" x="64.006972" xlink:href="#m2b418301be" y="302.645455"/>
     <use style="stroke:#000000;" x="66.577611" xlink:href="#m2b418301be" y="302.645455"/>
     <use style="stroke:#000000;" x="69.148249" xlink:href="#m2b418301be" y="302.645455"/>
     <use style="stroke:#000000;" x="71.718888" xlink:href="#m2b418301be" y="302.645455"/>
     <use style="stroke:#000000;" x="74.289527" xlink:href="#m2b418301be" y="302.645455"/>
     <use style="stroke:#000000;" x="76.860166" xlink:href="#m2b418301be" y="302.645455"/>
     <use style="stroke:#000000;" x="79.430805" xlink:href="#m2b418301be" y="302.645455"/>
     <use style="stroke:#000000;" x="82.001443" xlink:href="#m2b418301be" y="302.645455"/>
     <use style="stroke:#000000;" x="84.572082" xlink:href="#m2b418301be" y="302.645455"/>
     <use style="stroke:#000000;" x="87.142721" xlink:href="#m2b418301be" y="302.645455"/>
     <use style="stroke:#000000;" x="89.71336" xlink:href="#m2b418301be" y="302.645455"/>
     <use style="stroke:#000000;" x="92.283999" xlink:href="#m2b418301be" y="302.645455"/>
     <use style="stroke:#000000;" x="94.854638" xlink:href="#m2b418301be" y="302.645455"/>
     <use style="stroke:#000000;" x="97.425276" xlink:href="#m2b418301be" y="302.645455"/>
     <use style="stroke:#000000;" x="99.995915" xlink:href="#m2b418301be" y="302.645455"/>
     <use style="stroke:#000000;" x="102.566554" xlink:href="#m2b418301be" y="302.645455"/>
     <use style="stroke:#000000;" x="105.137193" xlink:href="#m2b418301be" y="302.645455"/>
     <use style="stroke:#000000;" x="107.707832" xlink:href="#m2b418301be" y="302.645455"/>
     <use style="stroke:#000000;" x="110.278471" xlink:href="#m2b418301be" y="302.645455"/>
     <use style="stroke:#000000;" x="112.849109" xlink:href="#m2b418301be" y="302.645455"/>
     <use style="stroke:#000000;" x="115.419748" xlink:href="#m2b418301be" y="302.645455"/>
     <use style="stroke:#000000;" x="117.990387" xlink:href="#m2b418301be" y="302.645455"/>
     <use style="stroke:#000000;" x="120.561026" xlink:href="#m2b418301be" y="302.645455"/>
     <use style="stroke:#000000;" x="123.131665" xlink:href="#m2b418301be" y="302.645455"/>
     <use style="stroke:#000000;" x="125.702303" xlink:href="#m2b418301be" y="302.645455"/>
     <use style="stroke:#000000;" x="128.272942" xlink:href="#m2b418301be" y="302.645455"/>
     <use style="stroke:#000000;" x="130.843581" xlink:href="#m2b418301be" y="302.645455"/>
     <use style="stroke:#000000;" x="133.41422" xlink:href="#m2b418301be" y="302.645455"/>
     <use style="stroke:#000000;" x="135.984859" xlink:href="#m2b418301be" y="302.645455"/>
     <use style="stroke:#000000;" x="138.555498" xlink:href="#m2b418301be" y="302.645455"/>
     <use style="stroke:#000000;" x="141.126136" xlink:href="#m2b418301be" y="302.645455"/>
     <use style="stroke:#000000;" x="143.696775" xlink:href="#m2b418301be" y="302.645455"/>
     <use style="stroke:#000000;" x="146.267414" xlink:href="#m2b418301be" y="302.645455"/>
     <use style="stroke:#000000;" x="148.838053" xlink:href="#m2b418301be" y="302.62408"/>
     <use style="stroke:#000000;" x="151.408692" xlink:href="#m2b418301be" y="302.62408"/>
     <use style="stroke:#000000;" x="153.97933" xlink:href="#m2b418301be" y="302.62408"/>
     <use style="stroke:#000000;" x="156.549969" xlink:href="#m2b418301be" y="302.62408"/>
     <use style="stroke:#000000;" x="159.120608" xlink:href="#m2b418301be" y="302.602706"/>
     <use style="stroke:#000000;" x="161.691247" xlink:href="#m2b418301be" y="302.602706"/>
     <use style="stroke:#000000;" x="164.261886" xlink:href="#m2b418301be" y="302.581331"/>
     <use style="stroke:#000000;" x="166.832525" xlink:href="#m2b418301be" y="302.442397"/>
     <use style="stroke:#000000;" x="169.403163" xlink:href="#m2b418301be" y="302.356899"/>
     <use style="stroke:#000000;" x="171.973802" xlink:href="#m2b418301be" y="302.282088"/>
     <use style="stroke:#000000;" x="174.544441" xlink:href="#m2b418301be" y="302.282088"/>
     <use style="stroke:#000000;" x="177.11508" xlink:href="#m2b418301be" y="301.908035"/>
     <use style="stroke:#000000;" x="179.685719" xlink:href="#m2b418301be" y="301.619479"/>
     <use style="stroke:#000000;" x="182.256357" xlink:href="#m2b418301be" y="301.395047"/>
     <use style="stroke:#000000;" x="184.826996" xlink:href="#m2b418301be" y="301.213364"/>
     <use style="stroke:#000000;" x="187.397635" xlink:href="#m2b418301be" y="300.807248"/>
     <use style="stroke:#000000;" x="189.968274" xlink:href="#m2b418301be" y="300.21945"/>
     <use style="stroke:#000000;" x="192.538913" xlink:href="#m2b418301be" y="299.321721"/>
     <use style="stroke:#000000;" x="195.109552" xlink:href="#m2b418301be" y="298.701861"/>
     <use style="stroke:#000000;" x="197.68019" xlink:href="#m2b418301be" y="297.836194"/>
     <use style="stroke:#000000;" x="200.250829" xlink:href="#m2b418301be" y="297.15221"/>
     <use style="stroke:#000000;" x="202.821468" xlink:href="#m2b418301be" y="296.457539"/>
     <use style="stroke:#000000;" x="205.392107" xlink:href="#m2b418301be" y="295.314004"/>
     <use style="stroke:#000000;" x="207.962746" xlink:href="#m2b418301be" y="294.20253"/>
     <use style="stroke:#000000;" x="210.533385" xlink:href="#m2b418301be" y="293.101744"/>
     <use style="stroke:#000000;" x="213.104023" xlink:href="#m2b418301be" y="291.466595"/>
     <use style="stroke:#000000;" x="215.674662" xlink:href="#m2b418301be" y="290.301685"/>
     <use style="stroke:#000000;" x="218.245301" xlink:href="#m2b418301be" y="288.912343"/>
     <use style="stroke:#000000;" x="220.81594" xlink:href="#m2b418301be" y="287.533689"/>
     <use style="stroke:#000000;" x="223.386579" xlink:href="#m2b418301be" y="286.315343"/>
     <use style="stroke:#000000;" x="225.957217" xlink:href="#m2b418301be" y="284.722943"/>
     <use style="stroke:#000000;" x="228.527856" xlink:href="#m2b418301be" y="283.515284"/>
     <use style="stroke:#000000;" x="231.098495" xlink:href="#m2b418301be" y="281.420584"/>
     <use style="stroke:#000000;" x="233.669134" xlink:href="#m2b418301be" y="280.287736"/>
     <use style="stroke:#000000;" x="236.239773" xlink:href="#m2b418301be" y="278.353344"/>
     <use style="stroke:#000000;" x="238.810412" xlink:href="#m2b418301be" y="276.023525"/>
     <use style="stroke:#000000;" x="241.38105" xlink:href="#m2b418301be" y="273.383775"/>
     <use style="stroke:#000000;" x="243.951689" xlink:href="#m2b418301be" y="271.053955"/>
     <use style="stroke:#000000;" x="246.522328" xlink:href="#m2b418301be" y="267.452354"/>
     <use style="stroke:#000000;" x="249.092967" xlink:href="#m2b418301be" y="265.111847"/>
     <use style="stroke:#000000;" x="251.663606" xlink:href="#m2b418301be" y="261.585056"/>
     <use style="stroke:#000000;" x="254.234244" xlink:href="#m2b418301be" y="257.320844"/>
     <use style="stroke:#000000;" x="256.804883" xlink:href="#m2b418301be" y="253.943675"/>
     <use style="stroke:#000000;" x="259.375522" xlink:href="#m2b418301be" y="250.929871"/>
     <use style="stroke:#000000;" x="261.946161" xlink:href="#m2b418301be" y="247.755759"/>
     <use style="stroke:#000000;" x="264.5168" xlink:href="#m2b418301be" y="243.694606"/>
     <use style="stroke:#000000;" x="267.087439" xlink:href="#m2b418301be" y="239.344897"/>
     <use style="stroke:#000000;" x="269.658077" xlink:href="#m2b418301be" y="235.871542"/>
     <use style="stroke:#000000;" x="272.228716" xlink:href="#m2b418301be" y="232.376812"/>
     <use style="stroke:#000000;" x="274.799355" xlink:href="#m2b418301be" y="230.399672"/>
     <use style="stroke:#000000;" x="277.369994" xlink:href="#m2b418301be" y="226.391955"/>
     <use style="stroke:#000000;" x="279.940633" xlink:href="#m2b418301be" y="223.367464"/>
     <use style="stroke:#000000;" x="282.511271" xlink:href="#m2b418301be" y="219.552117"/>
     <use style="stroke:#000000;" x="285.08191" xlink:href="#m2b418301be" y="214.892478"/>
     <use style="stroke:#000000;" x="287.652549" xlink:href="#m2b418301be" y="210.660328"/>
     <use style="stroke:#000000;" x="290.223188" xlink:href="#m2b418301be" y="207.721336"/>
     <use style="stroke:#000000;" x="292.793827" xlink:href="#m2b418301be" y="205.434265"/>
     <use style="stroke:#000000;" x="295.364466" xlink:href="#m2b418301be" y="200.999058"/>
     <use style="stroke:#000000;" x="297.935104" xlink:href="#m2b418301be" y="198.220374"/>
     <use style="stroke:#000000;" x="300.505743" xlink:href="#m2b418301be" y="194.5119"/>
     <use style="stroke:#000000;" x="303.076382" xlink:href="#m2b418301be" y="189.884322"/>
     <use style="stroke:#000000;" x="305.647021" xlink:href="#m2b418301be" y="186.763646"/>
     <use style="stroke:#000000;" x="308.21766" xlink:href="#m2b418301be" y="183.033798"/>
     <use style="stroke:#000000;" x="310.788299" xlink:href="#m2b418301be" y="178.812335"/>
     <use style="stroke:#000000;" x="313.358937" xlink:href="#m2b418301be" y="173.639708"/>
     <use style="stroke:#000000;" x="315.929576" xlink:href="#m2b418301be" y="169.717489"/>
     <use style="stroke:#000000;" x="318.500215" xlink:href="#m2b418301be" y="166.1052"/>
     <use style="stroke:#000000;" x="321.070854" xlink:href="#m2b418301be" y="162.514285"/>
     <use style="stroke:#000000;" x="323.641493" xlink:href="#m2b418301be" y="156.817983"/>
     <use style="stroke:#000000;" x="326.212131" xlink:href="#m2b418301be" y="152.682019"/>
     <use style="stroke:#000000;" x="328.78277" xlink:href="#m2b418301be" y="150.191891"/>
     <use style="stroke:#000000;" x="331.353409" xlink:href="#m2b418301be" y="145.019264"/>
     <use style="stroke:#000000;" x="333.924048" xlink:href="#m2b418301be" y="137.655751"/>
     <use style="stroke:#000000;" x="336.494687" xlink:href="#m2b418301be" y="131.585396"/>
     <use style="stroke:#000000;" x="339.065326" xlink:href="#m2b418301be" y="126.348645"/>
     <use style="stroke:#000000;" x="341.635964" xlink:href="#m2b418301be" y="120.695092"/>
     <use style="stroke:#000000;" x="344.206603" xlink:href="#m2b418301be" y="115.469029"/>
     <use style="stroke:#000000;" x="346.777242" xlink:href="#m2b418301be" y="110.168155"/>
     <use style="stroke:#000000;" x="349.347881" xlink:href="#m2b418301be" y="104.974153"/>
     <use style="stroke:#000000;" x="351.91852" xlink:href="#m2b418301be" y="97.567892"/>
    </g>
   </g>
   <g id="line2d_46">
    <path clip-path="url(#p8700586bc6)" d="M 46.0125 302.536296 
L 84.572082 302.305888 
L 107.707832 301.975099 
L 125.702303 301.508676 
L 138.555498 300.98899 
L 151.408692 300.234055 
L 161.691247 299.392237 
L 169.403163 298.576217 
L 177.11508 297.559773 
L 184.826996 296.296061 
L 192.538913 294.728596 
L 197.68019 293.482074 
L 202.821468 292.047972 
L 207.962746 290.400963 
L 213.104023 288.513261 
L 218.245301 286.354699 
L 223.386579 283.892944 
L 228.527856 281.093877 
L 233.669134 277.92219 
L 238.810412 274.342234 
L 243.951689 270.319156 
L 249.092967 265.820352 
L 254.234244 260.817228 
L 259.375522 255.287255 
L 264.5168 249.216214 
L 269.658077 242.600528 
L 274.799355 235.449478 
L 279.940633 227.787086 
L 285.08191 219.653382 
L 290.223188 211.104833 
L 297.935104 197.666124 
L 308.21766 179.079012 
L 318.500215 160.486232 
L 326.212131 147.036359 
L 331.353409 138.47762 
L 336.494687 130.331992 
L 341.635964 122.656376 
L 346.777242 115.491243 
L 351.91852 108.861028 
L 351.91852 108.861028 
" style="fill:none;stroke:#008000;stroke-linecap:square;stroke-width:1.5;"/>
   </g>
   <g id="line2d_47">
    <path clip-path="url(#p8700586bc6)" d="M 354.489158 102.775387 
L 359.630436 97.231059 
L 364.771714 92.214081 
L 369.912991 87.702113 
L 375.054269 83.6667 
L 380.195547 80.075318 
L 385.336824 76.893156 
L 390.478102 74.084569 
L 395.61938 71.614227 
L 400.760657 69.447972 
L 405.901935 67.553416 
L 411.043213 65.900331 
L 416.18449 64.460865 
L 421.325768 63.209626 
L 426.467045 62.123672 
L 426.467045 62.123672 
" style="fill:none;stroke:#ff0000;stroke-linecap:square;stroke-width:1.5;"/>
   </g>
   <g id="patch_3">
    <path d="M 46.0125 315 
L 46.0125 43.2 
" style="fill:none;stroke:#000000;stroke-linecap:square;stroke-linejoin:miter;stroke-width:0.8;"/>
   </g>
   <g id="patch_4">
    <path d="M 426.467045 315 
L 426.467045 43.2 
" style="fill:none;stroke:#000000;stroke-linecap:square;stroke-linejoin:miter;stroke-width:0.8;"/>
   </g>
   <g id="patch_5">
    <path d="M 46.0125 315 
L 426.467045 315 
" style="fill:none;stroke:#000000;stroke-linecap:square;stroke-linejoin:miter;stroke-width:0.8;"/>
   </g>
   <g id="patch_6">
    <path d="M 46.0125 43.2 
L 426.467045 43.2 
" style="fill:none;stroke:#000000;stroke-linecap:square;stroke-linejoin:miter;stroke-width:0.8;"/>
   </g>
   <g id="text_11">
    <!-- Parametric Fitting -->
    <defs>
     <path d="M 19.671875 64.796875 
L 19.671875 37.40625 
L 32.078125 37.40625 
Q 38.96875 37.40625 42.71875 40.96875 
Q 46.484375 44.53125 46.484375 51.125 
Q 46.484375 57.671875 42.71875 61.234375 
Q 38.96875 64.796875 32.078125 64.796875 
z
M 9.8125 72.90625 
L 32.078125 72.90625 
Q 44.34375 72.90625 50.609375 67.359375 
Q 56.890625 61.8125 56.890625 51.125 
Q 56.890625 40.328125 50.609375 34.8125 
Q 44.34375 29.296875 32.078125 29.296875 
L 19.671875 29.296875 
L 19.671875 0 
L 9.8125 0 
z
" id="DejaVuSans-80"/>
     <path d="M 52 44.1875 
Q 55.375 50.25 60.0625 53.125 
Q 64.75 56 71.09375 56 
Q 79.640625 56 84.28125 50.015625 
Q 88.921875 44.046875 88.921875 33.015625 
L 88.921875 0 
L 79.890625 0 
L 79.890625 32.71875 
Q 79.890625 40.578125 77.09375 44.375 
Q 74.3125 48.1875 68.609375 48.1875 
Q 61.625 48.1875 57.5625 43.546875 
Q 53.515625 38.921875 53.515625 30.90625 
L 53.515625 0 
L 44.484375 0 
L 44.484375 32.71875 
Q 44.484375 40.625 41.703125 44.40625 
Q 38.921875 48.1875 33.109375 48.1875 
Q 26.21875 48.1875 22.15625 43.53125 
Q 18.109375 38.875 18.109375 30.90625 
L 18.109375 0 
L 9.078125 0 
L 9.078125 54.6875 
L 18.109375 54.6875 
L 18.109375 46.1875 
Q 21.1875 51.21875 25.484375 53.609375 
Q 29.78125 56 35.6875 56 
Q 41.65625 56 45.828125 52.96875 
Q 50 49.953125 52 44.1875 
z
" id="DejaVuSans-109"/>
     <path d="M 18.3125 70.21875 
L 18.3125 54.6875 
L 36.8125 54.6875 
L 36.8125 47.703125 
L 18.3125 47.703125 
L 18.3125 18.015625 
Q 18.3125 11.328125 20.140625 9.421875 
Q 21.96875 7.515625 27.59375 7.515625 
L 36.8125 7.515625 
L 36.8125 0 
L 27.59375 0 
Q 17.1875 0 13.234375 3.875 
Q 9.28125 7.765625 9.28125 18.015625 
L 9.28125 47.703125 
L 2.6875 47.703125 
L 2.6875 54.6875 
L 9.28125 54.6875 
L 9.28125 70.21875 
z
" id="DejaVuSans-116"/>
     <path d="M 9.421875 54.6875 
L 18.40625 54.6875 
L 18.40625 0 
L 9.421875 0 
z
M 9.421875 75.984375 
L 18.40625 75.984375 
L 18.40625 64.59375 
L 9.421875 64.59375 
z
" id="DejaVuSans-105"/>
     <path d="M 48.78125 52.59375 
L 48.78125 44.1875 
Q 44.96875 46.296875 41.140625 47.34375 
Q 37.3125 48.390625 33.40625 48.390625 
Q 24.65625 48.390625 19.8125 42.84375 
Q 14.984375 37.3125 14.984375 27.296875 
Q 14.984375 17.28125 19.8125 11.734375 
Q 24.65625 6.203125 33.40625 6.203125 
Q 37.3125 6.203125 41.140625 7.25 
Q 44.96875 8.296875 48.78125 10.40625 
L 48.78125 2.09375 
Q 45.015625 0.34375 40.984375 -0.53125 
Q 36.96875 -1.421875 32.421875 -1.421875 
Q 20.0625 -1.421875 12.78125 6.34375 
Q 5.515625 14.109375 5.515625 27.296875 
Q 5.515625 40.671875 12.859375 48.328125 
Q 20.21875 56 33.015625 56 
Q 37.15625 56 41.109375 55.140625 
Q 45.0625 54.296875 48.78125 52.59375 
z
" id="DejaVuSans-99"/>
     <path id="DejaVuSans-32"/>
     <path d="M 45.40625 27.984375 
Q 45.40625 37.75 41.375 43.109375 
Q 37.359375 48.484375 30.078125 48.484375 
Q 22.859375 48.484375 18.828125 43.109375 
Q 14.796875 37.75 14.796875 27.984375 
Q 14.796875 18.265625 18.828125 12.890625 
Q 22.859375 7.515625 30.078125 7.515625 
Q 37.359375 7.515625 41.375 12.890625 
Q 45.40625 18.265625 45.40625 27.984375 
z
M 54.390625 6.78125 
Q 54.390625 -7.171875 48.1875 -13.984375 
Q 42 -20.796875 29.203125 -20.796875 
Q 24.46875 -20.796875 20.265625 -20.09375 
Q 16.0625 -19.390625 12.109375 -17.921875 
L 12.109375 -9.1875 
Q 16.0625 -11.328125 19.921875 -12.34375 
Q 23.78125 -13.375 27.78125 -13.375 
Q 36.625 -13.375 41.015625 -8.765625 
Q 45.40625 -4.15625 45.40625 5.171875 
L 45.40625 9.625 
Q 42.625 4.78125 38.28125 2.390625 
Q 33.9375 0 27.875 0 
Q 17.828125 0 11.671875 7.65625 
Q 5.515625 15.328125 5.515625 27.984375 
Q 5.515625 40.671875 11.671875 48.328125 
Q 17.828125 56 27.875 56 
Q 33.9375 56 38.28125 53.609375 
Q 42.625 51.21875 45.40625 46.390625 
L 45.40625 54.6875 
L 54.390625 54.6875 
z
" id="DejaVuSans-103"/>
    </defs>
    <g transform="translate(183.17821 37.2)scale(0.12 -0.12)">
     <use xlink:href="#DejaVuSans-80"/>
     <use x="55.802734" xlink:href="#DejaVuSans-97"/>
     <use x="117.082031" xlink:href="#DejaVuSans-114"/>
     <use x="158.195312" xlink:href="#DejaVuSans-97"/>
     <use x="219.474609" xlink:href="#DejaVuSans-109"/>
     <use x="316.886719" xlink:href="#DejaVuSans-101"/>
     <use x="378.410156" xlink:href="#DejaVuSans-116"/>
     <use x="417.619141" xlink:href="#DejaVuSans-114"/>
     <use x="458.732422" xlink:href="#DejaVuSans-105"/>
     <use x="486.515625" xlink:href="#DejaVuSans-99"/>
     <use x="541.496094" xlink:href="#DejaVuSans-32"/>
     <use x="573.283203" xlink:href="#DejaVuSans-70"/>
     <use x="623.552734" xlink:href="#DejaVuSans-105"/>
     <use x="651.335938" xlink:href="#DejaVuSans-116"/>
     <use x="690.544922" xlink:href="#DejaVuSans-116"/>
     <use x="729.753906" xlink:href="#DejaVuSans-105"/>
     <use x="757.537109" xlink:href="#DejaVuSans-110"/>
     <use x="820.916016" xlink:href="#DejaVuSans-103"/>
    </g>
   </g>
   <g id="legend_1">
    <g id="patch_7">
     <path d="M 53.0125 80.55625 
L 125.446875 80.55625 
Q 127.446875 80.55625 127.446875 78.55625 
L 127.446875 50.2 
Q 127.446875 48.2 125.446875 48.2 
L 53.0125 48.2 
Q 51.0125 48.2 51.0125 50.2 
L 51.0125 78.55625 
Q 51.0125 80.55625 53.0125 80.55625 
z
" style="fill:#ffffff;opacity:0.8;stroke:#cccccc;stroke-linejoin:miter;"/>
    </g>
    <g id="line2d_48"/>
    <g id="line2d_49">
     <g>
      <use style="stroke:#000000;" x="65.0125" xlink:href="#m2b418301be" y="56.298437"/>
     </g>
    </g>
    <g id="text_12">
     <!-- model -->
     <defs>
      <path d="M 30.609375 48.390625 
Q 23.390625 48.390625 19.1875 42.75 
Q 14.984375 37.109375 14.984375 27.296875 
Q 14.984375 17.484375 19.15625 11.84375 
Q 23.34375 6.203125 30.609375 6.203125 
Q 37.796875 6.203125 41.984375 11.859375 
Q 46.1875 17.53125 46.1875 27.296875 
Q 46.1875 37.015625 41.984375 42.703125 
Q 37.796875 48.390625 30.609375 48.390625 
z
M 30.609375 56 
Q 42.328125 56 49.015625 48.375 
Q 55.71875 40.765625 55.71875 27.296875 
Q 55.71875 13.875 49.015625 6.21875 
Q 42.328125 -1.421875 30.609375 -1.421875 
Q 18.84375 -1.421875 12.171875 6.21875 
Q 5.515625 13.875 5.515625 27.296875 
Q 5.515625 40.765625 12.171875 48.375 
Q 18.84375 56 30.609375 56 
z
" id="DejaVuSans-111"/>
      <path d="M 45.40625 46.390625 
L 45.40625 75.984375 
L 54.390625 75.984375 
L 54.390625 0 
L 45.40625 0 
L 45.40625 8.203125 
Q 42.578125 3.328125 38.25 0.953125 
Q 33.9375 -1.421875 27.875 -1.421875 
Q 17.96875 -1.421875 11.734375 6.484375 
Q 5.515625 14.40625 5.515625 27.296875 
Q 5.515625 40.1875 11.734375 48.09375 
Q 17.96875 56 27.875 56 
Q 33.9375 56 38.25 53.625 
Q 42.578125 51.265625 45.40625 46.390625 
z
M 14.796875 27.296875 
Q 14.796875 17.390625 18.875 11.75 
Q 22.953125 6.109375 30.078125 6.109375 
Q 37.203125 6.109375 41.296875 11.75 
Q 45.40625 17.390625 45.40625 27.296875 
Q 45.40625 37.203125 41.296875 42.84375 
Q 37.203125 48.484375 30.078125 48.484375 
Q 22.953125 48.484375 18.875 42.84375 
Q 14.796875 37.203125 14.796875 27.296875 
z
" id="DejaVuSans-100"/>
      <path d="M 9.421875 75.984375 
L 18.40625 75.984375 
L 18.40625 0 
L 9.421875 0 
z
" id="DejaVuSans-108"/>
     </defs>
     <g transform="translate(83.0125 59.798437)scale(0.1 -0.1)">
      <use xlink:href="#DejaVuSans-109"/>
      <use x="97.412109" xlink:href="#DejaVuSans-111"/>
      <use x="158.59375" xlink:href="#DejaVuSans-100"/>
      <use x="222.070312" xlink:href="#DejaVuSans-101"/>
      <use x="283.59375" xlink:href="#DejaVuSans-108"/>
     </g>
    </g>
    <g id="line2d_50">
     <path d="M 55.0125 70.976562 
L 75.0125 70.976562 
" style="fill:none;stroke:#008000;stroke-linecap:square;stroke-width:1.5;"/>
    </g>
    <g id="line2d_51"/>
    <g id="text_13">
     <!-- forecast -->
     <defs>
      <path d="M 37.109375 75.984375 
L 37.109375 68.5 
L 28.515625 68.5 
Q 23.6875 68.5 21.796875 66.546875 
Q 19.921875 64.59375 19.921875 59.515625 
L 19.921875 54.6875 
L 34.71875 54.6875 
L 34.71875 47.703125 
L 19.921875 47.703125 
L 19.921875 0 
L 10.890625 0 
L 10.890625 47.703125 
L 2.296875 47.703125 
L 2.296875 54.6875 
L 10.890625 54.6875 
L 10.890625 58.5 
Q 10.890625 67.625 15.140625 71.796875 
Q 19.390625 75.984375 28.609375 75.984375 
z
" id="DejaVuSans-102"/>
      <path d="M 44.28125 53.078125 
L 44.28125 44.578125 
Q 40.484375 46.53125 36.375 47.5 
Q 32.28125 48.484375 27.875 48.484375 
Q 21.1875 48.484375 17.84375 46.4375 
Q 14.5 44.390625 14.5 40.28125 
Q 14.5 37.15625 16.890625 35.375 
Q 19.28125 33.59375 26.515625 31.984375 
L 29.59375 31.296875 
Q 39.15625 29.25 43.1875 25.515625 
Q 47.21875 21.78125 47.21875 15.09375 
Q 47.21875 7.46875 41.1875 3.015625 
Q 35.15625 -1.421875 24.609375 -1.421875 
Q 20.21875 -1.421875 15.453125 -0.5625 
Q 10.6875 0.296875 5.421875 2 
L 5.421875 11.28125 
Q 10.40625 8.6875 15.234375 7.390625 
Q 20.0625 6.109375 24.8125 6.109375 
Q 31.15625 6.109375 34.5625 8.28125 
Q 37.984375 10.453125 37.984375 14.40625 
Q 37.984375 18.0625 35.515625 20.015625 
Q 33.0625 21.96875 24.703125 23.78125 
L 21.578125 24.515625 
Q 13.234375 26.265625 9.515625 29.90625 
Q 5.8125 33.546875 5.8125 39.890625 
Q 5.8125 47.609375 11.28125 51.796875 
Q 16.75 56 26.8125 56 
Q 31.78125 56 36.171875 55.265625 
Q 40.578125 54.546875 44.28125 53.078125 
z
" id="DejaVuSans-115"/>
     </defs>
     <g transform="translate(83.0125 74.476562)scale(0.1 -0.1)">
      <use xlink:href="#DejaVuSans-102"/>
      <use x="35.205078" xlink:href="#DejaVuSans-111"/>
      <use x="96.386719" xlink:href="#DejaVuSans-114"/>
      <use x="135.25" xlink:href="#DejaVuSans-101"/>
      <use x="196.773438" xlink:href="#DejaVuSans-99"/>
      <use x="251.753906" xlink:href="#DejaVuSans-97"/>
      <use x="313.033203" xlink:href="#DejaVuSans-115"/>
      <use x="365.132812" xlink:href="#DejaVuSans-116"/>
     </g>
    </g>
   </g>
  </g>
  <g id="axes_2">
   <g id="patch_8">
    <path d="M 502.557955 315 
L 883.0125 315 
L 883.0125 43.2 
L 502.557955 43.2 
z
" style="fill:#ffffff;"/>
   </g>
   <g id="PolyCollection_2">
    <defs>
     <path d="M 699.344788 -259.885711 
L 699.344788 -241.45373 
L 705.90435 -245.436885 
L 712.463911 -249.232006 
L 719.023472 -252.841985 
L 725.583033 -256.27045 
L 732.142594 -259.521658 
L 738.702155 -262.600402 
L 745.261716 -265.511915 
L 751.821277 -268.261784 
L 758.380839 -270.855868 
L 764.9404 -273.300222 
L 771.499961 -275.601034 
L 778.059522 -277.764557 
L 784.619083 -279.797064 
L 791.178644 -281.704795 
L 797.738205 -283.493918 
L 804.297766 -285.170499 
L 810.857328 -286.740466 
L 817.416889 -288.209592 
L 823.97645 -289.583472 
L 830.536011 -290.867511 
L 837.095572 -292.066912 
L 843.655133 -293.186666 
L 850.214694 -294.231551 
L 856.774255 -295.206129 
L 863.333817 -296.114743 
L 869.893378 -296.961523 
L 876.452939 -297.750384 
L 883.0125 -298.485035 
L 883.0125 -316.917017 
L 883.0125 -316.917017 
L 876.452939 -316.182366 
L 869.893378 -315.393505 
L 863.333817 -314.546725 
L 856.774255 -313.63811 
L 850.214694 -312.663533 
L 843.655133 -311.618647 
L 837.095572 -310.498893 
L 830.536011 -309.299493 
L 823.97645 -308.015454 
L 817.416889 -306.641573 
L 810.857328 -305.172447 
L 804.297766 -303.60248 
L 797.738205 -301.9259 
L 791.178644 -300.136776 
L 784.619083 -298.229046 
L 778.059522 -296.196539 
L 771.499961 -294.033015 
L 764.9404 -291.732204 
L 758.380839 -289.287849 
L 751.821277 -286.693765 
L 745.261716 -283.943896 
L 738.702155 -281.032383 
L 732.142594 -277.953639 
L 725.583033 -274.702431 
L 719.023472 -271.273967 
L 712.463911 -267.663987 
L 705.90435 -263.868866 
L 699.344788 -259.885711 
z
" id="m1111a220b6" style="stroke:#0000ff;stroke-opacity:0.3;"/>
    </defs>
    <g clip-path="url(#pd9df7053b7)">
     <use style="fill:#0000ff;fill-opacity:0.3;stroke:#0000ff;stroke-opacity:0.3;" x="0" xlink:href="#m1111a220b6" y="372.471562"/>
    </g>
   </g>
   <g id="matplotlib.axis_3">
    <g id="xtick_28">
     <g id="line2d_52">
      <path clip-path="url(#pd9df7053b7)" d="M 502.557955 315 
L 502.557955 43.2 
" style="fill:none;stroke:#b0b0b0;stroke-linecap:square;stroke-width:0.8;"/>
     </g>
     <g id="line2d_53">
      <g>
       <use style="stroke:#000000;stroke-width:0.8;" x="502.557955" xlink:href="#mb210aece4a" y="315"/>
      </g>
     </g>
    </g>
    <g id="xtick_29">
     <g id="line2d_54">
      <path clip-path="url(#pd9df7053b7)" d="M 568.153566 315 
L 568.153566 43.2 
" style="fill:none;stroke:#b0b0b0;stroke-linecap:square;stroke-width:0.8;"/>
     </g>
     <g id="line2d_55">
      <g>
       <use style="stroke:#000000;stroke-width:0.8;" x="568.153566" xlink:href="#mb210aece4a" y="315"/>
      </g>
     </g>
     <g id="text_14">
      <!--  -->
      <g transform="translate(568.153566 329.598437)scale(0.1 -0.1)"/>
      <!--  -->
      <g transform="translate(568.153566 340.79625)scale(0.1 -0.1)"/>
      <!-- May -->
      <g transform="translate(557.816066 351.994062)scale(0.1 -0.1)">
       <use xlink:href="#DejaVuSans-77"/>
       <use x="86.279297" xlink:href="#DejaVuSans-97"/>
       <use x="147.558594" xlink:href="#DejaVuSans-121"/>
      </g>
      <!-- 2020 -->
      <g transform="translate(555.428566 363.191875)scale(0.1 -0.1)">
       <use xlink:href="#DejaVuSans-50"/>
       <use x="63.623047" xlink:href="#DejaVuSans-48"/>
       <use x="127.246094" xlink:href="#DejaVuSans-50"/>
       <use x="190.869141" xlink:href="#DejaVuSans-48"/>
      </g>
     </g>
    </g>
    <g id="xtick_30">
     <g id="line2d_56">
      <path clip-path="url(#pd9df7053b7)" d="M 771.499961 315 
L 771.499961 43.2 
" style="fill:none;stroke:#b0b0b0;stroke-linecap:square;stroke-width:0.8;"/>
     </g>
     <g id="line2d_57">
      <g>
       <use style="stroke:#000000;stroke-width:0.8;" x="771.499961" xlink:href="#mb210aece4a" y="315"/>
      </g>
     </g>
     <g id="text_15">
      <!--  -->
      <g transform="translate(771.499961 329.598437)scale(0.1 -0.1)"/>
      <!--  -->
      <g transform="translate(771.499961 340.79625)scale(0.1 -0.1)"/>
      <!-- Jun -->
      <g transform="translate(763.687461 351.994062)scale(0.1 -0.1)">
       <use xlink:href="#DejaVuSans-74"/>
       <use x="29.492188" xlink:href="#DejaVuSans-117"/>
       <use x="92.871094" xlink:href="#DejaVuSans-110"/>
      </g>
     </g>
    </g>
    <g id="xtick_31">
     <g id="line2d_58">
      <path clip-path="url(#pd9df7053b7)" d="M 883.0125 315 
L 883.0125 43.2 
" style="fill:none;stroke:#b0b0b0;stroke-linecap:square;stroke-width:0.8;"/>
     </g>
     <g id="line2d_59">
      <g>
       <use style="stroke:#000000;stroke-width:0.8;" x="883.0125" xlink:href="#mb210aece4a" y="315"/>
      </g>
     </g>
    </g>
    <g id="xtick_32">
     <g id="line2d_60">
      <g>
       <use style="stroke:#000000;stroke-width:0.6;" x="509.117516" xlink:href="#m2f8eb44fe1" y="315"/>
      </g>
     </g>
    </g>
    <g id="xtick_33">
     <g id="line2d_61">
      <g>
       <use style="stroke:#000000;stroke-width:0.6;" x="515.677077" xlink:href="#m2f8eb44fe1" y="315"/>
      </g>
     </g>
    </g>
    <g id="xtick_34">
     <g id="line2d_62">
      <g>
       <use style="stroke:#000000;stroke-width:0.6;" x="522.236638" xlink:href="#m2f8eb44fe1" y="315"/>
      </g>
     </g>
    </g>
    <g id="xtick_35">
     <g id="line2d_63">
      <g>
       <use style="stroke:#000000;stroke-width:0.6;" x="528.796199" xlink:href="#m2f8eb44fe1" y="315"/>
      </g>
     </g>
    </g>
    <g id="xtick_36">
     <g id="line2d_64">
      <g>
       <use style="stroke:#000000;stroke-width:0.6;" x="535.35576" xlink:href="#m2f8eb44fe1" y="315"/>
      </g>
     </g>
    </g>
    <g id="xtick_37">
     <g id="line2d_65">
      <g>
       <use style="stroke:#000000;stroke-width:0.6;" x="541.915321" xlink:href="#m2f8eb44fe1" y="315"/>
      </g>
     </g>
     <g id="text_16">
      <!-- 27 -->
      <defs>
       <path d="M 8.203125 72.90625 
L 55.078125 72.90625 
L 55.078125 68.703125 
L 28.609375 0 
L 18.3125 0 
L 43.21875 64.59375 
L 8.203125 64.59375 
z
" id="DejaVuSans-55"/>
      </defs>
      <g transform="translate(535.552821 327.998437)scale(0.1 -0.1)">
       <use xlink:href="#DejaVuSans-50"/>
       <use x="63.623047" xlink:href="#DejaVuSans-55"/>
      </g>
     </g>
    </g>
    <g id="xtick_38">
     <g id="line2d_66">
      <g>
       <use style="stroke:#000000;stroke-width:0.6;" x="548.474882" xlink:href="#m2f8eb44fe1" y="315"/>
      </g>
     </g>
    </g>
    <g id="xtick_39">
     <g id="line2d_67">
      <g>
       <use style="stroke:#000000;stroke-width:0.6;" x="555.034444" xlink:href="#m2f8eb44fe1" y="315"/>
      </g>
     </g>
    </g>
    <g id="xtick_40">
     <g id="line2d_68">
      <g>
       <use style="stroke:#000000;stroke-width:0.6;" x="561.594005" xlink:href="#m2f8eb44fe1" y="315"/>
      </g>
     </g>
    </g>
    <g id="xtick_41">
     <g id="line2d_69">
      <g>
       <use style="stroke:#000000;stroke-width:0.6;" x="574.713127" xlink:href="#m2f8eb44fe1" y="315"/>
      </g>
     </g>
    </g>
    <g id="xtick_42">
     <g id="line2d_70">
      <g>
       <use style="stroke:#000000;stroke-width:0.6;" x="581.272688" xlink:href="#m2f8eb44fe1" y="315"/>
      </g>
     </g>
    </g>
    <g id="xtick_43">
     <g id="line2d_71">
      <g>
       <use style="stroke:#000000;stroke-width:0.6;" x="587.832249" xlink:href="#m2f8eb44fe1" y="315"/>
      </g>
     </g>
     <g id="text_17">
      <!-- 04 -->
      <defs>
       <path d="M 37.796875 64.3125 
L 12.890625 25.390625 
L 37.796875 25.390625 
z
M 35.203125 72.90625 
L 47.609375 72.90625 
L 47.609375 25.390625 
L 58.015625 25.390625 
L 58.015625 17.1875 
L 47.609375 17.1875 
L 47.609375 0 
L 37.796875 0 
L 37.796875 17.1875 
L 4.890625 17.1875 
L 4.890625 26.703125 
z
" id="DejaVuSans-52"/>
      </defs>
      <g transform="translate(581.469749 327.998437)scale(0.1 -0.1)">
       <use xlink:href="#DejaVuSans-48"/>
       <use x="63.623047" xlink:href="#DejaVuSans-52"/>
      </g>
     </g>
    </g>
    <g id="xtick_44">
     <g id="line2d_72">
      <g>
       <use style="stroke:#000000;stroke-width:0.6;" x="594.39181" xlink:href="#m2f8eb44fe1" y="315"/>
      </g>
     </g>
    </g>
    <g id="xtick_45">
     <g id="line2d_73">
      <g>
       <use style="stroke:#000000;stroke-width:0.6;" x="600.951371" xlink:href="#m2f8eb44fe1" y="315"/>
      </g>
     </g>
    </g>
    <g id="xtick_46">
     <g id="line2d_74">
      <g>
       <use style="stroke:#000000;stroke-width:0.6;" x="607.510933" xlink:href="#m2f8eb44fe1" y="315"/>
      </g>
     </g>
    </g>
    <g id="xtick_47">
     <g id="line2d_75">
      <g>
       <use style="stroke:#000000;stroke-width:0.6;" x="614.070494" xlink:href="#m2f8eb44fe1" y="315"/>
      </g>
     </g>
    </g>
    <g id="xtick_48">
     <g id="line2d_76">
      <g>
       <use style="stroke:#000000;stroke-width:0.6;" x="620.630055" xlink:href="#m2f8eb44fe1" y="315"/>
      </g>
     </g>
    </g>
    <g id="xtick_49">
     <g id="line2d_77">
      <g>
       <use style="stroke:#000000;stroke-width:0.6;" x="627.189616" xlink:href="#m2f8eb44fe1" y="315"/>
      </g>
     </g>
    </g>
    <g id="xtick_50">
     <g id="line2d_78">
      <g>
       <use style="stroke:#000000;stroke-width:0.6;" x="633.749177" xlink:href="#m2f8eb44fe1" y="315"/>
      </g>
     </g>
     <g id="text_18">
      <!-- 11 -->
      <g transform="translate(627.386677 327.998437)scale(0.1 -0.1)">
       <use xlink:href="#DejaVuSans-49"/>
       <use x="63.623047" xlink:href="#DejaVuSans-49"/>
      </g>
     </g>
    </g>
    <g id="xtick_51">
     <g id="line2d_79">
      <g>
       <use style="stroke:#000000;stroke-width:0.6;" x="640.308738" xlink:href="#m2f8eb44fe1" y="315"/>
      </g>
     </g>
    </g>
    <g id="xtick_52">
     <g id="line2d_80">
      <g>
       <use style="stroke:#000000;stroke-width:0.6;" x="646.868299" xlink:href="#m2f8eb44fe1" y="315"/>
      </g>
     </g>
    </g>
    <g id="xtick_53">
     <g id="line2d_81">
      <g>
       <use style="stroke:#000000;stroke-width:0.6;" x="653.427861" xlink:href="#m2f8eb44fe1" y="315"/>
      </g>
     </g>
    </g>
    <g id="xtick_54">
     <g id="line2d_82">
      <g>
       <use style="stroke:#000000;stroke-width:0.6;" x="659.987422" xlink:href="#m2f8eb44fe1" y="315"/>
      </g>
     </g>
    </g>
    <g id="xtick_55">
     <g id="line2d_83">
      <g>
       <use style="stroke:#000000;stroke-width:0.6;" x="666.546983" xlink:href="#m2f8eb44fe1" y="315"/>
      </g>
     </g>
    </g>
    <g id="xtick_56">
     <g id="line2d_84">
      <g>
       <use style="stroke:#000000;stroke-width:0.6;" x="673.106544" xlink:href="#m2f8eb44fe1" y="315"/>
      </g>
     </g>
    </g>
    <g id="xtick_57">
     <g id="line2d_85">
      <g>
       <use style="stroke:#000000;stroke-width:0.6;" x="679.666105" xlink:href="#m2f8eb44fe1" y="315"/>
      </g>
     </g>
     <g id="text_19">
      <!-- 18 -->
      <defs>
       <path d="M 31.78125 34.625 
Q 24.75 34.625 20.71875 30.859375 
Q 16.703125 27.09375 16.703125 20.515625 
Q 16.703125 13.921875 20.71875 10.15625 
Q 24.75 6.390625 31.78125 6.390625 
Q 38.8125 6.390625 42.859375 10.171875 
Q 46.921875 13.96875 46.921875 20.515625 
Q 46.921875 27.09375 42.890625 30.859375 
Q 38.875 34.625 31.78125 34.625 
z
M 21.921875 38.8125 
Q 15.578125 40.375 12.03125 44.71875 
Q 8.5 49.078125 8.5 55.328125 
Q 8.5 64.0625 14.71875 69.140625 
Q 20.953125 74.21875 31.78125 74.21875 
Q 42.671875 74.21875 48.875 69.140625 
Q 55.078125 64.0625 55.078125 55.328125 
Q 55.078125 49.078125 51.53125 44.71875 
Q 48 40.375 41.703125 38.8125 
Q 48.828125 37.15625 52.796875 32.3125 
Q 56.78125 27.484375 56.78125 20.515625 
Q 56.78125 9.90625 50.3125 4.234375 
Q 43.84375 -1.421875 31.78125 -1.421875 
Q 19.734375 -1.421875 13.25 4.234375 
Q 6.78125 9.90625 6.78125 20.515625 
Q 6.78125 27.484375 10.78125 32.3125 
Q 14.796875 37.15625 21.921875 38.8125 
z
M 18.3125 54.390625 
Q 18.3125 48.734375 21.84375 45.5625 
Q 25.390625 42.390625 31.78125 42.390625 
Q 38.140625 42.390625 41.71875 45.5625 
Q 45.3125 48.734375 45.3125 54.390625 
Q 45.3125 60.0625 41.71875 63.234375 
Q 38.140625 66.40625 31.78125 66.40625 
Q 25.390625 66.40625 21.84375 63.234375 
Q 18.3125 60.0625 18.3125 54.390625 
z
" id="DejaVuSans-56"/>
      </defs>
      <g transform="translate(673.303605 327.998437)scale(0.1 -0.1)">
       <use xlink:href="#DejaVuSans-49"/>
       <use x="63.623047" xlink:href="#DejaVuSans-56"/>
      </g>
     </g>
    </g>
    <g id="xtick_58">
     <g id="line2d_86">
      <g>
       <use style="stroke:#000000;stroke-width:0.6;" x="686.225666" xlink:href="#m2f8eb44fe1" y="315"/>
      </g>
     </g>
    </g>
    <g id="xtick_59">
     <g id="line2d_87">
      <g>
       <use style="stroke:#000000;stroke-width:0.6;" x="692.785227" xlink:href="#m2f8eb44fe1" y="315"/>
      </g>
     </g>
    </g>
    <g id="xtick_60">
     <g id="line2d_88">
      <g>
       <use style="stroke:#000000;stroke-width:0.6;" x="699.344788" xlink:href="#m2f8eb44fe1" y="315"/>
      </g>
     </g>
    </g>
    <g id="xtick_61">
     <g id="line2d_89">
      <g>
       <use style="stroke:#000000;stroke-width:0.6;" x="705.90435" xlink:href="#m2f8eb44fe1" y="315"/>
      </g>
     </g>
    </g>
    <g id="xtick_62">
     <g id="line2d_90">
      <g>
       <use style="stroke:#000000;stroke-width:0.6;" x="712.463911" xlink:href="#m2f8eb44fe1" y="315"/>
      </g>
     </g>
    </g>
    <g id="xtick_63">
     <g id="line2d_91">
      <g>
       <use style="stroke:#000000;stroke-width:0.6;" x="719.023472" xlink:href="#m2f8eb44fe1" y="315"/>
      </g>
     </g>
    </g>
    <g id="xtick_64">
     <g id="line2d_92">
      <g>
       <use style="stroke:#000000;stroke-width:0.6;" x="725.583033" xlink:href="#m2f8eb44fe1" y="315"/>
      </g>
     </g>
     <g id="text_20">
      <!-- 25 -->
      <g transform="translate(719.220533 327.998437)scale(0.1 -0.1)">
       <use xlink:href="#DejaVuSans-50"/>
       <use x="63.623047" xlink:href="#DejaVuSans-53"/>
      </g>
     </g>
    </g>
    <g id="xtick_65">
     <g id="line2d_93">
      <g>
       <use style="stroke:#000000;stroke-width:0.6;" x="732.142594" xlink:href="#m2f8eb44fe1" y="315"/>
      </g>
     </g>
    </g>
    <g id="xtick_66">
     <g id="line2d_94">
      <g>
       <use style="stroke:#000000;stroke-width:0.6;" x="738.702155" xlink:href="#m2f8eb44fe1" y="315"/>
      </g>
     </g>
    </g>
    <g id="xtick_67">
     <g id="line2d_95">
      <g>
       <use style="stroke:#000000;stroke-width:0.6;" x="745.261716" xlink:href="#m2f8eb44fe1" y="315"/>
      </g>
     </g>
    </g>
    <g id="xtick_68">
     <g id="line2d_96">
      <g>
       <use style="stroke:#000000;stroke-width:0.6;" x="751.821277" xlink:href="#m2f8eb44fe1" y="315"/>
      </g>
     </g>
    </g>
    <g id="xtick_69">
     <g id="line2d_97">
      <g>
       <use style="stroke:#000000;stroke-width:0.6;" x="758.380839" xlink:href="#m2f8eb44fe1" y="315"/>
      </g>
     </g>
    </g>
    <g id="xtick_70">
     <g id="line2d_98">
      <g>
       <use style="stroke:#000000;stroke-width:0.6;" x="764.9404" xlink:href="#m2f8eb44fe1" y="315"/>
      </g>
     </g>
    </g>
    <g id="xtick_71">
     <g id="line2d_99">
      <g>
       <use style="stroke:#000000;stroke-width:0.6;" x="778.059522" xlink:href="#m2f8eb44fe1" y="315"/>
      </g>
     </g>
    </g>
    <g id="xtick_72">
     <g id="line2d_100">
      <g>
       <use style="stroke:#000000;stroke-width:0.6;" x="784.619083" xlink:href="#m2f8eb44fe1" y="315"/>
      </g>
     </g>
    </g>
    <g id="xtick_73">
     <g id="line2d_101">
      <g>
       <use style="stroke:#000000;stroke-width:0.6;" x="791.178644" xlink:href="#m2f8eb44fe1" y="315"/>
      </g>
     </g>
    </g>
    <g id="xtick_74">
     <g id="line2d_102">
      <g>
       <use style="stroke:#000000;stroke-width:0.6;" x="797.738205" xlink:href="#m2f8eb44fe1" y="315"/>
      </g>
     </g>
    </g>
    <g id="xtick_75">
     <g id="line2d_103">
      <g>
       <use style="stroke:#000000;stroke-width:0.6;" x="804.297766" xlink:href="#m2f8eb44fe1" y="315"/>
      </g>
     </g>
    </g>
    <g id="xtick_76">
     <g id="line2d_104">
      <g>
       <use style="stroke:#000000;stroke-width:0.6;" x="810.857328" xlink:href="#m2f8eb44fe1" y="315"/>
      </g>
     </g>
    </g>
    <g id="xtick_77">
     <g id="line2d_105">
      <g>
       <use style="stroke:#000000;stroke-width:0.6;" x="817.416889" xlink:href="#m2f8eb44fe1" y="315"/>
      </g>
     </g>
     <g id="text_21">
      <!-- 08 -->
      <g transform="translate(811.054389 327.998437)scale(0.1 -0.1)">
       <use xlink:href="#DejaVuSans-48"/>
       <use x="63.623047" xlink:href="#DejaVuSans-56"/>
      </g>
     </g>
    </g>
    <g id="xtick_78">
     <g id="line2d_106">
      <g>
       <use style="stroke:#000000;stroke-width:0.6;" x="823.97645" xlink:href="#m2f8eb44fe1" y="315"/>
      </g>
     </g>
    </g>
    <g id="xtick_79">
     <g id="line2d_107">
      <g>
       <use style="stroke:#000000;stroke-width:0.6;" x="830.536011" xlink:href="#m2f8eb44fe1" y="315"/>
      </g>
     </g>
    </g>
    <g id="xtick_80">
     <g id="line2d_108">
      <g>
       <use style="stroke:#000000;stroke-width:0.6;" x="837.095572" xlink:href="#m2f8eb44fe1" y="315"/>
      </g>
     </g>
    </g>
    <g id="xtick_81">
     <g id="line2d_109">
      <g>
       <use style="stroke:#000000;stroke-width:0.6;" x="843.655133" xlink:href="#m2f8eb44fe1" y="315"/>
      </g>
     </g>
    </g>
    <g id="xtick_82">
     <g id="line2d_110">
      <g>
       <use style="stroke:#000000;stroke-width:0.6;" x="850.214694" xlink:href="#m2f8eb44fe1" y="315"/>
      </g>
     </g>
    </g>
    <g id="xtick_83">
     <g id="line2d_111">
      <g>
       <use style="stroke:#000000;stroke-width:0.6;" x="856.774255" xlink:href="#m2f8eb44fe1" y="315"/>
      </g>
     </g>
    </g>
    <g id="xtick_84">
     <g id="line2d_112">
      <g>
       <use style="stroke:#000000;stroke-width:0.6;" x="863.333817" xlink:href="#m2f8eb44fe1" y="315"/>
      </g>
     </g>
     <g id="text_22">
      <!-- 15 -->
      <g transform="translate(856.971317 327.998437)scale(0.1 -0.1)">
       <use xlink:href="#DejaVuSans-49"/>
       <use x="63.623047" xlink:href="#DejaVuSans-53"/>
      </g>
     </g>
    </g>
    <g id="xtick_85">
     <g id="line2d_113">
      <g>
       <use style="stroke:#000000;stroke-width:0.6;" x="869.893378" xlink:href="#m2f8eb44fe1" y="315"/>
      </g>
     </g>
    </g>
    <g id="xtick_86">
     <g id="line2d_114">
      <g>
       <use style="stroke:#000000;stroke-width:0.6;" x="876.452939" xlink:href="#m2f8eb44fe1" y="315"/>
      </g>
     </g>
    </g>
   </g>
   <g id="matplotlib.axis_4">
    <g id="ytick_6">
     <g id="line2d_115">
      <path clip-path="url(#pd9df7053b7)" d="M 502.557955 289.754015 
L 883.0125 289.754015 
" style="fill:none;stroke:#b0b0b0;stroke-linecap:square;stroke-width:0.8;"/>
     </g>
     <g id="line2d_116">
      <g>
       <use style="stroke:#000000;stroke-width:0.8;" x="502.557955" xlink:href="#mdd5c177564" y="289.754015"/>
      </g>
     </g>
     <g id="text_23">
      <!-- 7500 -->
      <g transform="translate(470.107955 293.553234)scale(0.1 -0.1)">
       <use xlink:href="#DejaVuSans-55"/>
       <use x="63.623047" xlink:href="#DejaVuSans-53"/>
       <use x="127.246094" xlink:href="#DejaVuSans-48"/>
       <use x="190.869141" xlink:href="#DejaVuSans-48"/>
      </g>
     </g>
    </g>
    <g id="ytick_7">
     <g id="line2d_117">
      <path clip-path="url(#pd9df7053b7)" d="M 502.557955 252.270505 
L 883.0125 252.270505 
" style="fill:none;stroke:#b0b0b0;stroke-linecap:square;stroke-width:0.8;"/>
     </g>
     <g id="line2d_118">
      <g>
       <use style="stroke:#000000;stroke-width:0.8;" x="502.557955" xlink:href="#mdd5c177564" y="252.270505"/>
      </g>
     </g>
     <g id="text_24">
      <!-- 10000 -->
      <g transform="translate(463.745455 256.069724)scale(0.1 -0.1)">
       <use xlink:href="#DejaVuSans-49"/>
       <use x="63.623047" xlink:href="#DejaVuSans-48"/>
       <use x="127.246094" xlink:href="#DejaVuSans-48"/>
       <use x="190.869141" xlink:href="#DejaVuSans-48"/>
       <use x="254.492188" xlink:href="#DejaVuSans-48"/>
      </g>
     </g>
    </g>
    <g id="ytick_8">
     <g id="line2d_119">
      <path clip-path="url(#pd9df7053b7)" d="M 502.557955 214.786995 
L 883.0125 214.786995 
" style="fill:none;stroke:#b0b0b0;stroke-linecap:square;stroke-width:0.8;"/>
     </g>
     <g id="line2d_120">
      <g>
       <use style="stroke:#000000;stroke-width:0.8;" x="502.557955" xlink:href="#mdd5c177564" y="214.786995"/>
      </g>
     </g>
     <g id="text_25">
      <!-- 12500 -->
      <g transform="translate(463.745455 218.586214)scale(0.1 -0.1)">
       <use xlink:href="#DejaVuSans-49"/>
       <use x="63.623047" xlink:href="#DejaVuSans-50"/>
       <use x="127.246094" xlink:href="#DejaVuSans-53"/>
       <use x="190.869141" xlink:href="#DejaVuSans-48"/>
       <use x="254.492188" xlink:href="#DejaVuSans-48"/>
      </g>
     </g>
    </g>
    <g id="ytick_9">
     <g id="line2d_121">
      <path clip-path="url(#pd9df7053b7)" d="M 502.557955 177.303486 
L 883.0125 177.303486 
" style="fill:none;stroke:#b0b0b0;stroke-linecap:square;stroke-width:0.8;"/>
     </g>
     <g id="line2d_122">
      <g>
       <use style="stroke:#000000;stroke-width:0.8;" x="502.557955" xlink:href="#mdd5c177564" y="177.303486"/>
      </g>
     </g>
     <g id="text_26">
      <!-- 15000 -->
      <g transform="translate(463.745455 181.102704)scale(0.1 -0.1)">
       <use xlink:href="#DejaVuSans-49"/>
       <use x="63.623047" xlink:href="#DejaVuSans-53"/>
       <use x="127.246094" xlink:href="#DejaVuSans-48"/>
       <use x="190.869141" xlink:href="#DejaVuSans-48"/>
       <use x="254.492188" xlink:href="#DejaVuSans-48"/>
      </g>
     </g>
    </g>
    <g id="ytick_10">
     <g id="line2d_123">
      <path clip-path="url(#pd9df7053b7)" d="M 502.557955 139.819976 
L 883.0125 139.819976 
" style="fill:none;stroke:#b0b0b0;stroke-linecap:square;stroke-width:0.8;"/>
     </g>
     <g id="line2d_124">
      <g>
       <use style="stroke:#000000;stroke-width:0.8;" x="502.557955" xlink:href="#mdd5c177564" y="139.819976"/>
      </g>
     </g>
     <g id="text_27">
      <!-- 17500 -->
      <g transform="translate(463.745455 143.619195)scale(0.1 -0.1)">
       <use xlink:href="#DejaVuSans-49"/>
       <use x="63.623047" xlink:href="#DejaVuSans-55"/>
       <use x="127.246094" xlink:href="#DejaVuSans-53"/>
       <use x="190.869141" xlink:href="#DejaVuSans-48"/>
       <use x="254.492188" xlink:href="#DejaVuSans-48"/>
      </g>
     </g>
    </g>
    <g id="ytick_11">
     <g id="line2d_125">
      <path clip-path="url(#pd9df7053b7)" d="M 502.557955 102.336466 
L 883.0125 102.336466 
" style="fill:none;stroke:#b0b0b0;stroke-linecap:square;stroke-width:0.8;"/>
     </g>
     <g id="line2d_126">
      <g>
       <use style="stroke:#000000;stroke-width:0.8;" x="502.557955" xlink:href="#mdd5c177564" y="102.336466"/>
      </g>
     </g>
     <g id="text_28">
      <!-- 20000 -->
      <g transform="translate(463.745455 106.135685)scale(0.1 -0.1)">
       <use xlink:href="#DejaVuSans-50"/>
       <use x="63.623047" xlink:href="#DejaVuSans-48"/>
       <use x="127.246094" xlink:href="#DejaVuSans-48"/>
       <use x="190.869141" xlink:href="#DejaVuSans-48"/>
       <use x="254.492188" xlink:href="#DejaVuSans-48"/>
      </g>
     </g>
    </g>
    <g id="ytick_12">
     <g id="line2d_127">
      <path clip-path="url(#pd9df7053b7)" d="M 502.557955 64.852956 
L 883.0125 64.852956 
" style="fill:none;stroke:#b0b0b0;stroke-linecap:square;stroke-width:0.8;"/>
     </g>
     <g id="line2d_128">
      <g>
       <use style="stroke:#000000;stroke-width:0.8;" x="502.557955" xlink:href="#mdd5c177564" y="64.852956"/>
      </g>
     </g>
     <g id="text_29">
      <!-- 22500 -->
      <g transform="translate(463.745455 68.652175)scale(0.1 -0.1)">
       <use xlink:href="#DejaVuSans-50"/>
       <use x="63.623047" xlink:href="#DejaVuSans-50"/>
       <use x="127.246094" xlink:href="#DejaVuSans-53"/>
       <use x="190.869141" xlink:href="#DejaVuSans-48"/>
       <use x="254.492188" xlink:href="#DejaVuSans-48"/>
      </g>
     </g>
    </g>
   </g>
   <g id="line2d_129">
    <g clip-path="url(#pd9df7053b7)">
     <use style="stroke:#000000;" x="502.557955" xlink:href="#m2b418301be" y="295.226607"/>
     <use style="stroke:#000000;" x="509.117516" xlink:href="#m2b418301be" y="290.983474"/>
     <use style="stroke:#000000;" x="515.677077" xlink:href="#m2b418301be" y="285.630829"/>
     <use style="stroke:#000000;" x="522.236638" xlink:href="#m2b418301be" y="279.093705"/>
     <use style="stroke:#000000;" x="528.796199" xlink:href="#m2b418301be" y="273.156317"/>
     <use style="stroke:#000000;" x="535.35576" xlink:href="#m2b418301be" y="269.033131"/>
     <use style="stroke:#000000;" x="541.915321" xlink:href="#m2b418301be" y="265.824542"/>
     <use style="stroke:#000000;" x="548.474882" xlink:href="#m2b418301be" y="259.60228"/>
     <use style="stroke:#000000;" x="555.034444" xlink:href="#m2b418301be" y="255.703995"/>
     <use style="stroke:#000000;" x="561.594005" xlink:href="#m2b418301be" y="250.501283"/>
     <use style="stroke:#000000;" x="568.153566" xlink:href="#m2b418301be" y="244.00914"/>
     <use style="stroke:#000000;" x="574.713127" xlink:href="#m2b418301be" y="239.631066"/>
     <use style="stroke:#000000;" x="581.272688" xlink:href="#m2b418301be" y="234.398368"/>
     <use style="stroke:#000000;" x="587.832249" xlink:href="#m2b418301be" y="228.475973"/>
     <use style="stroke:#000000;" x="594.39181" xlink:href="#m2b418301be" y="221.219166"/>
     <use style="stroke:#000000;" x="600.951371" xlink:href="#m2b418301be" y="215.716586"/>
     <use style="stroke:#000000;" x="607.510933" xlink:href="#m2b418301be" y="210.648816"/>
     <use style="stroke:#000000;" x="614.070494" xlink:href="#m2b418301be" y="205.611032"/>
     <use style="stroke:#000000;" x="620.630055" xlink:href="#m2b418301be" y="197.619548"/>
     <use style="stroke:#000000;" x="627.189616" xlink:href="#m2b418301be" y="191.817101"/>
     <use style="stroke:#000000;" x="633.749177" xlink:href="#m2b418301be" y="188.323637"/>
     <use style="stroke:#000000;" x="640.308738" xlink:href="#m2b418301be" y="181.06683"/>
     <use style="stroke:#000000;" x="646.868299" xlink:href="#m2b418301be" y="170.736375"/>
     <use style="stroke:#000000;" x="653.427861" xlink:href="#m2b418301be" y="162.220121"/>
     <use style="stroke:#000000;" x="659.987422" xlink:href="#m2b418301be" y="154.873353"/>
     <use style="stroke:#000000;" x="666.546983" xlink:href="#m2b418301be" y="146.941843"/>
     <use style="stroke:#000000;" x="673.106544" xlink:href="#m2b418301be" y="139.610068"/>
     <use style="stroke:#000000;" x="679.666105" xlink:href="#m2b418301be" y="132.17334"/>
     <use style="stroke:#000000;" x="686.225666" xlink:href="#m2b418301be" y="124.886545"/>
     <use style="stroke:#000000;" x="692.785227" xlink:href="#m2b418301be" y="114.496117"/>
    </g>
   </g>
   <g id="line2d_130">
    <path clip-path="url(#pd9df7053b7)" d="M 502.557955 302.645455 
L 509.117516 297.183872 
L 515.677077 291.556622 
L 522.236638 285.772896 
L 528.796199 279.843321 
L 535.35576 273.779923 
L 541.915321 267.596058 
L 548.474882 261.30632 
L 555.034444 254.926423 
L 561.594005 248.473058 
L 568.153566 241.963725 
L 574.713127 235.416553 
L 581.272688 228.850101 
L 587.832249 222.283143 
L 594.39181 215.734465 
L 600.951371 209.22264 
L 607.510933 202.765825 
L 614.070494 196.38156 
L 620.630055 190.086583 
L 627.189616 183.896663 
L 633.749177 177.826459 
L 640.308738 171.889395 
L 646.868299 166.097571 
L 653.427861 160.46169 
L 659.987422 154.99102 
L 666.546983 149.693376 
L 673.106544 144.575129 
L 679.666105 139.641233 
L 686.225666 134.895275 
L 692.785227 130.339539 
" style="fill:none;stroke:#008000;stroke-linecap:square;stroke-width:1.5;"/>
   </g>
   <g id="line2d_131">
    <path clip-path="url(#pd9df7053b7)" d="M 699.344788 121.801842 
L 705.90435 117.818687 
L 712.463911 114.023566 
L 719.023472 110.413586 
L 725.583033 106.985122 
L 732.142594 103.733914 
L 738.702155 100.65517 
L 745.261716 97.743657 
L 751.821277 94.993788 
L 758.380839 92.399704 
L 764.9404 89.955349 
L 771.499961 87.654538 
L 778.059522 85.491014 
L 784.619083 83.458508 
L 791.178644 81.550777 
L 797.738205 79.761654 
L 804.297766 78.085073 
L 810.857328 76.515106 
L 817.416889 75.04598 
L 823.97645 73.6721 
L 830.536011 72.38806 
L 837.095572 71.18866 
L 843.655133 70.068906 
L 850.214694 69.024021 
L 856.774255 68.049443 
L 863.333817 67.140828 
L 869.893378 66.294049 
L 876.452939 65.505187 
L 883.0125 64.770536 
" style="fill:none;stroke:#ff0000;stroke-linecap:square;stroke-width:1.5;"/>
   </g>
   <g id="patch_9">
    <path d="M 502.557955 315 
L 502.557955 43.2 
" style="fill:none;stroke:#000000;stroke-linecap:square;stroke-linejoin:miter;stroke-width:0.8;"/>
   </g>
   <g id="patch_10">
    <path d="M 883.0125 315 
L 883.0125 43.2 
" style="fill:none;stroke:#000000;stroke-linecap:square;stroke-linejoin:miter;stroke-width:0.8;"/>
   </g>
   <g id="patch_11">
    <path d="M 502.557955 315 
L 883.0125 315 
" style="fill:none;stroke:#000000;stroke-linecap:square;stroke-linejoin:miter;stroke-width:0.8;"/>
   </g>
   <g id="patch_12">
    <path d="M 502.557955 43.2 
L 883.0125 43.2 
" style="fill:none;stroke:#000000;stroke-linecap:square;stroke-linejoin:miter;stroke-width:0.8;"/>
   </g>
   <g id="text_30">
    <!-- Zoom on the last 30 observations -->
    <defs>
     <path d="M 5.609375 72.90625 
L 62.890625 72.90625 
L 62.890625 65.375 
L 16.796875 8.296875 
L 64.015625 8.296875 
L 64.015625 0 
L 4.5 0 
L 4.5 7.515625 
L 50.59375 64.59375 
L 5.609375 64.59375 
z
" id="DejaVuSans-90"/>
     <path d="M 54.890625 33.015625 
L 54.890625 0 
L 45.90625 0 
L 45.90625 32.71875 
Q 45.90625 40.484375 42.875 44.328125 
Q 39.84375 48.1875 33.796875 48.1875 
Q 26.515625 48.1875 22.3125 43.546875 
Q 18.109375 38.921875 18.109375 30.90625 
L 18.109375 0 
L 9.078125 0 
L 9.078125 75.984375 
L 18.109375 75.984375 
L 18.109375 46.1875 
Q 21.34375 51.125 25.703125 53.5625 
Q 30.078125 56 35.796875 56 
Q 45.21875 56 50.046875 50.171875 
Q 54.890625 44.34375 54.890625 33.015625 
z
" id="DejaVuSans-104"/>
     <path d="M 40.578125 39.3125 
Q 47.65625 37.796875 51.625 33 
Q 55.609375 28.21875 55.609375 21.1875 
Q 55.609375 10.40625 48.1875 4.484375 
Q 40.765625 -1.421875 27.09375 -1.421875 
Q 22.515625 -1.421875 17.65625 -0.515625 
Q 12.796875 0.390625 7.625 2.203125 
L 7.625 11.71875 
Q 11.71875 9.328125 16.59375 8.109375 
Q 21.484375 6.890625 26.8125 6.890625 
Q 36.078125 6.890625 40.9375 10.546875 
Q 45.796875 14.203125 45.796875 21.1875 
Q 45.796875 27.640625 41.28125 31.265625 
Q 36.765625 34.90625 28.71875 34.90625 
L 20.21875 34.90625 
L 20.21875 43.015625 
L 29.109375 43.015625 
Q 36.375 43.015625 40.234375 45.921875 
Q 44.09375 48.828125 44.09375 54.296875 
Q 44.09375 59.90625 40.109375 62.90625 
Q 36.140625 65.921875 28.71875 65.921875 
Q 24.65625 65.921875 20.015625 65.03125 
Q 15.375 64.15625 9.8125 62.3125 
L 9.8125 71.09375 
Q 15.4375 72.65625 20.34375 73.4375 
Q 25.25 74.21875 29.59375 74.21875 
Q 40.828125 74.21875 47.359375 69.109375 
Q 53.90625 64.015625 53.90625 55.328125 
Q 53.90625 49.265625 50.4375 45.09375 
Q 46.96875 40.921875 40.578125 39.3125 
z
" id="DejaVuSans-51"/>
     <path d="M 2.984375 54.6875 
L 12.5 54.6875 
L 29.59375 8.796875 
L 46.6875 54.6875 
L 56.203125 54.6875 
L 35.6875 0 
L 23.484375 0 
z
" id="DejaVuSans-118"/>
    </defs>
    <g transform="translate(591.566165 37.2)scale(0.12 -0.12)">
     <use xlink:href="#DejaVuSans-90"/>
     <use x="68.505859" xlink:href="#DejaVuSans-111"/>
     <use x="129.6875" xlink:href="#DejaVuSans-111"/>
     <use x="190.869141" xlink:href="#DejaVuSans-109"/>
     <use x="288.28125" xlink:href="#DejaVuSans-32"/>
     <use x="320.068359" xlink:href="#DejaVuSans-111"/>
     <use x="381.25" xlink:href="#DejaVuSans-110"/>
     <use x="444.628906" xlink:href="#DejaVuSans-32"/>
     <use x="476.416016" xlink:href="#DejaVuSans-116"/>
     <use x="515.625" xlink:href="#DejaVuSans-104"/>
     <use x="579.003906" xlink:href="#DejaVuSans-101"/>
     <use x="640.527344" xlink:href="#DejaVuSans-32"/>
     <use x="672.314453" xlink:href="#DejaVuSans-108"/>
     <use x="700.097656" xlink:href="#DejaVuSans-97"/>
     <use x="761.376953" xlink:href="#DejaVuSans-115"/>
     <use x="813.476562" xlink:href="#DejaVuSans-116"/>
     <use x="852.685547" xlink:href="#DejaVuSans-32"/>
     <use x="884.472656" xlink:href="#DejaVuSans-51"/>
     <use x="948.095703" xlink:href="#DejaVuSans-48"/>
     <use x="1011.71875" xlink:href="#DejaVuSans-32"/>
     <use x="1043.505859" xlink:href="#DejaVuSans-111"/>
     <use x="1104.6875" xlink:href="#DejaVuSans-98"/>
     <use x="1168.164062" xlink:href="#DejaVuSans-115"/>
     <use x="1220.263672" xlink:href="#DejaVuSans-101"/>
     <use x="1281.787109" xlink:href="#DejaVuSans-114"/>
     <use x="1322.900391" xlink:href="#DejaVuSans-118"/>
     <use x="1382.080078" xlink:href="#DejaVuSans-97"/>
     <use x="1443.359375" xlink:href="#DejaVuSans-116"/>
     <use x="1482.568359" xlink:href="#DejaVuSans-105"/>
     <use x="1510.351562" xlink:href="#DejaVuSans-111"/>
     <use x="1571.533203" xlink:href="#DejaVuSans-110"/>
     <use x="1634.912109" xlink:href="#DejaVuSans-115"/>
    </g>
   </g>
  </g>
  <g id="text_31">
   <!-- Indonesia's COVID-19 Outbreak Forecasting to Date -->
   <defs>
    <path d="M 9.8125 72.90625 
L 19.671875 72.90625 
L 19.671875 0 
L 9.8125 0 
z
" id="DejaVuSans-73"/>
    <path d="M 17.921875 72.90625 
L 17.921875 45.796875 
L 9.625 45.796875 
L 9.625 72.90625 
z
" id="DejaVuSans-39"/>
    <path d="M 64.40625 67.28125 
L 64.40625 56.890625 
Q 59.421875 61.53125 53.78125 63.8125 
Q 48.140625 66.109375 41.796875 66.109375 
Q 29.296875 66.109375 22.65625 58.46875 
Q 16.015625 50.828125 16.015625 36.375 
Q 16.015625 21.96875 22.65625 14.328125 
Q 29.296875 6.6875 41.796875 6.6875 
Q 48.140625 6.6875 53.78125 8.984375 
Q 59.421875 11.28125 64.40625 15.921875 
L 64.40625 5.609375 
Q 59.234375 2.09375 53.4375 0.328125 
Q 47.65625 -1.421875 41.21875 -1.421875 
Q 24.65625 -1.421875 15.125 8.703125 
Q 5.609375 18.84375 5.609375 36.375 
Q 5.609375 53.953125 15.125 64.078125 
Q 24.65625 74.21875 41.21875 74.21875 
Q 47.75 74.21875 53.53125 72.484375 
Q 59.328125 70.75 64.40625 67.28125 
z
" id="DejaVuSans-67"/>
    <path d="M 39.40625 66.21875 
Q 28.65625 66.21875 22.328125 58.203125 
Q 16.015625 50.203125 16.015625 36.375 
Q 16.015625 22.609375 22.328125 14.59375 
Q 28.65625 6.59375 39.40625 6.59375 
Q 50.140625 6.59375 56.421875 14.59375 
Q 62.703125 22.609375 62.703125 36.375 
Q 62.703125 50.203125 56.421875 58.203125 
Q 50.140625 66.21875 39.40625 66.21875 
z
M 39.40625 74.21875 
Q 54.734375 74.21875 63.90625 63.9375 
Q 73.09375 53.65625 73.09375 36.375 
Q 73.09375 19.140625 63.90625 8.859375 
Q 54.734375 -1.421875 39.40625 -1.421875 
Q 24.03125 -1.421875 14.8125 8.828125 
Q 5.609375 19.09375 5.609375 36.375 
Q 5.609375 53.65625 14.8125 63.9375 
Q 24.03125 74.21875 39.40625 74.21875 
z
" id="DejaVuSans-79"/>
    <path d="M 28.609375 0 
L 0.78125 72.90625 
L 11.078125 72.90625 
L 34.1875 11.53125 
L 57.328125 72.90625 
L 67.578125 72.90625 
L 39.796875 0 
z
" id="DejaVuSans-86"/>
    <path d="M 19.671875 64.796875 
L 19.671875 8.109375 
L 31.59375 8.109375 
Q 46.6875 8.109375 53.6875 14.9375 
Q 60.6875 21.78125 60.6875 36.53125 
Q 60.6875 51.171875 53.6875 57.984375 
Q 46.6875 64.796875 31.59375 64.796875 
z
M 9.8125 72.90625 
L 30.078125 72.90625 
Q 51.265625 72.90625 61.171875 64.09375 
Q 71.09375 55.28125 71.09375 36.53125 
Q 71.09375 17.671875 61.125 8.828125 
Q 51.171875 0 30.078125 0 
L 9.8125 0 
z
" id="DejaVuSans-68"/>
    <path d="M 4.890625 31.390625 
L 31.203125 31.390625 
L 31.203125 23.390625 
L 4.890625 23.390625 
z
" id="DejaVuSans-45"/>
    <path d="M 10.984375 1.515625 
L 10.984375 10.5 
Q 14.703125 8.734375 18.5 7.8125 
Q 22.3125 6.890625 25.984375 6.890625 
Q 35.75 6.890625 40.890625 13.453125 
Q 46.046875 20.015625 46.78125 33.40625 
Q 43.953125 29.203125 39.59375 26.953125 
Q 35.25 24.703125 29.984375 24.703125 
Q 19.046875 24.703125 12.671875 31.3125 
Q 6.296875 37.9375 6.296875 49.421875 
Q 6.296875 60.640625 12.9375 67.421875 
Q 19.578125 74.21875 30.609375 74.21875 
Q 43.265625 74.21875 49.921875 64.515625 
Q 56.59375 54.828125 56.59375 36.375 
Q 56.59375 19.140625 48.40625 8.859375 
Q 40.234375 -1.421875 26.421875 -1.421875 
Q 22.703125 -1.421875 18.890625 -0.6875 
Q 15.09375 0.046875 10.984375 1.515625 
z
M 30.609375 32.421875 
Q 37.25 32.421875 41.125 36.953125 
Q 45.015625 41.5 45.015625 49.421875 
Q 45.015625 57.28125 41.125 61.84375 
Q 37.25 66.40625 30.609375 66.40625 
Q 23.96875 66.40625 20.09375 61.84375 
Q 16.21875 57.28125 16.21875 49.421875 
Q 16.21875 41.5 20.09375 36.953125 
Q 23.96875 32.421875 30.609375 32.421875 
z
" id="DejaVuSans-57"/>
    <path d="M 9.078125 75.984375 
L 18.109375 75.984375 
L 18.109375 31.109375 
L 44.921875 54.6875 
L 56.390625 54.6875 
L 27.390625 29.109375 
L 57.625 0 
L 45.90625 0 
L 18.109375 26.703125 
L 18.109375 0 
L 9.078125 0 
z
" id="DejaVuSans-107"/>
   </defs>
   <g transform="translate(295.69875 16.318125)scale(0.12 -0.12)">
    <use xlink:href="#DejaVuSans-73"/>
    <use x="29.492188" xlink:href="#DejaVuSans-110"/>
    <use x="92.871094" xlink:href="#DejaVuSans-100"/>
    <use x="156.347656" xlink:href="#DejaVuSans-111"/>
    <use x="217.529297" xlink:href="#DejaVuSans-110"/>
    <use x="280.908203" xlink:href="#DejaVuSans-101"/>
    <use x="342.431641" xlink:href="#DejaVuSans-115"/>
    <use x="394.53125" xlink:href="#DejaVuSans-105"/>
    <use x="422.314453" xlink:href="#DejaVuSans-97"/>
    <use x="483.59375" xlink:href="#DejaVuSans-39"/>
    <use x="511.083984" xlink:href="#DejaVuSans-115"/>
    <use x="563.183594" xlink:href="#DejaVuSans-32"/>
    <use x="594.970703" xlink:href="#DejaVuSans-67"/>
    <use x="664.794922" xlink:href="#DejaVuSans-79"/>
    <use x="741.755859" xlink:href="#DejaVuSans-86"/>
    <use x="810.164062" xlink:href="#DejaVuSans-73"/>
    <use x="839.65625" xlink:href="#DejaVuSans-68"/>
    <use x="916.658203" xlink:href="#DejaVuSans-45"/>
    <use x="952.742188" xlink:href="#DejaVuSans-49"/>
    <use x="1016.365234" xlink:href="#DejaVuSans-57"/>
    <use x="1079.988281" xlink:href="#DejaVuSans-32"/>
    <use x="1111.775391" xlink:href="#DejaVuSans-79"/>
    <use x="1190.486328" xlink:href="#DejaVuSans-117"/>
    <use x="1253.865234" xlink:href="#DejaVuSans-116"/>
    <use x="1293.074219" xlink:href="#DejaVuSans-98"/>
    <use x="1356.550781" xlink:href="#DejaVuSans-114"/>
    <use x="1395.414062" xlink:href="#DejaVuSans-101"/>
    <use x="1456.9375" xlink:href="#DejaVuSans-97"/>
    <use x="1518.216797" xlink:href="#DejaVuSans-107"/>
    <use x="1576.126953" xlink:href="#DejaVuSans-32"/>
    <use x="1607.914062" xlink:href="#DejaVuSans-70"/>
    <use x="1661.808594" xlink:href="#DejaVuSans-111"/>
    <use x="1722.990234" xlink:href="#DejaVuSans-114"/>
    <use x="1761.853516" xlink:href="#DejaVuSans-101"/>
    <use x="1823.376953" xlink:href="#DejaVuSans-99"/>
    <use x="1878.357422" xlink:href="#DejaVuSans-97"/>
    <use x="1939.636719" xlink:href="#DejaVuSans-115"/>
    <use x="1991.736328" xlink:href="#DejaVuSans-116"/>
    <use x="2030.945312" xlink:href="#DejaVuSans-105"/>
    <use x="2058.728516" xlink:href="#DejaVuSans-110"/>
    <use x="2122.107422" xlink:href="#DejaVuSans-103"/>
    <use x="2185.583984" xlink:href="#DejaVuSans-32"/>
    <use x="2217.371094" xlink:href="#DejaVuSans-116"/>
    <use x="2256.580078" xlink:href="#DejaVuSans-111"/>
    <use x="2317.761719" xlink:href="#DejaVuSans-32"/>
    <use x="2349.548828" xlink:href="#DejaVuSans-68"/>
    <use x="2426.550781" xlink:href="#DejaVuSans-97"/>
    <use x="2487.830078" xlink:href="#DejaVuSans-116"/>
    <use x="2527.039062" xlink:href="#DejaVuSans-101"/>
   </g>
  </g>
 </g>
 <defs>
  <clipPath id="p8700586bc6">
   <rect height="271.8" width="380.454545" x="46.0125" y="43.2"/>
  </clipPath>
  <clipPath id="pd9df7053b7">
   <rect height="271.8" width="380.454545" x="502.557955" y="43.2"/>
  </clipPath>
 </defs>
</svg>
