<?xml version="1.0" encoding="utf-8" standalone="no"?>
<!DOCTYPE svg PUBLIC "-//W3C//DTD SVG 1.1//EN"
  "http://www.w3.org/Graphics/SVG/1.1/DTD/svg11.dtd">
<!-- Created with matplotlib (https://matplotlib.org/) -->
<svg height="372.471562pt" version="1.1" viewBox="0 0 890.2125 372.471562" width="890.2125pt" xmlns="http://www.w3.org/2000/svg" xmlns:xlink="http://www.w3.org/1999/xlink">
 <defs>
  <style type="text/css">
*{stroke-linecap:butt;stroke-linejoin:round;}
  </style>
 </defs>
 <g id="figure_1">
  <g id="patch_1">
   <path d="M 0 372.471562 
L 890.2125 372.471562 
L 890.2125 0 
L 0 0 
z
" style="fill:none;"/>
  </g>
  <g id="axes_1">
   <g id="patch_2">
    <path d="M 46.0125 315 
L 426.467045 315 
L 426.467045 43.2 
L 46.0125 43.2 
z
" style="fill:#ffffff;"/>
   </g>
   <g id="PolyCollection_1">
    <defs>
     <path d="M 354.489158 -302.166286 
L 354.489158 -287.075931 
L 357.059797 -288.693686 
L 359.630436 -290.150154 
L 362.201075 -291.459528 
L 364.771714 -292.635139 
L 367.342353 -293.689424 
L 369.912991 -294.63392 
L 372.48363 -295.479267 
L 375.054269 -296.235243 
L 377.624908 -296.910789 
L 380.195547 -297.514059 
L 382.766186 -298.052464 
L 385.336824 -298.532723 
L 387.907463 -298.960912 
L 390.478102 -299.342513 
L 393.048741 -299.682469 
L 395.61938 -299.985221 
L 398.190018 -300.25476 
L 400.760657 -300.494667 
L 403.331296 -300.708147 
L 405.901935 -300.898072 
L 408.472574 -301.067009 
L 411.043213 -301.217252 
L 413.613851 -301.35085 
L 416.18449 -301.469631 
L 418.755129 -301.575226 
L 421.325768 -301.66909 
L 423.896407 -301.752517 
L 426.467045 -301.826662 
L 426.467045 -316.917017 
L 426.467045 -316.917017 
L 423.896407 -316.842872 
L 421.325768 -316.759445 
L 418.755129 -316.665581 
L 416.18449 -316.559986 
L 413.613851 -316.441205 
L 411.043213 -316.307607 
L 408.472574 -316.157364 
L 405.901935 -315.988427 
L 403.331296 -315.798502 
L 400.760657 -315.585022 
L 398.190018 -315.345116 
L 395.61938 -315.075576 
L 393.048741 -314.772824 
L 390.478102 -314.432869 
L 387.907463 -314.051267 
L 385.336824 -313.623078 
L 382.766186 -313.142819 
L 380.195547 -312.604414 
L 377.624908 -312.001144 
L 375.054269 -311.325598 
L 372.48363 -310.569623 
L 369.912991 -309.724275 
L 367.342353 -308.77978 
L 364.771714 -307.725494 
L 362.201075 -306.549883 
L 359.630436 -305.240509 
L 357.059797 -303.784041 
L 354.489158 -302.166286 
z
" id="m747e7aa218" style="stroke:#0000ff;stroke-opacity:0.3;"/>
    </defs>
    <g clip-path="url(#p86af6c1a5e)">
     <use style="fill:#0000ff;fill-opacity:0.3;stroke:#0000ff;stroke-opacity:0.3;" x="0" xlink:href="#m747e7aa218" y="372.471562"/>
    </g>
   </g>
   <g id="matplotlib.axis_1">
    <g id="xtick_1">
     <g id="line2d_1">
      <path clip-path="url(#p86af6c1a5e)" d="M 46.0125 315 
L 46.0125 43.2 
" style="fill:none;stroke:#b0b0b0;stroke-linecap:square;stroke-width:0.8;"/>
     </g>
     <g id="line2d_2">
      <defs>
       <path d="M 0 0 
L 0 3.5 
" id="m4a8ca3313f" style="stroke:#000000;stroke-width:0.8;"/>
      </defs>
      <g>
       <use style="stroke:#000000;stroke-width:0.8;" x="46.0125" xlink:href="#m4a8ca3313f" y="315"/>
      </g>
     </g>
    </g>
    <g id="xtick_2">
     <g id="line2d_3">
      <path clip-path="url(#p86af6c1a5e)" d="M 71.718888 315 
L 71.718888 43.2 
" style="fill:none;stroke:#b0b0b0;stroke-linecap:square;stroke-width:0.8;"/>
     </g>
     <g id="line2d_4">
      <g>
       <use style="stroke:#000000;stroke-width:0.8;" x="71.718888" xlink:href="#m4a8ca3313f" y="315"/>
      </g>
     </g>
     <g id="text_1">
      <!-- Feb -->
      <defs>
       <path d="M 9.8125 72.90625 
L 51.703125 72.90625 
L 51.703125 64.59375 
L 19.671875 64.59375 
L 19.671875 43.109375 
L 48.578125 43.109375 
L 48.578125 34.8125 
L 19.671875 34.8125 
L 19.671875 0 
L 9.8125 0 
z
" id="DejaVuSans-70"/>
       <path d="M 56.203125 29.59375 
L 56.203125 25.203125 
L 14.890625 25.203125 
Q 15.484375 15.921875 20.484375 11.0625 
Q 25.484375 6.203125 34.421875 6.203125 
Q 39.59375 6.203125 44.453125 7.46875 
Q 49.3125 8.734375 54.109375 11.28125 
L 54.109375 2.78125 
Q 49.265625 0.734375 44.1875 -0.34375 
Q 39.109375 -1.421875 33.890625 -1.421875 
Q 20.796875 -1.421875 13.15625 6.1875 
Q 5.515625 13.8125 5.515625 26.8125 
Q 5.515625 40.234375 12.765625 48.109375 
Q 20.015625 56 32.328125 56 
Q 43.359375 56 49.78125 48.890625 
Q 56.203125 41.796875 56.203125 29.59375 
z
M 47.21875 32.234375 
Q 47.125 39.59375 43.09375 43.984375 
Q 39.0625 48.390625 32.421875 48.390625 
Q 24.90625 48.390625 20.390625 44.140625 
Q 15.875 39.890625 15.1875 32.171875 
z
" id="DejaVuSans-101"/>
       <path d="M 48.6875 27.296875 
Q 48.6875 37.203125 44.609375 42.84375 
Q 40.53125 48.484375 33.40625 48.484375 
Q 26.265625 48.484375 22.1875 42.84375 
Q 18.109375 37.203125 18.109375 27.296875 
Q 18.109375 17.390625 22.1875 11.75 
Q 26.265625 6.109375 33.40625 6.109375 
Q 40.53125 6.109375 44.609375 11.75 
Q 48.6875 17.390625 48.6875 27.296875 
z
M 18.109375 46.390625 
Q 20.953125 51.265625 25.265625 53.625 
Q 29.59375 56 35.59375 56 
Q 45.5625 56 51.78125 48.09375 
Q 58.015625 40.1875 58.015625 27.296875 
Q 58.015625 14.40625 51.78125 6.484375 
Q 45.5625 -1.421875 35.59375 -1.421875 
Q 29.59375 -1.421875 25.265625 0.953125 
Q 20.953125 3.328125 18.109375 8.203125 
L 18.109375 0 
L 9.078125 0 
L 9.078125 75.984375 
L 18.109375 75.984375 
z
" id="DejaVuSans-98"/>
      </defs>
      <g transform="translate(62.867326 329.598437)scale(0.1 -0.1)">
       <use xlink:href="#DejaVuSans-70"/>
       <use x="52.019531" xlink:href="#DejaVuSans-101"/>
       <use x="113.542969" xlink:href="#DejaVuSans-98"/>
      </g>
      <!-- 2020 -->
      <defs>
       <path d="M 19.1875 8.296875 
L 53.609375 8.296875 
L 53.609375 0 
L 7.328125 0 
L 7.328125 8.296875 
Q 12.9375 14.109375 22.625 23.890625 
Q 32.328125 33.6875 34.8125 36.53125 
Q 39.546875 41.84375 41.421875 45.53125 
Q 43.3125 49.21875 43.3125 52.78125 
Q 43.3125 58.59375 39.234375 62.25 
Q 35.15625 65.921875 28.609375 65.921875 
Q 23.96875 65.921875 18.8125 64.3125 
Q 13.671875 62.703125 7.8125 59.421875 
L 7.8125 69.390625 
Q 13.765625 71.78125 18.9375 73 
Q 24.125 74.21875 28.421875 74.21875 
Q 39.75 74.21875 46.484375 68.546875 
Q 53.21875 62.890625 53.21875 53.421875 
Q 53.21875 48.921875 51.53125 44.890625 
Q 49.859375 40.875 45.40625 35.40625 
Q 44.1875 33.984375 37.640625 27.21875 
Q 31.109375 20.453125 19.1875 8.296875 
z
" id="DejaVuSans-50"/>
       <path d="M 31.78125 66.40625 
Q 24.171875 66.40625 20.328125 58.90625 
Q 16.5 51.421875 16.5 36.375 
Q 16.5 21.390625 20.328125 13.890625 
Q 24.171875 6.390625 31.78125 6.390625 
Q 39.453125 6.390625 43.28125 13.890625 
Q 47.125 21.390625 47.125 36.375 
Q 47.125 51.421875 43.28125 58.90625 
Q 39.453125 66.40625 31.78125 66.40625 
z
M 31.78125 74.21875 
Q 44.046875 74.21875 50.515625 64.515625 
Q 56.984375 54.828125 56.984375 36.375 
Q 56.984375 17.96875 50.515625 8.265625 
Q 44.046875 -1.421875 31.78125 -1.421875 
Q 19.53125 -1.421875 13.0625 8.265625 
Q 6.59375 17.96875 6.59375 36.375 
Q 6.59375 54.828125 13.0625 64.515625 
Q 19.53125 74.21875 31.78125 74.21875 
z
" id="DejaVuSans-48"/>
      </defs>
      <g transform="translate(58.993888 340.79625)scale(0.1 -0.1)">
       <use xlink:href="#DejaVuSans-50"/>
       <use x="63.623047" xlink:href="#DejaVuSans-48"/>
       <use x="127.246094" xlink:href="#DejaVuSans-50"/>
       <use x="190.869141" xlink:href="#DejaVuSans-48"/>
      </g>
     </g>
    </g>
    <g id="xtick_3">
     <g id="line2d_5">
      <path clip-path="url(#p86af6c1a5e)" d="M 146.267414 315 
L 146.267414 43.2 
" style="fill:none;stroke:#b0b0b0;stroke-linecap:square;stroke-width:0.8;"/>
     </g>
     <g id="line2d_6">
      <g>
       <use style="stroke:#000000;stroke-width:0.8;" x="146.267414" xlink:href="#m4a8ca3313f" y="315"/>
      </g>
     </g>
     <g id="text_2">
      <!-- Mar -->
      <defs>
       <path d="M 9.8125 72.90625 
L 24.515625 72.90625 
L 43.109375 23.296875 
L 61.8125 72.90625 
L 76.515625 72.90625 
L 76.515625 0 
L 66.890625 0 
L 66.890625 64.015625 
L 48.09375 14.015625 
L 38.1875 14.015625 
L 19.390625 64.015625 
L 19.390625 0 
L 9.8125 0 
z
" id="DejaVuSans-77"/>
       <path d="M 34.28125 27.484375 
Q 23.390625 27.484375 19.1875 25 
Q 14.984375 22.515625 14.984375 16.5 
Q 14.984375 11.71875 18.140625 8.90625 
Q 21.296875 6.109375 26.703125 6.109375 
Q 34.1875 6.109375 38.703125 11.40625 
Q 43.21875 16.703125 43.21875 25.484375 
L 43.21875 27.484375 
z
M 52.203125 31.203125 
L 52.203125 0 
L 43.21875 0 
L 43.21875 8.296875 
Q 40.140625 3.328125 35.546875 0.953125 
Q 30.953125 -1.421875 24.3125 -1.421875 
Q 15.921875 -1.421875 10.953125 3.296875 
Q 6 8.015625 6 15.921875 
Q 6 25.140625 12.171875 29.828125 
Q 18.359375 34.515625 30.609375 34.515625 
L 43.21875 34.515625 
L 43.21875 35.40625 
Q 43.21875 41.609375 39.140625 45 
Q 35.0625 48.390625 27.6875 48.390625 
Q 23 48.390625 18.546875 47.265625 
Q 14.109375 46.140625 10.015625 43.890625 
L 10.015625 52.203125 
Q 14.9375 54.109375 19.578125 55.046875 
Q 24.21875 56 28.609375 56 
Q 40.484375 56 46.34375 49.84375 
Q 52.203125 43.703125 52.203125 31.203125 
z
" id="DejaVuSans-97"/>
       <path d="M 41.109375 46.296875 
Q 39.59375 47.171875 37.8125 47.578125 
Q 36.03125 48 33.890625 48 
Q 26.265625 48 22.1875 43.046875 
Q 18.109375 38.09375 18.109375 28.8125 
L 18.109375 0 
L 9.078125 0 
L 9.078125 54.6875 
L 18.109375 54.6875 
L 18.109375 46.1875 
Q 20.953125 51.171875 25.484375 53.578125 
Q 30.03125 56 36.53125 56 
Q 37.453125 56 38.578125 55.875 
Q 39.703125 55.765625 41.0625 55.515625 
z
" id="DejaVuSans-114"/>
      </defs>
      <g transform="translate(136.83382 329.598437)scale(0.1 -0.1)">
       <use xlink:href="#DejaVuSans-77"/>
       <use x="86.279297" xlink:href="#DejaVuSans-97"/>
       <use x="147.558594" xlink:href="#DejaVuSans-114"/>
      </g>
     </g>
    </g>
    <g id="xtick_4">
     <g id="line2d_7">
      <path clip-path="url(#p86af6c1a5e)" d="M 225.957217 315 
L 225.957217 43.2 
" style="fill:none;stroke:#b0b0b0;stroke-linecap:square;stroke-width:0.8;"/>
     </g>
     <g id="line2d_8">
      <g>
       <use style="stroke:#000000;stroke-width:0.8;" x="225.957217" xlink:href="#m4a8ca3313f" y="315"/>
      </g>
     </g>
     <g id="text_3">
      <!-- Apr -->
      <defs>
       <path d="M 34.1875 63.1875 
L 20.796875 26.90625 
L 47.609375 26.90625 
z
M 28.609375 72.90625 
L 39.796875 72.90625 
L 67.578125 0 
L 57.328125 0 
L 50.6875 18.703125 
L 17.828125 18.703125 
L 11.1875 0 
L 0.78125 0 
z
" id="DejaVuSans-65"/>
       <path d="M 18.109375 8.203125 
L 18.109375 -20.796875 
L 9.078125 -20.796875 
L 9.078125 54.6875 
L 18.109375 54.6875 
L 18.109375 46.390625 
Q 20.953125 51.265625 25.265625 53.625 
Q 29.59375 56 35.59375 56 
Q 45.5625 56 51.78125 48.09375 
Q 58.015625 40.1875 58.015625 27.296875 
Q 58.015625 14.40625 51.78125 6.484375 
Q 45.5625 -1.421875 35.59375 -1.421875 
Q 29.59375 -1.421875 25.265625 0.953125 
Q 20.953125 3.328125 18.109375 8.203125 
z
M 48.6875 27.296875 
Q 48.6875 37.203125 44.609375 42.84375 
Q 40.53125 48.484375 33.40625 48.484375 
Q 26.265625 48.484375 22.1875 42.84375 
Q 18.109375 37.203125 18.109375 27.296875 
Q 18.109375 17.390625 22.1875 11.75 
Q 26.265625 6.109375 33.40625 6.109375 
Q 40.53125 6.109375 44.609375 11.75 
Q 48.6875 17.390625 48.6875 27.296875 
z
" id="DejaVuSans-112"/>
      </defs>
      <g transform="translate(217.307217 329.598437)scale(0.1 -0.1)">
       <use xlink:href="#DejaVuSans-65"/>
       <use x="68.408203" xlink:href="#DejaVuSans-112"/>
       <use x="131.884766" xlink:href="#DejaVuSans-114"/>
      </g>
     </g>
    </g>
    <g id="xtick_5">
     <g id="line2d_9">
      <path clip-path="url(#p86af6c1a5e)" d="M 303.076382 315 
L 303.076382 43.2 
" style="fill:none;stroke:#b0b0b0;stroke-linecap:square;stroke-width:0.8;"/>
     </g>
     <g id="line2d_10">
      <g>
       <use style="stroke:#000000;stroke-width:0.8;" x="303.076382" xlink:href="#m4a8ca3313f" y="315"/>
      </g>
     </g>
     <g id="text_4">
      <!-- May -->
      <defs>
       <path d="M 32.171875 -5.078125 
Q 28.375 -14.84375 24.75 -17.8125 
Q 21.140625 -20.796875 15.09375 -20.796875 
L 7.90625 -20.796875 
L 7.90625 -13.28125 
L 13.1875 -13.28125 
Q 16.890625 -13.28125 18.9375 -11.515625 
Q 21 -9.765625 23.484375 -3.21875 
L 25.09375 0.875 
L 2.984375 54.6875 
L 12.5 54.6875 
L 29.59375 11.921875 
L 46.6875 54.6875 
L 56.203125 54.6875 
z
" id="DejaVuSans-121"/>
      </defs>
      <g transform="translate(292.738882 329.598437)scale(0.1 -0.1)">
       <use xlink:href="#DejaVuSans-77"/>
       <use x="86.279297" xlink:href="#DejaVuSans-97"/>
       <use x="147.558594" xlink:href="#DejaVuSans-121"/>
      </g>
     </g>
    </g>
    <g id="xtick_6">
     <g id="line2d_11">
      <path clip-path="url(#p86af6c1a5e)" d="M 382.766186 315 
L 382.766186 43.2 
" style="fill:none;stroke:#b0b0b0;stroke-linecap:square;stroke-width:0.8;"/>
     </g>
     <g id="line2d_12">
      <g>
       <use style="stroke:#000000;stroke-width:0.8;" x="382.766186" xlink:href="#m4a8ca3313f" y="315"/>
      </g>
     </g>
     <g id="text_5">
      <!-- Jun -->
      <defs>
       <path d="M 9.8125 72.90625 
L 19.671875 72.90625 
L 19.671875 5.078125 
Q 19.671875 -8.109375 14.671875 -14.0625 
Q 9.671875 -20.015625 -1.421875 -20.015625 
L -5.171875 -20.015625 
L -5.171875 -11.71875 
L -2.09375 -11.71875 
Q 4.4375 -11.71875 7.125 -8.046875 
Q 9.8125 -4.390625 9.8125 5.078125 
z
" id="DejaVuSans-74"/>
       <path d="M 8.5 21.578125 
L 8.5 54.6875 
L 17.484375 54.6875 
L 17.484375 21.921875 
Q 17.484375 14.15625 20.5 10.265625 
Q 23.53125 6.390625 29.59375 6.390625 
Q 36.859375 6.390625 41.078125 11.03125 
Q 45.3125 15.671875 45.3125 23.6875 
L 45.3125 54.6875 
L 54.296875 54.6875 
L 54.296875 0 
L 45.3125 0 
L 45.3125 8.40625 
Q 42.046875 3.421875 37.71875 1 
Q 33.40625 -1.421875 27.6875 -1.421875 
Q 18.265625 -1.421875 13.375 4.4375 
Q 8.5 10.296875 8.5 21.578125 
z
M 31.109375 56 
z
" id="DejaVuSans-117"/>
       <path d="M 54.890625 33.015625 
L 54.890625 0 
L 45.90625 0 
L 45.90625 32.71875 
Q 45.90625 40.484375 42.875 44.328125 
Q 39.84375 48.1875 33.796875 48.1875 
Q 26.515625 48.1875 22.3125 43.546875 
Q 18.109375 38.921875 18.109375 30.90625 
L 18.109375 0 
L 9.078125 0 
L 9.078125 54.6875 
L 18.109375 54.6875 
L 18.109375 46.1875 
Q 21.34375 51.125 25.703125 53.5625 
Q 30.078125 56 35.796875 56 
Q 45.21875 56 50.046875 50.171875 
Q 54.890625 44.34375 54.890625 33.015625 
z
" id="DejaVuSans-110"/>
      </defs>
      <g transform="translate(374.953686 329.598437)scale(0.1 -0.1)">
       <use xlink:href="#DejaVuSans-74"/>
       <use x="29.492188" xlink:href="#DejaVuSans-117"/>
       <use x="92.871094" xlink:href="#DejaVuSans-110"/>
      </g>
     </g>
    </g>
    <g id="xtick_7">
     <g id="line2d_13">
      <path clip-path="url(#p86af6c1a5e)" d="M 426.467045 315 
L 426.467045 43.2 
" style="fill:none;stroke:#b0b0b0;stroke-linecap:square;stroke-width:0.8;"/>
     </g>
     <g id="line2d_14">
      <g>
       <use style="stroke:#000000;stroke-width:0.8;" x="426.467045" xlink:href="#m4a8ca3313f" y="315"/>
      </g>
     </g>
    </g>
    <g id="xtick_8">
     <g id="line2d_15">
      <defs>
       <path d="M 0 0 
L 0 2 
" id="m133a0aca3e" style="stroke:#000000;stroke-width:0.6;"/>
      </defs>
      <g>
       <use style="stroke:#000000;stroke-width:0.6;" x="58.865694" xlink:href="#m133a0aca3e" y="315"/>
      </g>
     </g>
    </g>
    <g id="xtick_9">
     <g id="line2d_16">
      <g>
       <use style="stroke:#000000;stroke-width:0.6;" x="76.860166" xlink:href="#m133a0aca3e" y="315"/>
      </g>
     </g>
    </g>
    <g id="xtick_10">
     <g id="line2d_17">
      <g>
       <use style="stroke:#000000;stroke-width:0.6;" x="94.854638" xlink:href="#m133a0aca3e" y="315"/>
      </g>
     </g>
    </g>
    <g id="xtick_11">
     <g id="line2d_18">
      <g>
       <use style="stroke:#000000;stroke-width:0.6;" x="112.849109" xlink:href="#m133a0aca3e" y="315"/>
      </g>
     </g>
    </g>
    <g id="xtick_12">
     <g id="line2d_19">
      <g>
       <use style="stroke:#000000;stroke-width:0.6;" x="130.843581" xlink:href="#m133a0aca3e" y="315"/>
      </g>
     </g>
    </g>
    <g id="xtick_13">
     <g id="line2d_20">
      <g>
       <use style="stroke:#000000;stroke-width:0.6;" x="148.838053" xlink:href="#m133a0aca3e" y="315"/>
      </g>
     </g>
    </g>
    <g id="xtick_14">
     <g id="line2d_21">
      <g>
       <use style="stroke:#000000;stroke-width:0.6;" x="166.832525" xlink:href="#m133a0aca3e" y="315"/>
      </g>
     </g>
    </g>
    <g id="xtick_15">
     <g id="line2d_22">
      <g>
       <use style="stroke:#000000;stroke-width:0.6;" x="184.826996" xlink:href="#m133a0aca3e" y="315"/>
      </g>
     </g>
    </g>
    <g id="xtick_16">
     <g id="line2d_23">
      <g>
       <use style="stroke:#000000;stroke-width:0.6;" x="202.821468" xlink:href="#m133a0aca3e" y="315"/>
      </g>
     </g>
    </g>
    <g id="xtick_17">
     <g id="line2d_24">
      <g>
       <use style="stroke:#000000;stroke-width:0.6;" x="220.81594" xlink:href="#m133a0aca3e" y="315"/>
      </g>
     </g>
    </g>
    <g id="xtick_18">
     <g id="line2d_25">
      <g>
       <use style="stroke:#000000;stroke-width:0.6;" x="238.810412" xlink:href="#m133a0aca3e" y="315"/>
      </g>
     </g>
    </g>
    <g id="xtick_19">
     <g id="line2d_26">
      <g>
       <use style="stroke:#000000;stroke-width:0.6;" x="256.804883" xlink:href="#m133a0aca3e" y="315"/>
      </g>
     </g>
    </g>
    <g id="xtick_20">
     <g id="line2d_27">
      <g>
       <use style="stroke:#000000;stroke-width:0.6;" x="274.799355" xlink:href="#m133a0aca3e" y="315"/>
      </g>
     </g>
    </g>
    <g id="xtick_21">
     <g id="line2d_28">
      <g>
       <use style="stroke:#000000;stroke-width:0.6;" x="292.793827" xlink:href="#m133a0aca3e" y="315"/>
      </g>
     </g>
    </g>
    <g id="xtick_22">
     <g id="line2d_29">
      <g>
       <use style="stroke:#000000;stroke-width:0.6;" x="310.788299" xlink:href="#m133a0aca3e" y="315"/>
      </g>
     </g>
    </g>
    <g id="xtick_23">
     <g id="line2d_30">
      <g>
       <use style="stroke:#000000;stroke-width:0.6;" x="328.78277" xlink:href="#m133a0aca3e" y="315"/>
      </g>
     </g>
    </g>
    <g id="xtick_24">
     <g id="line2d_31">
      <g>
       <use style="stroke:#000000;stroke-width:0.6;" x="346.777242" xlink:href="#m133a0aca3e" y="315"/>
      </g>
     </g>
    </g>
    <g id="xtick_25">
     <g id="line2d_32">
      <g>
       <use style="stroke:#000000;stroke-width:0.6;" x="364.771714" xlink:href="#m133a0aca3e" y="315"/>
      </g>
     </g>
    </g>
    <g id="xtick_26">
     <g id="line2d_33">
      <g>
       <use style="stroke:#000000;stroke-width:0.6;" x="400.760657" xlink:href="#m133a0aca3e" y="315"/>
      </g>
     </g>
    </g>
    <g id="xtick_27">
     <g id="line2d_34">
      <g>
       <use style="stroke:#000000;stroke-width:0.6;" x="418.755129" xlink:href="#m133a0aca3e" y="315"/>
      </g>
     </g>
    </g>
   </g>
   <g id="matplotlib.axis_2">
    <g id="ytick_1">
     <g id="line2d_35">
      <path clip-path="url(#p86af6c1a5e)" d="M 46.0125 302.645455 
L 426.467045 302.645455 
" style="fill:none;stroke:#b0b0b0;stroke-linecap:square;stroke-width:0.8;"/>
     </g>
     <g id="line2d_36">
      <defs>
       <path d="M 0 0 
L -3.5 0 
" id="mfe29b5d15f" style="stroke:#000000;stroke-width:0.8;"/>
      </defs>
      <g>
       <use style="stroke:#000000;stroke-width:0.8;" x="46.0125" xlink:href="#mfe29b5d15f" y="302.645455"/>
      </g>
     </g>
     <g id="text_6">
      <!-- 0 -->
      <g transform="translate(32.65 306.444673)scale(0.1 -0.1)">
       <use xlink:href="#DejaVuSans-48"/>
      </g>
     </g>
    </g>
    <g id="ytick_2">
     <g id="line2d_37">
      <path clip-path="url(#p86af6c1a5e)" d="M 46.0125 263.621651 
L 426.467045 263.621651 
" style="fill:none;stroke:#b0b0b0;stroke-linecap:square;stroke-width:0.8;"/>
     </g>
     <g id="line2d_38">
      <g>
       <use style="stroke:#000000;stroke-width:0.8;" x="46.0125" xlink:href="#mfe29b5d15f" y="263.621651"/>
      </g>
     </g>
     <g id="text_7">
      <!-- 5000 -->
      <defs>
       <path d="M 10.796875 72.90625 
L 49.515625 72.90625 
L 49.515625 64.59375 
L 19.828125 64.59375 
L 19.828125 46.734375 
Q 21.96875 47.46875 24.109375 47.828125 
Q 26.265625 48.1875 28.421875 48.1875 
Q 40.625 48.1875 47.75 41.5 
Q 54.890625 34.8125 54.890625 23.390625 
Q 54.890625 11.625 47.5625 5.09375 
Q 40.234375 -1.421875 26.90625 -1.421875 
Q 22.3125 -1.421875 17.546875 -0.640625 
Q 12.796875 0.140625 7.71875 1.703125 
L 7.71875 11.625 
Q 12.109375 9.234375 16.796875 8.0625 
Q 21.484375 6.890625 26.703125 6.890625 
Q 35.15625 6.890625 40.078125 11.328125 
Q 45.015625 15.765625 45.015625 23.390625 
Q 45.015625 31 40.078125 35.4375 
Q 35.15625 39.890625 26.703125 39.890625 
Q 22.75 39.890625 18.8125 39.015625 
Q 14.890625 38.140625 10.796875 36.28125 
z
" id="DejaVuSans-53"/>
      </defs>
      <g transform="translate(13.5625 267.42087)scale(0.1 -0.1)">
       <use xlink:href="#DejaVuSans-53"/>
       <use x="63.623047" xlink:href="#DejaVuSans-48"/>
       <use x="127.246094" xlink:href="#DejaVuSans-48"/>
       <use x="190.869141" xlink:href="#DejaVuSans-48"/>
      </g>
     </g>
    </g>
    <g id="ytick_3">
     <g id="line2d_39">
      <path clip-path="url(#p86af6c1a5e)" d="M 46.0125 224.597848 
L 426.467045 224.597848 
" style="fill:none;stroke:#b0b0b0;stroke-linecap:square;stroke-width:0.8;"/>
     </g>
     <g id="line2d_40">
      <g>
       <use style="stroke:#000000;stroke-width:0.8;" x="46.0125" xlink:href="#mfe29b5d15f" y="224.597848"/>
      </g>
     </g>
     <g id="text_8">
      <!-- 10000 -->
      <defs>
       <path d="M 12.40625 8.296875 
L 28.515625 8.296875 
L 28.515625 63.921875 
L 10.984375 60.40625 
L 10.984375 69.390625 
L 28.421875 72.90625 
L 38.28125 72.90625 
L 38.28125 8.296875 
L 54.390625 8.296875 
L 54.390625 0 
L 12.40625 0 
z
" id="DejaVuSans-49"/>
      </defs>
      <g transform="translate(7.2 228.397067)scale(0.1 -0.1)">
       <use xlink:href="#DejaVuSans-49"/>
       <use x="63.623047" xlink:href="#DejaVuSans-48"/>
       <use x="127.246094" xlink:href="#DejaVuSans-48"/>
       <use x="190.869141" xlink:href="#DejaVuSans-48"/>
       <use x="254.492188" xlink:href="#DejaVuSans-48"/>
      </g>
     </g>
    </g>
    <g id="ytick_4">
     <g id="line2d_41">
      <path clip-path="url(#p86af6c1a5e)" d="M 46.0125 185.574045 
L 426.467045 185.574045 
" style="fill:none;stroke:#b0b0b0;stroke-linecap:square;stroke-width:0.8;"/>
     </g>
     <g id="line2d_42">
      <g>
       <use style="stroke:#000000;stroke-width:0.8;" x="46.0125" xlink:href="#mfe29b5d15f" y="185.574045"/>
      </g>
     </g>
     <g id="text_9">
      <!-- 15000 -->
      <g transform="translate(7.2 189.373263)scale(0.1 -0.1)">
       <use xlink:href="#DejaVuSans-49"/>
       <use x="63.623047" xlink:href="#DejaVuSans-53"/>
       <use x="127.246094" xlink:href="#DejaVuSans-48"/>
       <use x="190.869141" xlink:href="#DejaVuSans-48"/>
       <use x="254.492188" xlink:href="#DejaVuSans-48"/>
      </g>
     </g>
    </g>
    <g id="ytick_5">
     <g id="line2d_43">
      <path clip-path="url(#p86af6c1a5e)" d="M 46.0125 146.550241 
L 426.467045 146.550241 
" style="fill:none;stroke:#b0b0b0;stroke-linecap:square;stroke-width:0.8;"/>
     </g>
     <g id="line2d_44">
      <g>
       <use style="stroke:#000000;stroke-width:0.8;" x="46.0125" xlink:href="#mfe29b5d15f" y="146.550241"/>
      </g>
     </g>
     <g id="text_10">
      <!-- 20000 -->
      <g transform="translate(7.2 150.34946)scale(0.1 -0.1)">
       <use xlink:href="#DejaVuSans-50"/>
       <use x="63.623047" xlink:href="#DejaVuSans-48"/>
       <use x="127.246094" xlink:href="#DejaVuSans-48"/>
       <use x="190.869141" xlink:href="#DejaVuSans-48"/>
       <use x="254.492188" xlink:href="#DejaVuSans-48"/>
      </g>
     </g>
    </g>
    <g id="ytick_6">
     <g id="line2d_45">
      <path clip-path="url(#p86af6c1a5e)" d="M 46.0125 107.526438 
L 426.467045 107.526438 
" style="fill:none;stroke:#b0b0b0;stroke-linecap:square;stroke-width:0.8;"/>
     </g>
     <g id="line2d_46">
      <g>
       <use style="stroke:#000000;stroke-width:0.8;" x="46.0125" xlink:href="#mfe29b5d15f" y="107.526438"/>
      </g>
     </g>
     <g id="text_11">
      <!-- 25000 -->
      <g transform="translate(7.2 111.325657)scale(0.1 -0.1)">
       <use xlink:href="#DejaVuSans-50"/>
       <use x="63.623047" xlink:href="#DejaVuSans-53"/>
       <use x="127.246094" xlink:href="#DejaVuSans-48"/>
       <use x="190.869141" xlink:href="#DejaVuSans-48"/>
       <use x="254.492188" xlink:href="#DejaVuSans-48"/>
      </g>
     </g>
    </g>
    <g id="ytick_7">
     <g id="line2d_47">
      <path clip-path="url(#p86af6c1a5e)" d="M 46.0125 68.502635 
L 426.467045 68.502635 
" style="fill:none;stroke:#b0b0b0;stroke-linecap:square;stroke-width:0.8;"/>
     </g>
     <g id="line2d_48">
      <g>
       <use style="stroke:#000000;stroke-width:0.8;" x="46.0125" xlink:href="#mfe29b5d15f" y="68.502635"/>
      </g>
     </g>
     <g id="text_12">
      <!-- 30000 -->
      <defs>
       <path d="M 40.578125 39.3125 
Q 47.65625 37.796875 51.625 33 
Q 55.609375 28.21875 55.609375 21.1875 
Q 55.609375 10.40625 48.1875 4.484375 
Q 40.765625 -1.421875 27.09375 -1.421875 
Q 22.515625 -1.421875 17.65625 -0.515625 
Q 12.796875 0.390625 7.625 2.203125 
L 7.625 11.71875 
Q 11.71875 9.328125 16.59375 8.109375 
Q 21.484375 6.890625 26.8125 6.890625 
Q 36.078125 6.890625 40.9375 10.546875 
Q 45.796875 14.203125 45.796875 21.1875 
Q 45.796875 27.640625 41.28125 31.265625 
Q 36.765625 34.90625 28.71875 34.90625 
L 20.21875 34.90625 
L 20.21875 43.015625 
L 29.109375 43.015625 
Q 36.375 43.015625 40.234375 45.921875 
Q 44.09375 48.828125 44.09375 54.296875 
Q 44.09375 59.90625 40.109375 62.90625 
Q 36.140625 65.921875 28.71875 65.921875 
Q 24.65625 65.921875 20.015625 65.03125 
Q 15.375 64.15625 9.8125 62.3125 
L 9.8125 71.09375 
Q 15.4375 72.65625 20.34375 73.4375 
Q 25.25 74.21875 29.59375 74.21875 
Q 40.828125 74.21875 47.359375 69.109375 
Q 53.90625 64.015625 53.90625 55.328125 
Q 53.90625 49.265625 50.4375 45.09375 
Q 46.96875 40.921875 40.578125 39.3125 
z
" id="DejaVuSans-51"/>
      </defs>
      <g transform="translate(7.2 72.301853)scale(0.1 -0.1)">
       <use xlink:href="#DejaVuSans-51"/>
       <use x="63.623047" xlink:href="#DejaVuSans-48"/>
       <use x="127.246094" xlink:href="#DejaVuSans-48"/>
       <use x="190.869141" xlink:href="#DejaVuSans-48"/>
       <use x="254.492188" xlink:href="#DejaVuSans-48"/>
      </g>
     </g>
    </g>
   </g>
   <g id="line2d_49">
    <defs>
     <path d="M 0 1.5 
C 0.397805 1.5 0.77937 1.341951 1.06066 1.06066 
C 1.341951 0.77937 1.5 0.397805 1.5 0 
C 1.5 -0.397805 1.341951 -0.77937 1.06066 -1.06066 
C 0.77937 -1.341951 0.397805 -1.5 0 -1.5 
C -0.397805 -1.5 -0.77937 -1.341951 -1.06066 -1.06066 
C -1.341951 -0.77937 -1.5 -0.397805 -1.5 0 
C -1.5 0.397805 -1.341951 0.77937 -1.06066 1.06066 
C -0.77937 1.341951 -0.397805 1.5 0 1.5 
z
" id="m8efe446a5a" style="stroke:#000000;"/>
    </defs>
    <g clip-path="url(#p86af6c1a5e)">
     <use style="stroke:#000000;" x="46.0125" xlink:href="#m8efe446a5a" y="302.645455"/>
     <use style="stroke:#000000;" x="48.583139" xlink:href="#m8efe446a5a" y="302.63765"/>
     <use style="stroke:#000000;" x="51.153778" xlink:href="#m8efe446a5a" y="302.62204"/>
     <use style="stroke:#000000;" x="53.724416" xlink:href="#m8efe446a5a" y="302.62204"/>
     <use style="stroke:#000000;" x="56.295055" xlink:href="#m8efe446a5a" y="302.614236"/>
     <use style="stroke:#000000;" x="58.865694" xlink:href="#m8efe446a5a" y="302.606431"/>
     <use style="stroke:#000000;" x="61.436333" xlink:href="#m8efe446a5a" y="302.590821"/>
     <use style="stroke:#000000;" x="64.006972" xlink:href="#m8efe446a5a" y="302.590821"/>
     <use style="stroke:#000000;" x="66.577611" xlink:href="#m8efe446a5a" y="302.567407"/>
     <use style="stroke:#000000;" x="69.148249" xlink:href="#m8efe446a5a" y="302.543993"/>
     <use style="stroke:#000000;" x="71.718888" xlink:href="#m8efe446a5a" y="302.520578"/>
     <use style="stroke:#000000;" x="74.289527" xlink:href="#m8efe446a5a" y="302.504969"/>
     <use style="stroke:#000000;" x="76.860166" xlink:href="#m8efe446a5a" y="302.504969"/>
     <use style="stroke:#000000;" x="79.430805" xlink:href="#m8efe446a5a" y="302.45814"/>
     <use style="stroke:#000000;" x="82.001443" xlink:href="#m8efe446a5a" y="302.426921"/>
     <use style="stroke:#000000;" x="84.572082" xlink:href="#m8efe446a5a" y="302.426921"/>
     <use style="stroke:#000000;" x="87.142721" xlink:href="#m8efe446a5a" y="302.411312"/>
     <use style="stroke:#000000;" x="89.71336" xlink:href="#m8efe446a5a" y="302.387897"/>
     <use style="stroke:#000000;" x="92.283999" xlink:href="#m8efe446a5a" y="302.333264"/>
     <use style="stroke:#000000;" x="94.854638" xlink:href="#m8efe446a5a" y="302.29424"/>
     <use style="stroke:#000000;" x="97.425276" xlink:href="#m8efe446a5a" y="302.278631"/>
     <use style="stroke:#000000;" x="99.995915" xlink:href="#m8efe446a5a" y="302.255217"/>
     <use style="stroke:#000000;" x="102.566554" xlink:href="#m8efe446a5a" y="302.192778"/>
     <use style="stroke:#000000;" x="105.137193" xlink:href="#m8efe446a5a" y="302.122536"/>
     <use style="stroke:#000000;" x="107.707832" xlink:href="#m8efe446a5a" y="302.083512"/>
     <use style="stroke:#000000;" x="110.278471" xlink:href="#m8efe446a5a" y="302.060097"/>
     <use style="stroke:#000000;" x="112.849109" xlink:href="#m8efe446a5a" y="302.044488"/>
     <use style="stroke:#000000;" x="115.419748" xlink:href="#m8efe446a5a" y="302.013269"/>
     <use style="stroke:#000000;" x="117.990387" xlink:href="#m8efe446a5a" y="301.989855"/>
     <use style="stroke:#000000;" x="120.561026" xlink:href="#m8efe446a5a" y="301.989855"/>
     <use style="stroke:#000000;" x="123.131665" xlink:href="#m8efe446a5a" y="301.98205"/>
     <use style="stroke:#000000;" x="125.702303" xlink:href="#m8efe446a5a" y="301.98205"/>
     <use style="stroke:#000000;" x="128.272942" xlink:href="#m8efe446a5a" y="301.950831"/>
     <use style="stroke:#000000;" x="130.843581" xlink:href="#m8efe446a5a" y="301.950831"/>
     <use style="stroke:#000000;" x="133.41422" xlink:href="#m8efe446a5a" y="301.935221"/>
     <use style="stroke:#000000;" x="135.984859" xlink:href="#m8efe446a5a" y="301.919612"/>
     <use style="stroke:#000000;" x="138.555498" xlink:href="#m8efe446a5a" y="301.919612"/>
     <use style="stroke:#000000;" x="141.126136" xlink:href="#m8efe446a5a" y="301.919612"/>
     <use style="stroke:#000000;" x="143.696775" xlink:href="#m8efe446a5a" y="301.849369"/>
     <use style="stroke:#000000;" x="146.267414" xlink:href="#m8efe446a5a" y="301.81815"/>
     <use style="stroke:#000000;" x="148.838053" xlink:href="#m8efe446a5a" y="301.80254"/>
     <use style="stroke:#000000;" x="151.408692" xlink:href="#m8efe446a5a" y="301.786931"/>
     <use style="stroke:#000000;" x="153.97933" xlink:href="#m8efe446a5a" y="301.786931"/>
     <use style="stroke:#000000;" x="156.549969" xlink:href="#m8efe446a5a" y="301.732298"/>
     <use style="stroke:#000000;" x="159.120608" xlink:href="#m8efe446a5a" y="301.630836"/>
     <use style="stroke:#000000;" x="161.691247" xlink:href="#m8efe446a5a" y="301.568398"/>
     <use style="stroke:#000000;" x="164.261886" xlink:href="#m8efe446a5a" y="301.47474"/>
     <use style="stroke:#000000;" x="166.832525" xlink:href="#m8efe446a5a" y="301.47474"/>
     <use style="stroke:#000000;" x="169.403163" xlink:href="#m8efe446a5a" y="301.396693"/>
     <use style="stroke:#000000;" x="171.973802" xlink:href="#m8efe446a5a" y="301.256207"/>
     <use style="stroke:#000000;" x="174.544441" xlink:href="#m8efe446a5a" y="301.256207"/>
     <use style="stroke:#000000;" x="177.11508" xlink:href="#m8efe446a5a" y="301.084502"/>
     <use style="stroke:#000000;" x="179.685719" xlink:href="#m8efe446a5a" y="300.990845"/>
     <use style="stroke:#000000;" x="182.256357" xlink:href="#m8efe446a5a" y="300.881579"/>
     <use style="stroke:#000000;" x="184.826996" xlink:href="#m8efe446a5a" y="300.748898"/>
     <use style="stroke:#000000;" x="187.397635" xlink:href="#m8efe446a5a" y="300.569388"/>
     <use style="stroke:#000000;" x="189.968274" xlink:href="#m8efe446a5a" y="300.202564"/>
     <use style="stroke:#000000;" x="192.538913" xlink:href="#m8efe446a5a" y="299.952812"/>
     <use style="stroke:#000000;" x="195.109552" xlink:href="#m8efe446a5a" y="299.640622"/>
     <use style="stroke:#000000;" x="197.68019" xlink:href="#m8efe446a5a" y="299.273798"/>
     <use style="stroke:#000000;" x="200.250829" xlink:href="#m8efe446a5a" y="299.094288"/>
     <use style="stroke:#000000;" x="202.821468" xlink:href="#m8efe446a5a" y="298.672831"/>
     <use style="stroke:#000000;" x="205.392107" xlink:href="#m8efe446a5a" y="298.290398"/>
     <use style="stroke:#000000;" x="207.962746" xlink:href="#m8efe446a5a" y="297.720651"/>
     <use style="stroke:#000000;" x="210.533385" xlink:href="#m8efe446a5a" y="297.314803"/>
     <use style="stroke:#000000;" x="213.104023" xlink:href="#m8efe446a5a" y="296.93237"/>
     <use style="stroke:#000000;" x="215.674662" xlink:href="#m8efe446a5a" y="296.386036"/>
     <use style="stroke:#000000;" x="218.245301" xlink:href="#m8efe446a5a" y="296.058237"/>
     <use style="stroke:#000000;" x="220.81594" xlink:href="#m8efe446a5a" y="295.78507"/>
     <use style="stroke:#000000;" x="223.386579" xlink:href="#m8efe446a5a" y="295.418246"/>
     <use style="stroke:#000000;" x="225.957217" xlink:href="#m8efe446a5a" y="294.840694"/>
     <use style="stroke:#000000;" x="228.527856" xlink:href="#m8efe446a5a" y="294.458261"/>
     <use style="stroke:#000000;" x="231.098495" xlink:href="#m8efe446a5a" y="293.950951"/>
     <use style="stroke:#000000;" x="233.669134" xlink:href="#m8efe446a5a" y="293.365594"/>
     <use style="stroke:#000000;" x="236.239773" xlink:href="#m8efe446a5a" y="292.429023"/>
     <use style="stroke:#000000;" x="238.810412" xlink:href="#m8efe446a5a" y="291.913909"/>
     <use style="stroke:#000000;" x="241.38105" xlink:href="#m8efe446a5a" y="291.086604"/>
     <use style="stroke:#000000;" x="243.951689" xlink:href="#m8efe446a5a" y="289.978328"/>
     <use style="stroke:#000000;" x="246.522328" xlink:href="#m8efe446a5a" y="287.738362"/>
     <use style="stroke:#000000;" x="249.092967" xlink:href="#m8efe446a5a" y="286.193019"/>
     <use style="stroke:#000000;" x="251.663606" xlink:href="#m8efe446a5a" y="284.70231"/>
     <use style="stroke:#000000;" x="254.234244" xlink:href="#m8efe446a5a" y="282.883801"/>
     <use style="stroke:#000000;" x="256.804883" xlink:href="#m8efe446a5a" y="279.871163"/>
     <use style="stroke:#000000;" x="259.375522" xlink:href="#m8efe446a5a" y="277.264373"/>
     <use style="stroke:#000000;" x="261.946161" xlink:href="#m8efe446a5a" y="273.775645"/>
     <use style="stroke:#000000;" x="264.5168" xlink:href="#m8efe446a5a" y="268.093779"/>
     <use style="stroke:#000000;" x="267.087439" xlink:href="#m8efe446a5a" y="263.231413"/>
     <use style="stroke:#000000;" x="269.658077" xlink:href="#m8efe446a5a" y="255.879329"/>
     <use style="stroke:#000000;" x="272.228716" xlink:href="#m8efe446a5a" y="251.227691"/>
     <use style="stroke:#000000;" x="274.799355" xlink:href="#m8efe446a5a" y="240.098103"/>
     <use style="stroke:#000000;" x="277.369994" xlink:href="#m8efe446a5a" y="231.427013"/>
     <use style="stroke:#000000;" x="279.940633" xlink:href="#m8efe446a5a" y="223.497377"/>
     <use style="stroke:#000000;" x="282.511271" xlink:href="#m8efe446a5a" y="215.40384"/>
     <use style="stroke:#000000;" x="285.08191" xlink:href="#m8efe446a5a" y="208.402969"/>
     <use style="stroke:#000000;" x="287.652549" xlink:href="#m8efe446a5a" y="203.579627"/>
     <use style="stroke:#000000;" x="290.223188" xlink:href="#m8efe446a5a" y="196.313395"/>
     <use style="stroke:#000000;" x="292.793827" xlink:href="#m8efe446a5a" y="190.077391"/>
     <use style="stroke:#000000;" x="295.364466" xlink:href="#m8efe446a5a" y="185.956478"/>
     <use style="stroke:#000000;" x="297.935104" xlink:href="#m8efe446a5a" y="180.571193"/>
     <use style="stroke:#000000;" x="300.505743" xlink:href="#m8efe446a5a" y="176.450279"/>
     <use style="stroke:#000000;" x="303.076382" xlink:href="#m8efe446a5a" y="169.176242"/>
     <use style="stroke:#000000;" x="305.647021" xlink:href="#m8efe446a5a" y="165.687514"/>
     <use style="stroke:#000000;" x="308.21766" xlink:href="#m8efe446a5a" y="160.559787"/>
     <use style="stroke:#000000;" x="310.788299" xlink:href="#m8efe446a5a" y="156.087659"/>
     <use style="stroke:#000000;" x="313.358937" xlink:href="#m8efe446a5a" y="151.15505"/>
     <use style="stroke:#000000;" x="315.929576" xlink:href="#m8efe446a5a" y="145.004899"/>
     <use style="stroke:#000000;" x="318.500215" xlink:href="#m8efe446a5a" y="139.221571"/>
     <use style="stroke:#000000;" x="321.070854" xlink:href="#m8efe446a5a" y="133.227515"/>
     <use style="stroke:#000000;" x="323.641493" xlink:href="#m8efe446a5a" y="127.35053"/>
     <use style="stroke:#000000;" x="326.212131" xlink:href="#m8efe446a5a" y="120.51356"/>
     <use style="stroke:#000000;" x="328.78277" xlink:href="#m8efe446a5a" y="116.720446"/>
     <use style="stroke:#000000;" x="331.353409" xlink:href="#m8efe446a5a" y="110.094204"/>
     <use style="stroke:#000000;" x="333.924048" xlink:href="#m8efe446a5a" y="104.825991"/>
     <use style="stroke:#000000;" x="336.494687" xlink:href="#m8efe446a5a" y="98.956811"/>
     <use style="stroke:#000000;" x="339.065326" xlink:href="#m8efe446a5a" y="92.767635"/>
     <use style="stroke:#000000;" x="341.635964" xlink:href="#m8efe446a5a" y="89.138422"/>
     <use style="stroke:#000000;" x="344.206603" xlink:href="#m8efe446a5a" y="83.815575"/>
     <use style="stroke:#000000;" x="346.777242" xlink:href="#m8efe446a5a" y="81.435123"/>
     <use style="stroke:#000000;" x="349.347881" xlink:href="#m8efe446a5a" y="77.915176"/>
     <use style="stroke:#000000;" x="351.91852" xlink:href="#m8efe446a5a" y="73.466462"/>
    </g>
   </g>
   <g id="line2d_50">
    <path clip-path="url(#p86af6c1a5e)" d="M 46.0125 302.643396 
L 133.41422 302.529375 
L 156.549969 302.308204 
L 171.973802 301.959361 
L 182.256357 301.544745 
L 189.968274 301.077424 
L 197.68019 300.413547 
L 205.392107 299.472337 
L 210.533385 298.63703 
L 215.674662 297.586528 
L 220.81594 296.268152 
L 225.957217 294.617935 
L 231.098495 292.559126 
L 233.669134 291.348728 
L 236.239773 290.001062 
L 238.810412 288.502558 
L 241.38105 286.838805 
L 243.951689 284.994616 
L 246.522328 282.954149 
L 249.092967 280.701067 
L 251.663606 278.218752 
L 254.234244 275.490588 
L 256.804883 272.500303 
L 259.375522 269.232389 
L 261.946161 265.672587 
L 264.5168 261.808448 
L 267.087439 257.629939 
L 269.658077 253.130102 
L 272.228716 248.305723 
L 274.799355 243.157984 
L 277.369994 237.693067 
L 279.940633 231.922653 
L 285.08191 219.541505 
L 290.223188 206.226449 
L 297.935104 185.177732 
L 305.647021 163.967886 
L 310.788299 150.382407 
L 315.929576 137.630635 
L 318.500215 131.647799 
L 321.070854 125.958238 
L 323.641493 120.577887 
L 326.212131 115.516903 
L 328.78277 110.780065 
L 331.353409 106.367311 
L 333.924048 102.274349 
L 336.494687 98.493328 
L 339.065326 95.013501 
L 341.635964 91.821872 
L 344.206603 88.903795 
L 346.777242 86.24351 
L 349.347881 83.824614 
L 351.91852 81.63046 
L 351.91852 81.63046 
" style="fill:none;stroke:#008000;stroke-linecap:square;stroke-width:1.5;"/>
   </g>
   <g id="line2d_51">
    <path clip-path="url(#p86af6c1a5e)" d="M 354.489158 77.850454 
L 357.059797 76.232699 
L 359.630436 74.776231 
L 362.201075 73.466857 
L 367.342353 71.236961 
L 372.48363 69.447117 
L 377.624908 68.015596 
L 382.766186 66.873921 
L 387.907463 65.965473 
L 393.048741 65.243916 
L 400.760657 64.431718 
L 408.472574 63.859376 
L 418.755129 63.351159 
L 426.467045 63.099723 
L 426.467045 63.099723 
" style="fill:none;stroke:#ff0000;stroke-linecap:square;stroke-width:1.5;"/>
   </g>
   <g id="patch_3">
    <path d="M 46.0125 315 
L 46.0125 43.2 
" style="fill:none;stroke:#000000;stroke-linecap:square;stroke-linejoin:miter;stroke-width:0.8;"/>
   </g>
   <g id="patch_4">
    <path d="M 426.467045 315 
L 426.467045 43.2 
" style="fill:none;stroke:#000000;stroke-linecap:square;stroke-linejoin:miter;stroke-width:0.8;"/>
   </g>
   <g id="patch_5">
    <path d="M 46.0125 315 
L 426.467045 315 
" style="fill:none;stroke:#000000;stroke-linecap:square;stroke-linejoin:miter;stroke-width:0.8;"/>
   </g>
   <g id="patch_6">
    <path d="M 46.0125 43.2 
L 426.467045 43.2 
" style="fill:none;stroke:#000000;stroke-linecap:square;stroke-linejoin:miter;stroke-width:0.8;"/>
   </g>
   <g id="text_13">
    <!-- Parametric Fitting -->
    <defs>
     <path d="M 19.671875 64.796875 
L 19.671875 37.40625 
L 32.078125 37.40625 
Q 38.96875 37.40625 42.71875 40.96875 
Q 46.484375 44.53125 46.484375 51.125 
Q 46.484375 57.671875 42.71875 61.234375 
Q 38.96875 64.796875 32.078125 64.796875 
z
M 9.8125 72.90625 
L 32.078125 72.90625 
Q 44.34375 72.90625 50.609375 67.359375 
Q 56.890625 61.8125 56.890625 51.125 
Q 56.890625 40.328125 50.609375 34.8125 
Q 44.34375 29.296875 32.078125 29.296875 
L 19.671875 29.296875 
L 19.671875 0 
L 9.8125 0 
z
" id="DejaVuSans-80"/>
     <path d="M 52 44.1875 
Q 55.375 50.25 60.0625 53.125 
Q 64.75 56 71.09375 56 
Q 79.640625 56 84.28125 50.015625 
Q 88.921875 44.046875 88.921875 33.015625 
L 88.921875 0 
L 79.890625 0 
L 79.890625 32.71875 
Q 79.890625 40.578125 77.09375 44.375 
Q 74.3125 48.1875 68.609375 48.1875 
Q 61.625 48.1875 57.5625 43.546875 
Q 53.515625 38.921875 53.515625 30.90625 
L 53.515625 0 
L 44.484375 0 
L 44.484375 32.71875 
Q 44.484375 40.625 41.703125 44.40625 
Q 38.921875 48.1875 33.109375 48.1875 
Q 26.21875 48.1875 22.15625 43.53125 
Q 18.109375 38.875 18.109375 30.90625 
L 18.109375 0 
L 9.078125 0 
L 9.078125 54.6875 
L 18.109375 54.6875 
L 18.109375 46.1875 
Q 21.1875 51.21875 25.484375 53.609375 
Q 29.78125 56 35.6875 56 
Q 41.65625 56 45.828125 52.96875 
Q 50 49.953125 52 44.1875 
z
" id="DejaVuSans-109"/>
     <path d="M 18.3125 70.21875 
L 18.3125 54.6875 
L 36.8125 54.6875 
L 36.8125 47.703125 
L 18.3125 47.703125 
L 18.3125 18.015625 
Q 18.3125 11.328125 20.140625 9.421875 
Q 21.96875 7.515625 27.59375 7.515625 
L 36.8125 7.515625 
L 36.8125 0 
L 27.59375 0 
Q 17.1875 0 13.234375 3.875 
Q 9.28125 7.765625 9.28125 18.015625 
L 9.28125 47.703125 
L 2.6875 47.703125 
L 2.6875 54.6875 
L 9.28125 54.6875 
L 9.28125 70.21875 
z
" id="DejaVuSans-116"/>
     <path d="M 9.421875 54.6875 
L 18.40625 54.6875 
L 18.40625 0 
L 9.421875 0 
z
M 9.421875 75.984375 
L 18.40625 75.984375 
L 18.40625 64.59375 
L 9.421875 64.59375 
z
" id="DejaVuSans-105"/>
     <path d="M 48.78125 52.59375 
L 48.78125 44.1875 
Q 44.96875 46.296875 41.140625 47.34375 
Q 37.3125 48.390625 33.40625 48.390625 
Q 24.65625 48.390625 19.8125 42.84375 
Q 14.984375 37.3125 14.984375 27.296875 
Q 14.984375 17.28125 19.8125 11.734375 
Q 24.65625 6.203125 33.40625 6.203125 
Q 37.3125 6.203125 41.140625 7.25 
Q 44.96875 8.296875 48.78125 10.40625 
L 48.78125 2.09375 
Q 45.015625 0.34375 40.984375 -0.53125 
Q 36.96875 -1.421875 32.421875 -1.421875 
Q 20.0625 -1.421875 12.78125 6.34375 
Q 5.515625 14.109375 5.515625 27.296875 
Q 5.515625 40.671875 12.859375 48.328125 
Q 20.21875 56 33.015625 56 
Q 37.15625 56 41.109375 55.140625 
Q 45.0625 54.296875 48.78125 52.59375 
z
" id="DejaVuSans-99"/>
     <path id="DejaVuSans-32"/>
     <path d="M 45.40625 27.984375 
Q 45.40625 37.75 41.375 43.109375 
Q 37.359375 48.484375 30.078125 48.484375 
Q 22.859375 48.484375 18.828125 43.109375 
Q 14.796875 37.75 14.796875 27.984375 
Q 14.796875 18.265625 18.828125 12.890625 
Q 22.859375 7.515625 30.078125 7.515625 
Q 37.359375 7.515625 41.375 12.890625 
Q 45.40625 18.265625 45.40625 27.984375 
z
M 54.390625 6.78125 
Q 54.390625 -7.171875 48.1875 -13.984375 
Q 42 -20.796875 29.203125 -20.796875 
Q 24.46875 -20.796875 20.265625 -20.09375 
Q 16.0625 -19.390625 12.109375 -17.921875 
L 12.109375 -9.1875 
Q 16.0625 -11.328125 19.921875 -12.34375 
Q 23.78125 -13.375 27.78125 -13.375 
Q 36.625 -13.375 41.015625 -8.765625 
Q 45.40625 -4.15625 45.40625 5.171875 
L 45.40625 9.625 
Q 42.625 4.78125 38.28125 2.390625 
Q 33.9375 0 27.875 0 
Q 17.828125 0 11.671875 7.65625 
Q 5.515625 15.328125 5.515625 27.984375 
Q 5.515625 40.671875 11.671875 48.328125 
Q 17.828125 56 27.875 56 
Q 33.9375 56 38.28125 53.609375 
Q 42.625 51.21875 45.40625 46.390625 
L 45.40625 54.6875 
L 54.390625 54.6875 
z
" id="DejaVuSans-103"/>
    </defs>
    <g transform="translate(183.17821 37.2)scale(0.12 -0.12)">
     <use xlink:href="#DejaVuSans-80"/>
     <use x="55.802734" xlink:href="#DejaVuSans-97"/>
     <use x="117.082031" xlink:href="#DejaVuSans-114"/>
     <use x="158.195312" xlink:href="#DejaVuSans-97"/>
     <use x="219.474609" xlink:href="#DejaVuSans-109"/>
     <use x="316.886719" xlink:href="#DejaVuSans-101"/>
     <use x="378.410156" xlink:href="#DejaVuSans-116"/>
     <use x="417.619141" xlink:href="#DejaVuSans-114"/>
     <use x="458.732422" xlink:href="#DejaVuSans-105"/>
     <use x="486.515625" xlink:href="#DejaVuSans-99"/>
     <use x="541.496094" xlink:href="#DejaVuSans-32"/>
     <use x="573.283203" xlink:href="#DejaVuSans-70"/>
     <use x="623.552734" xlink:href="#DejaVuSans-105"/>
     <use x="651.335938" xlink:href="#DejaVuSans-116"/>
     <use x="690.544922" xlink:href="#DejaVuSans-116"/>
     <use x="729.753906" xlink:href="#DejaVuSans-105"/>
     <use x="757.537109" xlink:href="#DejaVuSans-110"/>
     <use x="820.916016" xlink:href="#DejaVuSans-103"/>
    </g>
   </g>
   <g id="legend_1">
    <g id="patch_7">
     <path d="M 53.0125 80.55625 
L 125.446875 80.55625 
Q 127.446875 80.55625 127.446875 78.55625 
L 127.446875 50.2 
Q 127.446875 48.2 125.446875 48.2 
L 53.0125 48.2 
Q 51.0125 48.2 51.0125 50.2 
L 51.0125 78.55625 
Q 51.0125 80.55625 53.0125 80.55625 
z
" style="fill:#ffffff;opacity:0.8;stroke:#cccccc;stroke-linejoin:miter;"/>
    </g>
    <g id="line2d_52"/>
    <g id="line2d_53">
     <g>
      <use style="stroke:#000000;" x="65.0125" xlink:href="#m8efe446a5a" y="56.298437"/>
     </g>
    </g>
    <g id="text_14">
     <!-- model -->
     <defs>
      <path d="M 30.609375 48.390625 
Q 23.390625 48.390625 19.1875 42.75 
Q 14.984375 37.109375 14.984375 27.296875 
Q 14.984375 17.484375 19.15625 11.84375 
Q 23.34375 6.203125 30.609375 6.203125 
Q 37.796875 6.203125 41.984375 11.859375 
Q 46.1875 17.53125 46.1875 27.296875 
Q 46.1875 37.015625 41.984375 42.703125 
Q 37.796875 48.390625 30.609375 48.390625 
z
M 30.609375 56 
Q 42.328125 56 49.015625 48.375 
Q 55.71875 40.765625 55.71875 27.296875 
Q 55.71875 13.875 49.015625 6.21875 
Q 42.328125 -1.421875 30.609375 -1.421875 
Q 18.84375 -1.421875 12.171875 6.21875 
Q 5.515625 13.875 5.515625 27.296875 
Q 5.515625 40.765625 12.171875 48.375 
Q 18.84375 56 30.609375 56 
z
" id="DejaVuSans-111"/>
      <path d="M 45.40625 46.390625 
L 45.40625 75.984375 
L 54.390625 75.984375 
L 54.390625 0 
L 45.40625 0 
L 45.40625 8.203125 
Q 42.578125 3.328125 38.25 0.953125 
Q 33.9375 -1.421875 27.875 -1.421875 
Q 17.96875 -1.421875 11.734375 6.484375 
Q 5.515625 14.40625 5.515625 27.296875 
Q 5.515625 40.1875 11.734375 48.09375 
Q 17.96875 56 27.875 56 
Q 33.9375 56 38.25 53.625 
Q 42.578125 51.265625 45.40625 46.390625 
z
M 14.796875 27.296875 
Q 14.796875 17.390625 18.875 11.75 
Q 22.953125 6.109375 30.078125 6.109375 
Q 37.203125 6.109375 41.296875 11.75 
Q 45.40625 17.390625 45.40625 27.296875 
Q 45.40625 37.203125 41.296875 42.84375 
Q 37.203125 48.484375 30.078125 48.484375 
Q 22.953125 48.484375 18.875 42.84375 
Q 14.796875 37.203125 14.796875 27.296875 
z
" id="DejaVuSans-100"/>
      <path d="M 9.421875 75.984375 
L 18.40625 75.984375 
L 18.40625 0 
L 9.421875 0 
z
" id="DejaVuSans-108"/>
     </defs>
     <g transform="translate(83.0125 59.798437)scale(0.1 -0.1)">
      <use xlink:href="#DejaVuSans-109"/>
      <use x="97.412109" xlink:href="#DejaVuSans-111"/>
      <use x="158.59375" xlink:href="#DejaVuSans-100"/>
      <use x="222.070312" xlink:href="#DejaVuSans-101"/>
      <use x="283.59375" xlink:href="#DejaVuSans-108"/>
     </g>
    </g>
    <g id="line2d_54">
     <path d="M 55.0125 70.976562 
L 75.0125 70.976562 
" style="fill:none;stroke:#008000;stroke-linecap:square;stroke-width:1.5;"/>
    </g>
    <g id="line2d_55"/>
    <g id="text_15">
     <!-- forecast -->
     <defs>
      <path d="M 37.109375 75.984375 
L 37.109375 68.5 
L 28.515625 68.5 
Q 23.6875 68.5 21.796875 66.546875 
Q 19.921875 64.59375 19.921875 59.515625 
L 19.921875 54.6875 
L 34.71875 54.6875 
L 34.71875 47.703125 
L 19.921875 47.703125 
L 19.921875 0 
L 10.890625 0 
L 10.890625 47.703125 
L 2.296875 47.703125 
L 2.296875 54.6875 
L 10.890625 54.6875 
L 10.890625 58.5 
Q 10.890625 67.625 15.140625 71.796875 
Q 19.390625 75.984375 28.609375 75.984375 
z
" id="DejaVuSans-102"/>
      <path d="M 44.28125 53.078125 
L 44.28125 44.578125 
Q 40.484375 46.53125 36.375 47.5 
Q 32.28125 48.484375 27.875 48.484375 
Q 21.1875 48.484375 17.84375 46.4375 
Q 14.5 44.390625 14.5 40.28125 
Q 14.5 37.15625 16.890625 35.375 
Q 19.28125 33.59375 26.515625 31.984375 
L 29.59375 31.296875 
Q 39.15625 29.25 43.1875 25.515625 
Q 47.21875 21.78125 47.21875 15.09375 
Q 47.21875 7.46875 41.1875 3.015625 
Q 35.15625 -1.421875 24.609375 -1.421875 
Q 20.21875 -1.421875 15.453125 -0.5625 
Q 10.6875 0.296875 5.421875 2 
L 5.421875 11.28125 
Q 10.40625 8.6875 15.234375 7.390625 
Q 20.0625 6.109375 24.8125 6.109375 
Q 31.15625 6.109375 34.5625 8.28125 
Q 37.984375 10.453125 37.984375 14.40625 
Q 37.984375 18.0625 35.515625 20.015625 
Q 33.0625 21.96875 24.703125 23.78125 
L 21.578125 24.515625 
Q 13.234375 26.265625 9.515625 29.90625 
Q 5.8125 33.546875 5.8125 39.890625 
Q 5.8125 47.609375 11.28125 51.796875 
Q 16.75 56 26.8125 56 
Q 31.78125 56 36.171875 55.265625 
Q 40.578125 54.546875 44.28125 53.078125 
z
" id="DejaVuSans-115"/>
     </defs>
     <g transform="translate(83.0125 74.476562)scale(0.1 -0.1)">
      <use xlink:href="#DejaVuSans-102"/>
      <use x="35.205078" xlink:href="#DejaVuSans-111"/>
      <use x="96.386719" xlink:href="#DejaVuSans-114"/>
      <use x="135.25" xlink:href="#DejaVuSans-101"/>
      <use x="196.773438" xlink:href="#DejaVuSans-99"/>
      <use x="251.753906" xlink:href="#DejaVuSans-97"/>
      <use x="313.033203" xlink:href="#DejaVuSans-115"/>
      <use x="365.132812" xlink:href="#DejaVuSans-116"/>
     </g>
    </g>
   </g>
  </g>
  <g id="axes_2">
   <g id="patch_8">
    <path d="M 502.557955 315 
L 883.0125 315 
L 883.0125 43.2 
L 502.557955 43.2 
z
" style="fill:#ffffff;"/>
   </g>
   <g id="PolyCollection_2">
    <defs>
     <path d="M 699.344788 -296.906031 
L 699.344788 -276.434307 
L 705.90435 -278.628968 
L 712.463911 -280.604828 
L 719.023472 -282.381137 
L 725.583033 -283.975982 
L 732.142594 -285.406236 
L 738.702155 -286.687548 
L 745.261716 -287.834355 
L 751.821277 -288.859919 
L 758.380839 -289.776371 
L 764.9404 -290.594773 
L 771.499961 -291.325179 
L 778.059522 -291.976703 
L 784.619083 -292.557588 
L 791.178644 -293.075273 
L 797.738205 -293.53646 
L 804.297766 -293.947176 
L 810.857328 -294.312836 
L 817.416889 -294.638295 
L 823.97645 -294.927904 
L 830.536011 -295.185558 
L 837.095572 -295.41474 
L 843.655133 -295.618561 
L 850.214694 -295.799801 
L 856.774255 -295.960941 
L 863.333817 -296.104193 
L 869.893378 -296.231529 
L 876.452939 -296.344707 
L 883.0125 -296.445293 
L 883.0125 -316.917017 
L 883.0125 -316.917017 
L 876.452939 -316.816431 
L 869.893378 -316.703253 
L 863.333817 -316.575917 
L 856.774255 -316.432665 
L 850.214694 -316.271526 
L 843.655133 -316.090285 
L 837.095572 -315.886464 
L 830.536011 -315.657283 
L 823.97645 -315.399629 
L 817.416889 -315.110019 
L 810.857328 -314.78456 
L 804.297766 -314.4189 
L 797.738205 -314.008184 
L 791.178644 -313.546997 
L 784.619083 -313.029312 
L 778.059522 -312.448427 
L 771.499961 -311.796903 
L 764.9404 -311.066498 
L 758.380839 -310.248095 
L 751.821277 -309.331643 
L 745.261716 -308.30608 
L 738.702155 -307.159272 
L 732.142594 -305.877961 
L 725.583033 -304.447707 
L 719.023472 -302.852861 
L 712.463911 -301.076552 
L 705.90435 -299.100692 
L 699.344788 -296.906031 
z
" id="m1a7797c9e5" style="stroke:#0000ff;stroke-opacity:0.3;"/>
    </defs>
    <g clip-path="url(#pad06fd5155)">
     <use style="fill:#0000ff;fill-opacity:0.3;stroke:#0000ff;stroke-opacity:0.3;" x="0" xlink:href="#m1a7797c9e5" y="372.471562"/>
    </g>
   </g>
   <g id="matplotlib.axis_3">
    <g id="xtick_28">
     <g id="line2d_56">
      <path clip-path="url(#pad06fd5155)" d="M 502.557955 315 
L 502.557955 43.2 
" style="fill:none;stroke:#b0b0b0;stroke-linecap:square;stroke-width:0.8;"/>
     </g>
     <g id="line2d_57">
      <g>
       <use style="stroke:#000000;stroke-width:0.8;" x="502.557955" xlink:href="#m4a8ca3313f" y="315"/>
      </g>
     </g>
    </g>
    <g id="xtick_29">
     <g id="line2d_58">
      <path clip-path="url(#pad06fd5155)" d="M 568.153566 315 
L 568.153566 43.2 
" style="fill:none;stroke:#b0b0b0;stroke-linecap:square;stroke-width:0.8;"/>
     </g>
     <g id="line2d_59">
      <g>
       <use style="stroke:#000000;stroke-width:0.8;" x="568.153566" xlink:href="#m4a8ca3313f" y="315"/>
      </g>
     </g>
     <g id="text_16">
      <!--  -->
      <g transform="translate(568.153566 329.598437)scale(0.1 -0.1)"/>
      <!--  -->
      <g transform="translate(568.153566 340.79625)scale(0.1 -0.1)"/>
      <!-- May -->
      <g transform="translate(557.816066 351.994062)scale(0.1 -0.1)">
       <use xlink:href="#DejaVuSans-77"/>
       <use x="86.279297" xlink:href="#DejaVuSans-97"/>
       <use x="147.558594" xlink:href="#DejaVuSans-121"/>
      </g>
      <!-- 2020 -->
      <g transform="translate(555.428566 363.191875)scale(0.1 -0.1)">
       <use xlink:href="#DejaVuSans-50"/>
       <use x="63.623047" xlink:href="#DejaVuSans-48"/>
       <use x="127.246094" xlink:href="#DejaVuSans-50"/>
       <use x="190.869141" xlink:href="#DejaVuSans-48"/>
      </g>
     </g>
    </g>
    <g id="xtick_30">
     <g id="line2d_60">
      <path clip-path="url(#pad06fd5155)" d="M 771.499961 315 
L 771.499961 43.2 
" style="fill:none;stroke:#b0b0b0;stroke-linecap:square;stroke-width:0.8;"/>
     </g>
     <g id="line2d_61">
      <g>
       <use style="stroke:#000000;stroke-width:0.8;" x="771.499961" xlink:href="#m4a8ca3313f" y="315"/>
      </g>
     </g>
     <g id="text_17">
      <!--  -->
      <g transform="translate(771.499961 329.598437)scale(0.1 -0.1)"/>
      <!--  -->
      <g transform="translate(771.499961 340.79625)scale(0.1 -0.1)"/>
      <!-- Jun -->
      <g transform="translate(763.687461 351.994062)scale(0.1 -0.1)">
       <use xlink:href="#DejaVuSans-74"/>
       <use x="29.492188" xlink:href="#DejaVuSans-117"/>
       <use x="92.871094" xlink:href="#DejaVuSans-110"/>
      </g>
     </g>
    </g>
    <g id="xtick_31">
     <g id="line2d_62">
      <path clip-path="url(#pad06fd5155)" d="M 883.0125 315 
L 883.0125 43.2 
" style="fill:none;stroke:#b0b0b0;stroke-linecap:square;stroke-width:0.8;"/>
     </g>
     <g id="line2d_63">
      <g>
       <use style="stroke:#000000;stroke-width:0.8;" x="883.0125" xlink:href="#m4a8ca3313f" y="315"/>
      </g>
     </g>
    </g>
    <g id="xtick_32">
     <g id="line2d_64">
      <g>
       <use style="stroke:#000000;stroke-width:0.6;" x="509.117516" xlink:href="#m133a0aca3e" y="315"/>
      </g>
     </g>
    </g>
    <g id="xtick_33">
     <g id="line2d_65">
      <g>
       <use style="stroke:#000000;stroke-width:0.6;" x="515.677077" xlink:href="#m133a0aca3e" y="315"/>
      </g>
     </g>
    </g>
    <g id="xtick_34">
     <g id="line2d_66">
      <g>
       <use style="stroke:#000000;stroke-width:0.6;" x="522.236638" xlink:href="#m133a0aca3e" y="315"/>
      </g>
     </g>
    </g>
    <g id="xtick_35">
     <g id="line2d_67">
      <g>
       <use style="stroke:#000000;stroke-width:0.6;" x="528.796199" xlink:href="#m133a0aca3e" y="315"/>
      </g>
     </g>
    </g>
    <g id="xtick_36">
     <g id="line2d_68">
      <g>
       <use style="stroke:#000000;stroke-width:0.6;" x="535.35576" xlink:href="#m133a0aca3e" y="315"/>
      </g>
     </g>
    </g>
    <g id="xtick_37">
     <g id="line2d_69">
      <g>
       <use style="stroke:#000000;stroke-width:0.6;" x="541.915321" xlink:href="#m133a0aca3e" y="315"/>
      </g>
     </g>
     <g id="text_18">
      <!-- 27 -->
      <defs>
       <path d="M 8.203125 72.90625 
L 55.078125 72.90625 
L 55.078125 68.703125 
L 28.609375 0 
L 18.3125 0 
L 43.21875 64.59375 
L 8.203125 64.59375 
z
" id="DejaVuSans-55"/>
      </defs>
      <g transform="translate(535.552821 327.998437)scale(0.1 -0.1)">
       <use xlink:href="#DejaVuSans-50"/>
       <use x="63.623047" xlink:href="#DejaVuSans-55"/>
      </g>
     </g>
    </g>
    <g id="xtick_38">
     <g id="line2d_70">
      <g>
       <use style="stroke:#000000;stroke-width:0.6;" x="548.474882" xlink:href="#m133a0aca3e" y="315"/>
      </g>
     </g>
    </g>
    <g id="xtick_39">
     <g id="line2d_71">
      <g>
       <use style="stroke:#000000;stroke-width:0.6;" x="555.034444" xlink:href="#m133a0aca3e" y="315"/>
      </g>
     </g>
    </g>
    <g id="xtick_40">
     <g id="line2d_72">
      <g>
       <use style="stroke:#000000;stroke-width:0.6;" x="561.594005" xlink:href="#m133a0aca3e" y="315"/>
      </g>
     </g>
    </g>
    <g id="xtick_41">
     <g id="line2d_73">
      <g>
       <use style="stroke:#000000;stroke-width:0.6;" x="574.713127" xlink:href="#m133a0aca3e" y="315"/>
      </g>
     </g>
    </g>
    <g id="xtick_42">
     <g id="line2d_74">
      <g>
       <use style="stroke:#000000;stroke-width:0.6;" x="581.272688" xlink:href="#m133a0aca3e" y="315"/>
      </g>
     </g>
    </g>
    <g id="xtick_43">
     <g id="line2d_75">
      <g>
       <use style="stroke:#000000;stroke-width:0.6;" x="587.832249" xlink:href="#m133a0aca3e" y="315"/>
      </g>
     </g>
     <g id="text_19">
      <!-- 04 -->
      <defs>
       <path d="M 37.796875 64.3125 
L 12.890625 25.390625 
L 37.796875 25.390625 
z
M 35.203125 72.90625 
L 47.609375 72.90625 
L 47.609375 25.390625 
L 58.015625 25.390625 
L 58.015625 17.1875 
L 47.609375 17.1875 
L 47.609375 0 
L 37.796875 0 
L 37.796875 17.1875 
L 4.890625 17.1875 
L 4.890625 26.703125 
z
" id="DejaVuSans-52"/>
      </defs>
      <g transform="translate(581.469749 327.998437)scale(0.1 -0.1)">
       <use xlink:href="#DejaVuSans-48"/>
       <use x="63.623047" xlink:href="#DejaVuSans-52"/>
      </g>
     </g>
    </g>
    <g id="xtick_44">
     <g id="line2d_76">
      <g>
       <use style="stroke:#000000;stroke-width:0.6;" x="594.39181" xlink:href="#m133a0aca3e" y="315"/>
      </g>
     </g>
    </g>
    <g id="xtick_45">
     <g id="line2d_77">
      <g>
       <use style="stroke:#000000;stroke-width:0.6;" x="600.951371" xlink:href="#m133a0aca3e" y="315"/>
      </g>
     </g>
    </g>
    <g id="xtick_46">
     <g id="line2d_78">
      <g>
       <use style="stroke:#000000;stroke-width:0.6;" x="607.510933" xlink:href="#m133a0aca3e" y="315"/>
      </g>
     </g>
    </g>
    <g id="xtick_47">
     <g id="line2d_79">
      <g>
       <use style="stroke:#000000;stroke-width:0.6;" x="614.070494" xlink:href="#m133a0aca3e" y="315"/>
      </g>
     </g>
    </g>
    <g id="xtick_48">
     <g id="line2d_80">
      <g>
       <use style="stroke:#000000;stroke-width:0.6;" x="620.630055" xlink:href="#m133a0aca3e" y="315"/>
      </g>
     </g>
    </g>
    <g id="xtick_49">
     <g id="line2d_81">
      <g>
       <use style="stroke:#000000;stroke-width:0.6;" x="627.189616" xlink:href="#m133a0aca3e" y="315"/>
      </g>
     </g>
    </g>
    <g id="xtick_50">
     <g id="line2d_82">
      <g>
       <use style="stroke:#000000;stroke-width:0.6;" x="633.749177" xlink:href="#m133a0aca3e" y="315"/>
      </g>
     </g>
     <g id="text_20">
      <!-- 11 -->
      <g transform="translate(627.386677 327.998437)scale(0.1 -0.1)">
       <use xlink:href="#DejaVuSans-49"/>
       <use x="63.623047" xlink:href="#DejaVuSans-49"/>
      </g>
     </g>
    </g>
    <g id="xtick_51">
     <g id="line2d_83">
      <g>
       <use style="stroke:#000000;stroke-width:0.6;" x="640.308738" xlink:href="#m133a0aca3e" y="315"/>
      </g>
     </g>
    </g>
    <g id="xtick_52">
     <g id="line2d_84">
      <g>
       <use style="stroke:#000000;stroke-width:0.6;" x="646.868299" xlink:href="#m133a0aca3e" y="315"/>
      </g>
     </g>
    </g>
    <g id="xtick_53">
     <g id="line2d_85">
      <g>
       <use style="stroke:#000000;stroke-width:0.6;" x="653.427861" xlink:href="#m133a0aca3e" y="315"/>
      </g>
     </g>
    </g>
    <g id="xtick_54">
     <g id="line2d_86">
      <g>
       <use style="stroke:#000000;stroke-width:0.6;" x="659.987422" xlink:href="#m133a0aca3e" y="315"/>
      </g>
     </g>
    </g>
    <g id="xtick_55">
     <g id="line2d_87">
      <g>
       <use style="stroke:#000000;stroke-width:0.6;" x="666.546983" xlink:href="#m133a0aca3e" y="315"/>
      </g>
     </g>
    </g>
    <g id="xtick_56">
     <g id="line2d_88">
      <g>
       <use style="stroke:#000000;stroke-width:0.6;" x="673.106544" xlink:href="#m133a0aca3e" y="315"/>
      </g>
     </g>
    </g>
    <g id="xtick_57">
     <g id="line2d_89">
      <g>
       <use style="stroke:#000000;stroke-width:0.6;" x="679.666105" xlink:href="#m133a0aca3e" y="315"/>
      </g>
     </g>
     <g id="text_21">
      <!-- 18 -->
      <defs>
       <path d="M 31.78125 34.625 
Q 24.75 34.625 20.71875 30.859375 
Q 16.703125 27.09375 16.703125 20.515625 
Q 16.703125 13.921875 20.71875 10.15625 
Q 24.75 6.390625 31.78125 6.390625 
Q 38.8125 6.390625 42.859375 10.171875 
Q 46.921875 13.96875 46.921875 20.515625 
Q 46.921875 27.09375 42.890625 30.859375 
Q 38.875 34.625 31.78125 34.625 
z
M 21.921875 38.8125 
Q 15.578125 40.375 12.03125 44.71875 
Q 8.5 49.078125 8.5 55.328125 
Q 8.5 64.0625 14.71875 69.140625 
Q 20.953125 74.21875 31.78125 74.21875 
Q 42.671875 74.21875 48.875 69.140625 
Q 55.078125 64.0625 55.078125 55.328125 
Q 55.078125 49.078125 51.53125 44.71875 
Q 48 40.375 41.703125 38.8125 
Q 48.828125 37.15625 52.796875 32.3125 
Q 56.78125 27.484375 56.78125 20.515625 
Q 56.78125 9.90625 50.3125 4.234375 
Q 43.84375 -1.421875 31.78125 -1.421875 
Q 19.734375 -1.421875 13.25 4.234375 
Q 6.78125 9.90625 6.78125 20.515625 
Q 6.78125 27.484375 10.78125 32.3125 
Q 14.796875 37.15625 21.921875 38.8125 
z
M 18.3125 54.390625 
Q 18.3125 48.734375 21.84375 45.5625 
Q 25.390625 42.390625 31.78125 42.390625 
Q 38.140625 42.390625 41.71875 45.5625 
Q 45.3125 48.734375 45.3125 54.390625 
Q 45.3125 60.0625 41.71875 63.234375 
Q 38.140625 66.40625 31.78125 66.40625 
Q 25.390625 66.40625 21.84375 63.234375 
Q 18.3125 60.0625 18.3125 54.390625 
z
" id="DejaVuSans-56"/>
      </defs>
      <g transform="translate(673.303605 327.998437)scale(0.1 -0.1)">
       <use xlink:href="#DejaVuSans-49"/>
       <use x="63.623047" xlink:href="#DejaVuSans-56"/>
      </g>
     </g>
    </g>
    <g id="xtick_58">
     <g id="line2d_90">
      <g>
       <use style="stroke:#000000;stroke-width:0.6;" x="686.225666" xlink:href="#m133a0aca3e" y="315"/>
      </g>
     </g>
    </g>
    <g id="xtick_59">
     <g id="line2d_91">
      <g>
       <use style="stroke:#000000;stroke-width:0.6;" x="692.785227" xlink:href="#m133a0aca3e" y="315"/>
      </g>
     </g>
    </g>
    <g id="xtick_60">
     <g id="line2d_92">
      <g>
       <use style="stroke:#000000;stroke-width:0.6;" x="699.344788" xlink:href="#m133a0aca3e" y="315"/>
      </g>
     </g>
    </g>
    <g id="xtick_61">
     <g id="line2d_93">
      <g>
       <use style="stroke:#000000;stroke-width:0.6;" x="705.90435" xlink:href="#m133a0aca3e" y="315"/>
      </g>
     </g>
    </g>
    <g id="xtick_62">
     <g id="line2d_94">
      <g>
       <use style="stroke:#000000;stroke-width:0.6;" x="712.463911" xlink:href="#m133a0aca3e" y="315"/>
      </g>
     </g>
    </g>
    <g id="xtick_63">
     <g id="line2d_95">
      <g>
       <use style="stroke:#000000;stroke-width:0.6;" x="719.023472" xlink:href="#m133a0aca3e" y="315"/>
      </g>
     </g>
    </g>
    <g id="xtick_64">
     <g id="line2d_96">
      <g>
       <use style="stroke:#000000;stroke-width:0.6;" x="725.583033" xlink:href="#m133a0aca3e" y="315"/>
      </g>
     </g>
     <g id="text_22">
      <!-- 25 -->
      <g transform="translate(719.220533 327.998437)scale(0.1 -0.1)">
       <use xlink:href="#DejaVuSans-50"/>
       <use x="63.623047" xlink:href="#DejaVuSans-53"/>
      </g>
     </g>
    </g>
    <g id="xtick_65">
     <g id="line2d_97">
      <g>
       <use style="stroke:#000000;stroke-width:0.6;" x="732.142594" xlink:href="#m133a0aca3e" y="315"/>
      </g>
     </g>
    </g>
    <g id="xtick_66">
     <g id="line2d_98">
      <g>
       <use style="stroke:#000000;stroke-width:0.6;" x="738.702155" xlink:href="#m133a0aca3e" y="315"/>
      </g>
     </g>
    </g>
    <g id="xtick_67">
     <g id="line2d_99">
      <g>
       <use style="stroke:#000000;stroke-width:0.6;" x="745.261716" xlink:href="#m133a0aca3e" y="315"/>
      </g>
     </g>
    </g>
    <g id="xtick_68">
     <g id="line2d_100">
      <g>
       <use style="stroke:#000000;stroke-width:0.6;" x="751.821277" xlink:href="#m133a0aca3e" y="315"/>
      </g>
     </g>
    </g>
    <g id="xtick_69">
     <g id="line2d_101">
      <g>
       <use style="stroke:#000000;stroke-width:0.6;" x="758.380839" xlink:href="#m133a0aca3e" y="315"/>
      </g>
     </g>
    </g>
    <g id="xtick_70">
     <g id="line2d_102">
      <g>
       <use style="stroke:#000000;stroke-width:0.6;" x="764.9404" xlink:href="#m133a0aca3e" y="315"/>
      </g>
     </g>
    </g>
    <g id="xtick_71">
     <g id="line2d_103">
      <g>
       <use style="stroke:#000000;stroke-width:0.6;" x="778.059522" xlink:href="#m133a0aca3e" y="315"/>
      </g>
     </g>
    </g>
    <g id="xtick_72">
     <g id="line2d_104">
      <g>
       <use style="stroke:#000000;stroke-width:0.6;" x="784.619083" xlink:href="#m133a0aca3e" y="315"/>
      </g>
     </g>
    </g>
    <g id="xtick_73">
     <g id="line2d_105">
      <g>
       <use style="stroke:#000000;stroke-width:0.6;" x="791.178644" xlink:href="#m133a0aca3e" y="315"/>
      </g>
     </g>
    </g>
    <g id="xtick_74">
     <g id="line2d_106">
      <g>
       <use style="stroke:#000000;stroke-width:0.6;" x="797.738205" xlink:href="#m133a0aca3e" y="315"/>
      </g>
     </g>
    </g>
    <g id="xtick_75">
     <g id="line2d_107">
      <g>
       <use style="stroke:#000000;stroke-width:0.6;" x="804.297766" xlink:href="#m133a0aca3e" y="315"/>
      </g>
     </g>
    </g>
    <g id="xtick_76">
     <g id="line2d_108">
      <g>
       <use style="stroke:#000000;stroke-width:0.6;" x="810.857328" xlink:href="#m133a0aca3e" y="315"/>
      </g>
     </g>
    </g>
    <g id="xtick_77">
     <g id="line2d_109">
      <g>
       <use style="stroke:#000000;stroke-width:0.6;" x="817.416889" xlink:href="#m133a0aca3e" y="315"/>
      </g>
     </g>
     <g id="text_23">
      <!-- 08 -->
      <g transform="translate(811.054389 327.998437)scale(0.1 -0.1)">
       <use xlink:href="#DejaVuSans-48"/>
       <use x="63.623047" xlink:href="#DejaVuSans-56"/>
      </g>
     </g>
    </g>
    <g id="xtick_78">
     <g id="line2d_110">
      <g>
       <use style="stroke:#000000;stroke-width:0.6;" x="823.97645" xlink:href="#m133a0aca3e" y="315"/>
      </g>
     </g>
    </g>
    <g id="xtick_79">
     <g id="line2d_111">
      <g>
       <use style="stroke:#000000;stroke-width:0.6;" x="830.536011" xlink:href="#m133a0aca3e" y="315"/>
      </g>
     </g>
    </g>
    <g id="xtick_80">
     <g id="line2d_112">
      <g>
       <use style="stroke:#000000;stroke-width:0.6;" x="837.095572" xlink:href="#m133a0aca3e" y="315"/>
      </g>
     </g>
    </g>
    <g id="xtick_81">
     <g id="line2d_113">
      <g>
       <use style="stroke:#000000;stroke-width:0.6;" x="843.655133" xlink:href="#m133a0aca3e" y="315"/>
      </g>
     </g>
    </g>
    <g id="xtick_82">
     <g id="line2d_114">
      <g>
       <use style="stroke:#000000;stroke-width:0.6;" x="850.214694" xlink:href="#m133a0aca3e" y="315"/>
      </g>
     </g>
    </g>
    <g id="xtick_83">
     <g id="line2d_115">
      <g>
       <use style="stroke:#000000;stroke-width:0.6;" x="856.774255" xlink:href="#m133a0aca3e" y="315"/>
      </g>
     </g>
    </g>
    <g id="xtick_84">
     <g id="line2d_116">
      <g>
       <use style="stroke:#000000;stroke-width:0.6;" x="863.333817" xlink:href="#m133a0aca3e" y="315"/>
      </g>
     </g>
     <g id="text_24">
      <!-- 15 -->
      <g transform="translate(856.971317 327.998437)scale(0.1 -0.1)">
       <use xlink:href="#DejaVuSans-49"/>
       <use x="63.623047" xlink:href="#DejaVuSans-53"/>
      </g>
     </g>
    </g>
    <g id="xtick_85">
     <g id="line2d_117">
      <g>
       <use style="stroke:#000000;stroke-width:0.6;" x="869.893378" xlink:href="#m133a0aca3e" y="315"/>
      </g>
     </g>
    </g>
    <g id="xtick_86">
     <g id="line2d_118">
      <g>
       <use style="stroke:#000000;stroke-width:0.6;" x="876.452939" xlink:href="#m133a0aca3e" y="315"/>
      </g>
     </g>
    </g>
   </g>
   <g id="matplotlib.axis_4">
    <g id="ytick_8">
     <g id="line2d_119">
      <path clip-path="url(#pad06fd5155)" d="M 502.557955 284.880352 
L 883.0125 284.880352 
" style="fill:none;stroke:#b0b0b0;stroke-linecap:square;stroke-width:0.8;"/>
     </g>
     <g id="line2d_120">
      <g>
       <use style="stroke:#000000;stroke-width:0.8;" x="502.557955" xlink:href="#mfe29b5d15f" y="284.880352"/>
      </g>
     </g>
     <g id="text_25">
      <!-- 10000 -->
      <g transform="translate(463.745455 288.67957)scale(0.1 -0.1)">
       <use xlink:href="#DejaVuSans-49"/>
       <use x="63.623047" xlink:href="#DejaVuSans-48"/>
       <use x="127.246094" xlink:href="#DejaVuSans-48"/>
       <use x="190.869141" xlink:href="#DejaVuSans-48"/>
       <use x="254.492188" xlink:href="#DejaVuSans-48"/>
      </g>
     </g>
    </g>
    <g id="ytick_9">
     <g id="line2d_121">
      <path clip-path="url(#pad06fd5155)" d="M 502.557955 231.940276 
L 883.0125 231.940276 
" style="fill:none;stroke:#b0b0b0;stroke-linecap:square;stroke-width:0.8;"/>
     </g>
     <g id="line2d_122">
      <g>
       <use style="stroke:#000000;stroke-width:0.8;" x="502.557955" xlink:href="#mfe29b5d15f" y="231.940276"/>
      </g>
     </g>
     <g id="text_26">
      <!-- 15000 -->
      <g transform="translate(463.745455 235.739495)scale(0.1 -0.1)">
       <use xlink:href="#DejaVuSans-49"/>
       <use x="63.623047" xlink:href="#DejaVuSans-53"/>
       <use x="127.246094" xlink:href="#DejaVuSans-48"/>
       <use x="190.869141" xlink:href="#DejaVuSans-48"/>
       <use x="254.492188" xlink:href="#DejaVuSans-48"/>
      </g>
     </g>
    </g>
    <g id="ytick_10">
     <g id="line2d_123">
      <path clip-path="url(#pad06fd5155)" d="M 502.557955 179.000201 
L 883.0125 179.000201 
" style="fill:none;stroke:#b0b0b0;stroke-linecap:square;stroke-width:0.8;"/>
     </g>
     <g id="line2d_124">
      <g>
       <use style="stroke:#000000;stroke-width:0.8;" x="502.557955" xlink:href="#mfe29b5d15f" y="179.000201"/>
      </g>
     </g>
     <g id="text_27">
      <!-- 20000 -->
      <g transform="translate(463.745455 182.79942)scale(0.1 -0.1)">
       <use xlink:href="#DejaVuSans-50"/>
       <use x="63.623047" xlink:href="#DejaVuSans-48"/>
       <use x="127.246094" xlink:href="#DejaVuSans-48"/>
       <use x="190.869141" xlink:href="#DejaVuSans-48"/>
       <use x="254.492188" xlink:href="#DejaVuSans-48"/>
      </g>
     </g>
    </g>
    <g id="ytick_11">
     <g id="line2d_125">
      <path clip-path="url(#pad06fd5155)" d="M 502.557955 126.060126 
L 883.0125 126.060126 
" style="fill:none;stroke:#b0b0b0;stroke-linecap:square;stroke-width:0.8;"/>
     </g>
     <g id="line2d_126">
      <g>
       <use style="stroke:#000000;stroke-width:0.8;" x="502.557955" xlink:href="#mfe29b5d15f" y="126.060126"/>
      </g>
     </g>
     <g id="text_28">
      <!-- 25000 -->
      <g transform="translate(463.745455 129.859344)scale(0.1 -0.1)">
       <use xlink:href="#DejaVuSans-50"/>
       <use x="63.623047" xlink:href="#DejaVuSans-53"/>
       <use x="127.246094" xlink:href="#DejaVuSans-48"/>
       <use x="190.869141" xlink:href="#DejaVuSans-48"/>
       <use x="254.492188" xlink:href="#DejaVuSans-48"/>
      </g>
     </g>
    </g>
    <g id="ytick_12">
     <g id="line2d_127">
      <path clip-path="url(#pad06fd5155)" d="M 502.557955 73.12005 
L 883.0125 73.12005 
" style="fill:none;stroke:#b0b0b0;stroke-linecap:square;stroke-width:0.8;"/>
     </g>
     <g id="line2d_128">
      <g>
       <use style="stroke:#000000;stroke-width:0.8;" x="502.557955" xlink:href="#mfe29b5d15f" y="73.12005"/>
      </g>
     </g>
     <g id="text_29">
      <!-- 30000 -->
      <g transform="translate(463.745455 76.919269)scale(0.1 -0.1)">
       <use xlink:href="#DejaVuSans-51"/>
       <use x="63.623047" xlink:href="#DejaVuSans-48"/>
       <use x="127.246094" xlink:href="#DejaVuSans-48"/>
       <use x="190.869141" xlink:href="#DejaVuSans-48"/>
       <use x="254.492188" xlink:href="#DejaVuSans-48"/>
      </g>
     </g>
    </g>
   </g>
   <g id="line2d_129">
    <g clip-path="url(#pad06fd5155)">
     <use style="stroke:#000000;" x="502.557955" xlink:href="#m8efe446a5a" y="294.144865"/>
     <use style="stroke:#000000;" x="509.117516" xlink:href="#m8efe446a5a" y="283.387441"/>
     <use style="stroke:#000000;" x="515.677077" xlink:href="#m8efe446a5a" y="272.40767"/>
     <use style="stroke:#000000;" x="522.236638" xlink:href="#m8efe446a5a" y="262.91022"/>
     <use style="stroke:#000000;" x="528.796199" xlink:href="#m8efe446a5a" y="256.366827"/>
     <use style="stroke:#000000;" x="535.35576" xlink:href="#m8efe446a5a" y="246.509385"/>
     <use style="stroke:#000000;" x="541.915321" xlink:href="#m8efe446a5a" y="238.049561"/>
     <use style="stroke:#000000;" x="548.474882" xlink:href="#m8efe446a5a" y="232.459089"/>
     <use style="stroke:#000000;" x="555.034444" xlink:href="#m8efe446a5a" y="225.153359"/>
     <use style="stroke:#000000;" x="561.594005" xlink:href="#m8efe446a5a" y="219.562887"/>
     <use style="stroke:#000000;" x="568.153566" xlink:href="#m8efe446a5a" y="209.694857"/>
     <use style="stroke:#000000;" x="574.713127" xlink:href="#m8efe446a5a" y="204.962014"/>
     <use style="stroke:#000000;" x="581.272688" xlink:href="#m8efe446a5a" y="198.005688"/>
     <use style="stroke:#000000;" x="587.832249" xlink:href="#m8efe446a5a" y="191.938755"/>
     <use style="stroke:#000000;" x="594.39181" xlink:href="#m8efe446a5a" y="185.24713"/>
     <use style="stroke:#000000;" x="600.951371" xlink:href="#m8efe446a5a" y="176.903774"/>
     <use style="stroke:#000000;" x="607.510933" xlink:href="#m8efe446a5a" y="169.058055"/>
     <use style="stroke:#000000;" x="614.070494" xlink:href="#m8efe446a5a" y="160.926459"/>
     <use style="stroke:#000000;" x="620.630055" xlink:href="#m8efe446a5a" y="152.953684"/>
     <use style="stroke:#000000;" x="627.189616" xlink:href="#m8efe446a5a" y="143.678583"/>
     <use style="stroke:#000000;" x="633.749177" xlink:href="#m8efe446a5a" y="138.532807"/>
     <use style="stroke:#000000;" x="640.308738" xlink:href="#m8efe446a5a" y="129.543583"/>
     <use style="stroke:#000000;" x="646.868299" xlink:href="#m8efe446a5a" y="122.396672"/>
     <use style="stroke:#000000;" x="653.427861" xlink:href="#m8efe446a5a" y="114.434485"/>
     <use style="stroke:#000000;" x="659.987422" xlink:href="#m8efe446a5a" y="106.038189"/>
     <use style="stroke:#000000;" x="666.546983" xlink:href="#m8efe446a5a" y="101.114762"/>
     <use style="stroke:#000000;" x="673.106544" xlink:href="#m8efe446a5a" y="93.893736"/>
     <use style="stroke:#000000;" x="679.666105" xlink:href="#m8efe446a5a" y="90.664391"/>
     <use style="stroke:#000000;" x="686.225666" xlink:href="#m8efe446a5a" y="85.889197"/>
     <use style="stroke:#000000;" x="692.785227" xlink:href="#m8efe446a5a" y="79.854028"/>
    </g>
   </g>
   <g id="line2d_130">
    <path clip-path="url(#pad06fd5155)" d="M 502.557955 302.645455 
L 509.117516 294.817254 
L 515.677077 286.598405 
L 522.236638 278.020867 
L 528.796199 269.12468 
L 535.35576 259.957531 
L 541.915321 250.57395 
L 548.474882 241.034164 
L 555.034444 231.402635 
L 561.594005 221.746362 
L 568.153566 212.133036 
L 574.713127 202.629149 
L 581.272688 193.298181 
L 587.832249 184.198955 
L 594.39181 175.384257 
L 600.951371 166.899775 
L 607.510933 158.783401 
L 614.070494 151.064887 
L 620.630055 143.76585 
L 627.189616 136.900069 
L 633.749177 130.474029 
L 640.308738 124.487642 
L 646.868299 118.93509 
L 653.427861 113.80572 
L 659.987422 109.084952 
L 666.546983 104.755158 
L 673.106544 100.796465 
L 679.666105 97.187496 
L 686.225666 93.905999 
L 692.785227 90.929387 
" style="fill:none;stroke:#008000;stroke-linecap:square;stroke-width:1.5;"/>
   </g>
   <g id="line2d_131">
    <path clip-path="url(#pad06fd5155)" d="M 699.344788 85.801394 
L 705.90435 83.606732 
L 712.463911 81.630873 
L 719.023472 79.854563 
L 725.583033 78.259718 
L 732.142594 76.829464 
L 738.702155 75.548152 
L 745.261716 74.401345 
L 751.821277 73.375782 
L 758.380839 72.459329 
L 764.9404 71.640927 
L 771.499961 70.910521 
L 778.059522 70.258997 
L 784.619083 69.678113 
L 791.178644 69.160428 
L 797.738205 68.699241 
L 804.297766 68.288524 
L 810.857328 67.922864 
L 817.416889 67.597405 
L 823.97645 67.307796 
L 830.536011 67.050142 
L 837.095572 66.820961 
L 843.655133 66.617139 
L 850.214694 66.435899 
L 856.774255 66.274759 
L 863.333817 66.131508 
L 869.893378 66.004172 
L 876.452939 65.890994 
L 883.0125 65.790408 
" style="fill:none;stroke:#ff0000;stroke-linecap:square;stroke-width:1.5;"/>
   </g>
   <g id="patch_9">
    <path d="M 502.557955 315 
L 502.557955 43.2 
" style="fill:none;stroke:#000000;stroke-linecap:square;stroke-linejoin:miter;stroke-width:0.8;"/>
   </g>
   <g id="patch_10">
    <path d="M 883.0125 315 
L 883.0125 43.2 
" style="fill:none;stroke:#000000;stroke-linecap:square;stroke-linejoin:miter;stroke-width:0.8;"/>
   </g>
   <g id="patch_11">
    <path d="M 502.557955 315 
L 883.0125 315 
" style="fill:none;stroke:#000000;stroke-linecap:square;stroke-linejoin:miter;stroke-width:0.8;"/>
   </g>
   <g id="patch_12">
    <path d="M 502.557955 43.2 
L 883.0125 43.2 
" style="fill:none;stroke:#000000;stroke-linecap:square;stroke-linejoin:miter;stroke-width:0.8;"/>
   </g>
   <g id="text_30">
    <!-- Zoom on the last 30 observations -->
    <defs>
     <path d="M 5.609375 72.90625 
L 62.890625 72.90625 
L 62.890625 65.375 
L 16.796875 8.296875 
L 64.015625 8.296875 
L 64.015625 0 
L 4.5 0 
L 4.5 7.515625 
L 50.59375 64.59375 
L 5.609375 64.59375 
z
" id="DejaVuSans-90"/>
     <path d="M 54.890625 33.015625 
L 54.890625 0 
L 45.90625 0 
L 45.90625 32.71875 
Q 45.90625 40.484375 42.875 44.328125 
Q 39.84375 48.1875 33.796875 48.1875 
Q 26.515625 48.1875 22.3125 43.546875 
Q 18.109375 38.921875 18.109375 30.90625 
L 18.109375 0 
L 9.078125 0 
L 9.078125 75.984375 
L 18.109375 75.984375 
L 18.109375 46.1875 
Q 21.34375 51.125 25.703125 53.5625 
Q 30.078125 56 35.796875 56 
Q 45.21875 56 50.046875 50.171875 
Q 54.890625 44.34375 54.890625 33.015625 
z
" id="DejaVuSans-104"/>
     <path d="M 2.984375 54.6875 
L 12.5 54.6875 
L 29.59375 8.796875 
L 46.6875 54.6875 
L 56.203125 54.6875 
L 35.6875 0 
L 23.484375 0 
z
" id="DejaVuSans-118"/>
    </defs>
    <g transform="translate(591.566165 37.2)scale(0.12 -0.12)">
     <use xlink:href="#DejaVuSans-90"/>
     <use x="68.505859" xlink:href="#DejaVuSans-111"/>
     <use x="129.6875" xlink:href="#DejaVuSans-111"/>
     <use x="190.869141" xlink:href="#DejaVuSans-109"/>
     <use x="288.28125" xlink:href="#DejaVuSans-32"/>
     <use x="320.068359" xlink:href="#DejaVuSans-111"/>
     <use x="381.25" xlink:href="#DejaVuSans-110"/>
     <use x="444.628906" xlink:href="#DejaVuSans-32"/>
     <use x="476.416016" xlink:href="#DejaVuSans-116"/>
     <use x="515.625" xlink:href="#DejaVuSans-104"/>
     <use x="579.003906" xlink:href="#DejaVuSans-101"/>
     <use x="640.527344" xlink:href="#DejaVuSans-32"/>
     <use x="672.314453" xlink:href="#DejaVuSans-108"/>
     <use x="700.097656" xlink:href="#DejaVuSans-97"/>
     <use x="761.376953" xlink:href="#DejaVuSans-115"/>
     <use x="813.476562" xlink:href="#DejaVuSans-116"/>
     <use x="852.685547" xlink:href="#DejaVuSans-32"/>
     <use x="884.472656" xlink:href="#DejaVuSans-51"/>
     <use x="948.095703" xlink:href="#DejaVuSans-48"/>
     <use x="1011.71875" xlink:href="#DejaVuSans-32"/>
     <use x="1043.505859" xlink:href="#DejaVuSans-111"/>
     <use x="1104.6875" xlink:href="#DejaVuSans-98"/>
     <use x="1168.164062" xlink:href="#DejaVuSans-115"/>
     <use x="1220.263672" xlink:href="#DejaVuSans-101"/>
     <use x="1281.787109" xlink:href="#DejaVuSans-114"/>
     <use x="1322.900391" xlink:href="#DejaVuSans-118"/>
     <use x="1382.080078" xlink:href="#DejaVuSans-97"/>
     <use x="1443.359375" xlink:href="#DejaVuSans-116"/>
     <use x="1482.568359" xlink:href="#DejaVuSans-105"/>
     <use x="1510.351562" xlink:href="#DejaVuSans-111"/>
     <use x="1571.533203" xlink:href="#DejaVuSans-110"/>
     <use x="1634.912109" xlink:href="#DejaVuSans-115"/>
    </g>
   </g>
  </g>
  <g id="text_31">
   <!-- Singapore's COVID-19 Outbreak Forecasting to Date -->
   <defs>
    <path d="M 53.515625 70.515625 
L 53.515625 60.890625 
Q 47.90625 63.578125 42.921875 64.890625 
Q 37.9375 66.21875 33.296875 66.21875 
Q 25.25 66.21875 20.875 63.09375 
Q 16.5 59.96875 16.5 54.203125 
Q 16.5 49.359375 19.40625 46.890625 
Q 22.3125 44.4375 30.421875 42.921875 
L 36.375 41.703125 
Q 47.40625 39.59375 52.65625 34.296875 
Q 57.90625 29 57.90625 20.125 
Q 57.90625 9.515625 50.796875 4.046875 
Q 43.703125 -1.421875 29.984375 -1.421875 
Q 24.8125 -1.421875 18.96875 -0.25 
Q 13.140625 0.921875 6.890625 3.21875 
L 6.890625 13.375 
Q 12.890625 10.015625 18.65625 8.296875 
Q 24.421875 6.59375 29.984375 6.59375 
Q 38.421875 6.59375 43.015625 9.90625 
Q 47.609375 13.234375 47.609375 19.390625 
Q 47.609375 24.75 44.3125 27.78125 
Q 41.015625 30.8125 33.5 32.328125 
L 27.484375 33.5 
Q 16.453125 35.6875 11.515625 40.375 
Q 6.59375 45.0625 6.59375 53.421875 
Q 6.59375 63.09375 13.40625 68.65625 
Q 20.21875 74.21875 32.171875 74.21875 
Q 37.3125 74.21875 42.625 73.28125 
Q 47.953125 72.359375 53.515625 70.515625 
z
" id="DejaVuSans-83"/>
    <path d="M 17.921875 72.90625 
L 17.921875 45.796875 
L 9.625 45.796875 
L 9.625 72.90625 
z
" id="DejaVuSans-39"/>
    <path d="M 64.40625 67.28125 
L 64.40625 56.890625 
Q 59.421875 61.53125 53.78125 63.8125 
Q 48.140625 66.109375 41.796875 66.109375 
Q 29.296875 66.109375 22.65625 58.46875 
Q 16.015625 50.828125 16.015625 36.375 
Q 16.015625 21.96875 22.65625 14.328125 
Q 29.296875 6.6875 41.796875 6.6875 
Q 48.140625 6.6875 53.78125 8.984375 
Q 59.421875 11.28125 64.40625 15.921875 
L 64.40625 5.609375 
Q 59.234375 2.09375 53.4375 0.328125 
Q 47.65625 -1.421875 41.21875 -1.421875 
Q 24.65625 -1.421875 15.125 8.703125 
Q 5.609375 18.84375 5.609375 36.375 
Q 5.609375 53.953125 15.125 64.078125 
Q 24.65625 74.21875 41.21875 74.21875 
Q 47.75 74.21875 53.53125 72.484375 
Q 59.328125 70.75 64.40625 67.28125 
z
" id="DejaVuSans-67"/>
    <path d="M 39.40625 66.21875 
Q 28.65625 66.21875 22.328125 58.203125 
Q 16.015625 50.203125 16.015625 36.375 
Q 16.015625 22.609375 22.328125 14.59375 
Q 28.65625 6.59375 39.40625 6.59375 
Q 50.140625 6.59375 56.421875 14.59375 
Q 62.703125 22.609375 62.703125 36.375 
Q 62.703125 50.203125 56.421875 58.203125 
Q 50.140625 66.21875 39.40625 66.21875 
z
M 39.40625 74.21875 
Q 54.734375 74.21875 63.90625 63.9375 
Q 73.09375 53.65625 73.09375 36.375 
Q 73.09375 19.140625 63.90625 8.859375 
Q 54.734375 -1.421875 39.40625 -1.421875 
Q 24.03125 -1.421875 14.8125 8.828125 
Q 5.609375 19.09375 5.609375 36.375 
Q 5.609375 53.65625 14.8125 63.9375 
Q 24.03125 74.21875 39.40625 74.21875 
z
" id="DejaVuSans-79"/>
    <path d="M 28.609375 0 
L 0.78125 72.90625 
L 11.078125 72.90625 
L 34.1875 11.53125 
L 57.328125 72.90625 
L 67.578125 72.90625 
L 39.796875 0 
z
" id="DejaVuSans-86"/>
    <path d="M 9.8125 72.90625 
L 19.671875 72.90625 
L 19.671875 0 
L 9.8125 0 
z
" id="DejaVuSans-73"/>
    <path d="M 19.671875 64.796875 
L 19.671875 8.109375 
L 31.59375 8.109375 
Q 46.6875 8.109375 53.6875 14.9375 
Q 60.6875 21.78125 60.6875 36.53125 
Q 60.6875 51.171875 53.6875 57.984375 
Q 46.6875 64.796875 31.59375 64.796875 
z
M 9.8125 72.90625 
L 30.078125 72.90625 
Q 51.265625 72.90625 61.171875 64.09375 
Q 71.09375 55.28125 71.09375 36.53125 
Q 71.09375 17.671875 61.125 8.828125 
Q 51.171875 0 30.078125 0 
L 9.8125 0 
z
" id="DejaVuSans-68"/>
    <path d="M 4.890625 31.390625 
L 31.203125 31.390625 
L 31.203125 23.390625 
L 4.890625 23.390625 
z
" id="DejaVuSans-45"/>
    <path d="M 10.984375 1.515625 
L 10.984375 10.5 
Q 14.703125 8.734375 18.5 7.8125 
Q 22.3125 6.890625 25.984375 6.890625 
Q 35.75 6.890625 40.890625 13.453125 
Q 46.046875 20.015625 46.78125 33.40625 
Q 43.953125 29.203125 39.59375 26.953125 
Q 35.25 24.703125 29.984375 24.703125 
Q 19.046875 24.703125 12.671875 31.3125 
Q 6.296875 37.9375 6.296875 49.421875 
Q 6.296875 60.640625 12.9375 67.421875 
Q 19.578125 74.21875 30.609375 74.21875 
Q 43.265625 74.21875 49.921875 64.515625 
Q 56.59375 54.828125 56.59375 36.375 
Q 56.59375 19.140625 48.40625 8.859375 
Q 40.234375 -1.421875 26.421875 -1.421875 
Q 22.703125 -1.421875 18.890625 -0.6875 
Q 15.09375 0.046875 10.984375 1.515625 
z
M 30.609375 32.421875 
Q 37.25 32.421875 41.125 36.953125 
Q 45.015625 41.5 45.015625 49.421875 
Q 45.015625 57.28125 41.125 61.84375 
Q 37.25 66.40625 30.609375 66.40625 
Q 23.96875 66.40625 20.09375 61.84375 
Q 16.21875 57.28125 16.21875 49.421875 
Q 16.21875 41.5 20.09375 36.953125 
Q 23.96875 32.421875 30.609375 32.421875 
z
" id="DejaVuSans-57"/>
    <path d="M 9.078125 75.984375 
L 18.109375 75.984375 
L 18.109375 31.109375 
L 44.921875 54.6875 
L 56.390625 54.6875 
L 27.390625 29.109375 
L 57.625 0 
L 45.90625 0 
L 18.109375 26.703125 
L 18.109375 0 
L 9.078125 0 
z
" id="DejaVuSans-107"/>
   </defs>
   <g transform="translate(294.447187 16.318125)scale(0.12 -0.12)">
    <use xlink:href="#DejaVuSans-83"/>
    <use x="63.476562" xlink:href="#DejaVuSans-105"/>
    <use x="91.259766" xlink:href="#DejaVuSans-110"/>
    <use x="154.638672" xlink:href="#DejaVuSans-103"/>
    <use x="218.115234" xlink:href="#DejaVuSans-97"/>
    <use x="279.394531" xlink:href="#DejaVuSans-112"/>
    <use x="342.871094" xlink:href="#DejaVuSans-111"/>
    <use x="404.052734" xlink:href="#DejaVuSans-114"/>
    <use x="442.916016" xlink:href="#DejaVuSans-101"/>
    <use x="504.439453" xlink:href="#DejaVuSans-39"/>
    <use x="531.929688" xlink:href="#DejaVuSans-115"/>
    <use x="584.029297" xlink:href="#DejaVuSans-32"/>
    <use x="615.816406" xlink:href="#DejaVuSans-67"/>
    <use x="685.640625" xlink:href="#DejaVuSans-79"/>
    <use x="762.601562" xlink:href="#DejaVuSans-86"/>
    <use x="831.009766" xlink:href="#DejaVuSans-73"/>
    <use x="860.501953" xlink:href="#DejaVuSans-68"/>
    <use x="937.503906" xlink:href="#DejaVuSans-45"/>
    <use x="973.587891" xlink:href="#DejaVuSans-49"/>
    <use x="1037.210938" xlink:href="#DejaVuSans-57"/>
    <use x="1100.833984" xlink:href="#DejaVuSans-32"/>
    <use x="1132.621094" xlink:href="#DejaVuSans-79"/>
    <use x="1211.332031" xlink:href="#DejaVuSans-117"/>
    <use x="1274.710938" xlink:href="#DejaVuSans-116"/>
    <use x="1313.919922" xlink:href="#DejaVuSans-98"/>
    <use x="1377.396484" xlink:href="#DejaVuSans-114"/>
    <use x="1416.259766" xlink:href="#DejaVuSans-101"/>
    <use x="1477.783203" xlink:href="#DejaVuSans-97"/>
    <use x="1539.0625" xlink:href="#DejaVuSans-107"/>
    <use x="1596.972656" xlink:href="#DejaVuSans-32"/>
    <use x="1628.759766" xlink:href="#DejaVuSans-70"/>
    <use x="1682.654297" xlink:href="#DejaVuSans-111"/>
    <use x="1743.835938" xlink:href="#DejaVuSans-114"/>
    <use x="1782.699219" xlink:href="#DejaVuSans-101"/>
    <use x="1844.222656" xlink:href="#DejaVuSans-99"/>
    <use x="1899.203125" xlink:href="#DejaVuSans-97"/>
    <use x="1960.482422" xlink:href="#DejaVuSans-115"/>
    <use x="2012.582031" xlink:href="#DejaVuSans-116"/>
    <use x="2051.791016" xlink:href="#DejaVuSans-105"/>
    <use x="2079.574219" xlink:href="#DejaVuSans-110"/>
    <use x="2142.953125" xlink:href="#DejaVuSans-103"/>
    <use x="2206.429688" xlink:href="#DejaVuSans-32"/>
    <use x="2238.216797" xlink:href="#DejaVuSans-116"/>
    <use x="2277.425781" xlink:href="#DejaVuSans-111"/>
    <use x="2338.607422" xlink:href="#DejaVuSans-32"/>
    <use x="2370.394531" xlink:href="#DejaVuSans-68"/>
    <use x="2447.396484" xlink:href="#DejaVuSans-97"/>
    <use x="2508.675781" xlink:href="#DejaVuSans-116"/>
    <use x="2547.884766" xlink:href="#DejaVuSans-101"/>
   </g>
  </g>
 </g>
 <defs>
  <clipPath id="p86af6c1a5e">
   <rect height="271.8" width="380.454545" x="46.0125" y="43.2"/>
  </clipPath>
  <clipPath id="pad06fd5155">
   <rect height="271.8" width="380.454545" x="502.557955" y="43.2"/>
  </clipPath>
 </defs>
</svg>
