<?xml version="1.0" encoding="utf-8" standalone="no"?>
<!DOCTYPE svg PUBLIC "-//W3C//DTD SVG 1.1//EN"
  "http://www.w3.org/Graphics/SVG/1.1/DTD/svg11.dtd">
<!-- Created with matplotlib (https://matplotlib.org/) -->
<svg height="372.471562pt" version="1.1" viewBox="0 0 877.4875 372.471562" width="877.4875pt" xmlns="http://www.w3.org/2000/svg" xmlns:xlink="http://www.w3.org/1999/xlink">
 <defs>
  <style type="text/css">
*{stroke-linecap:butt;stroke-linejoin:round;}
  </style>
 </defs>
 <g id="figure_1">
  <g id="patch_1">
   <path d="M 0 372.471562 
L 877.4875 372.471562 
L 877.4875 0 
L 0 0 
z
" style="fill:none;"/>
  </g>
  <g id="axes_1">
   <g id="patch_2">
    <path d="M 33.2875 315 
L 413.742045 315 
L 413.742045 43.2 
L 33.2875 43.2 
z
" style="fill:#ffffff;"/>
   </g>
   <g id="PolyCollection_1">
    <defs>
     <path d="M 341.764158 -316.916945 
L 341.764158 -293.474971 
L 344.334797 -293.474986 
L 346.905436 -293.474998 
L 349.476075 -293.475007 
L 352.046714 -293.475015 
L 354.617353 -293.475021 
L 357.187991 -293.475025 
L 359.75863 -293.475029 
L 362.329269 -293.475032 
L 364.899908 -293.475034 
L 367.470547 -293.475036 
L 370.041186 -293.475037 
L 372.611824 -293.475039 
L 375.182463 -293.47504 
L 377.753102 -293.47504 
L 380.323741 -293.475041 
L 382.89438 -293.475041 
L 385.465018 -293.475042 
L 388.035657 -293.475042 
L 390.606296 -293.475042 
L 393.176935 -293.475042 
L 395.747574 -293.475042 
L 398.318213 -293.475043 
L 400.888851 -293.475043 
L 403.45949 -293.475043 
L 406.030129 -293.475043 
L 408.600768 -293.475043 
L 411.171407 -293.475043 
L 413.742045 -293.475043 
L 413.742045 -316.917017 
L 413.742045 -316.917017 
L 411.171407 -316.917017 
L 408.600768 -316.917017 
L 406.030129 -316.917017 
L 403.45949 -316.917017 
L 400.888851 -316.917017 
L 398.318213 -316.917017 
L 395.747574 -316.917017 
L 393.176935 -316.917016 
L 390.606296 -316.917016 
L 388.035657 -316.917016 
L 385.465018 -316.917016 
L 382.89438 -316.917015 
L 380.323741 -316.917015 
L 377.753102 -316.917014 
L 375.182463 -316.917014 
L 372.611824 -316.917013 
L 370.041186 -316.917012 
L 367.470547 -316.91701 
L 364.899908 -316.917008 
L 362.329269 -316.917006 
L 359.75863 -316.917003 
L 357.187991 -316.916999 
L 354.617353 -316.916995 
L 352.046714 -316.916989 
L 349.476075 -316.916981 
L 346.905436 -316.916972 
L 344.334797 -316.91696 
L 341.764158 -316.916945 
z
" id="m87c225fc10" style="stroke:#0000ff;stroke-opacity:0.3;"/>
    </defs>
    <g clip-path="url(#p770cda70be)">
     <use style="fill:#0000ff;fill-opacity:0.3;stroke:#0000ff;stroke-opacity:0.3;" x="0" xlink:href="#m87c225fc10" y="372.471562"/>
    </g>
   </g>
   <g id="matplotlib.axis_1">
    <g id="xtick_1">
     <g id="line2d_1">
      <path clip-path="url(#p770cda70be)" d="M 33.2875 315 
L 33.2875 43.2 
" style="fill:none;stroke:#b0b0b0;stroke-linecap:square;stroke-width:0.8;"/>
     </g>
     <g id="line2d_2">
      <defs>
       <path d="M 0 0 
L 0 3.5 
" id="m959da24f38" style="stroke:#000000;stroke-width:0.8;"/>
      </defs>
      <g>
       <use style="stroke:#000000;stroke-width:0.8;" x="33.2875" xlink:href="#m959da24f38" y="315"/>
      </g>
     </g>
    </g>
    <g id="xtick_2">
     <g id="line2d_3">
      <path clip-path="url(#p770cda70be)" d="M 58.993888 315 
L 58.993888 43.2 
" style="fill:none;stroke:#b0b0b0;stroke-linecap:square;stroke-width:0.8;"/>
     </g>
     <g id="line2d_4">
      <g>
       <use style="stroke:#000000;stroke-width:0.8;" x="58.993888" xlink:href="#m959da24f38" y="315"/>
      </g>
     </g>
     <g id="text_1">
      <!-- Feb -->
      <defs>
       <path d="M 9.8125 72.90625 
L 51.703125 72.90625 
L 51.703125 64.59375 
L 19.671875 64.59375 
L 19.671875 43.109375 
L 48.578125 43.109375 
L 48.578125 34.8125 
L 19.671875 34.8125 
L 19.671875 0 
L 9.8125 0 
z
" id="DejaVuSans-70"/>
       <path d="M 56.203125 29.59375 
L 56.203125 25.203125 
L 14.890625 25.203125 
Q 15.484375 15.921875 20.484375 11.0625 
Q 25.484375 6.203125 34.421875 6.203125 
Q 39.59375 6.203125 44.453125 7.46875 
Q 49.3125 8.734375 54.109375 11.28125 
L 54.109375 2.78125 
Q 49.265625 0.734375 44.1875 -0.34375 
Q 39.109375 -1.421875 33.890625 -1.421875 
Q 20.796875 -1.421875 13.15625 6.1875 
Q 5.515625 13.8125 5.515625 26.8125 
Q 5.515625 40.234375 12.765625 48.109375 
Q 20.015625 56 32.328125 56 
Q 43.359375 56 49.78125 48.890625 
Q 56.203125 41.796875 56.203125 29.59375 
z
M 47.21875 32.234375 
Q 47.125 39.59375 43.09375 43.984375 
Q 39.0625 48.390625 32.421875 48.390625 
Q 24.90625 48.390625 20.390625 44.140625 
Q 15.875 39.890625 15.1875 32.171875 
z
" id="DejaVuSans-101"/>
       <path d="M 48.6875 27.296875 
Q 48.6875 37.203125 44.609375 42.84375 
Q 40.53125 48.484375 33.40625 48.484375 
Q 26.265625 48.484375 22.1875 42.84375 
Q 18.109375 37.203125 18.109375 27.296875 
Q 18.109375 17.390625 22.1875 11.75 
Q 26.265625 6.109375 33.40625 6.109375 
Q 40.53125 6.109375 44.609375 11.75 
Q 48.6875 17.390625 48.6875 27.296875 
z
M 18.109375 46.390625 
Q 20.953125 51.265625 25.265625 53.625 
Q 29.59375 56 35.59375 56 
Q 45.5625 56 51.78125 48.09375 
Q 58.015625 40.1875 58.015625 27.296875 
Q 58.015625 14.40625 51.78125 6.484375 
Q 45.5625 -1.421875 35.59375 -1.421875 
Q 29.59375 -1.421875 25.265625 0.953125 
Q 20.953125 3.328125 18.109375 8.203125 
L 18.109375 0 
L 9.078125 0 
L 9.078125 75.984375 
L 18.109375 75.984375 
z
" id="DejaVuSans-98"/>
      </defs>
      <g transform="translate(50.142326 329.598437)scale(0.1 -0.1)">
       <use xlink:href="#DejaVuSans-70"/>
       <use x="52.019531" xlink:href="#DejaVuSans-101"/>
       <use x="113.542969" xlink:href="#DejaVuSans-98"/>
      </g>
      <!-- 2020 -->
      <defs>
       <path d="M 19.1875 8.296875 
L 53.609375 8.296875 
L 53.609375 0 
L 7.328125 0 
L 7.328125 8.296875 
Q 12.9375 14.109375 22.625 23.890625 
Q 32.328125 33.6875 34.8125 36.53125 
Q 39.546875 41.84375 41.421875 45.53125 
Q 43.3125 49.21875 43.3125 52.78125 
Q 43.3125 58.59375 39.234375 62.25 
Q 35.15625 65.921875 28.609375 65.921875 
Q 23.96875 65.921875 18.8125 64.3125 
Q 13.671875 62.703125 7.8125 59.421875 
L 7.8125 69.390625 
Q 13.765625 71.78125 18.9375 73 
Q 24.125 74.21875 28.421875 74.21875 
Q 39.75 74.21875 46.484375 68.546875 
Q 53.21875 62.890625 53.21875 53.421875 
Q 53.21875 48.921875 51.53125 44.890625 
Q 49.859375 40.875 45.40625 35.40625 
Q 44.1875 33.984375 37.640625 27.21875 
Q 31.109375 20.453125 19.1875 8.296875 
z
" id="DejaVuSans-50"/>
       <path d="M 31.78125 66.40625 
Q 24.171875 66.40625 20.328125 58.90625 
Q 16.5 51.421875 16.5 36.375 
Q 16.5 21.390625 20.328125 13.890625 
Q 24.171875 6.390625 31.78125 6.390625 
Q 39.453125 6.390625 43.28125 13.890625 
Q 47.125 21.390625 47.125 36.375 
Q 47.125 51.421875 43.28125 58.90625 
Q 39.453125 66.40625 31.78125 66.40625 
z
M 31.78125 74.21875 
Q 44.046875 74.21875 50.515625 64.515625 
Q 56.984375 54.828125 56.984375 36.375 
Q 56.984375 17.96875 50.515625 8.265625 
Q 44.046875 -1.421875 31.78125 -1.421875 
Q 19.53125 -1.421875 13.0625 8.265625 
Q 6.59375 17.96875 6.59375 36.375 
Q 6.59375 54.828125 13.0625 64.515625 
Q 19.53125 74.21875 31.78125 74.21875 
z
" id="DejaVuSans-48"/>
      </defs>
      <g transform="translate(46.268888 340.79625)scale(0.1 -0.1)">
       <use xlink:href="#DejaVuSans-50"/>
       <use x="63.623047" xlink:href="#DejaVuSans-48"/>
       <use x="127.246094" xlink:href="#DejaVuSans-50"/>
       <use x="190.869141" xlink:href="#DejaVuSans-48"/>
      </g>
     </g>
    </g>
    <g id="xtick_3">
     <g id="line2d_5">
      <path clip-path="url(#p770cda70be)" d="M 133.542414 315 
L 133.542414 43.2 
" style="fill:none;stroke:#b0b0b0;stroke-linecap:square;stroke-width:0.8;"/>
     </g>
     <g id="line2d_6">
      <g>
       <use style="stroke:#000000;stroke-width:0.8;" x="133.542414" xlink:href="#m959da24f38" y="315"/>
      </g>
     </g>
     <g id="text_2">
      <!-- Mar -->
      <defs>
       <path d="M 9.8125 72.90625 
L 24.515625 72.90625 
L 43.109375 23.296875 
L 61.8125 72.90625 
L 76.515625 72.90625 
L 76.515625 0 
L 66.890625 0 
L 66.890625 64.015625 
L 48.09375 14.015625 
L 38.1875 14.015625 
L 19.390625 64.015625 
L 19.390625 0 
L 9.8125 0 
z
" id="DejaVuSans-77"/>
       <path d="M 34.28125 27.484375 
Q 23.390625 27.484375 19.1875 25 
Q 14.984375 22.515625 14.984375 16.5 
Q 14.984375 11.71875 18.140625 8.90625 
Q 21.296875 6.109375 26.703125 6.109375 
Q 34.1875 6.109375 38.703125 11.40625 
Q 43.21875 16.703125 43.21875 25.484375 
L 43.21875 27.484375 
z
M 52.203125 31.203125 
L 52.203125 0 
L 43.21875 0 
L 43.21875 8.296875 
Q 40.140625 3.328125 35.546875 0.953125 
Q 30.953125 -1.421875 24.3125 -1.421875 
Q 15.921875 -1.421875 10.953125 3.296875 
Q 6 8.015625 6 15.921875 
Q 6 25.140625 12.171875 29.828125 
Q 18.359375 34.515625 30.609375 34.515625 
L 43.21875 34.515625 
L 43.21875 35.40625 
Q 43.21875 41.609375 39.140625 45 
Q 35.0625 48.390625 27.6875 48.390625 
Q 23 48.390625 18.546875 47.265625 
Q 14.109375 46.140625 10.015625 43.890625 
L 10.015625 52.203125 
Q 14.9375 54.109375 19.578125 55.046875 
Q 24.21875 56 28.609375 56 
Q 40.484375 56 46.34375 49.84375 
Q 52.203125 43.703125 52.203125 31.203125 
z
" id="DejaVuSans-97"/>
       <path d="M 41.109375 46.296875 
Q 39.59375 47.171875 37.8125 47.578125 
Q 36.03125 48 33.890625 48 
Q 26.265625 48 22.1875 43.046875 
Q 18.109375 38.09375 18.109375 28.8125 
L 18.109375 0 
L 9.078125 0 
L 9.078125 54.6875 
L 18.109375 54.6875 
L 18.109375 46.1875 
Q 20.953125 51.171875 25.484375 53.578125 
Q 30.03125 56 36.53125 56 
Q 37.453125 56 38.578125 55.875 
Q 39.703125 55.765625 41.0625 55.515625 
z
" id="DejaVuSans-114"/>
      </defs>
      <g transform="translate(124.10882 329.598437)scale(0.1 -0.1)">
       <use xlink:href="#DejaVuSans-77"/>
       <use x="86.279297" xlink:href="#DejaVuSans-97"/>
       <use x="147.558594" xlink:href="#DejaVuSans-114"/>
      </g>
     </g>
    </g>
    <g id="xtick_4">
     <g id="line2d_7">
      <path clip-path="url(#p770cda70be)" d="M 213.232217 315 
L 213.232217 43.2 
" style="fill:none;stroke:#b0b0b0;stroke-linecap:square;stroke-width:0.8;"/>
     </g>
     <g id="line2d_8">
      <g>
       <use style="stroke:#000000;stroke-width:0.8;" x="213.232217" xlink:href="#m959da24f38" y="315"/>
      </g>
     </g>
     <g id="text_3">
      <!-- Apr -->
      <defs>
       <path d="M 34.1875 63.1875 
L 20.796875 26.90625 
L 47.609375 26.90625 
z
M 28.609375 72.90625 
L 39.796875 72.90625 
L 67.578125 0 
L 57.328125 0 
L 50.6875 18.703125 
L 17.828125 18.703125 
L 11.1875 0 
L 0.78125 0 
z
" id="DejaVuSans-65"/>
       <path d="M 18.109375 8.203125 
L 18.109375 -20.796875 
L 9.078125 -20.796875 
L 9.078125 54.6875 
L 18.109375 54.6875 
L 18.109375 46.390625 
Q 20.953125 51.265625 25.265625 53.625 
Q 29.59375 56 35.59375 56 
Q 45.5625 56 51.78125 48.09375 
Q 58.015625 40.1875 58.015625 27.296875 
Q 58.015625 14.40625 51.78125 6.484375 
Q 45.5625 -1.421875 35.59375 -1.421875 
Q 29.59375 -1.421875 25.265625 0.953125 
Q 20.953125 3.328125 18.109375 8.203125 
z
M 48.6875 27.296875 
Q 48.6875 37.203125 44.609375 42.84375 
Q 40.53125 48.484375 33.40625 48.484375 
Q 26.265625 48.484375 22.1875 42.84375 
Q 18.109375 37.203125 18.109375 27.296875 
Q 18.109375 17.390625 22.1875 11.75 
Q 26.265625 6.109375 33.40625 6.109375 
Q 40.53125 6.109375 44.609375 11.75 
Q 48.6875 17.390625 48.6875 27.296875 
z
" id="DejaVuSans-112"/>
      </defs>
      <g transform="translate(204.582217 329.598437)scale(0.1 -0.1)">
       <use xlink:href="#DejaVuSans-65"/>
       <use x="68.408203" xlink:href="#DejaVuSans-112"/>
       <use x="131.884766" xlink:href="#DejaVuSans-114"/>
      </g>
     </g>
    </g>
    <g id="xtick_5">
     <g id="line2d_9">
      <path clip-path="url(#p770cda70be)" d="M 290.351382 315 
L 290.351382 43.2 
" style="fill:none;stroke:#b0b0b0;stroke-linecap:square;stroke-width:0.8;"/>
     </g>
     <g id="line2d_10">
      <g>
       <use style="stroke:#000000;stroke-width:0.8;" x="290.351382" xlink:href="#m959da24f38" y="315"/>
      </g>
     </g>
     <g id="text_4">
      <!-- May -->
      <defs>
       <path d="M 32.171875 -5.078125 
Q 28.375 -14.84375 24.75 -17.8125 
Q 21.140625 -20.796875 15.09375 -20.796875 
L 7.90625 -20.796875 
L 7.90625 -13.28125 
L 13.1875 -13.28125 
Q 16.890625 -13.28125 18.9375 -11.515625 
Q 21 -9.765625 23.484375 -3.21875 
L 25.09375 0.875 
L 2.984375 54.6875 
L 12.5 54.6875 
L 29.59375 11.921875 
L 46.6875 54.6875 
L 56.203125 54.6875 
z
" id="DejaVuSans-121"/>
      </defs>
      <g transform="translate(280.013882 329.598437)scale(0.1 -0.1)">
       <use xlink:href="#DejaVuSans-77"/>
       <use x="86.279297" xlink:href="#DejaVuSans-97"/>
       <use x="147.558594" xlink:href="#DejaVuSans-121"/>
      </g>
     </g>
    </g>
    <g id="xtick_6">
     <g id="line2d_11">
      <path clip-path="url(#p770cda70be)" d="M 370.041186 315 
L 370.041186 43.2 
" style="fill:none;stroke:#b0b0b0;stroke-linecap:square;stroke-width:0.8;"/>
     </g>
     <g id="line2d_12">
      <g>
       <use style="stroke:#000000;stroke-width:0.8;" x="370.041186" xlink:href="#m959da24f38" y="315"/>
      </g>
     </g>
     <g id="text_5">
      <!-- Jun -->
      <defs>
       <path d="M 9.8125 72.90625 
L 19.671875 72.90625 
L 19.671875 5.078125 
Q 19.671875 -8.109375 14.671875 -14.0625 
Q 9.671875 -20.015625 -1.421875 -20.015625 
L -5.171875 -20.015625 
L -5.171875 -11.71875 
L -2.09375 -11.71875 
Q 4.4375 -11.71875 7.125 -8.046875 
Q 9.8125 -4.390625 9.8125 5.078125 
z
" id="DejaVuSans-74"/>
       <path d="M 8.5 21.578125 
L 8.5 54.6875 
L 17.484375 54.6875 
L 17.484375 21.921875 
Q 17.484375 14.15625 20.5 10.265625 
Q 23.53125 6.390625 29.59375 6.390625 
Q 36.859375 6.390625 41.078125 11.03125 
Q 45.3125 15.671875 45.3125 23.6875 
L 45.3125 54.6875 
L 54.296875 54.6875 
L 54.296875 0 
L 45.3125 0 
L 45.3125 8.40625 
Q 42.046875 3.421875 37.71875 1 
Q 33.40625 -1.421875 27.6875 -1.421875 
Q 18.265625 -1.421875 13.375 4.4375 
Q 8.5 10.296875 8.5 21.578125 
z
M 31.109375 56 
z
" id="DejaVuSans-117"/>
       <path d="M 54.890625 33.015625 
L 54.890625 0 
L 45.90625 0 
L 45.90625 32.71875 
Q 45.90625 40.484375 42.875 44.328125 
Q 39.84375 48.1875 33.796875 48.1875 
Q 26.515625 48.1875 22.3125 43.546875 
Q 18.109375 38.921875 18.109375 30.90625 
L 18.109375 0 
L 9.078125 0 
L 9.078125 54.6875 
L 18.109375 54.6875 
L 18.109375 46.1875 
Q 21.34375 51.125 25.703125 53.5625 
Q 30.078125 56 35.796875 56 
Q 45.21875 56 50.046875 50.171875 
Q 54.890625 44.34375 54.890625 33.015625 
z
" id="DejaVuSans-110"/>
      </defs>
      <g transform="translate(362.228686 329.598437)scale(0.1 -0.1)">
       <use xlink:href="#DejaVuSans-74"/>
       <use x="29.492188" xlink:href="#DejaVuSans-117"/>
       <use x="92.871094" xlink:href="#DejaVuSans-110"/>
      </g>
     </g>
    </g>
    <g id="xtick_7">
     <g id="line2d_13">
      <path clip-path="url(#p770cda70be)" d="M 413.742045 315 
L 413.742045 43.2 
" style="fill:none;stroke:#b0b0b0;stroke-linecap:square;stroke-width:0.8;"/>
     </g>
     <g id="line2d_14">
      <g>
       <use style="stroke:#000000;stroke-width:0.8;" x="413.742045" xlink:href="#m959da24f38" y="315"/>
      </g>
     </g>
    </g>
    <g id="xtick_8">
     <g id="line2d_15">
      <defs>
       <path d="M 0 0 
L 0 2 
" id="me96b3501a0" style="stroke:#000000;stroke-width:0.6;"/>
      </defs>
      <g>
       <use style="stroke:#000000;stroke-width:0.6;" x="46.140694" xlink:href="#me96b3501a0" y="315"/>
      </g>
     </g>
    </g>
    <g id="xtick_9">
     <g id="line2d_16">
      <g>
       <use style="stroke:#000000;stroke-width:0.6;" x="64.135166" xlink:href="#me96b3501a0" y="315"/>
      </g>
     </g>
    </g>
    <g id="xtick_10">
     <g id="line2d_17">
      <g>
       <use style="stroke:#000000;stroke-width:0.6;" x="82.129638" xlink:href="#me96b3501a0" y="315"/>
      </g>
     </g>
    </g>
    <g id="xtick_11">
     <g id="line2d_18">
      <g>
       <use style="stroke:#000000;stroke-width:0.6;" x="100.124109" xlink:href="#me96b3501a0" y="315"/>
      </g>
     </g>
    </g>
    <g id="xtick_12">
     <g id="line2d_19">
      <g>
       <use style="stroke:#000000;stroke-width:0.6;" x="118.118581" xlink:href="#me96b3501a0" y="315"/>
      </g>
     </g>
    </g>
    <g id="xtick_13">
     <g id="line2d_20">
      <g>
       <use style="stroke:#000000;stroke-width:0.6;" x="136.113053" xlink:href="#me96b3501a0" y="315"/>
      </g>
     </g>
    </g>
    <g id="xtick_14">
     <g id="line2d_21">
      <g>
       <use style="stroke:#000000;stroke-width:0.6;" x="154.107525" xlink:href="#me96b3501a0" y="315"/>
      </g>
     </g>
    </g>
    <g id="xtick_15">
     <g id="line2d_22">
      <g>
       <use style="stroke:#000000;stroke-width:0.6;" x="172.101996" xlink:href="#me96b3501a0" y="315"/>
      </g>
     </g>
    </g>
    <g id="xtick_16">
     <g id="line2d_23">
      <g>
       <use style="stroke:#000000;stroke-width:0.6;" x="190.096468" xlink:href="#me96b3501a0" y="315"/>
      </g>
     </g>
    </g>
    <g id="xtick_17">
     <g id="line2d_24">
      <g>
       <use style="stroke:#000000;stroke-width:0.6;" x="208.09094" xlink:href="#me96b3501a0" y="315"/>
      </g>
     </g>
    </g>
    <g id="xtick_18">
     <g id="line2d_25">
      <g>
       <use style="stroke:#000000;stroke-width:0.6;" x="226.085412" xlink:href="#me96b3501a0" y="315"/>
      </g>
     </g>
    </g>
    <g id="xtick_19">
     <g id="line2d_26">
      <g>
       <use style="stroke:#000000;stroke-width:0.6;" x="244.079883" xlink:href="#me96b3501a0" y="315"/>
      </g>
     </g>
    </g>
    <g id="xtick_20">
     <g id="line2d_27">
      <g>
       <use style="stroke:#000000;stroke-width:0.6;" x="262.074355" xlink:href="#me96b3501a0" y="315"/>
      </g>
     </g>
    </g>
    <g id="xtick_21">
     <g id="line2d_28">
      <g>
       <use style="stroke:#000000;stroke-width:0.6;" x="280.068827" xlink:href="#me96b3501a0" y="315"/>
      </g>
     </g>
    </g>
    <g id="xtick_22">
     <g id="line2d_29">
      <g>
       <use style="stroke:#000000;stroke-width:0.6;" x="298.063299" xlink:href="#me96b3501a0" y="315"/>
      </g>
     </g>
    </g>
    <g id="xtick_23">
     <g id="line2d_30">
      <g>
       <use style="stroke:#000000;stroke-width:0.6;" x="316.05777" xlink:href="#me96b3501a0" y="315"/>
      </g>
     </g>
    </g>
    <g id="xtick_24">
     <g id="line2d_31">
      <g>
       <use style="stroke:#000000;stroke-width:0.6;" x="334.052242" xlink:href="#me96b3501a0" y="315"/>
      </g>
     </g>
    </g>
    <g id="xtick_25">
     <g id="line2d_32">
      <g>
       <use style="stroke:#000000;stroke-width:0.6;" x="352.046714" xlink:href="#me96b3501a0" y="315"/>
      </g>
     </g>
    </g>
    <g id="xtick_26">
     <g id="line2d_33">
      <g>
       <use style="stroke:#000000;stroke-width:0.6;" x="388.035657" xlink:href="#me96b3501a0" y="315"/>
      </g>
     </g>
    </g>
    <g id="xtick_27">
     <g id="line2d_34">
      <g>
       <use style="stroke:#000000;stroke-width:0.6;" x="406.030129" xlink:href="#me96b3501a0" y="315"/>
      </g>
     </g>
    </g>
   </g>
   <g id="matplotlib.axis_2">
    <g id="ytick_1">
     <g id="line2d_35">
      <path clip-path="url(#p770cda70be)" d="M 33.2875 302.645455 
L 413.742045 302.645455 
" style="fill:none;stroke:#b0b0b0;stroke-linecap:square;stroke-width:0.8;"/>
     </g>
     <g id="line2d_36">
      <defs>
       <path d="M 0 0 
L -3.5 0 
" id="mda1717079d" style="stroke:#000000;stroke-width:0.8;"/>
      </defs>
      <g>
       <use style="stroke:#000000;stroke-width:0.8;" x="33.2875" xlink:href="#mda1717079d" y="302.645455"/>
      </g>
     </g>
     <g id="text_6">
      <!-- 0 -->
      <g transform="translate(19.925 306.444673)scale(0.1 -0.1)">
       <use xlink:href="#DejaVuSans-48"/>
      </g>
     </g>
    </g>
    <g id="ytick_2">
     <g id="line2d_37">
      <path clip-path="url(#p770cda70be)" d="M 33.2875 268.584546 
L 413.742045 268.584546 
" style="fill:none;stroke:#b0b0b0;stroke-linecap:square;stroke-width:0.8;"/>
     </g>
     <g id="line2d_38">
      <g>
       <use style="stroke:#000000;stroke-width:0.8;" x="33.2875" xlink:href="#mda1717079d" y="268.584546"/>
      </g>
     </g>
     <g id="text_7">
      <!-- 20 -->
      <g transform="translate(13.5625 272.383765)scale(0.1 -0.1)">
       <use xlink:href="#DejaVuSans-50"/>
       <use x="63.623047" xlink:href="#DejaVuSans-48"/>
      </g>
     </g>
    </g>
    <g id="ytick_3">
     <g id="line2d_39">
      <path clip-path="url(#p770cda70be)" d="M 33.2875 234.523638 
L 413.742045 234.523638 
" style="fill:none;stroke:#b0b0b0;stroke-linecap:square;stroke-width:0.8;"/>
     </g>
     <g id="line2d_40">
      <g>
       <use style="stroke:#000000;stroke-width:0.8;" x="33.2875" xlink:href="#mda1717079d" y="234.523638"/>
      </g>
     </g>
     <g id="text_8">
      <!-- 40 -->
      <defs>
       <path d="M 37.796875 64.3125 
L 12.890625 25.390625 
L 37.796875 25.390625 
z
M 35.203125 72.90625 
L 47.609375 72.90625 
L 47.609375 25.390625 
L 58.015625 25.390625 
L 58.015625 17.1875 
L 47.609375 17.1875 
L 47.609375 0 
L 37.796875 0 
L 37.796875 17.1875 
L 4.890625 17.1875 
L 4.890625 26.703125 
z
" id="DejaVuSans-52"/>
      </defs>
      <g transform="translate(13.5625 238.322857)scale(0.1 -0.1)">
       <use xlink:href="#DejaVuSans-52"/>
       <use x="63.623047" xlink:href="#DejaVuSans-48"/>
      </g>
     </g>
    </g>
    <g id="ytick_4">
     <g id="line2d_41">
      <path clip-path="url(#p770cda70be)" d="M 33.2875 200.46273 
L 413.742045 200.46273 
" style="fill:none;stroke:#b0b0b0;stroke-linecap:square;stroke-width:0.8;"/>
     </g>
     <g id="line2d_42">
      <g>
       <use style="stroke:#000000;stroke-width:0.8;" x="33.2875" xlink:href="#mda1717079d" y="200.46273"/>
      </g>
     </g>
     <g id="text_9">
      <!-- 60 -->
      <defs>
       <path d="M 33.015625 40.375 
Q 26.375 40.375 22.484375 35.828125 
Q 18.609375 31.296875 18.609375 23.390625 
Q 18.609375 15.53125 22.484375 10.953125 
Q 26.375 6.390625 33.015625 6.390625 
Q 39.65625 6.390625 43.53125 10.953125 
Q 47.40625 15.53125 47.40625 23.390625 
Q 47.40625 31.296875 43.53125 35.828125 
Q 39.65625 40.375 33.015625 40.375 
z
M 52.59375 71.296875 
L 52.59375 62.3125 
Q 48.875 64.0625 45.09375 64.984375 
Q 41.3125 65.921875 37.59375 65.921875 
Q 27.828125 65.921875 22.671875 59.328125 
Q 17.53125 52.734375 16.796875 39.40625 
Q 19.671875 43.65625 24.015625 45.921875 
Q 28.375 48.1875 33.59375 48.1875 
Q 44.578125 48.1875 50.953125 41.515625 
Q 57.328125 34.859375 57.328125 23.390625 
Q 57.328125 12.15625 50.6875 5.359375 
Q 44.046875 -1.421875 33.015625 -1.421875 
Q 20.359375 -1.421875 13.671875 8.265625 
Q 6.984375 17.96875 6.984375 36.375 
Q 6.984375 53.65625 15.1875 63.9375 
Q 23.390625 74.21875 37.203125 74.21875 
Q 40.921875 74.21875 44.703125 73.484375 
Q 48.484375 72.75 52.59375 71.296875 
z
" id="DejaVuSans-54"/>
      </defs>
      <g transform="translate(13.5625 204.261949)scale(0.1 -0.1)">
       <use xlink:href="#DejaVuSans-54"/>
       <use x="63.623047" xlink:href="#DejaVuSans-48"/>
      </g>
     </g>
    </g>
    <g id="ytick_5">
     <g id="line2d_43">
      <path clip-path="url(#p770cda70be)" d="M 33.2875 166.401822 
L 413.742045 166.401822 
" style="fill:none;stroke:#b0b0b0;stroke-linecap:square;stroke-width:0.8;"/>
     </g>
     <g id="line2d_44">
      <g>
       <use style="stroke:#000000;stroke-width:0.8;" x="33.2875" xlink:href="#mda1717079d" y="166.401822"/>
      </g>
     </g>
     <g id="text_10">
      <!-- 80 -->
      <defs>
       <path d="M 31.78125 34.625 
Q 24.75 34.625 20.71875 30.859375 
Q 16.703125 27.09375 16.703125 20.515625 
Q 16.703125 13.921875 20.71875 10.15625 
Q 24.75 6.390625 31.78125 6.390625 
Q 38.8125 6.390625 42.859375 10.171875 
Q 46.921875 13.96875 46.921875 20.515625 
Q 46.921875 27.09375 42.890625 30.859375 
Q 38.875 34.625 31.78125 34.625 
z
M 21.921875 38.8125 
Q 15.578125 40.375 12.03125 44.71875 
Q 8.5 49.078125 8.5 55.328125 
Q 8.5 64.0625 14.71875 69.140625 
Q 20.953125 74.21875 31.78125 74.21875 
Q 42.671875 74.21875 48.875 69.140625 
Q 55.078125 64.0625 55.078125 55.328125 
Q 55.078125 49.078125 51.53125 44.71875 
Q 48 40.375 41.703125 38.8125 
Q 48.828125 37.15625 52.796875 32.3125 
Q 56.78125 27.484375 56.78125 20.515625 
Q 56.78125 9.90625 50.3125 4.234375 
Q 43.84375 -1.421875 31.78125 -1.421875 
Q 19.734375 -1.421875 13.25 4.234375 
Q 6.78125 9.90625 6.78125 20.515625 
Q 6.78125 27.484375 10.78125 32.3125 
Q 14.796875 37.15625 21.921875 38.8125 
z
M 18.3125 54.390625 
Q 18.3125 48.734375 21.84375 45.5625 
Q 25.390625 42.390625 31.78125 42.390625 
Q 38.140625 42.390625 41.71875 45.5625 
Q 45.3125 48.734375 45.3125 54.390625 
Q 45.3125 60.0625 41.71875 63.234375 
Q 38.140625 66.40625 31.78125 66.40625 
Q 25.390625 66.40625 21.84375 63.234375 
Q 18.3125 60.0625 18.3125 54.390625 
z
" id="DejaVuSans-56"/>
      </defs>
      <g transform="translate(13.5625 170.201041)scale(0.1 -0.1)">
       <use xlink:href="#DejaVuSans-56"/>
       <use x="63.623047" xlink:href="#DejaVuSans-48"/>
      </g>
     </g>
    </g>
    <g id="ytick_6">
     <g id="line2d_45">
      <path clip-path="url(#p770cda70be)" d="M 33.2875 132.340914 
L 413.742045 132.340914 
" style="fill:none;stroke:#b0b0b0;stroke-linecap:square;stroke-width:0.8;"/>
     </g>
     <g id="line2d_46">
      <g>
       <use style="stroke:#000000;stroke-width:0.8;" x="33.2875" xlink:href="#mda1717079d" y="132.340914"/>
      </g>
     </g>
     <g id="text_11">
      <!-- 100 -->
      <defs>
       <path d="M 12.40625 8.296875 
L 28.515625 8.296875 
L 28.515625 63.921875 
L 10.984375 60.40625 
L 10.984375 69.390625 
L 28.421875 72.90625 
L 38.28125 72.90625 
L 38.28125 8.296875 
L 54.390625 8.296875 
L 54.390625 0 
L 12.40625 0 
z
" id="DejaVuSans-49"/>
      </defs>
      <g transform="translate(7.2 136.140133)scale(0.1 -0.1)">
       <use xlink:href="#DejaVuSans-49"/>
       <use x="63.623047" xlink:href="#DejaVuSans-48"/>
       <use x="127.246094" xlink:href="#DejaVuSans-48"/>
      </g>
     </g>
    </g>
    <g id="ytick_7">
     <g id="line2d_47">
      <path clip-path="url(#p770cda70be)" d="M 33.2875 98.280006 
L 413.742045 98.280006 
" style="fill:none;stroke:#b0b0b0;stroke-linecap:square;stroke-width:0.8;"/>
     </g>
     <g id="line2d_48">
      <g>
       <use style="stroke:#000000;stroke-width:0.8;" x="33.2875" xlink:href="#mda1717079d" y="98.280006"/>
      </g>
     </g>
     <g id="text_12">
      <!-- 120 -->
      <g transform="translate(7.2 102.079225)scale(0.1 -0.1)">
       <use xlink:href="#DejaVuSans-49"/>
       <use x="63.623047" xlink:href="#DejaVuSans-50"/>
       <use x="127.246094" xlink:href="#DejaVuSans-48"/>
      </g>
     </g>
    </g>
    <g id="ytick_8">
     <g id="line2d_49">
      <path clip-path="url(#p770cda70be)" d="M 33.2875 64.219098 
L 413.742045 64.219098 
" style="fill:none;stroke:#b0b0b0;stroke-linecap:square;stroke-width:0.8;"/>
     </g>
     <g id="line2d_50">
      <g>
       <use style="stroke:#000000;stroke-width:0.8;" x="33.2875" xlink:href="#mda1717079d" y="64.219098"/>
      </g>
     </g>
     <g id="text_13">
      <!-- 140 -->
      <g transform="translate(7.2 68.018316)scale(0.1 -0.1)">
       <use xlink:href="#DejaVuSans-49"/>
       <use x="63.623047" xlink:href="#DejaVuSans-52"/>
       <use x="127.246094" xlink:href="#DejaVuSans-48"/>
      </g>
     </g>
    </g>
   </g>
   <g id="line2d_51">
    <defs>
     <path d="M 0 1.5 
C 0.397805 1.5 0.77937 1.341951 1.06066 1.06066 
C 1.341951 0.77937 1.5 0.397805 1.5 0 
C 1.5 -0.397805 1.341951 -0.77937 1.06066 -1.06066 
C 0.77937 -1.341951 0.397805 -1.5 0 -1.5 
C -0.397805 -1.5 -0.77937 -1.341951 -1.06066 -1.06066 
C -1.341951 -0.77937 -1.5 -0.397805 -1.5 0 
C -1.5 0.397805 -1.341951 0.77937 -1.06066 1.06066 
C -0.77937 1.341951 -0.397805 1.5 0 1.5 
z
" id="m153fc99bc9" style="stroke:#000000;"/>
    </defs>
    <g clip-path="url(#p770cda70be)">
     <use style="stroke:#000000;" x="33.2875" xlink:href="#m153fc99bc9" y="302.645455"/>
     <use style="stroke:#000000;" x="35.858139" xlink:href="#m153fc99bc9" y="302.645455"/>
     <use style="stroke:#000000;" x="38.428778" xlink:href="#m153fc99bc9" y="302.645455"/>
     <use style="stroke:#000000;" x="40.999416" xlink:href="#m153fc99bc9" y="302.645455"/>
     <use style="stroke:#000000;" x="43.570055" xlink:href="#m153fc99bc9" y="302.645455"/>
     <use style="stroke:#000000;" x="46.140694" xlink:href="#m153fc99bc9" y="302.645455"/>
     <use style="stroke:#000000;" x="48.711333" xlink:href="#m153fc99bc9" y="302.645455"/>
     <use style="stroke:#000000;" x="51.281972" xlink:href="#m153fc99bc9" y="302.645455"/>
     <use style="stroke:#000000;" x="53.852611" xlink:href="#m153fc99bc9" y="302.645455"/>
     <use style="stroke:#000000;" x="56.423249" xlink:href="#m153fc99bc9" y="302.645455"/>
     <use style="stroke:#000000;" x="58.993888" xlink:href="#m153fc99bc9" y="302.645455"/>
     <use style="stroke:#000000;" x="61.564527" xlink:href="#m153fc99bc9" y="302.645455"/>
     <use style="stroke:#000000;" x="64.135166" xlink:href="#m153fc99bc9" y="302.645455"/>
     <use style="stroke:#000000;" x="66.705805" xlink:href="#m153fc99bc9" y="302.645455"/>
     <use style="stroke:#000000;" x="69.276443" xlink:href="#m153fc99bc9" y="302.645455"/>
     <use style="stroke:#000000;" x="71.847082" xlink:href="#m153fc99bc9" y="302.645455"/>
     <use style="stroke:#000000;" x="74.417721" xlink:href="#m153fc99bc9" y="302.645455"/>
     <use style="stroke:#000000;" x="76.98836" xlink:href="#m153fc99bc9" y="302.645455"/>
     <use style="stroke:#000000;" x="79.558999" xlink:href="#m153fc99bc9" y="302.645455"/>
     <use style="stroke:#000000;" x="82.129638" xlink:href="#m153fc99bc9" y="302.645455"/>
     <use style="stroke:#000000;" x="84.700276" xlink:href="#m153fc99bc9" y="302.645455"/>
     <use style="stroke:#000000;" x="87.270915" xlink:href="#m153fc99bc9" y="302.645455"/>
     <use style="stroke:#000000;" x="89.841554" xlink:href="#m153fc99bc9" y="302.645455"/>
     <use style="stroke:#000000;" x="92.412193" xlink:href="#m153fc99bc9" y="302.645455"/>
     <use style="stroke:#000000;" x="94.982832" xlink:href="#m153fc99bc9" y="302.645455"/>
     <use style="stroke:#000000;" x="97.553471" xlink:href="#m153fc99bc9" y="302.645455"/>
     <use style="stroke:#000000;" x="100.124109" xlink:href="#m153fc99bc9" y="302.645455"/>
     <use style="stroke:#000000;" x="102.694748" xlink:href="#m153fc99bc9" y="302.645455"/>
     <use style="stroke:#000000;" x="105.265387" xlink:href="#m153fc99bc9" y="302.645455"/>
     <use style="stroke:#000000;" x="107.836026" xlink:href="#m153fc99bc9" y="302.645455"/>
     <use style="stroke:#000000;" x="110.406665" xlink:href="#m153fc99bc9" y="302.645455"/>
     <use style="stroke:#000000;" x="112.977303" xlink:href="#m153fc99bc9" y="302.645455"/>
     <use style="stroke:#000000;" x="115.547942" xlink:href="#m153fc99bc9" y="302.645455"/>
     <use style="stroke:#000000;" x="118.118581" xlink:href="#m153fc99bc9" y="302.645455"/>
     <use style="stroke:#000000;" x="120.68922" xlink:href="#m153fc99bc9" y="302.645455"/>
     <use style="stroke:#000000;" x="123.259859" xlink:href="#m153fc99bc9" y="302.645455"/>
     <use style="stroke:#000000;" x="125.830498" xlink:href="#m153fc99bc9" y="302.645455"/>
     <use style="stroke:#000000;" x="128.401136" xlink:href="#m153fc99bc9" y="302.645455"/>
     <use style="stroke:#000000;" x="130.971775" xlink:href="#m153fc99bc9" y="302.645455"/>
     <use style="stroke:#000000;" x="133.542414" xlink:href="#m153fc99bc9" y="302.645455"/>
     <use style="stroke:#000000;" x="136.113053" xlink:href="#m153fc99bc9" y="302.645455"/>
     <use style="stroke:#000000;" x="138.683692" xlink:href="#m153fc99bc9" y="302.645455"/>
     <use style="stroke:#000000;" x="141.25433" xlink:href="#m153fc99bc9" y="302.645455"/>
     <use style="stroke:#000000;" x="143.824969" xlink:href="#m153fc99bc9" y="302.645455"/>
     <use style="stroke:#000000;" x="146.395608" xlink:href="#m153fc99bc9" y="302.645455"/>
     <use style="stroke:#000000;" x="148.966247" xlink:href="#m153fc99bc9" y="302.645455"/>
     <use style="stroke:#000000;" x="151.536886" xlink:href="#m153fc99bc9" y="302.645455"/>
     <use style="stroke:#000000;" x="154.107525" xlink:href="#m153fc99bc9" y="300.942409"/>
     <use style="stroke:#000000;" x="156.678163" xlink:href="#m153fc99bc9" y="300.942409"/>
     <use style="stroke:#000000;" x="159.248802" xlink:href="#m153fc99bc9" y="283.911955"/>
     <use style="stroke:#000000;" x="161.819441" xlink:href="#m153fc99bc9" y="283.911955"/>
     <use style="stroke:#000000;" x="164.39008" xlink:href="#m153fc99bc9" y="239.632775"/>
     <use style="stroke:#000000;" x="166.960719" xlink:href="#m153fc99bc9" y="234.523638"/>
     <use style="stroke:#000000;" x="169.531357" xlink:href="#m153fc99bc9" y="217.493184"/>
     <use style="stroke:#000000;" x="172.101996" xlink:href="#m153fc99bc9" y="210.681003"/>
     <use style="stroke:#000000;" x="174.672635" xlink:href="#m153fc99bc9" y="207.274912"/>
     <use style="stroke:#000000;" x="177.243274" xlink:href="#m153fc99bc9" y="186.838367"/>
     <use style="stroke:#000000;" x="179.813913" xlink:href="#m153fc99bc9" y="174.917049"/>
     <use style="stroke:#000000;" x="182.384552" xlink:href="#m153fc99bc9" y="169.807913"/>
     <use style="stroke:#000000;" x="184.95519" xlink:href="#m153fc99bc9" y="161.292686"/>
     <use style="stroke:#000000;" x="187.525829" xlink:href="#m153fc99bc9" y="152.777459"/>
     <use style="stroke:#000000;" x="190.096468" xlink:href="#m153fc99bc9" y="147.668323"/>
     <use style="stroke:#000000;" x="192.667107" xlink:href="#m153fc99bc9" y="125.528732"/>
     <use style="stroke:#000000;" x="195.237746" xlink:href="#m153fc99bc9" y="117.013505"/>
     <use style="stroke:#000000;" x="197.808385" xlink:href="#m153fc99bc9" y="108.498278"/>
     <use style="stroke:#000000;" x="200.379023" xlink:href="#m153fc99bc9" y="106.795233"/>
     <use style="stroke:#000000;" x="202.949662" xlink:href="#m153fc99bc9" y="98.280006"/>
     <use style="stroke:#000000;" x="205.520301" xlink:href="#m153fc99bc9" y="88.061733"/>
     <use style="stroke:#000000;" x="208.09094" xlink:href="#m153fc99bc9" y="86.358688"/>
     <use style="stroke:#000000;" x="210.661579" xlink:href="#m153fc99bc9" y="82.952597"/>
     <use style="stroke:#000000;" x="213.232217" xlink:href="#m153fc99bc9" y="79.546506"/>
     <use style="stroke:#000000;" x="215.802856" xlink:href="#m153fc99bc9" y="76.140416"/>
     <use style="stroke:#000000;" x="218.373495" xlink:href="#m153fc99bc9" y="74.43737"/>
     <use style="stroke:#000000;" x="220.944134" xlink:href="#m153fc99bc9" y="72.734325"/>
     <use style="stroke:#000000;" x="223.514773" xlink:href="#m153fc99bc9" y="72.734325"/>
     <use style="stroke:#000000;" x="226.085412" xlink:href="#m153fc99bc9" y="72.734325"/>
     <use style="stroke:#000000;" x="228.65605" xlink:href="#m153fc99bc9" y="72.734325"/>
     <use style="stroke:#000000;" x="231.226689" xlink:href="#m153fc99bc9" y="72.734325"/>
     <use style="stroke:#000000;" x="233.797328" xlink:href="#m153fc99bc9" y="72.734325"/>
     <use style="stroke:#000000;" x="236.367967" xlink:href="#m153fc99bc9" y="71.031279"/>
     <use style="stroke:#000000;" x="238.938606" xlink:href="#m153fc99bc9" y="71.031279"/>
     <use style="stroke:#000000;" x="241.509244" xlink:href="#m153fc99bc9" y="71.031279"/>
     <use style="stroke:#000000;" x="244.079883" xlink:href="#m153fc99bc9" y="71.031279"/>
     <use style="stroke:#000000;" x="246.650522" xlink:href="#m153fc99bc9" y="71.031279"/>
     <use style="stroke:#000000;" x="249.221161" xlink:href="#m153fc99bc9" y="71.031279"/>
     <use style="stroke:#000000;" x="251.7918" xlink:href="#m153fc99bc9" y="71.031279"/>
     <use style="stroke:#000000;" x="254.362439" xlink:href="#m153fc99bc9" y="71.031279"/>
     <use style="stroke:#000000;" x="256.933077" xlink:href="#m153fc99bc9" y="69.328234"/>
     <use style="stroke:#000000;" x="259.503716" xlink:href="#m153fc99bc9" y="67.625188"/>
     <use style="stroke:#000000;" x="262.074355" xlink:href="#m153fc99bc9" y="67.625188"/>
     <use style="stroke:#000000;" x="264.644994" xlink:href="#m153fc99bc9" y="67.625188"/>
     <use style="stroke:#000000;" x="267.215633" xlink:href="#m153fc99bc9" y="67.625188"/>
     <use style="stroke:#000000;" x="269.786271" xlink:href="#m153fc99bc9" y="67.625188"/>
     <use style="stroke:#000000;" x="272.35691" xlink:href="#m153fc99bc9" y="67.625188"/>
     <use style="stroke:#000000;" x="274.927549" xlink:href="#m153fc99bc9" y="67.625188"/>
     <use style="stroke:#000000;" x="277.498188" xlink:href="#m153fc99bc9" y="67.625188"/>
     <use style="stroke:#000000;" x="280.068827" xlink:href="#m153fc99bc9" y="67.625188"/>
     <use style="stroke:#000000;" x="282.639466" xlink:href="#m153fc99bc9" y="67.625188"/>
     <use style="stroke:#000000;" x="285.210104" xlink:href="#m153fc99bc9" y="67.625188"/>
     <use style="stroke:#000000;" x="287.780743" xlink:href="#m153fc99bc9" y="67.625188"/>
     <use style="stroke:#000000;" x="290.351382" xlink:href="#m153fc99bc9" y="67.625188"/>
     <use style="stroke:#000000;" x="292.922021" xlink:href="#m153fc99bc9" y="67.625188"/>
     <use style="stroke:#000000;" x="295.49266" xlink:href="#m153fc99bc9" y="67.625188"/>
     <use style="stroke:#000000;" x="298.063299" xlink:href="#m153fc99bc9" y="67.625188"/>
     <use style="stroke:#000000;" x="300.633937" xlink:href="#m153fc99bc9" y="67.625188"/>
     <use style="stroke:#000000;" x="303.204576" xlink:href="#m153fc99bc9" y="65.922143"/>
     <use style="stroke:#000000;" x="305.775215" xlink:href="#m153fc99bc9" y="62.516052"/>
     <use style="stroke:#000000;" x="308.345854" xlink:href="#m153fc99bc9" y="62.516052"/>
     <use style="stroke:#000000;" x="310.916493" xlink:href="#m153fc99bc9" y="62.516052"/>
     <use style="stroke:#000000;" x="313.487131" xlink:href="#m153fc99bc9" y="62.516052"/>
     <use style="stroke:#000000;" x="316.05777" xlink:href="#m153fc99bc9" y="62.516052"/>
     <use style="stroke:#000000;" x="318.628409" xlink:href="#m153fc99bc9" y="62.516052"/>
     <use style="stroke:#000000;" x="321.199048" xlink:href="#m153fc99bc9" y="62.516052"/>
     <use style="stroke:#000000;" x="323.769687" xlink:href="#m153fc99bc9" y="62.516052"/>
     <use style="stroke:#000000;" x="326.340326" xlink:href="#m153fc99bc9" y="62.516052"/>
     <use style="stroke:#000000;" x="328.910964" xlink:href="#m153fc99bc9" y="62.516052"/>
     <use style="stroke:#000000;" x="331.481603" xlink:href="#m153fc99bc9" y="62.516052"/>
     <use style="stroke:#000000;" x="334.052242" xlink:href="#m153fc99bc9" y="62.516052"/>
     <use style="stroke:#000000;" x="336.622881" xlink:href="#m153fc99bc9" y="62.516052"/>
     <use style="stroke:#000000;" x="339.19352" xlink:href="#m153fc99bc9" y="62.516052"/>
    </g>
   </g>
   <g id="line2d_52">
    <path clip-path="url(#p770cda70be)" d="M 33.2875 302.645087 
L 94.982832 302.543396 
L 107.836026 302.316227 
L 115.547942 301.981226 
L 120.68922 301.585683 
L 125.830498 300.956294 
L 128.401136 300.51407 
L 130.971775 299.957403 
L 133.542414 299.25746 
L 136.113053 298.378601 
L 138.683692 297.277038 
L 141.25433 295.899388 
L 143.824969 294.181215 
L 146.395608 292.045725 
L 148.966247 289.402903 
L 151.536886 286.149509 
L 154.107525 282.170504 
L 156.678163 277.342674 
L 159.248802 271.541249 
L 161.819441 264.650259 
L 164.39008 256.576916 
L 166.960719 247.269414 
L 169.531357 236.73618 
L 172.101996 225.06298 
L 174.672635 212.423063 
L 179.813913 185.349117 
L 184.95519 158.233972 
L 187.525829 145.546543 
L 190.096468 133.813431 
L 192.667107 123.212896 
L 195.237746 113.835453 
L 197.808385 105.693473 
L 200.379023 98.738034 
L 202.949662 92.878157 
L 205.520301 87.99876 
L 208.09094 83.975256 
L 210.661579 80.684134 
L 213.232217 78.009775 
L 215.802856 75.848218 
L 218.373495 74.108694 
L 220.944134 72.713682 
L 223.514773 71.598079 
L 226.085412 70.707919 
L 228.65605 69.998912 
L 231.226689 69.434997 
L 236.367967 68.631387 
L 241.509244 68.125737 
L 249.221161 67.697109 
L 259.503716 67.440765 
L 277.498188 67.307569 
L 331.481603 67.275766 
L 339.19352 67.275648 
L 339.19352 67.275648 
" style="fill:none;stroke:#008000;stroke-linecap:square;stroke-width:1.5;"/>
   </g>
   <g id="line2d_53">
    <path clip-path="url(#p770cda70be)" d="M 341.764158 67.275605 
L 413.742045 67.275533 
L 413.742045 67.275533 
" style="fill:none;stroke:#ff0000;stroke-linecap:square;stroke-width:1.5;"/>
   </g>
   <g id="patch_3">
    <path d="M 33.2875 315 
L 33.2875 43.2 
" style="fill:none;stroke:#000000;stroke-linecap:square;stroke-linejoin:miter;stroke-width:0.8;"/>
   </g>
   <g id="patch_4">
    <path d="M 413.742045 315 
L 413.742045 43.2 
" style="fill:none;stroke:#000000;stroke-linecap:square;stroke-linejoin:miter;stroke-width:0.8;"/>
   </g>
   <g id="patch_5">
    <path d="M 33.2875 315 
L 413.742045 315 
" style="fill:none;stroke:#000000;stroke-linecap:square;stroke-linejoin:miter;stroke-width:0.8;"/>
   </g>
   <g id="patch_6">
    <path d="M 33.2875 43.2 
L 413.742045 43.2 
" style="fill:none;stroke:#000000;stroke-linecap:square;stroke-linejoin:miter;stroke-width:0.8;"/>
   </g>
   <g id="text_14">
    <!-- Parametric Fitting -->
    <defs>
     <path d="M 19.671875 64.796875 
L 19.671875 37.40625 
L 32.078125 37.40625 
Q 38.96875 37.40625 42.71875 40.96875 
Q 46.484375 44.53125 46.484375 51.125 
Q 46.484375 57.671875 42.71875 61.234375 
Q 38.96875 64.796875 32.078125 64.796875 
z
M 9.8125 72.90625 
L 32.078125 72.90625 
Q 44.34375 72.90625 50.609375 67.359375 
Q 56.890625 61.8125 56.890625 51.125 
Q 56.890625 40.328125 50.609375 34.8125 
Q 44.34375 29.296875 32.078125 29.296875 
L 19.671875 29.296875 
L 19.671875 0 
L 9.8125 0 
z
" id="DejaVuSans-80"/>
     <path d="M 52 44.1875 
Q 55.375 50.25 60.0625 53.125 
Q 64.75 56 71.09375 56 
Q 79.640625 56 84.28125 50.015625 
Q 88.921875 44.046875 88.921875 33.015625 
L 88.921875 0 
L 79.890625 0 
L 79.890625 32.71875 
Q 79.890625 40.578125 77.09375 44.375 
Q 74.3125 48.1875 68.609375 48.1875 
Q 61.625 48.1875 57.5625 43.546875 
Q 53.515625 38.921875 53.515625 30.90625 
L 53.515625 0 
L 44.484375 0 
L 44.484375 32.71875 
Q 44.484375 40.625 41.703125 44.40625 
Q 38.921875 48.1875 33.109375 48.1875 
Q 26.21875 48.1875 22.15625 43.53125 
Q 18.109375 38.875 18.109375 30.90625 
L 18.109375 0 
L 9.078125 0 
L 9.078125 54.6875 
L 18.109375 54.6875 
L 18.109375 46.1875 
Q 21.1875 51.21875 25.484375 53.609375 
Q 29.78125 56 35.6875 56 
Q 41.65625 56 45.828125 52.96875 
Q 50 49.953125 52 44.1875 
z
" id="DejaVuSans-109"/>
     <path d="M 18.3125 70.21875 
L 18.3125 54.6875 
L 36.8125 54.6875 
L 36.8125 47.703125 
L 18.3125 47.703125 
L 18.3125 18.015625 
Q 18.3125 11.328125 20.140625 9.421875 
Q 21.96875 7.515625 27.59375 7.515625 
L 36.8125 7.515625 
L 36.8125 0 
L 27.59375 0 
Q 17.1875 0 13.234375 3.875 
Q 9.28125 7.765625 9.28125 18.015625 
L 9.28125 47.703125 
L 2.6875 47.703125 
L 2.6875 54.6875 
L 9.28125 54.6875 
L 9.28125 70.21875 
z
" id="DejaVuSans-116"/>
     <path d="M 9.421875 54.6875 
L 18.40625 54.6875 
L 18.40625 0 
L 9.421875 0 
z
M 9.421875 75.984375 
L 18.40625 75.984375 
L 18.40625 64.59375 
L 9.421875 64.59375 
z
" id="DejaVuSans-105"/>
     <path d="M 48.78125 52.59375 
L 48.78125 44.1875 
Q 44.96875 46.296875 41.140625 47.34375 
Q 37.3125 48.390625 33.40625 48.390625 
Q 24.65625 48.390625 19.8125 42.84375 
Q 14.984375 37.3125 14.984375 27.296875 
Q 14.984375 17.28125 19.8125 11.734375 
Q 24.65625 6.203125 33.40625 6.203125 
Q 37.3125 6.203125 41.140625 7.25 
Q 44.96875 8.296875 48.78125 10.40625 
L 48.78125 2.09375 
Q 45.015625 0.34375 40.984375 -0.53125 
Q 36.96875 -1.421875 32.421875 -1.421875 
Q 20.0625 -1.421875 12.78125 6.34375 
Q 5.515625 14.109375 5.515625 27.296875 
Q 5.515625 40.671875 12.859375 48.328125 
Q 20.21875 56 33.015625 56 
Q 37.15625 56 41.109375 55.140625 
Q 45.0625 54.296875 48.78125 52.59375 
z
" id="DejaVuSans-99"/>
     <path id="DejaVuSans-32"/>
     <path d="M 45.40625 27.984375 
Q 45.40625 37.75 41.375 43.109375 
Q 37.359375 48.484375 30.078125 48.484375 
Q 22.859375 48.484375 18.828125 43.109375 
Q 14.796875 37.75 14.796875 27.984375 
Q 14.796875 18.265625 18.828125 12.890625 
Q 22.859375 7.515625 30.078125 7.515625 
Q 37.359375 7.515625 41.375 12.890625 
Q 45.40625 18.265625 45.40625 27.984375 
z
M 54.390625 6.78125 
Q 54.390625 -7.171875 48.1875 -13.984375 
Q 42 -20.796875 29.203125 -20.796875 
Q 24.46875 -20.796875 20.265625 -20.09375 
Q 16.0625 -19.390625 12.109375 -17.921875 
L 12.109375 -9.1875 
Q 16.0625 -11.328125 19.921875 -12.34375 
Q 23.78125 -13.375 27.78125 -13.375 
Q 36.625 -13.375 41.015625 -8.765625 
Q 45.40625 -4.15625 45.40625 5.171875 
L 45.40625 9.625 
Q 42.625 4.78125 38.28125 2.390625 
Q 33.9375 0 27.875 0 
Q 17.828125 0 11.671875 7.65625 
Q 5.515625 15.328125 5.515625 27.984375 
Q 5.515625 40.671875 11.671875 48.328125 
Q 17.828125 56 27.875 56 
Q 33.9375 56 38.28125 53.609375 
Q 42.625 51.21875 45.40625 46.390625 
L 45.40625 54.6875 
L 54.390625 54.6875 
z
" id="DejaVuSans-103"/>
    </defs>
    <g transform="translate(170.45321 37.2)scale(0.12 -0.12)">
     <use xlink:href="#DejaVuSans-80"/>
     <use x="55.802734" xlink:href="#DejaVuSans-97"/>
     <use x="117.082031" xlink:href="#DejaVuSans-114"/>
     <use x="158.195312" xlink:href="#DejaVuSans-97"/>
     <use x="219.474609" xlink:href="#DejaVuSans-109"/>
     <use x="316.886719" xlink:href="#DejaVuSans-101"/>
     <use x="378.410156" xlink:href="#DejaVuSans-116"/>
     <use x="417.619141" xlink:href="#DejaVuSans-114"/>
     <use x="458.732422" xlink:href="#DejaVuSans-105"/>
     <use x="486.515625" xlink:href="#DejaVuSans-99"/>
     <use x="541.496094" xlink:href="#DejaVuSans-32"/>
     <use x="573.283203" xlink:href="#DejaVuSans-70"/>
     <use x="623.552734" xlink:href="#DejaVuSans-105"/>
     <use x="651.335938" xlink:href="#DejaVuSans-116"/>
     <use x="690.544922" xlink:href="#DejaVuSans-116"/>
     <use x="729.753906" xlink:href="#DejaVuSans-105"/>
     <use x="757.537109" xlink:href="#DejaVuSans-110"/>
     <use x="820.916016" xlink:href="#DejaVuSans-103"/>
    </g>
   </g>
   <g id="legend_1">
    <g id="patch_7">
     <path d="M 40.2875 80.55625 
L 112.721875 80.55625 
Q 114.721875 80.55625 114.721875 78.55625 
L 114.721875 50.2 
Q 114.721875 48.2 112.721875 48.2 
L 40.2875 48.2 
Q 38.2875 48.2 38.2875 50.2 
L 38.2875 78.55625 
Q 38.2875 80.55625 40.2875 80.55625 
z
" style="fill:#ffffff;opacity:0.8;stroke:#cccccc;stroke-linejoin:miter;"/>
    </g>
    <g id="line2d_54"/>
    <g id="line2d_55">
     <g>
      <use style="stroke:#000000;" x="52.2875" xlink:href="#m153fc99bc9" y="56.298437"/>
     </g>
    </g>
    <g id="text_15">
     <!-- model -->
     <defs>
      <path d="M 30.609375 48.390625 
Q 23.390625 48.390625 19.1875 42.75 
Q 14.984375 37.109375 14.984375 27.296875 
Q 14.984375 17.484375 19.15625 11.84375 
Q 23.34375 6.203125 30.609375 6.203125 
Q 37.796875 6.203125 41.984375 11.859375 
Q 46.1875 17.53125 46.1875 27.296875 
Q 46.1875 37.015625 41.984375 42.703125 
Q 37.796875 48.390625 30.609375 48.390625 
z
M 30.609375 56 
Q 42.328125 56 49.015625 48.375 
Q 55.71875 40.765625 55.71875 27.296875 
Q 55.71875 13.875 49.015625 6.21875 
Q 42.328125 -1.421875 30.609375 -1.421875 
Q 18.84375 -1.421875 12.171875 6.21875 
Q 5.515625 13.875 5.515625 27.296875 
Q 5.515625 40.765625 12.171875 48.375 
Q 18.84375 56 30.609375 56 
z
" id="DejaVuSans-111"/>
      <path d="M 45.40625 46.390625 
L 45.40625 75.984375 
L 54.390625 75.984375 
L 54.390625 0 
L 45.40625 0 
L 45.40625 8.203125 
Q 42.578125 3.328125 38.25 0.953125 
Q 33.9375 -1.421875 27.875 -1.421875 
Q 17.96875 -1.421875 11.734375 6.484375 
Q 5.515625 14.40625 5.515625 27.296875 
Q 5.515625 40.1875 11.734375 48.09375 
Q 17.96875 56 27.875 56 
Q 33.9375 56 38.25 53.625 
Q 42.578125 51.265625 45.40625 46.390625 
z
M 14.796875 27.296875 
Q 14.796875 17.390625 18.875 11.75 
Q 22.953125 6.109375 30.078125 6.109375 
Q 37.203125 6.109375 41.296875 11.75 
Q 45.40625 17.390625 45.40625 27.296875 
Q 45.40625 37.203125 41.296875 42.84375 
Q 37.203125 48.484375 30.078125 48.484375 
Q 22.953125 48.484375 18.875 42.84375 
Q 14.796875 37.203125 14.796875 27.296875 
z
" id="DejaVuSans-100"/>
      <path d="M 9.421875 75.984375 
L 18.40625 75.984375 
L 18.40625 0 
L 9.421875 0 
z
" id="DejaVuSans-108"/>
     </defs>
     <g transform="translate(70.2875 59.798437)scale(0.1 -0.1)">
      <use xlink:href="#DejaVuSans-109"/>
      <use x="97.412109" xlink:href="#DejaVuSans-111"/>
      <use x="158.59375" xlink:href="#DejaVuSans-100"/>
      <use x="222.070312" xlink:href="#DejaVuSans-101"/>
      <use x="283.59375" xlink:href="#DejaVuSans-108"/>
     </g>
    </g>
    <g id="line2d_56">
     <path d="M 42.2875 70.976562 
L 62.2875 70.976562 
" style="fill:none;stroke:#008000;stroke-linecap:square;stroke-width:1.5;"/>
    </g>
    <g id="line2d_57"/>
    <g id="text_16">
     <!-- forecast -->
     <defs>
      <path d="M 37.109375 75.984375 
L 37.109375 68.5 
L 28.515625 68.5 
Q 23.6875 68.5 21.796875 66.546875 
Q 19.921875 64.59375 19.921875 59.515625 
L 19.921875 54.6875 
L 34.71875 54.6875 
L 34.71875 47.703125 
L 19.921875 47.703125 
L 19.921875 0 
L 10.890625 0 
L 10.890625 47.703125 
L 2.296875 47.703125 
L 2.296875 54.6875 
L 10.890625 54.6875 
L 10.890625 58.5 
Q 10.890625 67.625 15.140625 71.796875 
Q 19.390625 75.984375 28.609375 75.984375 
z
" id="DejaVuSans-102"/>
      <path d="M 44.28125 53.078125 
L 44.28125 44.578125 
Q 40.484375 46.53125 36.375 47.5 
Q 32.28125 48.484375 27.875 48.484375 
Q 21.1875 48.484375 17.84375 46.4375 
Q 14.5 44.390625 14.5 40.28125 
Q 14.5 37.15625 16.890625 35.375 
Q 19.28125 33.59375 26.515625 31.984375 
L 29.59375 31.296875 
Q 39.15625 29.25 43.1875 25.515625 
Q 47.21875 21.78125 47.21875 15.09375 
Q 47.21875 7.46875 41.1875 3.015625 
Q 35.15625 -1.421875 24.609375 -1.421875 
Q 20.21875 -1.421875 15.453125 -0.5625 
Q 10.6875 0.296875 5.421875 2 
L 5.421875 11.28125 
Q 10.40625 8.6875 15.234375 7.390625 
Q 20.0625 6.109375 24.8125 6.109375 
Q 31.15625 6.109375 34.5625 8.28125 
Q 37.984375 10.453125 37.984375 14.40625 
Q 37.984375 18.0625 35.515625 20.015625 
Q 33.0625 21.96875 24.703125 23.78125 
L 21.578125 24.515625 
Q 13.234375 26.265625 9.515625 29.90625 
Q 5.8125 33.546875 5.8125 39.890625 
Q 5.8125 47.609375 11.28125 51.796875 
Q 16.75 56 26.8125 56 
Q 31.78125 56 36.171875 55.265625 
Q 40.578125 54.546875 44.28125 53.078125 
z
" id="DejaVuSans-115"/>
     </defs>
     <g transform="translate(70.2875 74.476562)scale(0.1 -0.1)">
      <use xlink:href="#DejaVuSans-102"/>
      <use x="35.205078" xlink:href="#DejaVuSans-111"/>
      <use x="96.386719" xlink:href="#DejaVuSans-114"/>
      <use x="135.25" xlink:href="#DejaVuSans-101"/>
      <use x="196.773438" xlink:href="#DejaVuSans-99"/>
      <use x="251.753906" xlink:href="#DejaVuSans-97"/>
      <use x="313.033203" xlink:href="#DejaVuSans-115"/>
      <use x="365.132812" xlink:href="#DejaVuSans-116"/>
     </g>
    </g>
   </g>
  </g>
  <g id="axes_2">
   <g id="patch_8">
    <path d="M 489.832955 315 
L 870.2875 315 
L 870.2875 43.2 
L 489.832955 43.2 
z
" style="fill:#ffffff;"/>
   </g>
   <g id="PolyCollection_2">
    <defs>
     <path d="M 686.619788 -316.916257 
L 686.619788 -69.826108 
L 693.17935 -69.826267 
L 699.738911 -69.826393 
L 706.298472 -69.826492 
L 712.858033 -69.826571 
L 719.417594 -69.826633 
L 725.977155 -69.826683 
L 732.536716 -69.826722 
L 739.096277 -69.826752 
L 745.655839 -69.826777 
L 752.2154 -69.826796 
L 758.774961 -69.826811 
L 765.334522 -69.826823 
L 771.894083 -69.826833 
L 778.453644 -69.82684 
L 785.013205 -69.826846 
L 791.572766 -69.826851 
L 798.132328 -69.826855 
L 804.691889 -69.826858 
L 811.25145 -69.82686 
L 817.811011 -69.826862 
L 824.370572 -69.826863 
L 830.930133 -69.826865 
L 837.489694 -69.826866 
L 844.049255 -69.826866 
L 850.608817 -69.826867 
L 857.168378 -69.826867 
L 863.727939 -69.826868 
L 870.2875 -69.826868 
L 870.2875 -316.917017 
L 870.2875 -316.917017 
L 863.727939 -316.917017 
L 857.168378 -316.917016 
L 850.608817 -316.917016 
L 844.049255 -316.917015 
L 837.489694 -316.917015 
L 830.930133 -316.917014 
L 824.370572 -316.917013 
L 817.811011 -316.917011 
L 811.25145 -316.917009 
L 804.691889 -316.917007 
L 798.132328 -316.917004 
L 791.572766 -316.917 
L 785.013205 -316.916996 
L 778.453644 -316.91699 
L 771.894083 -316.916982 
L 765.334522 -316.916972 
L 758.774961 -316.91696 
L 752.2154 -316.916945 
L 745.655839 -316.916926 
L 739.096277 -316.916901 
L 732.536716 -316.916871 
L 725.977155 -316.916832 
L 719.417594 -316.916782 
L 712.858033 -316.91672 
L 706.298472 -316.916641 
L 699.738911 -316.916542 
L 693.17935 -316.916416 
L 686.619788 -316.916257 
z
" id="m7cfe9bc28f" style="stroke:#0000ff;stroke-opacity:0.3;"/>
    </defs>
    <g clip-path="url(#p6ac00ae06b)">
     <use style="fill:#0000ff;fill-opacity:0.3;stroke:#0000ff;stroke-opacity:0.3;" x="0" xlink:href="#m7cfe9bc28f" y="372.471562"/>
    </g>
   </g>
   <g id="matplotlib.axis_3">
    <g id="xtick_28">
     <g id="line2d_58">
      <path clip-path="url(#p6ac00ae06b)" d="M 489.832955 315 
L 489.832955 43.2 
" style="fill:none;stroke:#b0b0b0;stroke-linecap:square;stroke-width:0.8;"/>
     </g>
     <g id="line2d_59">
      <g>
       <use style="stroke:#000000;stroke-width:0.8;" x="489.832955" xlink:href="#m959da24f38" y="315"/>
      </g>
     </g>
    </g>
    <g id="xtick_29">
     <g id="line2d_60">
      <path clip-path="url(#p6ac00ae06b)" d="M 555.428566 315 
L 555.428566 43.2 
" style="fill:none;stroke:#b0b0b0;stroke-linecap:square;stroke-width:0.8;"/>
     </g>
     <g id="line2d_61">
      <g>
       <use style="stroke:#000000;stroke-width:0.8;" x="555.428566" xlink:href="#m959da24f38" y="315"/>
      </g>
     </g>
     <g id="text_17">
      <!--  -->
      <g transform="translate(555.428566 329.598437)scale(0.1 -0.1)"/>
      <!--  -->
      <g transform="translate(555.428566 340.79625)scale(0.1 -0.1)"/>
      <!-- May -->
      <g transform="translate(545.091066 351.994062)scale(0.1 -0.1)">
       <use xlink:href="#DejaVuSans-77"/>
       <use x="86.279297" xlink:href="#DejaVuSans-97"/>
       <use x="147.558594" xlink:href="#DejaVuSans-121"/>
      </g>
      <!-- 2020 -->
      <g transform="translate(542.703566 363.191875)scale(0.1 -0.1)">
       <use xlink:href="#DejaVuSans-50"/>
       <use x="63.623047" xlink:href="#DejaVuSans-48"/>
       <use x="127.246094" xlink:href="#DejaVuSans-50"/>
       <use x="190.869141" xlink:href="#DejaVuSans-48"/>
      </g>
     </g>
    </g>
    <g id="xtick_30">
     <g id="line2d_62">
      <path clip-path="url(#p6ac00ae06b)" d="M 758.774961 315 
L 758.774961 43.2 
" style="fill:none;stroke:#b0b0b0;stroke-linecap:square;stroke-width:0.8;"/>
     </g>
     <g id="line2d_63">
      <g>
       <use style="stroke:#000000;stroke-width:0.8;" x="758.774961" xlink:href="#m959da24f38" y="315"/>
      </g>
     </g>
     <g id="text_18">
      <!--  -->
      <g transform="translate(758.774961 329.598437)scale(0.1 -0.1)"/>
      <!--  -->
      <g transform="translate(758.774961 340.79625)scale(0.1 -0.1)"/>
      <!-- Jun -->
      <g transform="translate(750.962461 351.994062)scale(0.1 -0.1)">
       <use xlink:href="#DejaVuSans-74"/>
       <use x="29.492188" xlink:href="#DejaVuSans-117"/>
       <use x="92.871094" xlink:href="#DejaVuSans-110"/>
      </g>
     </g>
    </g>
    <g id="xtick_31">
     <g id="line2d_64">
      <path clip-path="url(#p6ac00ae06b)" d="M 870.2875 315 
L 870.2875 43.2 
" style="fill:none;stroke:#b0b0b0;stroke-linecap:square;stroke-width:0.8;"/>
     </g>
     <g id="line2d_65">
      <g>
       <use style="stroke:#000000;stroke-width:0.8;" x="870.2875" xlink:href="#m959da24f38" y="315"/>
      </g>
     </g>
    </g>
    <g id="xtick_32">
     <g id="line2d_66">
      <g>
       <use style="stroke:#000000;stroke-width:0.6;" x="496.392516" xlink:href="#me96b3501a0" y="315"/>
      </g>
     </g>
    </g>
    <g id="xtick_33">
     <g id="line2d_67">
      <g>
       <use style="stroke:#000000;stroke-width:0.6;" x="502.952077" xlink:href="#me96b3501a0" y="315"/>
      </g>
     </g>
    </g>
    <g id="xtick_34">
     <g id="line2d_68">
      <g>
       <use style="stroke:#000000;stroke-width:0.6;" x="509.511638" xlink:href="#me96b3501a0" y="315"/>
      </g>
     </g>
    </g>
    <g id="xtick_35">
     <g id="line2d_69">
      <g>
       <use style="stroke:#000000;stroke-width:0.6;" x="516.071199" xlink:href="#me96b3501a0" y="315"/>
      </g>
     </g>
    </g>
    <g id="xtick_36">
     <g id="line2d_70">
      <g>
       <use style="stroke:#000000;stroke-width:0.6;" x="522.63076" xlink:href="#me96b3501a0" y="315"/>
      </g>
     </g>
    </g>
    <g id="xtick_37">
     <g id="line2d_71">
      <g>
       <use style="stroke:#000000;stroke-width:0.6;" x="529.190321" xlink:href="#me96b3501a0" y="315"/>
      </g>
     </g>
     <g id="text_19">
      <!-- 27 -->
      <defs>
       <path d="M 8.203125 72.90625 
L 55.078125 72.90625 
L 55.078125 68.703125 
L 28.609375 0 
L 18.3125 0 
L 43.21875 64.59375 
L 8.203125 64.59375 
z
" id="DejaVuSans-55"/>
      </defs>
      <g transform="translate(522.827821 327.998437)scale(0.1 -0.1)">
       <use xlink:href="#DejaVuSans-50"/>
       <use x="63.623047" xlink:href="#DejaVuSans-55"/>
      </g>
     </g>
    </g>
    <g id="xtick_38">
     <g id="line2d_72">
      <g>
       <use style="stroke:#000000;stroke-width:0.6;" x="535.749882" xlink:href="#me96b3501a0" y="315"/>
      </g>
     </g>
    </g>
    <g id="xtick_39">
     <g id="line2d_73">
      <g>
       <use style="stroke:#000000;stroke-width:0.6;" x="542.309444" xlink:href="#me96b3501a0" y="315"/>
      </g>
     </g>
    </g>
    <g id="xtick_40">
     <g id="line2d_74">
      <g>
       <use style="stroke:#000000;stroke-width:0.6;" x="548.869005" xlink:href="#me96b3501a0" y="315"/>
      </g>
     </g>
    </g>
    <g id="xtick_41">
     <g id="line2d_75">
      <g>
       <use style="stroke:#000000;stroke-width:0.6;" x="561.988127" xlink:href="#me96b3501a0" y="315"/>
      </g>
     </g>
    </g>
    <g id="xtick_42">
     <g id="line2d_76">
      <g>
       <use style="stroke:#000000;stroke-width:0.6;" x="568.547688" xlink:href="#me96b3501a0" y="315"/>
      </g>
     </g>
    </g>
    <g id="xtick_43">
     <g id="line2d_77">
      <g>
       <use style="stroke:#000000;stroke-width:0.6;" x="575.107249" xlink:href="#me96b3501a0" y="315"/>
      </g>
     </g>
     <g id="text_20">
      <!-- 04 -->
      <g transform="translate(568.744749 327.998437)scale(0.1 -0.1)">
       <use xlink:href="#DejaVuSans-48"/>
       <use x="63.623047" xlink:href="#DejaVuSans-52"/>
      </g>
     </g>
    </g>
    <g id="xtick_44">
     <g id="line2d_78">
      <g>
       <use style="stroke:#000000;stroke-width:0.6;" x="581.66681" xlink:href="#me96b3501a0" y="315"/>
      </g>
     </g>
    </g>
    <g id="xtick_45">
     <g id="line2d_79">
      <g>
       <use style="stroke:#000000;stroke-width:0.6;" x="588.226371" xlink:href="#me96b3501a0" y="315"/>
      </g>
     </g>
    </g>
    <g id="xtick_46">
     <g id="line2d_80">
      <g>
       <use style="stroke:#000000;stroke-width:0.6;" x="594.785933" xlink:href="#me96b3501a0" y="315"/>
      </g>
     </g>
    </g>
    <g id="xtick_47">
     <g id="line2d_81">
      <g>
       <use style="stroke:#000000;stroke-width:0.6;" x="601.345494" xlink:href="#me96b3501a0" y="315"/>
      </g>
     </g>
    </g>
    <g id="xtick_48">
     <g id="line2d_82">
      <g>
       <use style="stroke:#000000;stroke-width:0.6;" x="607.905055" xlink:href="#me96b3501a0" y="315"/>
      </g>
     </g>
    </g>
    <g id="xtick_49">
     <g id="line2d_83">
      <g>
       <use style="stroke:#000000;stroke-width:0.6;" x="614.464616" xlink:href="#me96b3501a0" y="315"/>
      </g>
     </g>
    </g>
    <g id="xtick_50">
     <g id="line2d_84">
      <g>
       <use style="stroke:#000000;stroke-width:0.6;" x="621.024177" xlink:href="#me96b3501a0" y="315"/>
      </g>
     </g>
     <g id="text_21">
      <!-- 11 -->
      <g transform="translate(614.661677 327.998437)scale(0.1 -0.1)">
       <use xlink:href="#DejaVuSans-49"/>
       <use x="63.623047" xlink:href="#DejaVuSans-49"/>
      </g>
     </g>
    </g>
    <g id="xtick_51">
     <g id="line2d_85">
      <g>
       <use style="stroke:#000000;stroke-width:0.6;" x="627.583738" xlink:href="#me96b3501a0" y="315"/>
      </g>
     </g>
    </g>
    <g id="xtick_52">
     <g id="line2d_86">
      <g>
       <use style="stroke:#000000;stroke-width:0.6;" x="634.143299" xlink:href="#me96b3501a0" y="315"/>
      </g>
     </g>
    </g>
    <g id="xtick_53">
     <g id="line2d_87">
      <g>
       <use style="stroke:#000000;stroke-width:0.6;" x="640.702861" xlink:href="#me96b3501a0" y="315"/>
      </g>
     </g>
    </g>
    <g id="xtick_54">
     <g id="line2d_88">
      <g>
       <use style="stroke:#000000;stroke-width:0.6;" x="647.262422" xlink:href="#me96b3501a0" y="315"/>
      </g>
     </g>
    </g>
    <g id="xtick_55">
     <g id="line2d_89">
      <g>
       <use style="stroke:#000000;stroke-width:0.6;" x="653.821983" xlink:href="#me96b3501a0" y="315"/>
      </g>
     </g>
    </g>
    <g id="xtick_56">
     <g id="line2d_90">
      <g>
       <use style="stroke:#000000;stroke-width:0.6;" x="660.381544" xlink:href="#me96b3501a0" y="315"/>
      </g>
     </g>
    </g>
    <g id="xtick_57">
     <g id="line2d_91">
      <g>
       <use style="stroke:#000000;stroke-width:0.6;" x="666.941105" xlink:href="#me96b3501a0" y="315"/>
      </g>
     </g>
     <g id="text_22">
      <!-- 18 -->
      <g transform="translate(660.578605 327.998437)scale(0.1 -0.1)">
       <use xlink:href="#DejaVuSans-49"/>
       <use x="63.623047" xlink:href="#DejaVuSans-56"/>
      </g>
     </g>
    </g>
    <g id="xtick_58">
     <g id="line2d_92">
      <g>
       <use style="stroke:#000000;stroke-width:0.6;" x="673.500666" xlink:href="#me96b3501a0" y="315"/>
      </g>
     </g>
    </g>
    <g id="xtick_59">
     <g id="line2d_93">
      <g>
       <use style="stroke:#000000;stroke-width:0.6;" x="680.060227" xlink:href="#me96b3501a0" y="315"/>
      </g>
     </g>
    </g>
    <g id="xtick_60">
     <g id="line2d_94">
      <g>
       <use style="stroke:#000000;stroke-width:0.6;" x="686.619788" xlink:href="#me96b3501a0" y="315"/>
      </g>
     </g>
    </g>
    <g id="xtick_61">
     <g id="line2d_95">
      <g>
       <use style="stroke:#000000;stroke-width:0.6;" x="693.17935" xlink:href="#me96b3501a0" y="315"/>
      </g>
     </g>
    </g>
    <g id="xtick_62">
     <g id="line2d_96">
      <g>
       <use style="stroke:#000000;stroke-width:0.6;" x="699.738911" xlink:href="#me96b3501a0" y="315"/>
      </g>
     </g>
    </g>
    <g id="xtick_63">
     <g id="line2d_97">
      <g>
       <use style="stroke:#000000;stroke-width:0.6;" x="706.298472" xlink:href="#me96b3501a0" y="315"/>
      </g>
     </g>
    </g>
    <g id="xtick_64">
     <g id="line2d_98">
      <g>
       <use style="stroke:#000000;stroke-width:0.6;" x="712.858033" xlink:href="#me96b3501a0" y="315"/>
      </g>
     </g>
     <g id="text_23">
      <!-- 25 -->
      <defs>
       <path d="M 10.796875 72.90625 
L 49.515625 72.90625 
L 49.515625 64.59375 
L 19.828125 64.59375 
L 19.828125 46.734375 
Q 21.96875 47.46875 24.109375 47.828125 
Q 26.265625 48.1875 28.421875 48.1875 
Q 40.625 48.1875 47.75 41.5 
Q 54.890625 34.8125 54.890625 23.390625 
Q 54.890625 11.625 47.5625 5.09375 
Q 40.234375 -1.421875 26.90625 -1.421875 
Q 22.3125 -1.421875 17.546875 -0.640625 
Q 12.796875 0.140625 7.71875 1.703125 
L 7.71875 11.625 
Q 12.109375 9.234375 16.796875 8.0625 
Q 21.484375 6.890625 26.703125 6.890625 
Q 35.15625 6.890625 40.078125 11.328125 
Q 45.015625 15.765625 45.015625 23.390625 
Q 45.015625 31 40.078125 35.4375 
Q 35.15625 39.890625 26.703125 39.890625 
Q 22.75 39.890625 18.8125 39.015625 
Q 14.890625 38.140625 10.796875 36.28125 
z
" id="DejaVuSans-53"/>
      </defs>
      <g transform="translate(706.495533 327.998437)scale(0.1 -0.1)">
       <use xlink:href="#DejaVuSans-50"/>
       <use x="63.623047" xlink:href="#DejaVuSans-53"/>
      </g>
     </g>
    </g>
    <g id="xtick_65">
     <g id="line2d_99">
      <g>
       <use style="stroke:#000000;stroke-width:0.6;" x="719.417594" xlink:href="#me96b3501a0" y="315"/>
      </g>
     </g>
    </g>
    <g id="xtick_66">
     <g id="line2d_100">
      <g>
       <use style="stroke:#000000;stroke-width:0.6;" x="725.977155" xlink:href="#me96b3501a0" y="315"/>
      </g>
     </g>
    </g>
    <g id="xtick_67">
     <g id="line2d_101">
      <g>
       <use style="stroke:#000000;stroke-width:0.6;" x="732.536716" xlink:href="#me96b3501a0" y="315"/>
      </g>
     </g>
    </g>
    <g id="xtick_68">
     <g id="line2d_102">
      <g>
       <use style="stroke:#000000;stroke-width:0.6;" x="739.096277" xlink:href="#me96b3501a0" y="315"/>
      </g>
     </g>
    </g>
    <g id="xtick_69">
     <g id="line2d_103">
      <g>
       <use style="stroke:#000000;stroke-width:0.6;" x="745.655839" xlink:href="#me96b3501a0" y="315"/>
      </g>
     </g>
    </g>
    <g id="xtick_70">
     <g id="line2d_104">
      <g>
       <use style="stroke:#000000;stroke-width:0.6;" x="752.2154" xlink:href="#me96b3501a0" y="315"/>
      </g>
     </g>
    </g>
    <g id="xtick_71">
     <g id="line2d_105">
      <g>
       <use style="stroke:#000000;stroke-width:0.6;" x="765.334522" xlink:href="#me96b3501a0" y="315"/>
      </g>
     </g>
    </g>
    <g id="xtick_72">
     <g id="line2d_106">
      <g>
       <use style="stroke:#000000;stroke-width:0.6;" x="771.894083" xlink:href="#me96b3501a0" y="315"/>
      </g>
     </g>
    </g>
    <g id="xtick_73">
     <g id="line2d_107">
      <g>
       <use style="stroke:#000000;stroke-width:0.6;" x="778.453644" xlink:href="#me96b3501a0" y="315"/>
      </g>
     </g>
    </g>
    <g id="xtick_74">
     <g id="line2d_108">
      <g>
       <use style="stroke:#000000;stroke-width:0.6;" x="785.013205" xlink:href="#me96b3501a0" y="315"/>
      </g>
     </g>
    </g>
    <g id="xtick_75">
     <g id="line2d_109">
      <g>
       <use style="stroke:#000000;stroke-width:0.6;" x="791.572766" xlink:href="#me96b3501a0" y="315"/>
      </g>
     </g>
    </g>
    <g id="xtick_76">
     <g id="line2d_110">
      <g>
       <use style="stroke:#000000;stroke-width:0.6;" x="798.132328" xlink:href="#me96b3501a0" y="315"/>
      </g>
     </g>
    </g>
    <g id="xtick_77">
     <g id="line2d_111">
      <g>
       <use style="stroke:#000000;stroke-width:0.6;" x="804.691889" xlink:href="#me96b3501a0" y="315"/>
      </g>
     </g>
     <g id="text_24">
      <!-- 08 -->
      <g transform="translate(798.329389 327.998437)scale(0.1 -0.1)">
       <use xlink:href="#DejaVuSans-48"/>
       <use x="63.623047" xlink:href="#DejaVuSans-56"/>
      </g>
     </g>
    </g>
    <g id="xtick_78">
     <g id="line2d_112">
      <g>
       <use style="stroke:#000000;stroke-width:0.6;" x="811.25145" xlink:href="#me96b3501a0" y="315"/>
      </g>
     </g>
    </g>
    <g id="xtick_79">
     <g id="line2d_113">
      <g>
       <use style="stroke:#000000;stroke-width:0.6;" x="817.811011" xlink:href="#me96b3501a0" y="315"/>
      </g>
     </g>
    </g>
    <g id="xtick_80">
     <g id="line2d_114">
      <g>
       <use style="stroke:#000000;stroke-width:0.6;" x="824.370572" xlink:href="#me96b3501a0" y="315"/>
      </g>
     </g>
    </g>
    <g id="xtick_81">
     <g id="line2d_115">
      <g>
       <use style="stroke:#000000;stroke-width:0.6;" x="830.930133" xlink:href="#me96b3501a0" y="315"/>
      </g>
     </g>
    </g>
    <g id="xtick_82">
     <g id="line2d_116">
      <g>
       <use style="stroke:#000000;stroke-width:0.6;" x="837.489694" xlink:href="#me96b3501a0" y="315"/>
      </g>
     </g>
    </g>
    <g id="xtick_83">
     <g id="line2d_117">
      <g>
       <use style="stroke:#000000;stroke-width:0.6;" x="844.049255" xlink:href="#me96b3501a0" y="315"/>
      </g>
     </g>
    </g>
    <g id="xtick_84">
     <g id="line2d_118">
      <g>
       <use style="stroke:#000000;stroke-width:0.6;" x="850.608817" xlink:href="#me96b3501a0" y="315"/>
      </g>
     </g>
     <g id="text_25">
      <!-- 15 -->
      <g transform="translate(844.246317 327.998437)scale(0.1 -0.1)">
       <use xlink:href="#DejaVuSans-49"/>
       <use x="63.623047" xlink:href="#DejaVuSans-53"/>
      </g>
     </g>
    </g>
    <g id="xtick_85">
     <g id="line2d_119">
      <g>
       <use style="stroke:#000000;stroke-width:0.6;" x="857.168378" xlink:href="#me96b3501a0" y="315"/>
      </g>
     </g>
    </g>
    <g id="xtick_86">
     <g id="line2d_120">
      <g>
       <use style="stroke:#000000;stroke-width:0.6;" x="863.727939" xlink:href="#me96b3501a0" y="315"/>
      </g>
     </g>
    </g>
   </g>
   <g id="matplotlib.axis_4">
    <g id="ytick_9">
     <g id="line2d_121">
      <path clip-path="url(#p6ac00ae06b)" d="M 489.832955 290.490878 
L 870.2875 290.490878 
" style="fill:none;stroke:#b0b0b0;stroke-linecap:square;stroke-width:0.8;"/>
     </g>
     <g id="line2d_122">
      <g>
       <use style="stroke:#000000;stroke-width:0.8;" x="489.832955" xlink:href="#mda1717079d" y="290.490878"/>
      </g>
     </g>
     <g id="text_26">
      <!-- 132 -->
      <defs>
       <path d="M 40.578125 39.3125 
Q 47.65625 37.796875 51.625 33 
Q 55.609375 28.21875 55.609375 21.1875 
Q 55.609375 10.40625 48.1875 4.484375 
Q 40.765625 -1.421875 27.09375 -1.421875 
Q 22.515625 -1.421875 17.65625 -0.515625 
Q 12.796875 0.390625 7.625 2.203125 
L 7.625 11.71875 
Q 11.71875 9.328125 16.59375 8.109375 
Q 21.484375 6.890625 26.8125 6.890625 
Q 36.078125 6.890625 40.9375 10.546875 
Q 45.796875 14.203125 45.796875 21.1875 
Q 45.796875 27.640625 41.28125 31.265625 
Q 36.765625 34.90625 28.71875 34.90625 
L 20.21875 34.90625 
L 20.21875 43.015625 
L 29.109375 43.015625 
Q 36.375 43.015625 40.234375 45.921875 
Q 44.09375 48.828125 44.09375 54.296875 
Q 44.09375 59.90625 40.109375 62.90625 
Q 36.140625 65.921875 28.71875 65.921875 
Q 24.65625 65.921875 20.015625 65.03125 
Q 15.375 64.15625 9.8125 62.3125 
L 9.8125 71.09375 
Q 15.4375 72.65625 20.34375 73.4375 
Q 25.25 74.21875 29.59375 74.21875 
Q 40.828125 74.21875 47.359375 69.109375 
Q 53.90625 64.015625 53.90625 55.328125 
Q 53.90625 49.265625 50.4375 45.09375 
Q 46.96875 40.921875 40.578125 39.3125 
z
" id="DejaVuSans-51"/>
      </defs>
      <g transform="translate(463.745455 294.290097)scale(0.1 -0.1)">
       <use xlink:href="#DejaVuSans-49"/>
       <use x="63.623047" xlink:href="#DejaVuSans-51"/>
       <use x="127.246094" xlink:href="#DejaVuSans-50"/>
      </g>
     </g>
    </g>
    <g id="ytick_10">
     <g id="line2d_123">
      <path clip-path="url(#p6ac00ae06b)" d="M 489.832955 254.588975 
L 870.2875 254.588975 
" style="fill:none;stroke:#b0b0b0;stroke-linecap:square;stroke-width:0.8;"/>
     </g>
     <g id="line2d_124">
      <g>
       <use style="stroke:#000000;stroke-width:0.8;" x="489.832955" xlink:href="#mda1717079d" y="254.588975"/>
      </g>
     </g>
     <g id="text_27">
      <!-- 134 -->
      <g transform="translate(463.745455 258.388194)scale(0.1 -0.1)">
       <use xlink:href="#DejaVuSans-49"/>
       <use x="63.623047" xlink:href="#DejaVuSans-51"/>
       <use x="127.246094" xlink:href="#DejaVuSans-52"/>
      </g>
     </g>
    </g>
    <g id="ytick_11">
     <g id="line2d_125">
      <path clip-path="url(#p6ac00ae06b)" d="M 489.832955 218.687072 
L 870.2875 218.687072 
" style="fill:none;stroke:#b0b0b0;stroke-linecap:square;stroke-width:0.8;"/>
     </g>
     <g id="line2d_126">
      <g>
       <use style="stroke:#000000;stroke-width:0.8;" x="489.832955" xlink:href="#mda1717079d" y="218.687072"/>
      </g>
     </g>
     <g id="text_28">
      <!-- 136 -->
      <g transform="translate(463.745455 222.48629)scale(0.1 -0.1)">
       <use xlink:href="#DejaVuSans-49"/>
       <use x="63.623047" xlink:href="#DejaVuSans-51"/>
       <use x="127.246094" xlink:href="#DejaVuSans-54"/>
      </g>
     </g>
    </g>
    <g id="ytick_12">
     <g id="line2d_127">
      <path clip-path="url(#p6ac00ae06b)" d="M 489.832955 182.785169 
L 870.2875 182.785169 
" style="fill:none;stroke:#b0b0b0;stroke-linecap:square;stroke-width:0.8;"/>
     </g>
     <g id="line2d_128">
      <g>
       <use style="stroke:#000000;stroke-width:0.8;" x="489.832955" xlink:href="#mda1717079d" y="182.785169"/>
      </g>
     </g>
     <g id="text_29">
      <!-- 138 -->
      <g transform="translate(463.745455 186.584387)scale(0.1 -0.1)">
       <use xlink:href="#DejaVuSans-49"/>
       <use x="63.623047" xlink:href="#DejaVuSans-51"/>
       <use x="127.246094" xlink:href="#DejaVuSans-56"/>
      </g>
     </g>
    </g>
    <g id="ytick_13">
     <g id="line2d_129">
      <path clip-path="url(#p6ac00ae06b)" d="M 489.832955 146.883265 
L 870.2875 146.883265 
" style="fill:none;stroke:#b0b0b0;stroke-linecap:square;stroke-width:0.8;"/>
     </g>
     <g id="line2d_130">
      <g>
       <use style="stroke:#000000;stroke-width:0.8;" x="489.832955" xlink:href="#mda1717079d" y="146.883265"/>
      </g>
     </g>
     <g id="text_30">
      <!-- 140 -->
      <g transform="translate(463.745455 150.682484)scale(0.1 -0.1)">
       <use xlink:href="#DejaVuSans-49"/>
       <use x="63.623047" xlink:href="#DejaVuSans-52"/>
       <use x="127.246094" xlink:href="#DejaVuSans-48"/>
      </g>
     </g>
    </g>
    <g id="ytick_14">
     <g id="line2d_131">
      <path clip-path="url(#p6ac00ae06b)" d="M 489.832955 110.981362 
L 870.2875 110.981362 
" style="fill:none;stroke:#b0b0b0;stroke-linecap:square;stroke-width:0.8;"/>
     </g>
     <g id="line2d_132">
      <g>
       <use style="stroke:#000000;stroke-width:0.8;" x="489.832955" xlink:href="#mda1717079d" y="110.981362"/>
      </g>
     </g>
     <g id="text_31">
      <!-- 142 -->
      <g transform="translate(463.745455 114.780581)scale(0.1 -0.1)">
       <use xlink:href="#DejaVuSans-49"/>
       <use x="63.623047" xlink:href="#DejaVuSans-52"/>
       <use x="127.246094" xlink:href="#DejaVuSans-50"/>
      </g>
     </g>
    </g>
    <g id="ytick_15">
     <g id="line2d_133">
      <path clip-path="url(#p6ac00ae06b)" d="M 489.832955 75.079459 
L 870.2875 75.079459 
" style="fill:none;stroke:#b0b0b0;stroke-linecap:square;stroke-width:0.8;"/>
     </g>
     <g id="line2d_134">
      <g>
       <use style="stroke:#000000;stroke-width:0.8;" x="489.832955" xlink:href="#mda1717079d" y="75.079459"/>
      </g>
     </g>
     <g id="text_32">
      <!-- 144 -->
      <g transform="translate(463.745455 78.878678)scale(0.1 -0.1)">
       <use xlink:href="#DejaVuSans-49"/>
       <use x="63.623047" xlink:href="#DejaVuSans-52"/>
       <use x="127.246094" xlink:href="#DejaVuSans-52"/>
      </g>
     </g>
    </g>
   </g>
   <g id="line2d_135">
    <g clip-path="url(#p6ac00ae06b)">
     <use style="stroke:#000000;" x="489.832955" xlink:href="#m153fc99bc9" y="182.785169"/>
     <use style="stroke:#000000;" x="496.392516" xlink:href="#m153fc99bc9" y="182.785169"/>
     <use style="stroke:#000000;" x="502.952077" xlink:href="#m153fc99bc9" y="182.785169"/>
     <use style="stroke:#000000;" x="509.511638" xlink:href="#m153fc99bc9" y="182.785169"/>
     <use style="stroke:#000000;" x="516.071199" xlink:href="#m153fc99bc9" y="182.785169"/>
     <use style="stroke:#000000;" x="522.63076" xlink:href="#m153fc99bc9" y="182.785169"/>
     <use style="stroke:#000000;" x="529.190321" xlink:href="#m153fc99bc9" y="182.785169"/>
     <use style="stroke:#000000;" x="535.749882" xlink:href="#m153fc99bc9" y="182.785169"/>
     <use style="stroke:#000000;" x="542.309444" xlink:href="#m153fc99bc9" y="182.785169"/>
     <use style="stroke:#000000;" x="548.869005" xlink:href="#m153fc99bc9" y="182.785169"/>
     <use style="stroke:#000000;" x="555.428566" xlink:href="#m153fc99bc9" y="182.785169"/>
     <use style="stroke:#000000;" x="561.988127" xlink:href="#m153fc99bc9" y="182.785169"/>
     <use style="stroke:#000000;" x="568.547688" xlink:href="#m153fc99bc9" y="182.785169"/>
     <use style="stroke:#000000;" x="575.107249" xlink:href="#m153fc99bc9" y="182.785169"/>
     <use style="stroke:#000000;" x="581.66681" xlink:href="#m153fc99bc9" y="182.785169"/>
     <use style="stroke:#000000;" x="588.226371" xlink:href="#m153fc99bc9" y="164.834217"/>
     <use style="stroke:#000000;" x="594.785933" xlink:href="#m153fc99bc9" y="128.932314"/>
     <use style="stroke:#000000;" x="601.345494" xlink:href="#m153fc99bc9" y="128.932314"/>
     <use style="stroke:#000000;" x="607.905055" xlink:href="#m153fc99bc9" y="128.932314"/>
     <use style="stroke:#000000;" x="614.464616" xlink:href="#m153fc99bc9" y="128.932314"/>
     <use style="stroke:#000000;" x="621.024177" xlink:href="#m153fc99bc9" y="128.932314"/>
     <use style="stroke:#000000;" x="627.583738" xlink:href="#m153fc99bc9" y="128.932314"/>
     <use style="stroke:#000000;" x="634.143299" xlink:href="#m153fc99bc9" y="128.932314"/>
     <use style="stroke:#000000;" x="640.702861" xlink:href="#m153fc99bc9" y="128.932314"/>
     <use style="stroke:#000000;" x="647.262422" xlink:href="#m153fc99bc9" y="128.932314"/>
     <use style="stroke:#000000;" x="653.821983" xlink:href="#m153fc99bc9" y="128.932314"/>
     <use style="stroke:#000000;" x="660.381544" xlink:href="#m153fc99bc9" y="128.932314"/>
     <use style="stroke:#000000;" x="666.941105" xlink:href="#m153fc99bc9" y="128.932314"/>
     <use style="stroke:#000000;" x="673.500666" xlink:href="#m153fc99bc9" y="128.932314"/>
     <use style="stroke:#000000;" x="680.060227" xlink:href="#m153fc99bc9" y="128.932314"/>
    </g>
   </g>
   <g id="line2d_136">
    <path clip-path="url(#p6ac00ae06b)" d="M 489.832955 180.189662 
L 496.392516 179.961942 
L 502.952077 179.781782 
L 509.511638 179.639253 
L 516.071199 179.526499 
L 522.63076 179.437301 
L 529.190321 179.366739 
L 535.749882 179.310921 
L 542.309444 179.266765 
L 548.869005 179.231837 
L 555.428566 179.204207 
L 561.988127 179.182351 
L 568.547688 179.165062 
L 575.107249 179.151386 
L 581.66681 179.140567 
L 588.226371 179.13201 
L 594.785933 179.125241 
L 601.345494 179.119886 
L 607.905055 179.115651 
L 614.464616 179.112301 
L 621.024177 179.10965 
L 627.583738 179.107554 
L 634.143299 179.105896 
L 640.702861 179.104584 
L 647.262422 179.103546 
L 653.821983 179.102726 
L 660.381544 179.102076 
L 666.941105 179.101563 
L 673.500666 179.101157 
L 680.060227 179.100835 
" style="fill:none;stroke:#008000;stroke-linecap:square;stroke-width:1.5;"/>
   </g>
   <g id="line2d_137">
    <path clip-path="url(#p6ac00ae06b)" d="M 686.619788 179.10038 
L 693.17935 179.100221 
L 699.738911 179.100095 
L 706.298472 179.099996 
L 712.858033 179.099917 
L 719.417594 179.099855 
L 725.977155 179.099805 
L 732.536716 179.099766 
L 739.096277 179.099736 
L 745.655839 179.099711 
L 752.2154 179.099692 
L 758.774961 179.099677 
L 765.334522 179.099665 
L 771.894083 179.099655 
L 778.453644 179.099648 
L 785.013205 179.099642 
L 791.572766 179.099637 
L 798.132328 179.099633 
L 804.691889 179.09963 
L 811.25145 179.099628 
L 817.811011 179.099626 
L 824.370572 179.099624 
L 830.930133 179.099623 
L 837.489694 179.099622 
L 844.049255 179.099622 
L 850.608817 179.099621 
L 857.168378 179.099621 
L 863.727939 179.09962 
L 870.2875 179.09962 
" style="fill:none;stroke:#ff0000;stroke-linecap:square;stroke-width:1.5;"/>
   </g>
   <g id="patch_9">
    <path d="M 489.832955 315 
L 489.832955 43.2 
" style="fill:none;stroke:#000000;stroke-linecap:square;stroke-linejoin:miter;stroke-width:0.8;"/>
   </g>
   <g id="patch_10">
    <path d="M 870.2875 315 
L 870.2875 43.2 
" style="fill:none;stroke:#000000;stroke-linecap:square;stroke-linejoin:miter;stroke-width:0.8;"/>
   </g>
   <g id="patch_11">
    <path d="M 489.832955 315 
L 870.2875 315 
" style="fill:none;stroke:#000000;stroke-linecap:square;stroke-linejoin:miter;stroke-width:0.8;"/>
   </g>
   <g id="patch_12">
    <path d="M 489.832955 43.2 
L 870.2875 43.2 
" style="fill:none;stroke:#000000;stroke-linecap:square;stroke-linejoin:miter;stroke-width:0.8;"/>
   </g>
   <g id="text_33">
    <!-- Zoom on the last 30 observations -->
    <defs>
     <path d="M 5.609375 72.90625 
L 62.890625 72.90625 
L 62.890625 65.375 
L 16.796875 8.296875 
L 64.015625 8.296875 
L 64.015625 0 
L 4.5 0 
L 4.5 7.515625 
L 50.59375 64.59375 
L 5.609375 64.59375 
z
" id="DejaVuSans-90"/>
     <path d="M 54.890625 33.015625 
L 54.890625 0 
L 45.90625 0 
L 45.90625 32.71875 
Q 45.90625 40.484375 42.875 44.328125 
Q 39.84375 48.1875 33.796875 48.1875 
Q 26.515625 48.1875 22.3125 43.546875 
Q 18.109375 38.921875 18.109375 30.90625 
L 18.109375 0 
L 9.078125 0 
L 9.078125 75.984375 
L 18.109375 75.984375 
L 18.109375 46.1875 
Q 21.34375 51.125 25.703125 53.5625 
Q 30.078125 56 35.796875 56 
Q 45.21875 56 50.046875 50.171875 
Q 54.890625 44.34375 54.890625 33.015625 
z
" id="DejaVuSans-104"/>
     <path d="M 2.984375 54.6875 
L 12.5 54.6875 
L 29.59375 8.796875 
L 46.6875 54.6875 
L 56.203125 54.6875 
L 35.6875 0 
L 23.484375 0 
z
" id="DejaVuSans-118"/>
    </defs>
    <g transform="translate(578.841165 37.2)scale(0.12 -0.12)">
     <use xlink:href="#DejaVuSans-90"/>
     <use x="68.505859" xlink:href="#DejaVuSans-111"/>
     <use x="129.6875" xlink:href="#DejaVuSans-111"/>
     <use x="190.869141" xlink:href="#DejaVuSans-109"/>
     <use x="288.28125" xlink:href="#DejaVuSans-32"/>
     <use x="320.068359" xlink:href="#DejaVuSans-111"/>
     <use x="381.25" xlink:href="#DejaVuSans-110"/>
     <use x="444.628906" xlink:href="#DejaVuSans-32"/>
     <use x="476.416016" xlink:href="#DejaVuSans-116"/>
     <use x="515.625" xlink:href="#DejaVuSans-104"/>
     <use x="579.003906" xlink:href="#DejaVuSans-101"/>
     <use x="640.527344" xlink:href="#DejaVuSans-32"/>
     <use x="672.314453" xlink:href="#DejaVuSans-108"/>
     <use x="700.097656" xlink:href="#DejaVuSans-97"/>
     <use x="761.376953" xlink:href="#DejaVuSans-115"/>
     <use x="813.476562" xlink:href="#DejaVuSans-116"/>
     <use x="852.685547" xlink:href="#DejaVuSans-32"/>
     <use x="884.472656" xlink:href="#DejaVuSans-51"/>
     <use x="948.095703" xlink:href="#DejaVuSans-48"/>
     <use x="1011.71875" xlink:href="#DejaVuSans-32"/>
     <use x="1043.505859" xlink:href="#DejaVuSans-111"/>
     <use x="1104.6875" xlink:href="#DejaVuSans-98"/>
     <use x="1168.164062" xlink:href="#DejaVuSans-115"/>
     <use x="1220.263672" xlink:href="#DejaVuSans-101"/>
     <use x="1281.787109" xlink:href="#DejaVuSans-114"/>
     <use x="1322.900391" xlink:href="#DejaVuSans-118"/>
     <use x="1382.080078" xlink:href="#DejaVuSans-97"/>
     <use x="1443.359375" xlink:href="#DejaVuSans-116"/>
     <use x="1482.568359" xlink:href="#DejaVuSans-105"/>
     <use x="1510.351562" xlink:href="#DejaVuSans-111"/>
     <use x="1571.533203" xlink:href="#DejaVuSans-110"/>
     <use x="1634.912109" xlink:href="#DejaVuSans-115"/>
    </g>
   </g>
  </g>
  <g id="text_34">
   <!-- Brunei's COVID-19 Outbreak Forecasting to Date -->
   <defs>
    <path d="M 19.671875 34.8125 
L 19.671875 8.109375 
L 35.5 8.109375 
Q 43.453125 8.109375 47.28125 11.40625 
Q 51.125 14.703125 51.125 21.484375 
Q 51.125 28.328125 47.28125 31.5625 
Q 43.453125 34.8125 35.5 34.8125 
z
M 19.671875 64.796875 
L 19.671875 42.828125 
L 34.28125 42.828125 
Q 41.5 42.828125 45.03125 45.53125 
Q 48.578125 48.25 48.578125 53.8125 
Q 48.578125 59.328125 45.03125 62.0625 
Q 41.5 64.796875 34.28125 64.796875 
z
M 9.8125 72.90625 
L 35.015625 72.90625 
Q 46.296875 72.90625 52.390625 68.21875 
Q 58.5 63.53125 58.5 54.890625 
Q 58.5 48.1875 55.375 44.234375 
Q 52.25 40.28125 46.1875 39.3125 
Q 53.46875 37.75 57.5 32.78125 
Q 61.53125 27.828125 61.53125 20.40625 
Q 61.53125 10.640625 54.890625 5.3125 
Q 48.25 0 35.984375 0 
L 9.8125 0 
z
" id="DejaVuSans-66"/>
    <path d="M 17.921875 72.90625 
L 17.921875 45.796875 
L 9.625 45.796875 
L 9.625 72.90625 
z
" id="DejaVuSans-39"/>
    <path d="M 64.40625 67.28125 
L 64.40625 56.890625 
Q 59.421875 61.53125 53.78125 63.8125 
Q 48.140625 66.109375 41.796875 66.109375 
Q 29.296875 66.109375 22.65625 58.46875 
Q 16.015625 50.828125 16.015625 36.375 
Q 16.015625 21.96875 22.65625 14.328125 
Q 29.296875 6.6875 41.796875 6.6875 
Q 48.140625 6.6875 53.78125 8.984375 
Q 59.421875 11.28125 64.40625 15.921875 
L 64.40625 5.609375 
Q 59.234375 2.09375 53.4375 0.328125 
Q 47.65625 -1.421875 41.21875 -1.421875 
Q 24.65625 -1.421875 15.125 8.703125 
Q 5.609375 18.84375 5.609375 36.375 
Q 5.609375 53.953125 15.125 64.078125 
Q 24.65625 74.21875 41.21875 74.21875 
Q 47.75 74.21875 53.53125 72.484375 
Q 59.328125 70.75 64.40625 67.28125 
z
" id="DejaVuSans-67"/>
    <path d="M 39.40625 66.21875 
Q 28.65625 66.21875 22.328125 58.203125 
Q 16.015625 50.203125 16.015625 36.375 
Q 16.015625 22.609375 22.328125 14.59375 
Q 28.65625 6.59375 39.40625 6.59375 
Q 50.140625 6.59375 56.421875 14.59375 
Q 62.703125 22.609375 62.703125 36.375 
Q 62.703125 50.203125 56.421875 58.203125 
Q 50.140625 66.21875 39.40625 66.21875 
z
M 39.40625 74.21875 
Q 54.734375 74.21875 63.90625 63.9375 
Q 73.09375 53.65625 73.09375 36.375 
Q 73.09375 19.140625 63.90625 8.859375 
Q 54.734375 -1.421875 39.40625 -1.421875 
Q 24.03125 -1.421875 14.8125 8.828125 
Q 5.609375 19.09375 5.609375 36.375 
Q 5.609375 53.65625 14.8125 63.9375 
Q 24.03125 74.21875 39.40625 74.21875 
z
" id="DejaVuSans-79"/>
    <path d="M 28.609375 0 
L 0.78125 72.90625 
L 11.078125 72.90625 
L 34.1875 11.53125 
L 57.328125 72.90625 
L 67.578125 72.90625 
L 39.796875 0 
z
" id="DejaVuSans-86"/>
    <path d="M 9.8125 72.90625 
L 19.671875 72.90625 
L 19.671875 0 
L 9.8125 0 
z
" id="DejaVuSans-73"/>
    <path d="M 19.671875 64.796875 
L 19.671875 8.109375 
L 31.59375 8.109375 
Q 46.6875 8.109375 53.6875 14.9375 
Q 60.6875 21.78125 60.6875 36.53125 
Q 60.6875 51.171875 53.6875 57.984375 
Q 46.6875 64.796875 31.59375 64.796875 
z
M 9.8125 72.90625 
L 30.078125 72.90625 
Q 51.265625 72.90625 61.171875 64.09375 
Q 71.09375 55.28125 71.09375 36.53125 
Q 71.09375 17.671875 61.125 8.828125 
Q 51.171875 0 30.078125 0 
L 9.8125 0 
z
" id="DejaVuSans-68"/>
    <path d="M 4.890625 31.390625 
L 31.203125 31.390625 
L 31.203125 23.390625 
L 4.890625 23.390625 
z
" id="DejaVuSans-45"/>
    <path d="M 10.984375 1.515625 
L 10.984375 10.5 
Q 14.703125 8.734375 18.5 7.8125 
Q 22.3125 6.890625 25.984375 6.890625 
Q 35.75 6.890625 40.890625 13.453125 
Q 46.046875 20.015625 46.78125 33.40625 
Q 43.953125 29.203125 39.59375 26.953125 
Q 35.25 24.703125 29.984375 24.703125 
Q 19.046875 24.703125 12.671875 31.3125 
Q 6.296875 37.9375 6.296875 49.421875 
Q 6.296875 60.640625 12.9375 67.421875 
Q 19.578125 74.21875 30.609375 74.21875 
Q 43.265625 74.21875 49.921875 64.515625 
Q 56.59375 54.828125 56.59375 36.375 
Q 56.59375 19.140625 48.40625 8.859375 
Q 40.234375 -1.421875 26.421875 -1.421875 
Q 22.703125 -1.421875 18.890625 -0.6875 
Q 15.09375 0.046875 10.984375 1.515625 
z
M 30.609375 32.421875 
Q 37.25 32.421875 41.125 36.953125 
Q 45.015625 41.5 45.015625 49.421875 
Q 45.015625 57.28125 41.125 61.84375 
Q 37.25 66.40625 30.609375 66.40625 
Q 23.96875 66.40625 20.09375 61.84375 
Q 16.21875 57.28125 16.21875 49.421875 
Q 16.21875 41.5 20.09375 36.953125 
Q 23.96875 32.421875 30.609375 32.421875 
z
" id="DejaVuSans-57"/>
    <path d="M 9.078125 75.984375 
L 18.109375 75.984375 
L 18.109375 31.109375 
L 44.921875 54.6875 
L 56.390625 54.6875 
L 27.390625 29.109375 
L 57.625 0 
L 45.90625 0 
L 18.109375 26.703125 
L 18.109375 0 
L 9.078125 0 
z
" id="DejaVuSans-107"/>
   </defs>
   <g transform="translate(292.443438 16.318125)scale(0.12 -0.12)">
    <use xlink:href="#DejaVuSans-66"/>
    <use x="68.603516" xlink:href="#DejaVuSans-114"/>
    <use x="109.716797" xlink:href="#DejaVuSans-117"/>
    <use x="173.095703" xlink:href="#DejaVuSans-110"/>
    <use x="236.474609" xlink:href="#DejaVuSans-101"/>
    <use x="297.998047" xlink:href="#DejaVuSans-105"/>
    <use x="325.78125" xlink:href="#DejaVuSans-39"/>
    <use x="353.271484" xlink:href="#DejaVuSans-115"/>
    <use x="405.371094" xlink:href="#DejaVuSans-32"/>
    <use x="437.158203" xlink:href="#DejaVuSans-67"/>
    <use x="506.982422" xlink:href="#DejaVuSans-79"/>
    <use x="583.943359" xlink:href="#DejaVuSans-86"/>
    <use x="652.351562" xlink:href="#DejaVuSans-73"/>
    <use x="681.84375" xlink:href="#DejaVuSans-68"/>
    <use x="758.845703" xlink:href="#DejaVuSans-45"/>
    <use x="794.929688" xlink:href="#DejaVuSans-49"/>
    <use x="858.552734" xlink:href="#DejaVuSans-57"/>
    <use x="922.175781" xlink:href="#DejaVuSans-32"/>
    <use x="953.962891" xlink:href="#DejaVuSans-79"/>
    <use x="1032.673828" xlink:href="#DejaVuSans-117"/>
    <use x="1096.052734" xlink:href="#DejaVuSans-116"/>
    <use x="1135.261719" xlink:href="#DejaVuSans-98"/>
    <use x="1198.738281" xlink:href="#DejaVuSans-114"/>
    <use x="1237.601562" xlink:href="#DejaVuSans-101"/>
    <use x="1299.125" xlink:href="#DejaVuSans-97"/>
    <use x="1360.404297" xlink:href="#DejaVuSans-107"/>
    <use x="1418.314453" xlink:href="#DejaVuSans-32"/>
    <use x="1450.101562" xlink:href="#DejaVuSans-70"/>
    <use x="1503.996094" xlink:href="#DejaVuSans-111"/>
    <use x="1565.177734" xlink:href="#DejaVuSans-114"/>
    <use x="1604.041016" xlink:href="#DejaVuSans-101"/>
    <use x="1665.564453" xlink:href="#DejaVuSans-99"/>
    <use x="1720.544922" xlink:href="#DejaVuSans-97"/>
    <use x="1781.824219" xlink:href="#DejaVuSans-115"/>
    <use x="1833.923828" xlink:href="#DejaVuSans-116"/>
    <use x="1873.132812" xlink:href="#DejaVuSans-105"/>
    <use x="1900.916016" xlink:href="#DejaVuSans-110"/>
    <use x="1964.294922" xlink:href="#DejaVuSans-103"/>
    <use x="2027.771484" xlink:href="#DejaVuSans-32"/>
    <use x="2059.558594" xlink:href="#DejaVuSans-116"/>
    <use x="2098.767578" xlink:href="#DejaVuSans-111"/>
    <use x="2159.949219" xlink:href="#DejaVuSans-32"/>
    <use x="2191.736328" xlink:href="#DejaVuSans-68"/>
    <use x="2268.738281" xlink:href="#DejaVuSans-97"/>
    <use x="2330.017578" xlink:href="#DejaVuSans-116"/>
    <use x="2369.226562" xlink:href="#DejaVuSans-101"/>
   </g>
  </g>
 </g>
 <defs>
  <clipPath id="p770cda70be">
   <rect height="271.8" width="380.454545" x="33.2875" y="43.2"/>
  </clipPath>
  <clipPath id="p6ac00ae06b">
   <rect height="271.8" width="380.454545" x="489.832955" y="43.2"/>
  </clipPath>
 </defs>
</svg>
