<?xml version="1.0" encoding="utf-8" standalone="no"?>
<!DOCTYPE svg PUBLIC "-//W3C//DTD SVG 1.1//EN"
  "http://www.w3.org/Graphics/SVG/1.1/DTD/svg11.dtd">
<!-- Created with matplotlib (https://matplotlib.org/) -->
<svg height="372.471562pt" version="1.1" viewBox="0 0 883.85 372.471562" width="883.85pt" xmlns="http://www.w3.org/2000/svg" xmlns:xlink="http://www.w3.org/1999/xlink">
 <defs>
  <style type="text/css">
*{stroke-linecap:butt;stroke-linejoin:round;}
  </style>
 </defs>
 <g id="figure_1">
  <g id="patch_1">
   <path d="M -0 372.471562 
L 883.85 372.471562 
L 883.85 0 
L -0 0 
z
" style="fill:none;"/>
  </g>
  <g id="axes_1">
   <g id="patch_2">
    <path d="M 39.65 315 
L 420.104545 315 
L 420.104545 43.2 
L 39.65 43.2 
z
" style="fill:#ffffff;"/>
   </g>
   <g id="PolyCollection_1">
    <defs>
     <path d="M 348.126658 -316.914445 
L 348.126658 -305.613038 
L 350.697297 -305.61356 
L 353.267936 -305.613976 
L 355.838575 -305.614307 
L 358.409214 -305.614572 
L 360.979853 -305.614783 
L 363.550491 -305.614951 
L 366.12113 -305.615086 
L 368.691769 -305.615193 
L 371.262408 -305.615278 
L 373.833047 -305.615346 
L 376.403686 -305.615401 
L 378.974324 -305.615444 
L 381.544963 -305.615479 
L 384.115602 -305.615506 
L 386.686241 -305.615528 
L 389.25688 -305.615546 
L 391.827518 -305.61556 
L 394.398157 -305.615571 
L 396.968796 -305.61558 
L 399.539435 -305.615587 
L 402.110074 -305.615593 
L 404.680713 -305.615597 
L 407.251351 -305.615601 
L 409.82199 -305.615604 
L 412.392629 -305.615606 
L 414.963268 -305.615608 
L 417.533907 -305.615609 
L 420.104545 -305.61561 
L 420.104545 -316.917017 
L 420.104545 -316.917017 
L 417.533907 -316.917016 
L 414.963268 -316.917014 
L 412.392629 -316.917013 
L 409.82199 -316.91701 
L 407.251351 -316.917007 
L 404.680713 -316.917004 
L 402.110074 -316.916999 
L 399.539435 -316.916994 
L 396.968796 -316.916987 
L 394.398157 -316.916978 
L 391.827518 -316.916966 
L 389.25688 -316.916952 
L 386.686241 -316.916935 
L 384.115602 -316.916913 
L 381.544963 -316.916885 
L 378.974324 -316.916851 
L 376.403686 -316.916807 
L 373.833047 -316.916753 
L 371.262408 -316.916685 
L 368.691769 -316.9166 
L 366.12113 -316.916492 
L 363.550491 -316.916358 
L 360.979853 -316.91619 
L 358.409214 -316.915979 
L 355.838575 -316.915714 
L 353.267936 -316.915382 
L 350.697297 -316.914967 
L 348.126658 -316.914445 
z
" id="mfc0984d4b8" style="stroke:#0000ff;stroke-opacity:0.3;"/>
    </defs>
    <g clip-path="url(#p9874eba0d0)">
     <use style="fill:#0000ff;fill-opacity:0.3;stroke:#0000ff;stroke-opacity:0.3;" x="0" xlink:href="#mfc0984d4b8" y="372.471562"/>
    </g>
   </g>
   <g id="matplotlib.axis_1">
    <g id="xtick_1">
     <g id="line2d_1">
      <path clip-path="url(#p9874eba0d0)" d="M 39.65 315 
L 39.65 43.2 
" style="fill:none;stroke:#b0b0b0;stroke-linecap:square;stroke-width:0.8;"/>
     </g>
     <g id="line2d_2">
      <defs>
       <path d="M 0 0 
L 0 3.5 
" id="mb5c089ff1a" style="stroke:#000000;stroke-width:0.8;"/>
      </defs>
      <g>
       <use style="stroke:#000000;stroke-width:0.8;" x="39.65" xlink:href="#mb5c089ff1a" y="315"/>
      </g>
     </g>
    </g>
    <g id="xtick_2">
     <g id="line2d_3">
      <path clip-path="url(#p9874eba0d0)" d="M 65.356388 315 
L 65.356388 43.2 
" style="fill:none;stroke:#b0b0b0;stroke-linecap:square;stroke-width:0.8;"/>
     </g>
     <g id="line2d_4">
      <g>
       <use style="stroke:#000000;stroke-width:0.8;" x="65.356388" xlink:href="#mb5c089ff1a" y="315"/>
      </g>
     </g>
     <g id="text_1">
      <!-- Feb -->
      <defs>
       <path d="M 9.8125 72.90625 
L 51.703125 72.90625 
L 51.703125 64.59375 
L 19.671875 64.59375 
L 19.671875 43.109375 
L 48.578125 43.109375 
L 48.578125 34.8125 
L 19.671875 34.8125 
L 19.671875 0 
L 9.8125 0 
z
" id="DejaVuSans-70"/>
       <path d="M 56.203125 29.59375 
L 56.203125 25.203125 
L 14.890625 25.203125 
Q 15.484375 15.921875 20.484375 11.0625 
Q 25.484375 6.203125 34.421875 6.203125 
Q 39.59375 6.203125 44.453125 7.46875 
Q 49.3125 8.734375 54.109375 11.28125 
L 54.109375 2.78125 
Q 49.265625 0.734375 44.1875 -0.34375 
Q 39.109375 -1.421875 33.890625 -1.421875 
Q 20.796875 -1.421875 13.15625 6.1875 
Q 5.515625 13.8125 5.515625 26.8125 
Q 5.515625 40.234375 12.765625 48.109375 
Q 20.015625 56 32.328125 56 
Q 43.359375 56 49.78125 48.890625 
Q 56.203125 41.796875 56.203125 29.59375 
z
M 47.21875 32.234375 
Q 47.125 39.59375 43.09375 43.984375 
Q 39.0625 48.390625 32.421875 48.390625 
Q 24.90625 48.390625 20.390625 44.140625 
Q 15.875 39.890625 15.1875 32.171875 
z
" id="DejaVuSans-101"/>
       <path d="M 48.6875 27.296875 
Q 48.6875 37.203125 44.609375 42.84375 
Q 40.53125 48.484375 33.40625 48.484375 
Q 26.265625 48.484375 22.1875 42.84375 
Q 18.109375 37.203125 18.109375 27.296875 
Q 18.109375 17.390625 22.1875 11.75 
Q 26.265625 6.109375 33.40625 6.109375 
Q 40.53125 6.109375 44.609375 11.75 
Q 48.6875 17.390625 48.6875 27.296875 
z
M 18.109375 46.390625 
Q 20.953125 51.265625 25.265625 53.625 
Q 29.59375 56 35.59375 56 
Q 45.5625 56 51.78125 48.09375 
Q 58.015625 40.1875 58.015625 27.296875 
Q 58.015625 14.40625 51.78125 6.484375 
Q 45.5625 -1.421875 35.59375 -1.421875 
Q 29.59375 -1.421875 25.265625 0.953125 
Q 20.953125 3.328125 18.109375 8.203125 
L 18.109375 0 
L 9.078125 0 
L 9.078125 75.984375 
L 18.109375 75.984375 
z
" id="DejaVuSans-98"/>
      </defs>
      <g transform="translate(56.504826 329.598437)scale(0.1 -0.1)">
       <use xlink:href="#DejaVuSans-70"/>
       <use x="52.019531" xlink:href="#DejaVuSans-101"/>
       <use x="113.542969" xlink:href="#DejaVuSans-98"/>
      </g>
      <!-- 2020 -->
      <defs>
       <path d="M 19.1875 8.296875 
L 53.609375 8.296875 
L 53.609375 0 
L 7.328125 0 
L 7.328125 8.296875 
Q 12.9375 14.109375 22.625 23.890625 
Q 32.328125 33.6875 34.8125 36.53125 
Q 39.546875 41.84375 41.421875 45.53125 
Q 43.3125 49.21875 43.3125 52.78125 
Q 43.3125 58.59375 39.234375 62.25 
Q 35.15625 65.921875 28.609375 65.921875 
Q 23.96875 65.921875 18.8125 64.3125 
Q 13.671875 62.703125 7.8125 59.421875 
L 7.8125 69.390625 
Q 13.765625 71.78125 18.9375 73 
Q 24.125 74.21875 28.421875 74.21875 
Q 39.75 74.21875 46.484375 68.546875 
Q 53.21875 62.890625 53.21875 53.421875 
Q 53.21875 48.921875 51.53125 44.890625 
Q 49.859375 40.875 45.40625 35.40625 
Q 44.1875 33.984375 37.640625 27.21875 
Q 31.109375 20.453125 19.1875 8.296875 
z
" id="DejaVuSans-50"/>
       <path d="M 31.78125 66.40625 
Q 24.171875 66.40625 20.328125 58.90625 
Q 16.5 51.421875 16.5 36.375 
Q 16.5 21.390625 20.328125 13.890625 
Q 24.171875 6.390625 31.78125 6.390625 
Q 39.453125 6.390625 43.28125 13.890625 
Q 47.125 21.390625 47.125 36.375 
Q 47.125 51.421875 43.28125 58.90625 
Q 39.453125 66.40625 31.78125 66.40625 
z
M 31.78125 74.21875 
Q 44.046875 74.21875 50.515625 64.515625 
Q 56.984375 54.828125 56.984375 36.375 
Q 56.984375 17.96875 50.515625 8.265625 
Q 44.046875 -1.421875 31.78125 -1.421875 
Q 19.53125 -1.421875 13.0625 8.265625 
Q 6.59375 17.96875 6.59375 36.375 
Q 6.59375 54.828125 13.0625 64.515625 
Q 19.53125 74.21875 31.78125 74.21875 
z
" id="DejaVuSans-48"/>
      </defs>
      <g transform="translate(52.631388 340.79625)scale(0.1 -0.1)">
       <use xlink:href="#DejaVuSans-50"/>
       <use x="63.623047" xlink:href="#DejaVuSans-48"/>
       <use x="127.246094" xlink:href="#DejaVuSans-50"/>
       <use x="190.869141" xlink:href="#DejaVuSans-48"/>
      </g>
     </g>
    </g>
    <g id="xtick_3">
     <g id="line2d_5">
      <path clip-path="url(#p9874eba0d0)" d="M 139.904914 315 
L 139.904914 43.2 
" style="fill:none;stroke:#b0b0b0;stroke-linecap:square;stroke-width:0.8;"/>
     </g>
     <g id="line2d_6">
      <g>
       <use style="stroke:#000000;stroke-width:0.8;" x="139.904914" xlink:href="#mb5c089ff1a" y="315"/>
      </g>
     </g>
     <g id="text_2">
      <!-- Mar -->
      <defs>
       <path d="M 9.8125 72.90625 
L 24.515625 72.90625 
L 43.109375 23.296875 
L 61.8125 72.90625 
L 76.515625 72.90625 
L 76.515625 0 
L 66.890625 0 
L 66.890625 64.015625 
L 48.09375 14.015625 
L 38.1875 14.015625 
L 19.390625 64.015625 
L 19.390625 0 
L 9.8125 0 
z
" id="DejaVuSans-77"/>
       <path d="M 34.28125 27.484375 
Q 23.390625 27.484375 19.1875 25 
Q 14.984375 22.515625 14.984375 16.5 
Q 14.984375 11.71875 18.140625 8.90625 
Q 21.296875 6.109375 26.703125 6.109375 
Q 34.1875 6.109375 38.703125 11.40625 
Q 43.21875 16.703125 43.21875 25.484375 
L 43.21875 27.484375 
z
M 52.203125 31.203125 
L 52.203125 0 
L 43.21875 0 
L 43.21875 8.296875 
Q 40.140625 3.328125 35.546875 0.953125 
Q 30.953125 -1.421875 24.3125 -1.421875 
Q 15.921875 -1.421875 10.953125 3.296875 
Q 6 8.015625 6 15.921875 
Q 6 25.140625 12.171875 29.828125 
Q 18.359375 34.515625 30.609375 34.515625 
L 43.21875 34.515625 
L 43.21875 35.40625 
Q 43.21875 41.609375 39.140625 45 
Q 35.0625 48.390625 27.6875 48.390625 
Q 23 48.390625 18.546875 47.265625 
Q 14.109375 46.140625 10.015625 43.890625 
L 10.015625 52.203125 
Q 14.9375 54.109375 19.578125 55.046875 
Q 24.21875 56 28.609375 56 
Q 40.484375 56 46.34375 49.84375 
Q 52.203125 43.703125 52.203125 31.203125 
z
" id="DejaVuSans-97"/>
       <path d="M 41.109375 46.296875 
Q 39.59375 47.171875 37.8125 47.578125 
Q 36.03125 48 33.890625 48 
Q 26.265625 48 22.1875 43.046875 
Q 18.109375 38.09375 18.109375 28.8125 
L 18.109375 0 
L 9.078125 0 
L 9.078125 54.6875 
L 18.109375 54.6875 
L 18.109375 46.1875 
Q 20.953125 51.171875 25.484375 53.578125 
Q 30.03125 56 36.53125 56 
Q 37.453125 56 38.578125 55.875 
Q 39.703125 55.765625 41.0625 55.515625 
z
" id="DejaVuSans-114"/>
      </defs>
      <g transform="translate(130.47132 329.598437)scale(0.1 -0.1)">
       <use xlink:href="#DejaVuSans-77"/>
       <use x="86.279297" xlink:href="#DejaVuSans-97"/>
       <use x="147.558594" xlink:href="#DejaVuSans-114"/>
      </g>
     </g>
    </g>
    <g id="xtick_4">
     <g id="line2d_7">
      <path clip-path="url(#p9874eba0d0)" d="M 219.594717 315 
L 219.594717 43.2 
" style="fill:none;stroke:#b0b0b0;stroke-linecap:square;stroke-width:0.8;"/>
     </g>
     <g id="line2d_8">
      <g>
       <use style="stroke:#000000;stroke-width:0.8;" x="219.594717" xlink:href="#mb5c089ff1a" y="315"/>
      </g>
     </g>
     <g id="text_3">
      <!-- Apr -->
      <defs>
       <path d="M 34.1875 63.1875 
L 20.796875 26.90625 
L 47.609375 26.90625 
z
M 28.609375 72.90625 
L 39.796875 72.90625 
L 67.578125 0 
L 57.328125 0 
L 50.6875 18.703125 
L 17.828125 18.703125 
L 11.1875 0 
L 0.78125 0 
z
" id="DejaVuSans-65"/>
       <path d="M 18.109375 8.203125 
L 18.109375 -20.796875 
L 9.078125 -20.796875 
L 9.078125 54.6875 
L 18.109375 54.6875 
L 18.109375 46.390625 
Q 20.953125 51.265625 25.265625 53.625 
Q 29.59375 56 35.59375 56 
Q 45.5625 56 51.78125 48.09375 
Q 58.015625 40.1875 58.015625 27.296875 
Q 58.015625 14.40625 51.78125 6.484375 
Q 45.5625 -1.421875 35.59375 -1.421875 
Q 29.59375 -1.421875 25.265625 0.953125 
Q 20.953125 3.328125 18.109375 8.203125 
z
M 48.6875 27.296875 
Q 48.6875 37.203125 44.609375 42.84375 
Q 40.53125 48.484375 33.40625 48.484375 
Q 26.265625 48.484375 22.1875 42.84375 
Q 18.109375 37.203125 18.109375 27.296875 
Q 18.109375 17.390625 22.1875 11.75 
Q 26.265625 6.109375 33.40625 6.109375 
Q 40.53125 6.109375 44.609375 11.75 
Q 48.6875 17.390625 48.6875 27.296875 
z
" id="DejaVuSans-112"/>
      </defs>
      <g transform="translate(210.944717 329.598437)scale(0.1 -0.1)">
       <use xlink:href="#DejaVuSans-65"/>
       <use x="68.408203" xlink:href="#DejaVuSans-112"/>
       <use x="131.884766" xlink:href="#DejaVuSans-114"/>
      </g>
     </g>
    </g>
    <g id="xtick_5">
     <g id="line2d_9">
      <path clip-path="url(#p9874eba0d0)" d="M 296.713882 315 
L 296.713882 43.2 
" style="fill:none;stroke:#b0b0b0;stroke-linecap:square;stroke-width:0.8;"/>
     </g>
     <g id="line2d_10">
      <g>
       <use style="stroke:#000000;stroke-width:0.8;" x="296.713882" xlink:href="#mb5c089ff1a" y="315"/>
      </g>
     </g>
     <g id="text_4">
      <!-- May -->
      <defs>
       <path d="M 32.171875 -5.078125 
Q 28.375 -14.84375 24.75 -17.8125 
Q 21.140625 -20.796875 15.09375 -20.796875 
L 7.90625 -20.796875 
L 7.90625 -13.28125 
L 13.1875 -13.28125 
Q 16.890625 -13.28125 18.9375 -11.515625 
Q 21 -9.765625 23.484375 -3.21875 
L 25.09375 0.875 
L 2.984375 54.6875 
L 12.5 54.6875 
L 29.59375 11.921875 
L 46.6875 54.6875 
L 56.203125 54.6875 
z
" id="DejaVuSans-121"/>
      </defs>
      <g transform="translate(286.376382 329.598437)scale(0.1 -0.1)">
       <use xlink:href="#DejaVuSans-77"/>
       <use x="86.279297" xlink:href="#DejaVuSans-97"/>
       <use x="147.558594" xlink:href="#DejaVuSans-121"/>
      </g>
     </g>
    </g>
    <g id="xtick_6">
     <g id="line2d_11">
      <path clip-path="url(#p9874eba0d0)" d="M 376.403686 315 
L 376.403686 43.2 
" style="fill:none;stroke:#b0b0b0;stroke-linecap:square;stroke-width:0.8;"/>
     </g>
     <g id="line2d_12">
      <g>
       <use style="stroke:#000000;stroke-width:0.8;" x="376.403686" xlink:href="#mb5c089ff1a" y="315"/>
      </g>
     </g>
     <g id="text_5">
      <!-- Jun -->
      <defs>
       <path d="M 9.8125 72.90625 
L 19.671875 72.90625 
L 19.671875 5.078125 
Q 19.671875 -8.109375 14.671875 -14.0625 
Q 9.671875 -20.015625 -1.421875 -20.015625 
L -5.171875 -20.015625 
L -5.171875 -11.71875 
L -2.09375 -11.71875 
Q 4.4375 -11.71875 7.125 -8.046875 
Q 9.8125 -4.390625 9.8125 5.078125 
z
" id="DejaVuSans-74"/>
       <path d="M 8.5 21.578125 
L 8.5 54.6875 
L 17.484375 54.6875 
L 17.484375 21.921875 
Q 17.484375 14.15625 20.5 10.265625 
Q 23.53125 6.390625 29.59375 6.390625 
Q 36.859375 6.390625 41.078125 11.03125 
Q 45.3125 15.671875 45.3125 23.6875 
L 45.3125 54.6875 
L 54.296875 54.6875 
L 54.296875 0 
L 45.3125 0 
L 45.3125 8.40625 
Q 42.046875 3.421875 37.71875 1 
Q 33.40625 -1.421875 27.6875 -1.421875 
Q 18.265625 -1.421875 13.375 4.4375 
Q 8.5 10.296875 8.5 21.578125 
z
M 31.109375 56 
z
" id="DejaVuSans-117"/>
       <path d="M 54.890625 33.015625 
L 54.890625 0 
L 45.90625 0 
L 45.90625 32.71875 
Q 45.90625 40.484375 42.875 44.328125 
Q 39.84375 48.1875 33.796875 48.1875 
Q 26.515625 48.1875 22.3125 43.546875 
Q 18.109375 38.921875 18.109375 30.90625 
L 18.109375 0 
L 9.078125 0 
L 9.078125 54.6875 
L 18.109375 54.6875 
L 18.109375 46.1875 
Q 21.34375 51.125 25.703125 53.5625 
Q 30.078125 56 35.796875 56 
Q 45.21875 56 50.046875 50.171875 
Q 54.890625 44.34375 54.890625 33.015625 
z
" id="DejaVuSans-110"/>
      </defs>
      <g transform="translate(368.591186 329.598437)scale(0.1 -0.1)">
       <use xlink:href="#DejaVuSans-74"/>
       <use x="29.492188" xlink:href="#DejaVuSans-117"/>
       <use x="92.871094" xlink:href="#DejaVuSans-110"/>
      </g>
     </g>
    </g>
    <g id="xtick_7">
     <g id="line2d_13">
      <path clip-path="url(#p9874eba0d0)" d="M 420.104545 315 
L 420.104545 43.2 
" style="fill:none;stroke:#b0b0b0;stroke-linecap:square;stroke-width:0.8;"/>
     </g>
     <g id="line2d_14">
      <g>
       <use style="stroke:#000000;stroke-width:0.8;" x="420.104545" xlink:href="#mb5c089ff1a" y="315"/>
      </g>
     </g>
    </g>
    <g id="xtick_8">
     <g id="line2d_15">
      <defs>
       <path d="M 0 0 
L 0 2 
" id="mad810ec807" style="stroke:#000000;stroke-width:0.6;"/>
      </defs>
      <g>
       <use style="stroke:#000000;stroke-width:0.6;" x="52.503194" xlink:href="#mad810ec807" y="315"/>
      </g>
     </g>
    </g>
    <g id="xtick_9">
     <g id="line2d_16">
      <g>
       <use style="stroke:#000000;stroke-width:0.6;" x="70.497666" xlink:href="#mad810ec807" y="315"/>
      </g>
     </g>
    </g>
    <g id="xtick_10">
     <g id="line2d_17">
      <g>
       <use style="stroke:#000000;stroke-width:0.6;" x="88.492138" xlink:href="#mad810ec807" y="315"/>
      </g>
     </g>
    </g>
    <g id="xtick_11">
     <g id="line2d_18">
      <g>
       <use style="stroke:#000000;stroke-width:0.6;" x="106.486609" xlink:href="#mad810ec807" y="315"/>
      </g>
     </g>
    </g>
    <g id="xtick_12">
     <g id="line2d_19">
      <g>
       <use style="stroke:#000000;stroke-width:0.6;" x="124.481081" xlink:href="#mad810ec807" y="315"/>
      </g>
     </g>
    </g>
    <g id="xtick_13">
     <g id="line2d_20">
      <g>
       <use style="stroke:#000000;stroke-width:0.6;" x="142.475553" xlink:href="#mad810ec807" y="315"/>
      </g>
     </g>
    </g>
    <g id="xtick_14">
     <g id="line2d_21">
      <g>
       <use style="stroke:#000000;stroke-width:0.6;" x="160.470025" xlink:href="#mad810ec807" y="315"/>
      </g>
     </g>
    </g>
    <g id="xtick_15">
     <g id="line2d_22">
      <g>
       <use style="stroke:#000000;stroke-width:0.6;" x="178.464496" xlink:href="#mad810ec807" y="315"/>
      </g>
     </g>
    </g>
    <g id="xtick_16">
     <g id="line2d_23">
      <g>
       <use style="stroke:#000000;stroke-width:0.6;" x="196.458968" xlink:href="#mad810ec807" y="315"/>
      </g>
     </g>
    </g>
    <g id="xtick_17">
     <g id="line2d_24">
      <g>
       <use style="stroke:#000000;stroke-width:0.6;" x="214.45344" xlink:href="#mad810ec807" y="315"/>
      </g>
     </g>
    </g>
    <g id="xtick_18">
     <g id="line2d_25">
      <g>
       <use style="stroke:#000000;stroke-width:0.6;" x="232.447912" xlink:href="#mad810ec807" y="315"/>
      </g>
     </g>
    </g>
    <g id="xtick_19">
     <g id="line2d_26">
      <g>
       <use style="stroke:#000000;stroke-width:0.6;" x="250.442383" xlink:href="#mad810ec807" y="315"/>
      </g>
     </g>
    </g>
    <g id="xtick_20">
     <g id="line2d_27">
      <g>
       <use style="stroke:#000000;stroke-width:0.6;" x="268.436855" xlink:href="#mad810ec807" y="315"/>
      </g>
     </g>
    </g>
    <g id="xtick_21">
     <g id="line2d_28">
      <g>
       <use style="stroke:#000000;stroke-width:0.6;" x="286.431327" xlink:href="#mad810ec807" y="315"/>
      </g>
     </g>
    </g>
    <g id="xtick_22">
     <g id="line2d_29">
      <g>
       <use style="stroke:#000000;stroke-width:0.6;" x="304.425799" xlink:href="#mad810ec807" y="315"/>
      </g>
     </g>
    </g>
    <g id="xtick_23">
     <g id="line2d_30">
      <g>
       <use style="stroke:#000000;stroke-width:0.6;" x="322.42027" xlink:href="#mad810ec807" y="315"/>
      </g>
     </g>
    </g>
    <g id="xtick_24">
     <g id="line2d_31">
      <g>
       <use style="stroke:#000000;stroke-width:0.6;" x="340.414742" xlink:href="#mad810ec807" y="315"/>
      </g>
     </g>
    </g>
    <g id="xtick_25">
     <g id="line2d_32">
      <g>
       <use style="stroke:#000000;stroke-width:0.6;" x="358.409214" xlink:href="#mad810ec807" y="315"/>
      </g>
     </g>
    </g>
    <g id="xtick_26">
     <g id="line2d_33">
      <g>
       <use style="stroke:#000000;stroke-width:0.6;" x="394.398157" xlink:href="#mad810ec807" y="315"/>
      </g>
     </g>
    </g>
    <g id="xtick_27">
     <g id="line2d_34">
      <g>
       <use style="stroke:#000000;stroke-width:0.6;" x="412.392629" xlink:href="#mad810ec807" y="315"/>
      </g>
     </g>
    </g>
   </g>
   <g id="matplotlib.axis_2">
    <g id="ytick_1">
     <g id="line2d_35">
      <path clip-path="url(#p9874eba0d0)" d="M 39.65 302.645455 
L 420.104545 302.645455 
" style="fill:none;stroke:#b0b0b0;stroke-linecap:square;stroke-width:0.8;"/>
     </g>
     <g id="line2d_36">
      <defs>
       <path d="M 0 0 
L -3.5 0 
" id="me0a7139105" style="stroke:#000000;stroke-width:0.8;"/>
      </defs>
      <g>
       <use style="stroke:#000000;stroke-width:0.8;" x="39.65" xlink:href="#me0a7139105" y="302.645455"/>
      </g>
     </g>
     <g id="text_6">
      <!-- 0 -->
      <g transform="translate(26.2875 306.444673)scale(0.1 -0.1)">
       <use xlink:href="#DejaVuSans-48"/>
      </g>
     </g>
    </g>
    <g id="ytick_2">
     <g id="line2d_37">
      <path clip-path="url(#p9874eba0d0)" d="M 39.65 270.015573 
L 420.104545 270.015573 
" style="fill:none;stroke:#b0b0b0;stroke-linecap:square;stroke-width:0.8;"/>
     </g>
     <g id="line2d_38">
      <g>
       <use style="stroke:#000000;stroke-width:0.8;" x="39.65" xlink:href="#me0a7139105" y="270.015573"/>
      </g>
     </g>
     <g id="text_7">
      <!-- 200 -->
      <g transform="translate(13.5625 273.814792)scale(0.1 -0.1)">
       <use xlink:href="#DejaVuSans-50"/>
       <use x="63.623047" xlink:href="#DejaVuSans-48"/>
       <use x="127.246094" xlink:href="#DejaVuSans-48"/>
      </g>
     </g>
    </g>
    <g id="ytick_3">
     <g id="line2d_39">
      <path clip-path="url(#p9874eba0d0)" d="M 39.65 237.385692 
L 420.104545 237.385692 
" style="fill:none;stroke:#b0b0b0;stroke-linecap:square;stroke-width:0.8;"/>
     </g>
     <g id="line2d_40">
      <g>
       <use style="stroke:#000000;stroke-width:0.8;" x="39.65" xlink:href="#me0a7139105" y="237.385692"/>
      </g>
     </g>
     <g id="text_8">
      <!-- 400 -->
      <defs>
       <path d="M 37.796875 64.3125 
L 12.890625 25.390625 
L 37.796875 25.390625 
z
M 35.203125 72.90625 
L 47.609375 72.90625 
L 47.609375 25.390625 
L 58.015625 25.390625 
L 58.015625 17.1875 
L 47.609375 17.1875 
L 47.609375 0 
L 37.796875 0 
L 37.796875 17.1875 
L 4.890625 17.1875 
L 4.890625 26.703125 
z
" id="DejaVuSans-52"/>
      </defs>
      <g transform="translate(13.5625 241.184911)scale(0.1 -0.1)">
       <use xlink:href="#DejaVuSans-52"/>
       <use x="63.623047" xlink:href="#DejaVuSans-48"/>
       <use x="127.246094" xlink:href="#DejaVuSans-48"/>
      </g>
     </g>
    </g>
    <g id="ytick_4">
     <g id="line2d_41">
      <path clip-path="url(#p9874eba0d0)" d="M 39.65 204.755811 
L 420.104545 204.755811 
" style="fill:none;stroke:#b0b0b0;stroke-linecap:square;stroke-width:0.8;"/>
     </g>
     <g id="line2d_42">
      <g>
       <use style="stroke:#000000;stroke-width:0.8;" x="39.65" xlink:href="#me0a7139105" y="204.755811"/>
      </g>
     </g>
     <g id="text_9">
      <!-- 600 -->
      <defs>
       <path d="M 33.015625 40.375 
Q 26.375 40.375 22.484375 35.828125 
Q 18.609375 31.296875 18.609375 23.390625 
Q 18.609375 15.53125 22.484375 10.953125 
Q 26.375 6.390625 33.015625 6.390625 
Q 39.65625 6.390625 43.53125 10.953125 
Q 47.40625 15.53125 47.40625 23.390625 
Q 47.40625 31.296875 43.53125 35.828125 
Q 39.65625 40.375 33.015625 40.375 
z
M 52.59375 71.296875 
L 52.59375 62.3125 
Q 48.875 64.0625 45.09375 64.984375 
Q 41.3125 65.921875 37.59375 65.921875 
Q 27.828125 65.921875 22.671875 59.328125 
Q 17.53125 52.734375 16.796875 39.40625 
Q 19.671875 43.65625 24.015625 45.921875 
Q 28.375 48.1875 33.59375 48.1875 
Q 44.578125 48.1875 50.953125 41.515625 
Q 57.328125 34.859375 57.328125 23.390625 
Q 57.328125 12.15625 50.6875 5.359375 
Q 44.046875 -1.421875 33.015625 -1.421875 
Q 20.359375 -1.421875 13.671875 8.265625 
Q 6.984375 17.96875 6.984375 36.375 
Q 6.984375 53.65625 15.1875 63.9375 
Q 23.390625 74.21875 37.203125 74.21875 
Q 40.921875 74.21875 44.703125 73.484375 
Q 48.484375 72.75 52.59375 71.296875 
z
" id="DejaVuSans-54"/>
      </defs>
      <g transform="translate(13.5625 208.55503)scale(0.1 -0.1)">
       <use xlink:href="#DejaVuSans-54"/>
       <use x="63.623047" xlink:href="#DejaVuSans-48"/>
       <use x="127.246094" xlink:href="#DejaVuSans-48"/>
      </g>
     </g>
    </g>
    <g id="ytick_5">
     <g id="line2d_43">
      <path clip-path="url(#p9874eba0d0)" d="M 39.65 172.12593 
L 420.104545 172.12593 
" style="fill:none;stroke:#b0b0b0;stroke-linecap:square;stroke-width:0.8;"/>
     </g>
     <g id="line2d_44">
      <g>
       <use style="stroke:#000000;stroke-width:0.8;" x="39.65" xlink:href="#me0a7139105" y="172.12593"/>
      </g>
     </g>
     <g id="text_10">
      <!-- 800 -->
      <defs>
       <path d="M 31.78125 34.625 
Q 24.75 34.625 20.71875 30.859375 
Q 16.703125 27.09375 16.703125 20.515625 
Q 16.703125 13.921875 20.71875 10.15625 
Q 24.75 6.390625 31.78125 6.390625 
Q 38.8125 6.390625 42.859375 10.171875 
Q 46.921875 13.96875 46.921875 20.515625 
Q 46.921875 27.09375 42.890625 30.859375 
Q 38.875 34.625 31.78125 34.625 
z
M 21.921875 38.8125 
Q 15.578125 40.375 12.03125 44.71875 
Q 8.5 49.078125 8.5 55.328125 
Q 8.5 64.0625 14.71875 69.140625 
Q 20.953125 74.21875 31.78125 74.21875 
Q 42.671875 74.21875 48.875 69.140625 
Q 55.078125 64.0625 55.078125 55.328125 
Q 55.078125 49.078125 51.53125 44.71875 
Q 48 40.375 41.703125 38.8125 
Q 48.828125 37.15625 52.796875 32.3125 
Q 56.78125 27.484375 56.78125 20.515625 
Q 56.78125 9.90625 50.3125 4.234375 
Q 43.84375 -1.421875 31.78125 -1.421875 
Q 19.734375 -1.421875 13.25 4.234375 
Q 6.78125 9.90625 6.78125 20.515625 
Q 6.78125 27.484375 10.78125 32.3125 
Q 14.796875 37.15625 21.921875 38.8125 
z
M 18.3125 54.390625 
Q 18.3125 48.734375 21.84375 45.5625 
Q 25.390625 42.390625 31.78125 42.390625 
Q 38.140625 42.390625 41.71875 45.5625 
Q 45.3125 48.734375 45.3125 54.390625 
Q 45.3125 60.0625 41.71875 63.234375 
Q 38.140625 66.40625 31.78125 66.40625 
Q 25.390625 66.40625 21.84375 63.234375 
Q 18.3125 60.0625 18.3125 54.390625 
z
" id="DejaVuSans-56"/>
      </defs>
      <g transform="translate(13.5625 175.925149)scale(0.1 -0.1)">
       <use xlink:href="#DejaVuSans-56"/>
       <use x="63.623047" xlink:href="#DejaVuSans-48"/>
       <use x="127.246094" xlink:href="#DejaVuSans-48"/>
      </g>
     </g>
    </g>
    <g id="ytick_6">
     <g id="line2d_45">
      <path clip-path="url(#p9874eba0d0)" d="M 39.65 139.496049 
L 420.104545 139.496049 
" style="fill:none;stroke:#b0b0b0;stroke-linecap:square;stroke-width:0.8;"/>
     </g>
     <g id="line2d_46">
      <g>
       <use style="stroke:#000000;stroke-width:0.8;" x="39.65" xlink:href="#me0a7139105" y="139.496049"/>
      </g>
     </g>
     <g id="text_11">
      <!-- 1000 -->
      <defs>
       <path d="M 12.40625 8.296875 
L 28.515625 8.296875 
L 28.515625 63.921875 
L 10.984375 60.40625 
L 10.984375 69.390625 
L 28.421875 72.90625 
L 38.28125 72.90625 
L 38.28125 8.296875 
L 54.390625 8.296875 
L 54.390625 0 
L 12.40625 0 
z
" id="DejaVuSans-49"/>
      </defs>
      <g transform="translate(7.2 143.295268)scale(0.1 -0.1)">
       <use xlink:href="#DejaVuSans-49"/>
       <use x="63.623047" xlink:href="#DejaVuSans-48"/>
       <use x="127.246094" xlink:href="#DejaVuSans-48"/>
       <use x="190.869141" xlink:href="#DejaVuSans-48"/>
      </g>
     </g>
    </g>
    <g id="ytick_7">
     <g id="line2d_47">
      <path clip-path="url(#p9874eba0d0)" d="M 39.65 106.866168 
L 420.104545 106.866168 
" style="fill:none;stroke:#b0b0b0;stroke-linecap:square;stroke-width:0.8;"/>
     </g>
     <g id="line2d_48">
      <g>
       <use style="stroke:#000000;stroke-width:0.8;" x="39.65" xlink:href="#me0a7139105" y="106.866168"/>
      </g>
     </g>
     <g id="text_12">
      <!-- 1200 -->
      <g transform="translate(7.2 110.665387)scale(0.1 -0.1)">
       <use xlink:href="#DejaVuSans-49"/>
       <use x="63.623047" xlink:href="#DejaVuSans-50"/>
       <use x="127.246094" xlink:href="#DejaVuSans-48"/>
       <use x="190.869141" xlink:href="#DejaVuSans-48"/>
      </g>
     </g>
    </g>
    <g id="ytick_8">
     <g id="line2d_49">
      <path clip-path="url(#p9874eba0d0)" d="M 39.65 74.236287 
L 420.104545 74.236287 
" style="fill:none;stroke:#b0b0b0;stroke-linecap:square;stroke-width:0.8;"/>
     </g>
     <g id="line2d_50">
      <g>
       <use style="stroke:#000000;stroke-width:0.8;" x="39.65" xlink:href="#me0a7139105" y="74.236287"/>
      </g>
     </g>
     <g id="text_13">
      <!-- 1400 -->
      <g transform="translate(7.2 78.035506)scale(0.1 -0.1)">
       <use xlink:href="#DejaVuSans-49"/>
       <use x="63.623047" xlink:href="#DejaVuSans-52"/>
       <use x="127.246094" xlink:href="#DejaVuSans-48"/>
       <use x="190.869141" xlink:href="#DejaVuSans-48"/>
      </g>
     </g>
    </g>
   </g>
   <g id="line2d_51">
    <defs>
     <path d="M 0 1.5 
C 0.397805 1.5 0.77937 1.341951 1.06066 1.06066 
C 1.341951 0.77937 1.5 0.397805 1.5 0 
C 1.5 -0.397805 1.341951 -0.77937 1.06066 -1.06066 
C 0.77937 -1.341951 0.397805 -1.5 0 -1.5 
C -0.397805 -1.5 -0.77937 -1.341951 -1.06066 -1.06066 
C -1.341951 -0.77937 -1.5 -0.397805 -1.5 0 
C -1.5 0.397805 -1.341951 0.77937 -1.06066 1.06066 
C -0.77937 1.341951 -0.397805 1.5 0 1.5 
z
" id="m8b1a5e0cc5" style="stroke:#000000;"/>
    </defs>
    <g clip-path="url(#p9874eba0d0)">
     <use style="stroke:#000000;" x="39.65" xlink:href="#m8b1a5e0cc5" y="302.645455"/>
     <use style="stroke:#000000;" x="42.220639" xlink:href="#m8b1a5e0cc5" y="302.645455"/>
     <use style="stroke:#000000;" x="44.791278" xlink:href="#m8b1a5e0cc5" y="302.645455"/>
     <use style="stroke:#000000;" x="47.361916" xlink:href="#m8b1a5e0cc5" y="302.645455"/>
     <use style="stroke:#000000;" x="49.932555" xlink:href="#m8b1a5e0cc5" y="302.645455"/>
     <use style="stroke:#000000;" x="52.503194" xlink:href="#m8b1a5e0cc5" y="302.645455"/>
     <use style="stroke:#000000;" x="55.073833" xlink:href="#m8b1a5e0cc5" y="302.645455"/>
     <use style="stroke:#000000;" x="57.644472" xlink:href="#m8b1a5e0cc5" y="302.645455"/>
     <use style="stroke:#000000;" x="60.215111" xlink:href="#m8b1a5e0cc5" y="302.645455"/>
     <use style="stroke:#000000;" x="62.785749" xlink:href="#m8b1a5e0cc5" y="302.645455"/>
     <use style="stroke:#000000;" x="65.356388" xlink:href="#m8b1a5e0cc5" y="302.645455"/>
     <use style="stroke:#000000;" x="67.927027" xlink:href="#m8b1a5e0cc5" y="302.645455"/>
     <use style="stroke:#000000;" x="70.497666" xlink:href="#m8b1a5e0cc5" y="302.645455"/>
     <use style="stroke:#000000;" x="73.068305" xlink:href="#m8b1a5e0cc5" y="302.645455"/>
     <use style="stroke:#000000;" x="75.638943" xlink:href="#m8b1a5e0cc5" y="302.645455"/>
     <use style="stroke:#000000;" x="78.209582" xlink:href="#m8b1a5e0cc5" y="302.645455"/>
     <use style="stroke:#000000;" x="80.780221" xlink:href="#m8b1a5e0cc5" y="302.645455"/>
     <use style="stroke:#000000;" x="83.35086" xlink:href="#m8b1a5e0cc5" y="302.645455"/>
     <use style="stroke:#000000;" x="85.921499" xlink:href="#m8b1a5e0cc5" y="302.645455"/>
     <use style="stroke:#000000;" x="88.492138" xlink:href="#m8b1a5e0cc5" y="302.645455"/>
     <use style="stroke:#000000;" x="91.062776" xlink:href="#m8b1a5e0cc5" y="302.645455"/>
     <use style="stroke:#000000;" x="93.633415" xlink:href="#m8b1a5e0cc5" y="302.645455"/>
     <use style="stroke:#000000;" x="96.204054" xlink:href="#m8b1a5e0cc5" y="302.645455"/>
     <use style="stroke:#000000;" x="98.774693" xlink:href="#m8b1a5e0cc5" y="302.645455"/>
     <use style="stroke:#000000;" x="101.345332" xlink:href="#m8b1a5e0cc5" y="302.645455"/>
     <use style="stroke:#000000;" x="103.915971" xlink:href="#m8b1a5e0cc5" y="302.645455"/>
     <use style="stroke:#000000;" x="106.486609" xlink:href="#m8b1a5e0cc5" y="302.645455"/>
     <use style="stroke:#000000;" x="109.057248" xlink:href="#m8b1a5e0cc5" y="302.645455"/>
     <use style="stroke:#000000;" x="111.627887" xlink:href="#m8b1a5e0cc5" y="302.645455"/>
     <use style="stroke:#000000;" x="114.198526" xlink:href="#m8b1a5e0cc5" y="302.645455"/>
     <use style="stroke:#000000;" x="116.769165" xlink:href="#m8b1a5e0cc5" y="302.645455"/>
     <use style="stroke:#000000;" x="119.339803" xlink:href="#m8b1a5e0cc5" y="302.645455"/>
     <use style="stroke:#000000;" x="121.910442" xlink:href="#m8b1a5e0cc5" y="302.645455"/>
     <use style="stroke:#000000;" x="124.481081" xlink:href="#m8b1a5e0cc5" y="302.645455"/>
     <use style="stroke:#000000;" x="127.05172" xlink:href="#m8b1a5e0cc5" y="302.645455"/>
     <use style="stroke:#000000;" x="129.622359" xlink:href="#m8b1a5e0cc5" y="302.645455"/>
     <use style="stroke:#000000;" x="132.192998" xlink:href="#m8b1a5e0cc5" y="302.645455"/>
     <use style="stroke:#000000;" x="134.763636" xlink:href="#m8b1a5e0cc5" y="302.482305"/>
     <use style="stroke:#000000;" x="137.334275" xlink:href="#m8b1a5e0cc5" y="302.482305"/>
     <use style="stroke:#000000;" x="139.904914" xlink:href="#m8b1a5e0cc5" y="302.482305"/>
     <use style="stroke:#000000;" x="142.475553" xlink:href="#m8b1a5e0cc5" y="302.482305"/>
     <use style="stroke:#000000;" x="145.046192" xlink:href="#m8b1a5e0cc5" y="302.482305"/>
     <use style="stroke:#000000;" x="147.61683" xlink:href="#m8b1a5e0cc5" y="302.156006"/>
     <use style="stroke:#000000;" x="150.187469" xlink:href="#m8b1a5e0cc5" y="302.156006"/>
     <use style="stroke:#000000;" x="152.758108" xlink:href="#m8b1a5e0cc5" y="301.992857"/>
     <use style="stroke:#000000;" x="155.328747" xlink:href="#m8b1a5e0cc5" y="301.829708"/>
     <use style="stroke:#000000;" x="157.899386" xlink:href="#m8b1a5e0cc5" y="301.829708"/>
     <use style="stroke:#000000;" x="160.470025" xlink:href="#m8b1a5e0cc5" y="301.829708"/>
     <use style="stroke:#000000;" x="163.040663" xlink:href="#m8b1a5e0cc5" y="301.829708"/>
     <use style="stroke:#000000;" x="165.611302" xlink:href="#m8b1a5e0cc5" y="301.829708"/>
     <use style="stroke:#000000;" x="168.181941" xlink:href="#m8b1a5e0cc5" y="301.829708"/>
     <use style="stroke:#000000;" x="170.75258" xlink:href="#m8b1a5e0cc5" y="301.829708"/>
     <use style="stroke:#000000;" x="173.323219" xlink:href="#m8b1a5e0cc5" y="301.666558"/>
     <use style="stroke:#000000;" x="175.893857" xlink:href="#m8b1a5e0cc5" y="301.340259"/>
     <use style="stroke:#000000;" x="178.464496" xlink:href="#m8b1a5e0cc5" y="301.340259"/>
     <use style="stroke:#000000;" x="181.035135" xlink:href="#m8b1a5e0cc5" y="300.687662"/>
     <use style="stroke:#000000;" x="183.605774" xlink:href="#m8b1a5e0cc5" y="299.382466"/>
     <use style="stroke:#000000;" x="186.176413" xlink:href="#m8b1a5e0cc5" y="298.077271"/>
     <use style="stroke:#000000;" x="188.747052" xlink:href="#m8b1a5e0cc5" y="296.282628"/>
     <use style="stroke:#000000;" x="191.31769" xlink:href="#m8b1a5e0cc5" y="294.161685"/>
     <use style="stroke:#000000;" x="193.888329" xlink:href="#m8b1a5e0cc5" y="286.004215"/>
     <use style="stroke:#000000;" x="196.458968" xlink:href="#m8b1a5e0cc5" y="286.004215"/>
     <use style="stroke:#000000;" x="199.029607" xlink:href="#m8b1a5e0cc5" y="277.357297"/>
     <use style="stroke:#000000;" x="201.600246" xlink:href="#m8b1a5e0cc5" y="269.199826"/>
     <use style="stroke:#000000;" x="204.170885" xlink:href="#m8b1a5e0cc5" y="256.474173"/>
     <use style="stroke:#000000;" x="206.741523" xlink:href="#m8b1a5e0cc5" y="242.606473"/>
     <use style="stroke:#000000;" x="209.312162" xlink:href="#m8b1a5e0cc5" y="229.065073"/>
     <use style="stroke:#000000;" x="211.882801" xlink:href="#m8b1a5e0cc5" y="218.78666"/>
     <use style="stroke:#000000;" x="214.45344" xlink:href="#m8b1a5e0cc5" y="206.550455"/>
     <use style="stroke:#000000;" x="217.024079" xlink:href="#m8b1a5e0cc5" y="197.087789"/>
     <use style="stroke:#000000;" x="219.594717" xlink:href="#m8b1a5e0cc5" y="187.135676"/>
     <use style="stroke:#000000;" x="222.165356" xlink:href="#m8b1a5e0cc5" y="172.615378"/>
     <use style="stroke:#000000;" x="224.735995" xlink:href="#m8b1a5e0cc5" y="161.031771"/>
     <use style="stroke:#000000;" x="227.306634" xlink:href="#m8b1a5e0cc5" y="147.653519"/>
     <use style="stroke:#000000;" x="229.877273" xlink:href="#m8b1a5e0cc5" y="133.133222"/>
     <use style="stroke:#000000;" x="232.447912" xlink:href="#m8b1a5e0cc5" y="122.202212"/>
     <use style="stroke:#000000;" x="235.01855" xlink:href="#m8b1a5e0cc5" y="113.392144"/>
     <use style="stroke:#000000;" x="237.589189" xlink:href="#m8b1a5e0cc5" y="105.234674"/>
     <use style="stroke:#000000;" x="240.159828" xlink:href="#m8b1a5e0cc5" y="100.503341"/>
     <use style="stroke:#000000;" x="242.730467" xlink:href="#m8b1a5e0cc5" y="93.324767"/>
     <use style="stroke:#000000;" x="245.301106" xlink:href="#m8b1a5e0cc5" y="88.593435"/>
     <use style="stroke:#000000;" x="247.871744" xlink:href="#m8b1a5e0cc5" y="85.656745"/>
     <use style="stroke:#000000;" x="250.442383" xlink:href="#m8b1a5e0cc5" y="82.556907"/>
     <use style="stroke:#000000;" x="253.013022" xlink:href="#m8b1a5e0cc5" y="79.783367"/>
     <use style="stroke:#000000;" x="255.583661" xlink:href="#m8b1a5e0cc5" y="76.520379"/>
     <use style="stroke:#000000;" x="258.1543" xlink:href="#m8b1a5e0cc5" y="74.073138"/>
     <use style="stroke:#000000;" x="260.724939" xlink:href="#m8b1a5e0cc5" y="72.767942"/>
     <use style="stroke:#000000;" x="263.295577" xlink:href="#m8b1a5e0cc5" y="70.647"/>
     <use style="stroke:#000000;" x="265.866216" xlink:href="#m8b1a5e0cc5" y="69.178655"/>
     <use style="stroke:#000000;" x="268.436855" xlink:href="#m8b1a5e0cc5" y="67.710311"/>
     <use style="stroke:#000000;" x="271.007494" xlink:href="#m8b1a5e0cc5" y="66.894564"/>
     <use style="stroke:#000000;" x="273.578133" xlink:href="#m8b1a5e0cc5" y="65.915667"/>
     <use style="stroke:#000000;" x="276.148771" xlink:href="#m8b1a5e0cc5" y="65.09992"/>
     <use style="stroke:#000000;" x="278.71941" xlink:href="#m8b1a5e0cc5" y="64.284173"/>
     <use style="stroke:#000000;" x="281.290049" xlink:href="#m8b1a5e0cc5" y="62.815829"/>
     <use style="stroke:#000000;" x="283.860688" xlink:href="#m8b1a5e0cc5" y="62.978978"/>
     <use style="stroke:#000000;" x="286.431327" xlink:href="#m8b1a5e0cc5" y="62.48953"/>
     <use style="stroke:#000000;" x="289.001966" xlink:href="#m8b1a5e0cc5" y="62.163231"/>
     <use style="stroke:#000000;" x="291.572604" xlink:href="#m8b1a5e0cc5" y="61.836932"/>
     <use style="stroke:#000000;" x="294.143243" xlink:href="#m8b1a5e0cc5" y="61.347484"/>
     <use style="stroke:#000000;" x="296.713882" xlink:href="#m8b1a5e0cc5" y="60.368588"/>
     <use style="stroke:#000000;" x="299.284521" xlink:href="#m8b1a5e0cc5" y="60.042289"/>
     <use style="stroke:#000000;" x="301.85516" xlink:href="#m8b1a5e0cc5" y="60.042289"/>
     <use style="stroke:#000000;" x="304.425799" xlink:href="#m8b1a5e0cc5" y="60.205438"/>
     <use style="stroke:#000000;" x="306.996437" xlink:href="#m8b1a5e0cc5" y="59.879139"/>
     <use style="stroke:#000000;" x="309.567076" xlink:href="#m8b1a5e0cc5" y="59.71599"/>
     <use style="stroke:#000000;" x="312.137715" xlink:href="#m8b1a5e0cc5" y="59.55284"/>
     <use style="stroke:#000000;" x="314.708354" xlink:href="#m8b1a5e0cc5" y="59.226542"/>
     <use style="stroke:#000000;" x="317.278993" xlink:href="#m8b1a5e0cc5" y="58.900243"/>
     <use style="stroke:#000000;" x="319.849631" xlink:href="#m8b1a5e0cc5" y="58.410795"/>
     <use style="stroke:#000000;" x="322.42027" xlink:href="#m8b1a5e0cc5" y="58.410795"/>
     <use style="stroke:#000000;" x="324.990909" xlink:href="#m8b1a5e0cc5" y="58.410795"/>
     <use style="stroke:#000000;" x="327.561548" xlink:href="#m8b1a5e0cc5" y="58.410795"/>
     <use style="stroke:#000000;" x="330.132187" xlink:href="#m8b1a5e0cc5" y="58.247645"/>
     <use style="stroke:#000000;" x="332.702826" xlink:href="#m8b1a5e0cc5" y="58.247645"/>
     <use style="stroke:#000000;" x="335.273464" xlink:href="#m8b1a5e0cc5" y="58.084496"/>
     <use style="stroke:#000000;" x="337.844103" xlink:href="#m8b1a5e0cc5" y="58.084496"/>
     <use style="stroke:#000000;" x="340.414742" xlink:href="#m8b1a5e0cc5" y="58.084496"/>
     <use style="stroke:#000000;" x="342.985381" xlink:href="#m8b1a5e0cc5" y="57.431898"/>
     <use style="stroke:#000000;" x="345.55602" xlink:href="#m8b1a5e0cc5" y="57.431898"/>
    </g>
   </g>
   <g id="line2d_52">
    <path clip-path="url(#p9874eba0d0)" d="M 39.65 302.645425 
L 132.192998 302.543773 
L 145.046192 302.330774 
L 152.758108 302.02612 
L 157.899386 301.673396 
L 163.040663 301.12106 
L 168.181941 300.257997 
L 170.75258 299.659733 
L 173.323219 298.913894 
L 175.893857 297.985383 
L 178.464496 296.831485 
L 181.035135 295.400609 
L 183.605774 293.631051 
L 186.176413 291.44994 
L 188.747052 288.77259 
L 191.31769 285.502638 
L 193.888329 281.533434 
L 196.458968 276.751308 
L 199.029607 271.041349 
L 201.600246 264.296295 
L 204.170885 256.428753 
L 206.741523 247.386314 
L 209.312162 237.168071 
L 211.882801 225.839805 
L 214.45344 213.544059 
L 219.594717 186.998412 
L 224.735995 159.952025 
L 227.306634 147.075521 
L 229.877273 135.00964 
L 232.447912 123.955317 
L 235.01855 114.034908 
L 237.589189 105.295874 
L 240.159828 97.722557 
L 242.730467 91.25203 
L 245.301106 85.790469 
L 247.871744 81.22762 
L 250.442383 77.448174 
L 253.013022 74.339821 
L 255.583661 71.798322 
L 258.1543 69.730232 
L 260.724939 68.053918 
L 263.295577 66.699451 
L 265.866216 65.60783 
L 268.436855 64.729859 
L 271.007494 64.024892 
L 276.148771 63.00677 
L 281.290049 62.354502 
L 286.431327 61.937675 
L 294.143243 61.577474 
L 304.425799 61.356045 
L 322.42027 61.236233 
L 345.55602 61.209294 
L 345.55602 61.209294 
" style="fill:none;stroke:#008000;stroke-linecap:square;stroke-width:1.5;"/>
   </g>
   <g id="line2d_53">
    <path clip-path="url(#p9874eba0d0)" d="M 348.126658 61.207821 
L 420.104545 61.205249 
L 420.104545 61.205249 
" style="fill:none;stroke:#ff0000;stroke-linecap:square;stroke-width:1.5;"/>
   </g>
   <g id="patch_3">
    <path d="M 39.65 315 
L 39.65 43.2 
" style="fill:none;stroke:#000000;stroke-linecap:square;stroke-linejoin:miter;stroke-width:0.8;"/>
   </g>
   <g id="patch_4">
    <path d="M 420.104545 315 
L 420.104545 43.2 
" style="fill:none;stroke:#000000;stroke-linecap:square;stroke-linejoin:miter;stroke-width:0.8;"/>
   </g>
   <g id="patch_5">
    <path d="M 39.65 315 
L 420.104545 315 
" style="fill:none;stroke:#000000;stroke-linecap:square;stroke-linejoin:miter;stroke-width:0.8;"/>
   </g>
   <g id="patch_6">
    <path d="M 39.65 43.2 
L 420.104545 43.2 
" style="fill:none;stroke:#000000;stroke-linecap:square;stroke-linejoin:miter;stroke-width:0.8;"/>
   </g>
   <g id="text_14">
    <!-- Parametric Fitting -->
    <defs>
     <path d="M 19.671875 64.796875 
L 19.671875 37.40625 
L 32.078125 37.40625 
Q 38.96875 37.40625 42.71875 40.96875 
Q 46.484375 44.53125 46.484375 51.125 
Q 46.484375 57.671875 42.71875 61.234375 
Q 38.96875 64.796875 32.078125 64.796875 
z
M 9.8125 72.90625 
L 32.078125 72.90625 
Q 44.34375 72.90625 50.609375 67.359375 
Q 56.890625 61.8125 56.890625 51.125 
Q 56.890625 40.328125 50.609375 34.8125 
Q 44.34375 29.296875 32.078125 29.296875 
L 19.671875 29.296875 
L 19.671875 0 
L 9.8125 0 
z
" id="DejaVuSans-80"/>
     <path d="M 52 44.1875 
Q 55.375 50.25 60.0625 53.125 
Q 64.75 56 71.09375 56 
Q 79.640625 56 84.28125 50.015625 
Q 88.921875 44.046875 88.921875 33.015625 
L 88.921875 0 
L 79.890625 0 
L 79.890625 32.71875 
Q 79.890625 40.578125 77.09375 44.375 
Q 74.3125 48.1875 68.609375 48.1875 
Q 61.625 48.1875 57.5625 43.546875 
Q 53.515625 38.921875 53.515625 30.90625 
L 53.515625 0 
L 44.484375 0 
L 44.484375 32.71875 
Q 44.484375 40.625 41.703125 44.40625 
Q 38.921875 48.1875 33.109375 48.1875 
Q 26.21875 48.1875 22.15625 43.53125 
Q 18.109375 38.875 18.109375 30.90625 
L 18.109375 0 
L 9.078125 0 
L 9.078125 54.6875 
L 18.109375 54.6875 
L 18.109375 46.1875 
Q 21.1875 51.21875 25.484375 53.609375 
Q 29.78125 56 35.6875 56 
Q 41.65625 56 45.828125 52.96875 
Q 50 49.953125 52 44.1875 
z
" id="DejaVuSans-109"/>
     <path d="M 18.3125 70.21875 
L 18.3125 54.6875 
L 36.8125 54.6875 
L 36.8125 47.703125 
L 18.3125 47.703125 
L 18.3125 18.015625 
Q 18.3125 11.328125 20.140625 9.421875 
Q 21.96875 7.515625 27.59375 7.515625 
L 36.8125 7.515625 
L 36.8125 0 
L 27.59375 0 
Q 17.1875 0 13.234375 3.875 
Q 9.28125 7.765625 9.28125 18.015625 
L 9.28125 47.703125 
L 2.6875 47.703125 
L 2.6875 54.6875 
L 9.28125 54.6875 
L 9.28125 70.21875 
z
" id="DejaVuSans-116"/>
     <path d="M 9.421875 54.6875 
L 18.40625 54.6875 
L 18.40625 0 
L 9.421875 0 
z
M 9.421875 75.984375 
L 18.40625 75.984375 
L 18.40625 64.59375 
L 9.421875 64.59375 
z
" id="DejaVuSans-105"/>
     <path d="M 48.78125 52.59375 
L 48.78125 44.1875 
Q 44.96875 46.296875 41.140625 47.34375 
Q 37.3125 48.390625 33.40625 48.390625 
Q 24.65625 48.390625 19.8125 42.84375 
Q 14.984375 37.3125 14.984375 27.296875 
Q 14.984375 17.28125 19.8125 11.734375 
Q 24.65625 6.203125 33.40625 6.203125 
Q 37.3125 6.203125 41.140625 7.25 
Q 44.96875 8.296875 48.78125 10.40625 
L 48.78125 2.09375 
Q 45.015625 0.34375 40.984375 -0.53125 
Q 36.96875 -1.421875 32.421875 -1.421875 
Q 20.0625 -1.421875 12.78125 6.34375 
Q 5.515625 14.109375 5.515625 27.296875 
Q 5.515625 40.671875 12.859375 48.328125 
Q 20.21875 56 33.015625 56 
Q 37.15625 56 41.109375 55.140625 
Q 45.0625 54.296875 48.78125 52.59375 
z
" id="DejaVuSans-99"/>
     <path id="DejaVuSans-32"/>
     <path d="M 45.40625 27.984375 
Q 45.40625 37.75 41.375 43.109375 
Q 37.359375 48.484375 30.078125 48.484375 
Q 22.859375 48.484375 18.828125 43.109375 
Q 14.796875 37.75 14.796875 27.984375 
Q 14.796875 18.265625 18.828125 12.890625 
Q 22.859375 7.515625 30.078125 7.515625 
Q 37.359375 7.515625 41.375 12.890625 
Q 45.40625 18.265625 45.40625 27.984375 
z
M 54.390625 6.78125 
Q 54.390625 -7.171875 48.1875 -13.984375 
Q 42 -20.796875 29.203125 -20.796875 
Q 24.46875 -20.796875 20.265625 -20.09375 
Q 16.0625 -19.390625 12.109375 -17.921875 
L 12.109375 -9.1875 
Q 16.0625 -11.328125 19.921875 -12.34375 
Q 23.78125 -13.375 27.78125 -13.375 
Q 36.625 -13.375 41.015625 -8.765625 
Q 45.40625 -4.15625 45.40625 5.171875 
L 45.40625 9.625 
Q 42.625 4.78125 38.28125 2.390625 
Q 33.9375 0 27.875 0 
Q 17.828125 0 11.671875 7.65625 
Q 5.515625 15.328125 5.515625 27.984375 
Q 5.515625 40.671875 11.671875 48.328125 
Q 17.828125 56 27.875 56 
Q 33.9375 56 38.28125 53.609375 
Q 42.625 51.21875 45.40625 46.390625 
L 45.40625 54.6875 
L 54.390625 54.6875 
z
" id="DejaVuSans-103"/>
    </defs>
    <g transform="translate(176.81571 37.2)scale(0.12 -0.12)">
     <use xlink:href="#DejaVuSans-80"/>
     <use x="55.802734" xlink:href="#DejaVuSans-97"/>
     <use x="117.082031" xlink:href="#DejaVuSans-114"/>
     <use x="158.195312" xlink:href="#DejaVuSans-97"/>
     <use x="219.474609" xlink:href="#DejaVuSans-109"/>
     <use x="316.886719" xlink:href="#DejaVuSans-101"/>
     <use x="378.410156" xlink:href="#DejaVuSans-116"/>
     <use x="417.619141" xlink:href="#DejaVuSans-114"/>
     <use x="458.732422" xlink:href="#DejaVuSans-105"/>
     <use x="486.515625" xlink:href="#DejaVuSans-99"/>
     <use x="541.496094" xlink:href="#DejaVuSans-32"/>
     <use x="573.283203" xlink:href="#DejaVuSans-70"/>
     <use x="623.552734" xlink:href="#DejaVuSans-105"/>
     <use x="651.335938" xlink:href="#DejaVuSans-116"/>
     <use x="690.544922" xlink:href="#DejaVuSans-116"/>
     <use x="729.753906" xlink:href="#DejaVuSans-105"/>
     <use x="757.537109" xlink:href="#DejaVuSans-110"/>
     <use x="820.916016" xlink:href="#DejaVuSans-103"/>
    </g>
   </g>
   <g id="legend_1">
    <g id="patch_7">
     <path d="M 46.65 80.55625 
L 119.084375 80.55625 
Q 121.084375 80.55625 121.084375 78.55625 
L 121.084375 50.2 
Q 121.084375 48.2 119.084375 48.2 
L 46.65 48.2 
Q 44.65 48.2 44.65 50.2 
L 44.65 78.55625 
Q 44.65 80.55625 46.65 80.55625 
z
" style="fill:#ffffff;opacity:0.8;stroke:#cccccc;stroke-linejoin:miter;"/>
    </g>
    <g id="line2d_54"/>
    <g id="line2d_55">
     <g>
      <use style="stroke:#000000;" x="58.65" xlink:href="#m8b1a5e0cc5" y="56.298437"/>
     </g>
    </g>
    <g id="text_15">
     <!-- model -->
     <defs>
      <path d="M 30.609375 48.390625 
Q 23.390625 48.390625 19.1875 42.75 
Q 14.984375 37.109375 14.984375 27.296875 
Q 14.984375 17.484375 19.15625 11.84375 
Q 23.34375 6.203125 30.609375 6.203125 
Q 37.796875 6.203125 41.984375 11.859375 
Q 46.1875 17.53125 46.1875 27.296875 
Q 46.1875 37.015625 41.984375 42.703125 
Q 37.796875 48.390625 30.609375 48.390625 
z
M 30.609375 56 
Q 42.328125 56 49.015625 48.375 
Q 55.71875 40.765625 55.71875 27.296875 
Q 55.71875 13.875 49.015625 6.21875 
Q 42.328125 -1.421875 30.609375 -1.421875 
Q 18.84375 -1.421875 12.171875 6.21875 
Q 5.515625 13.875 5.515625 27.296875 
Q 5.515625 40.765625 12.171875 48.375 
Q 18.84375 56 30.609375 56 
z
" id="DejaVuSans-111"/>
      <path d="M 45.40625 46.390625 
L 45.40625 75.984375 
L 54.390625 75.984375 
L 54.390625 0 
L 45.40625 0 
L 45.40625 8.203125 
Q 42.578125 3.328125 38.25 0.953125 
Q 33.9375 -1.421875 27.875 -1.421875 
Q 17.96875 -1.421875 11.734375 6.484375 
Q 5.515625 14.40625 5.515625 27.296875 
Q 5.515625 40.1875 11.734375 48.09375 
Q 17.96875 56 27.875 56 
Q 33.9375 56 38.25 53.625 
Q 42.578125 51.265625 45.40625 46.390625 
z
M 14.796875 27.296875 
Q 14.796875 17.390625 18.875 11.75 
Q 22.953125 6.109375 30.078125 6.109375 
Q 37.203125 6.109375 41.296875 11.75 
Q 45.40625 17.390625 45.40625 27.296875 
Q 45.40625 37.203125 41.296875 42.84375 
Q 37.203125 48.484375 30.078125 48.484375 
Q 22.953125 48.484375 18.875 42.84375 
Q 14.796875 37.203125 14.796875 27.296875 
z
" id="DejaVuSans-100"/>
      <path d="M 9.421875 75.984375 
L 18.40625 75.984375 
L 18.40625 0 
L 9.421875 0 
z
" id="DejaVuSans-108"/>
     </defs>
     <g transform="translate(76.65 59.798437)scale(0.1 -0.1)">
      <use xlink:href="#DejaVuSans-109"/>
      <use x="97.412109" xlink:href="#DejaVuSans-111"/>
      <use x="158.59375" xlink:href="#DejaVuSans-100"/>
      <use x="222.070312" xlink:href="#DejaVuSans-101"/>
      <use x="283.59375" xlink:href="#DejaVuSans-108"/>
     </g>
    </g>
    <g id="line2d_56">
     <path d="M 48.65 70.976562 
L 68.65 70.976562 
" style="fill:none;stroke:#008000;stroke-linecap:square;stroke-width:1.5;"/>
    </g>
    <g id="line2d_57"/>
    <g id="text_16">
     <!-- forecast -->
     <defs>
      <path d="M 37.109375 75.984375 
L 37.109375 68.5 
L 28.515625 68.5 
Q 23.6875 68.5 21.796875 66.546875 
Q 19.921875 64.59375 19.921875 59.515625 
L 19.921875 54.6875 
L 34.71875 54.6875 
L 34.71875 47.703125 
L 19.921875 47.703125 
L 19.921875 0 
L 10.890625 0 
L 10.890625 47.703125 
L 2.296875 47.703125 
L 2.296875 54.6875 
L 10.890625 54.6875 
L 10.890625 58.5 
Q 10.890625 67.625 15.140625 71.796875 
Q 19.390625 75.984375 28.609375 75.984375 
z
" id="DejaVuSans-102"/>
      <path d="M 44.28125 53.078125 
L 44.28125 44.578125 
Q 40.484375 46.53125 36.375 47.5 
Q 32.28125 48.484375 27.875 48.484375 
Q 21.1875 48.484375 17.84375 46.4375 
Q 14.5 44.390625 14.5 40.28125 
Q 14.5 37.15625 16.890625 35.375 
Q 19.28125 33.59375 26.515625 31.984375 
L 29.59375 31.296875 
Q 39.15625 29.25 43.1875 25.515625 
Q 47.21875 21.78125 47.21875 15.09375 
Q 47.21875 7.46875 41.1875 3.015625 
Q 35.15625 -1.421875 24.609375 -1.421875 
Q 20.21875 -1.421875 15.453125 -0.5625 
Q 10.6875 0.296875 5.421875 2 
L 5.421875 11.28125 
Q 10.40625 8.6875 15.234375 7.390625 
Q 20.0625 6.109375 24.8125 6.109375 
Q 31.15625 6.109375 34.5625 8.28125 
Q 37.984375 10.453125 37.984375 14.40625 
Q 37.984375 18.0625 35.515625 20.015625 
Q 33.0625 21.96875 24.703125 23.78125 
L 21.578125 24.515625 
Q 13.234375 26.265625 9.515625 29.90625 
Q 5.8125 33.546875 5.8125 39.890625 
Q 5.8125 47.609375 11.28125 51.796875 
Q 16.75 56 26.8125 56 
Q 31.78125 56 36.171875 55.265625 
Q 40.578125 54.546875 44.28125 53.078125 
z
" id="DejaVuSans-115"/>
     </defs>
     <g transform="translate(76.65 74.476562)scale(0.1 -0.1)">
      <use xlink:href="#DejaVuSans-102"/>
      <use x="35.205078" xlink:href="#DejaVuSans-111"/>
      <use x="96.386719" xlink:href="#DejaVuSans-114"/>
      <use x="135.25" xlink:href="#DejaVuSans-101"/>
      <use x="196.773438" xlink:href="#DejaVuSans-99"/>
      <use x="251.753906" xlink:href="#DejaVuSans-97"/>
      <use x="313.033203" xlink:href="#DejaVuSans-115"/>
      <use x="365.132812" xlink:href="#DejaVuSans-116"/>
     </g>
    </g>
   </g>
  </g>
  <g id="axes_2">
   <g id="patch_8">
    <path d="M 496.195455 315 
L 876.65 315 
L 876.65 43.2 
L 496.195455 43.2 
z
" style="fill:#ffffff;"/>
   </g>
   <g id="PolyCollection_2">
    <defs>
     <path d="M 692.982288 -316.860976 
L 692.982288 -70.611385 
L 699.54185 -70.622746 
L 706.101411 -70.631808 
L 712.660972 -70.639037 
L 719.220533 -70.644802 
L 725.780094 -70.649401 
L 732.339655 -70.653069 
L 738.899216 -70.655995 
L 745.458777 -70.658328 
L 752.018339 -70.66019 
L 758.5779 -70.661674 
L 765.137461 -70.662858 
L 771.697022 -70.663803 
L 778.256583 -70.664556 
L 784.816144 -70.665157 
L 791.375705 -70.665637 
L 797.935266 -70.666019 
L 804.494828 -70.666324 
L 811.054389 -70.666567 
L 817.61395 -70.666761 
L 824.173511 -70.666916 
L 830.733072 -70.667039 
L 837.292633 -70.667138 
L 843.852194 -70.667216 
L 850.411755 -70.667279 
L 856.971317 -70.667329 
L 863.530878 -70.667369 
L 870.090439 -70.6674 
L 876.65 -70.667426 
L 876.65 -316.917017 
L 876.65 -316.917017 
L 870.090439 -316.916992 
L 863.530878 -316.91696 
L 856.971317 -316.91692 
L 850.411755 -316.91687 
L 843.852194 -316.916807 
L 837.292633 -316.916729 
L 830.733072 -316.916631 
L 824.173511 -316.916507 
L 817.61395 -316.916352 
L 811.054389 -316.916158 
L 804.494828 -316.915915 
L 797.935266 -316.91561 
L 791.375705 -316.915228 
L 784.816144 -316.914749 
L 778.256583 -316.914148 
L 771.697022 -316.913394 
L 765.137461 -316.91245 
L 758.5779 -316.911265 
L 752.018339 -316.909781 
L 745.458777 -316.907919 
L 738.899216 -316.905586 
L 732.339655 -316.90266 
L 725.780094 -316.898992 
L 719.220533 -316.894393 
L 712.660972 -316.888628 
L 706.101411 -316.8814 
L 699.54185 -316.872337 
L 692.982288 -316.860976 
z
" id="m8fd81d0711" style="stroke:#0000ff;stroke-opacity:0.3;"/>
    </defs>
    <g clip-path="url(#p8fe178cf62)">
     <use style="fill:#0000ff;fill-opacity:0.3;stroke:#0000ff;stroke-opacity:0.3;" x="0" xlink:href="#m8fd81d0711" y="372.471562"/>
    </g>
   </g>
   <g id="matplotlib.axis_3">
    <g id="xtick_28">
     <g id="line2d_58">
      <path clip-path="url(#p8fe178cf62)" d="M 496.195455 315 
L 496.195455 43.2 
" style="fill:none;stroke:#b0b0b0;stroke-linecap:square;stroke-width:0.8;"/>
     </g>
     <g id="line2d_59">
      <g>
       <use style="stroke:#000000;stroke-width:0.8;" x="496.195455" xlink:href="#mb5c089ff1a" y="315"/>
      </g>
     </g>
    </g>
    <g id="xtick_29">
     <g id="line2d_60">
      <path clip-path="url(#p8fe178cf62)" d="M 561.791066 315 
L 561.791066 43.2 
" style="fill:none;stroke:#b0b0b0;stroke-linecap:square;stroke-width:0.8;"/>
     </g>
     <g id="line2d_61">
      <g>
       <use style="stroke:#000000;stroke-width:0.8;" x="561.791066" xlink:href="#mb5c089ff1a" y="315"/>
      </g>
     </g>
     <g id="text_17">
      <!--  -->
      <g transform="translate(561.791066 329.598437)scale(0.1 -0.1)"/>
      <!--  -->
      <g transform="translate(561.791066 340.79625)scale(0.1 -0.1)"/>
      <!-- May -->
      <g transform="translate(551.453566 351.994062)scale(0.1 -0.1)">
       <use xlink:href="#DejaVuSans-77"/>
       <use x="86.279297" xlink:href="#DejaVuSans-97"/>
       <use x="147.558594" xlink:href="#DejaVuSans-121"/>
      </g>
      <!-- 2020 -->
      <g transform="translate(549.066066 363.191875)scale(0.1 -0.1)">
       <use xlink:href="#DejaVuSans-50"/>
       <use x="63.623047" xlink:href="#DejaVuSans-48"/>
       <use x="127.246094" xlink:href="#DejaVuSans-50"/>
       <use x="190.869141" xlink:href="#DejaVuSans-48"/>
      </g>
     </g>
    </g>
    <g id="xtick_30">
     <g id="line2d_62">
      <path clip-path="url(#p8fe178cf62)" d="M 765.137461 315 
L 765.137461 43.2 
" style="fill:none;stroke:#b0b0b0;stroke-linecap:square;stroke-width:0.8;"/>
     </g>
     <g id="line2d_63">
      <g>
       <use style="stroke:#000000;stroke-width:0.8;" x="765.137461" xlink:href="#mb5c089ff1a" y="315"/>
      </g>
     </g>
     <g id="text_18">
      <!--  -->
      <g transform="translate(765.137461 329.598437)scale(0.1 -0.1)"/>
      <!--  -->
      <g transform="translate(765.137461 340.79625)scale(0.1 -0.1)"/>
      <!-- Jun -->
      <g transform="translate(757.324961 351.994062)scale(0.1 -0.1)">
       <use xlink:href="#DejaVuSans-74"/>
       <use x="29.492188" xlink:href="#DejaVuSans-117"/>
       <use x="92.871094" xlink:href="#DejaVuSans-110"/>
      </g>
     </g>
    </g>
    <g id="xtick_31">
     <g id="line2d_64">
      <path clip-path="url(#p8fe178cf62)" d="M 876.65 315 
L 876.65 43.2 
" style="fill:none;stroke:#b0b0b0;stroke-linecap:square;stroke-width:0.8;"/>
     </g>
     <g id="line2d_65">
      <g>
       <use style="stroke:#000000;stroke-width:0.8;" x="876.65" xlink:href="#mb5c089ff1a" y="315"/>
      </g>
     </g>
    </g>
    <g id="xtick_32">
     <g id="line2d_66">
      <g>
       <use style="stroke:#000000;stroke-width:0.6;" x="502.755016" xlink:href="#mad810ec807" y="315"/>
      </g>
     </g>
    </g>
    <g id="xtick_33">
     <g id="line2d_67">
      <g>
       <use style="stroke:#000000;stroke-width:0.6;" x="509.314577" xlink:href="#mad810ec807" y="315"/>
      </g>
     </g>
    </g>
    <g id="xtick_34">
     <g id="line2d_68">
      <g>
       <use style="stroke:#000000;stroke-width:0.6;" x="515.874138" xlink:href="#mad810ec807" y="315"/>
      </g>
     </g>
    </g>
    <g id="xtick_35">
     <g id="line2d_69">
      <g>
       <use style="stroke:#000000;stroke-width:0.6;" x="522.433699" xlink:href="#mad810ec807" y="315"/>
      </g>
     </g>
    </g>
    <g id="xtick_36">
     <g id="line2d_70">
      <g>
       <use style="stroke:#000000;stroke-width:0.6;" x="528.99326" xlink:href="#mad810ec807" y="315"/>
      </g>
     </g>
    </g>
    <g id="xtick_37">
     <g id="line2d_71">
      <g>
       <use style="stroke:#000000;stroke-width:0.6;" x="535.552821" xlink:href="#mad810ec807" y="315"/>
      </g>
     </g>
     <g id="text_19">
      <!-- 27 -->
      <defs>
       <path d="M 8.203125 72.90625 
L 55.078125 72.90625 
L 55.078125 68.703125 
L 28.609375 0 
L 18.3125 0 
L 43.21875 64.59375 
L 8.203125 64.59375 
z
" id="DejaVuSans-55"/>
      </defs>
      <g transform="translate(529.190321 327.998437)scale(0.1 -0.1)">
       <use xlink:href="#DejaVuSans-50"/>
       <use x="63.623047" xlink:href="#DejaVuSans-55"/>
      </g>
     </g>
    </g>
    <g id="xtick_38">
     <g id="line2d_72">
      <g>
       <use style="stroke:#000000;stroke-width:0.6;" x="542.112382" xlink:href="#mad810ec807" y="315"/>
      </g>
     </g>
    </g>
    <g id="xtick_39">
     <g id="line2d_73">
      <g>
       <use style="stroke:#000000;stroke-width:0.6;" x="548.671944" xlink:href="#mad810ec807" y="315"/>
      </g>
     </g>
    </g>
    <g id="xtick_40">
     <g id="line2d_74">
      <g>
       <use style="stroke:#000000;stroke-width:0.6;" x="555.231505" xlink:href="#mad810ec807" y="315"/>
      </g>
     </g>
    </g>
    <g id="xtick_41">
     <g id="line2d_75">
      <g>
       <use style="stroke:#000000;stroke-width:0.6;" x="568.350627" xlink:href="#mad810ec807" y="315"/>
      </g>
     </g>
    </g>
    <g id="xtick_42">
     <g id="line2d_76">
      <g>
       <use style="stroke:#000000;stroke-width:0.6;" x="574.910188" xlink:href="#mad810ec807" y="315"/>
      </g>
     </g>
    </g>
    <g id="xtick_43">
     <g id="line2d_77">
      <g>
       <use style="stroke:#000000;stroke-width:0.6;" x="581.469749" xlink:href="#mad810ec807" y="315"/>
      </g>
     </g>
     <g id="text_20">
      <!-- 04 -->
      <g transform="translate(575.107249 327.998437)scale(0.1 -0.1)">
       <use xlink:href="#DejaVuSans-48"/>
       <use x="63.623047" xlink:href="#DejaVuSans-52"/>
      </g>
     </g>
    </g>
    <g id="xtick_44">
     <g id="line2d_78">
      <g>
       <use style="stroke:#000000;stroke-width:0.6;" x="588.02931" xlink:href="#mad810ec807" y="315"/>
      </g>
     </g>
    </g>
    <g id="xtick_45">
     <g id="line2d_79">
      <g>
       <use style="stroke:#000000;stroke-width:0.6;" x="594.588871" xlink:href="#mad810ec807" y="315"/>
      </g>
     </g>
    </g>
    <g id="xtick_46">
     <g id="line2d_80">
      <g>
       <use style="stroke:#000000;stroke-width:0.6;" x="601.148433" xlink:href="#mad810ec807" y="315"/>
      </g>
     </g>
    </g>
    <g id="xtick_47">
     <g id="line2d_81">
      <g>
       <use style="stroke:#000000;stroke-width:0.6;" x="607.707994" xlink:href="#mad810ec807" y="315"/>
      </g>
     </g>
    </g>
    <g id="xtick_48">
     <g id="line2d_82">
      <g>
       <use style="stroke:#000000;stroke-width:0.6;" x="614.267555" xlink:href="#mad810ec807" y="315"/>
      </g>
     </g>
    </g>
    <g id="xtick_49">
     <g id="line2d_83">
      <g>
       <use style="stroke:#000000;stroke-width:0.6;" x="620.827116" xlink:href="#mad810ec807" y="315"/>
      </g>
     </g>
    </g>
    <g id="xtick_50">
     <g id="line2d_84">
      <g>
       <use style="stroke:#000000;stroke-width:0.6;" x="627.386677" xlink:href="#mad810ec807" y="315"/>
      </g>
     </g>
     <g id="text_21">
      <!-- 11 -->
      <g transform="translate(621.024177 327.998437)scale(0.1 -0.1)">
       <use xlink:href="#DejaVuSans-49"/>
       <use x="63.623047" xlink:href="#DejaVuSans-49"/>
      </g>
     </g>
    </g>
    <g id="xtick_51">
     <g id="line2d_85">
      <g>
       <use style="stroke:#000000;stroke-width:0.6;" x="633.946238" xlink:href="#mad810ec807" y="315"/>
      </g>
     </g>
    </g>
    <g id="xtick_52">
     <g id="line2d_86">
      <g>
       <use style="stroke:#000000;stroke-width:0.6;" x="640.505799" xlink:href="#mad810ec807" y="315"/>
      </g>
     </g>
    </g>
    <g id="xtick_53">
     <g id="line2d_87">
      <g>
       <use style="stroke:#000000;stroke-width:0.6;" x="647.065361" xlink:href="#mad810ec807" y="315"/>
      </g>
     </g>
    </g>
    <g id="xtick_54">
     <g id="line2d_88">
      <g>
       <use style="stroke:#000000;stroke-width:0.6;" x="653.624922" xlink:href="#mad810ec807" y="315"/>
      </g>
     </g>
    </g>
    <g id="xtick_55">
     <g id="line2d_89">
      <g>
       <use style="stroke:#000000;stroke-width:0.6;" x="660.184483" xlink:href="#mad810ec807" y="315"/>
      </g>
     </g>
    </g>
    <g id="xtick_56">
     <g id="line2d_90">
      <g>
       <use style="stroke:#000000;stroke-width:0.6;" x="666.744044" xlink:href="#mad810ec807" y="315"/>
      </g>
     </g>
    </g>
    <g id="xtick_57">
     <g id="line2d_91">
      <g>
       <use style="stroke:#000000;stroke-width:0.6;" x="673.303605" xlink:href="#mad810ec807" y="315"/>
      </g>
     </g>
     <g id="text_22">
      <!-- 18 -->
      <g transform="translate(666.941105 327.998437)scale(0.1 -0.1)">
       <use xlink:href="#DejaVuSans-49"/>
       <use x="63.623047" xlink:href="#DejaVuSans-56"/>
      </g>
     </g>
    </g>
    <g id="xtick_58">
     <g id="line2d_92">
      <g>
       <use style="stroke:#000000;stroke-width:0.6;" x="679.863166" xlink:href="#mad810ec807" y="315"/>
      </g>
     </g>
    </g>
    <g id="xtick_59">
     <g id="line2d_93">
      <g>
       <use style="stroke:#000000;stroke-width:0.6;" x="686.422727" xlink:href="#mad810ec807" y="315"/>
      </g>
     </g>
    </g>
    <g id="xtick_60">
     <g id="line2d_94">
      <g>
       <use style="stroke:#000000;stroke-width:0.6;" x="692.982288" xlink:href="#mad810ec807" y="315"/>
      </g>
     </g>
    </g>
    <g id="xtick_61">
     <g id="line2d_95">
      <g>
       <use style="stroke:#000000;stroke-width:0.6;" x="699.54185" xlink:href="#mad810ec807" y="315"/>
      </g>
     </g>
    </g>
    <g id="xtick_62">
     <g id="line2d_96">
      <g>
       <use style="stroke:#000000;stroke-width:0.6;" x="706.101411" xlink:href="#mad810ec807" y="315"/>
      </g>
     </g>
    </g>
    <g id="xtick_63">
     <g id="line2d_97">
      <g>
       <use style="stroke:#000000;stroke-width:0.6;" x="712.660972" xlink:href="#mad810ec807" y="315"/>
      </g>
     </g>
    </g>
    <g id="xtick_64">
     <g id="line2d_98">
      <g>
       <use style="stroke:#000000;stroke-width:0.6;" x="719.220533" xlink:href="#mad810ec807" y="315"/>
      </g>
     </g>
     <g id="text_23">
      <!-- 25 -->
      <defs>
       <path d="M 10.796875 72.90625 
L 49.515625 72.90625 
L 49.515625 64.59375 
L 19.828125 64.59375 
L 19.828125 46.734375 
Q 21.96875 47.46875 24.109375 47.828125 
Q 26.265625 48.1875 28.421875 48.1875 
Q 40.625 48.1875 47.75 41.5 
Q 54.890625 34.8125 54.890625 23.390625 
Q 54.890625 11.625 47.5625 5.09375 
Q 40.234375 -1.421875 26.90625 -1.421875 
Q 22.3125 -1.421875 17.546875 -0.640625 
Q 12.796875 0.140625 7.71875 1.703125 
L 7.71875 11.625 
Q 12.109375 9.234375 16.796875 8.0625 
Q 21.484375 6.890625 26.703125 6.890625 
Q 35.15625 6.890625 40.078125 11.328125 
Q 45.015625 15.765625 45.015625 23.390625 
Q 45.015625 31 40.078125 35.4375 
Q 35.15625 39.890625 26.703125 39.890625 
Q 22.75 39.890625 18.8125 39.015625 
Q 14.890625 38.140625 10.796875 36.28125 
z
" id="DejaVuSans-53"/>
      </defs>
      <g transform="translate(712.858033 327.998437)scale(0.1 -0.1)">
       <use xlink:href="#DejaVuSans-50"/>
       <use x="63.623047" xlink:href="#DejaVuSans-53"/>
      </g>
     </g>
    </g>
    <g id="xtick_65">
     <g id="line2d_99">
      <g>
       <use style="stroke:#000000;stroke-width:0.6;" x="725.780094" xlink:href="#mad810ec807" y="315"/>
      </g>
     </g>
    </g>
    <g id="xtick_66">
     <g id="line2d_100">
      <g>
       <use style="stroke:#000000;stroke-width:0.6;" x="732.339655" xlink:href="#mad810ec807" y="315"/>
      </g>
     </g>
    </g>
    <g id="xtick_67">
     <g id="line2d_101">
      <g>
       <use style="stroke:#000000;stroke-width:0.6;" x="738.899216" xlink:href="#mad810ec807" y="315"/>
      </g>
     </g>
    </g>
    <g id="xtick_68">
     <g id="line2d_102">
      <g>
       <use style="stroke:#000000;stroke-width:0.6;" x="745.458777" xlink:href="#mad810ec807" y="315"/>
      </g>
     </g>
    </g>
    <g id="xtick_69">
     <g id="line2d_103">
      <g>
       <use style="stroke:#000000;stroke-width:0.6;" x="752.018339" xlink:href="#mad810ec807" y="315"/>
      </g>
     </g>
    </g>
    <g id="xtick_70">
     <g id="line2d_104">
      <g>
       <use style="stroke:#000000;stroke-width:0.6;" x="758.5779" xlink:href="#mad810ec807" y="315"/>
      </g>
     </g>
    </g>
    <g id="xtick_71">
     <g id="line2d_105">
      <g>
       <use style="stroke:#000000;stroke-width:0.6;" x="771.697022" xlink:href="#mad810ec807" y="315"/>
      </g>
     </g>
    </g>
    <g id="xtick_72">
     <g id="line2d_106">
      <g>
       <use style="stroke:#000000;stroke-width:0.6;" x="778.256583" xlink:href="#mad810ec807" y="315"/>
      </g>
     </g>
    </g>
    <g id="xtick_73">
     <g id="line2d_107">
      <g>
       <use style="stroke:#000000;stroke-width:0.6;" x="784.816144" xlink:href="#mad810ec807" y="315"/>
      </g>
     </g>
    </g>
    <g id="xtick_74">
     <g id="line2d_108">
      <g>
       <use style="stroke:#000000;stroke-width:0.6;" x="791.375705" xlink:href="#mad810ec807" y="315"/>
      </g>
     </g>
    </g>
    <g id="xtick_75">
     <g id="line2d_109">
      <g>
       <use style="stroke:#000000;stroke-width:0.6;" x="797.935266" xlink:href="#mad810ec807" y="315"/>
      </g>
     </g>
    </g>
    <g id="xtick_76">
     <g id="line2d_110">
      <g>
       <use style="stroke:#000000;stroke-width:0.6;" x="804.494828" xlink:href="#mad810ec807" y="315"/>
      </g>
     </g>
    </g>
    <g id="xtick_77">
     <g id="line2d_111">
      <g>
       <use style="stroke:#000000;stroke-width:0.6;" x="811.054389" xlink:href="#mad810ec807" y="315"/>
      </g>
     </g>
     <g id="text_24">
      <!-- 08 -->
      <g transform="translate(804.691889 327.998437)scale(0.1 -0.1)">
       <use xlink:href="#DejaVuSans-48"/>
       <use x="63.623047" xlink:href="#DejaVuSans-56"/>
      </g>
     </g>
    </g>
    <g id="xtick_78">
     <g id="line2d_112">
      <g>
       <use style="stroke:#000000;stroke-width:0.6;" x="817.61395" xlink:href="#mad810ec807" y="315"/>
      </g>
     </g>
    </g>
    <g id="xtick_79">
     <g id="line2d_113">
      <g>
       <use style="stroke:#000000;stroke-width:0.6;" x="824.173511" xlink:href="#mad810ec807" y="315"/>
      </g>
     </g>
    </g>
    <g id="xtick_80">
     <g id="line2d_114">
      <g>
       <use style="stroke:#000000;stroke-width:0.6;" x="830.733072" xlink:href="#mad810ec807" y="315"/>
      </g>
     </g>
    </g>
    <g id="xtick_81">
     <g id="line2d_115">
      <g>
       <use style="stroke:#000000;stroke-width:0.6;" x="837.292633" xlink:href="#mad810ec807" y="315"/>
      </g>
     </g>
    </g>
    <g id="xtick_82">
     <g id="line2d_116">
      <g>
       <use style="stroke:#000000;stroke-width:0.6;" x="843.852194" xlink:href="#mad810ec807" y="315"/>
      </g>
     </g>
    </g>
    <g id="xtick_83">
     <g id="line2d_117">
      <g>
       <use style="stroke:#000000;stroke-width:0.6;" x="850.411755" xlink:href="#mad810ec807" y="315"/>
      </g>
     </g>
    </g>
    <g id="xtick_84">
     <g id="line2d_118">
      <g>
       <use style="stroke:#000000;stroke-width:0.6;" x="856.971317" xlink:href="#mad810ec807" y="315"/>
      </g>
     </g>
     <g id="text_25">
      <!-- 15 -->
      <g transform="translate(850.608817 327.998437)scale(0.1 -0.1)">
       <use xlink:href="#DejaVuSans-49"/>
       <use x="63.623047" xlink:href="#DejaVuSans-53"/>
      </g>
     </g>
    </g>
    <g id="xtick_85">
     <g id="line2d_119">
      <g>
       <use style="stroke:#000000;stroke-width:0.6;" x="863.530878" xlink:href="#mad810ec807" y="315"/>
      </g>
     </g>
    </g>
    <g id="xtick_86">
     <g id="line2d_120">
      <g>
       <use style="stroke:#000000;stroke-width:0.6;" x="870.090439" xlink:href="#mad810ec807" y="315"/>
      </g>
     </g>
    </g>
   </g>
   <g id="matplotlib.axis_4">
    <g id="ytick_9">
     <g id="line2d_121">
      <path clip-path="url(#p8fe178cf62)" d="M 496.195455 284.870909 
L 876.65 284.870909 
" style="fill:none;stroke:#b0b0b0;stroke-linecap:square;stroke-width:0.8;"/>
     </g>
     <g id="line2d_122">
      <g>
       <use style="stroke:#000000;stroke-width:0.8;" x="496.195455" xlink:href="#me0a7139105" y="284.870909"/>
      </g>
     </g>
     <g id="text_26">
      <!-- 1450 -->
      <g transform="translate(463.745455 288.670127)scale(0.1 -0.1)">
       <use xlink:href="#DejaVuSans-49"/>
       <use x="63.623047" xlink:href="#DejaVuSans-52"/>
       <use x="127.246094" xlink:href="#DejaVuSans-53"/>
       <use x="190.869141" xlink:href="#DejaVuSans-48"/>
      </g>
     </g>
    </g>
    <g id="ytick_10">
     <g id="line2d_123">
      <path clip-path="url(#p8fe178cf62)" d="M 496.195455 249.321817 
L 876.65 249.321817 
" style="fill:none;stroke:#b0b0b0;stroke-linecap:square;stroke-width:0.8;"/>
     </g>
     <g id="line2d_124">
      <g>
       <use style="stroke:#000000;stroke-width:0.8;" x="496.195455" xlink:href="#me0a7139105" y="249.321817"/>
      </g>
     </g>
     <g id="text_27">
      <!-- 1460 -->
      <g transform="translate(463.745455 253.121036)scale(0.1 -0.1)">
       <use xlink:href="#DejaVuSans-49"/>
       <use x="63.623047" xlink:href="#DejaVuSans-52"/>
       <use x="127.246094" xlink:href="#DejaVuSans-54"/>
       <use x="190.869141" xlink:href="#DejaVuSans-48"/>
      </g>
     </g>
    </g>
    <g id="ytick_11">
     <g id="line2d_125">
      <path clip-path="url(#p8fe178cf62)" d="M 496.195455 213.772725 
L 876.65 213.772725 
" style="fill:none;stroke:#b0b0b0;stroke-linecap:square;stroke-width:0.8;"/>
     </g>
     <g id="line2d_126">
      <g>
       <use style="stroke:#000000;stroke-width:0.8;" x="496.195455" xlink:href="#me0a7139105" y="213.772725"/>
      </g>
     </g>
     <g id="text_28">
      <!-- 1470 -->
      <g transform="translate(463.745455 217.571944)scale(0.1 -0.1)">
       <use xlink:href="#DejaVuSans-49"/>
       <use x="63.623047" xlink:href="#DejaVuSans-52"/>
       <use x="127.246094" xlink:href="#DejaVuSans-55"/>
       <use x="190.869141" xlink:href="#DejaVuSans-48"/>
      </g>
     </g>
    </g>
    <g id="ytick_12">
     <g id="line2d_127">
      <path clip-path="url(#p8fe178cf62)" d="M 496.195455 178.223634 
L 876.65 178.223634 
" style="fill:none;stroke:#b0b0b0;stroke-linecap:square;stroke-width:0.8;"/>
     </g>
     <g id="line2d_128">
      <g>
       <use style="stroke:#000000;stroke-width:0.8;" x="496.195455" xlink:href="#me0a7139105" y="178.223634"/>
      </g>
     </g>
     <g id="text_29">
      <!-- 1480 -->
      <g transform="translate(463.745455 182.022853)scale(0.1 -0.1)">
       <use xlink:href="#DejaVuSans-49"/>
       <use x="63.623047" xlink:href="#DejaVuSans-52"/>
       <use x="127.246094" xlink:href="#DejaVuSans-56"/>
       <use x="190.869141" xlink:href="#DejaVuSans-48"/>
      </g>
     </g>
    </g>
    <g id="ytick_13">
     <g id="line2d_129">
      <path clip-path="url(#p8fe178cf62)" d="M 496.195455 142.674542 
L 876.65 142.674542 
" style="fill:none;stroke:#b0b0b0;stroke-linecap:square;stroke-width:0.8;"/>
     </g>
     <g id="line2d_130">
      <g>
       <use style="stroke:#000000;stroke-width:0.8;" x="496.195455" xlink:href="#me0a7139105" y="142.674542"/>
      </g>
     </g>
     <g id="text_30">
      <!-- 1490 -->
      <defs>
       <path d="M 10.984375 1.515625 
L 10.984375 10.5 
Q 14.703125 8.734375 18.5 7.8125 
Q 22.3125 6.890625 25.984375 6.890625 
Q 35.75 6.890625 40.890625 13.453125 
Q 46.046875 20.015625 46.78125 33.40625 
Q 43.953125 29.203125 39.59375 26.953125 
Q 35.25 24.703125 29.984375 24.703125 
Q 19.046875 24.703125 12.671875 31.3125 
Q 6.296875 37.9375 6.296875 49.421875 
Q 6.296875 60.640625 12.9375 67.421875 
Q 19.578125 74.21875 30.609375 74.21875 
Q 43.265625 74.21875 49.921875 64.515625 
Q 56.59375 54.828125 56.59375 36.375 
Q 56.59375 19.140625 48.40625 8.859375 
Q 40.234375 -1.421875 26.421875 -1.421875 
Q 22.703125 -1.421875 18.890625 -0.6875 
Q 15.09375 0.046875 10.984375 1.515625 
z
M 30.609375 32.421875 
Q 37.25 32.421875 41.125 36.953125 
Q 45.015625 41.5 45.015625 49.421875 
Q 45.015625 57.28125 41.125 61.84375 
Q 37.25 66.40625 30.609375 66.40625 
Q 23.96875 66.40625 20.09375 61.84375 
Q 16.21875 57.28125 16.21875 49.421875 
Q 16.21875 41.5 20.09375 36.953125 
Q 23.96875 32.421875 30.609375 32.421875 
z
" id="DejaVuSans-57"/>
      </defs>
      <g transform="translate(463.745455 146.473761)scale(0.1 -0.1)">
       <use xlink:href="#DejaVuSans-49"/>
       <use x="63.623047" xlink:href="#DejaVuSans-52"/>
       <use x="127.246094" xlink:href="#DejaVuSans-57"/>
       <use x="190.869141" xlink:href="#DejaVuSans-48"/>
      </g>
     </g>
    </g>
    <g id="ytick_14">
     <g id="line2d_131">
      <path clip-path="url(#p8fe178cf62)" d="M 496.195455 107.125451 
L 876.65 107.125451 
" style="fill:none;stroke:#b0b0b0;stroke-linecap:square;stroke-width:0.8;"/>
     </g>
     <g id="line2d_132">
      <g>
       <use style="stroke:#000000;stroke-width:0.8;" x="496.195455" xlink:href="#me0a7139105" y="107.125451"/>
      </g>
     </g>
     <g id="text_31">
      <!-- 1500 -->
      <g transform="translate(463.745455 110.924669)scale(0.1 -0.1)">
       <use xlink:href="#DejaVuSans-49"/>
       <use x="63.623047" xlink:href="#DejaVuSans-53"/>
       <use x="127.246094" xlink:href="#DejaVuSans-48"/>
       <use x="190.869141" xlink:href="#DejaVuSans-48"/>
      </g>
     </g>
    </g>
    <g id="ytick_15">
     <g id="line2d_133">
      <path clip-path="url(#p8fe178cf62)" d="M 496.195455 71.576359 
L 876.65 71.576359 
" style="fill:none;stroke:#b0b0b0;stroke-linecap:square;stroke-width:0.8;"/>
     </g>
     <g id="line2d_134">
      <g>
       <use style="stroke:#000000;stroke-width:0.8;" x="496.195455" xlink:href="#me0a7139105" y="71.576359"/>
      </g>
     </g>
     <g id="text_32">
      <!-- 1510 -->
      <g transform="translate(463.745455 75.375578)scale(0.1 -0.1)">
       <use xlink:href="#DejaVuSans-49"/>
       <use x="63.623047" xlink:href="#DejaVuSans-53"/>
       <use x="127.246094" xlink:href="#DejaVuSans-49"/>
       <use x="190.869141" xlink:href="#DejaVuSans-48"/>
      </g>
     </g>
    </g>
   </g>
   <g id="line2d_135">
    <g clip-path="url(#p8fe178cf62)">
     <use style="stroke:#000000;" x="496.195455" xlink:href="#m8b1a5e0cc5" y="302.645455"/>
     <use style="stroke:#000000;" x="502.755016" xlink:href="#m8b1a5e0cc5" y="281.316"/>
     <use style="stroke:#000000;" x="509.314577" xlink:href="#m8b1a5e0cc5" y="263.541454"/>
     <use style="stroke:#000000;" x="515.874138" xlink:href="#m8b1a5e0cc5" y="245.766908"/>
     <use style="stroke:#000000;" x="522.433699" xlink:href="#m8b1a5e0cc5" y="213.772725"/>
     <use style="stroke:#000000;" x="528.99326" xlink:href="#m8b1a5e0cc5" y="217.327635"/>
     <use style="stroke:#000000;" x="535.552821" xlink:href="#m8b1a5e0cc5" y="206.662907"/>
     <use style="stroke:#000000;" x="542.112382" xlink:href="#m8b1a5e0cc5" y="199.553089"/>
     <use style="stroke:#000000;" x="548.671944" xlink:href="#m8b1a5e0cc5" y="192.44327"/>
     <use style="stroke:#000000;" x="555.231505" xlink:href="#m8b1a5e0cc5" y="181.778543"/>
     <use style="stroke:#000000;" x="561.791066" xlink:href="#m8b1a5e0cc5" y="160.449088"/>
     <use style="stroke:#000000;" x="568.350627" xlink:href="#m8b1a5e0cc5" y="153.33927"/>
     <use style="stroke:#000000;" x="574.910188" xlink:href="#m8b1a5e0cc5" y="153.33927"/>
     <use style="stroke:#000000;" x="581.469749" xlink:href="#m8b1a5e0cc5" y="156.894179"/>
     <use style="stroke:#000000;" x="588.02931" xlink:href="#m8b1a5e0cc5" y="149.784361"/>
     <use style="stroke:#000000;" x="594.588871" xlink:href="#m8b1a5e0cc5" y="146.229451"/>
     <use style="stroke:#000000;" x="601.148433" xlink:href="#m8b1a5e0cc5" y="142.674542"/>
     <use style="stroke:#000000;" x="607.707994" xlink:href="#m8b1a5e0cc5" y="135.564724"/>
     <use style="stroke:#000000;" x="614.267555" xlink:href="#m8b1a5e0cc5" y="128.454906"/>
     <use style="stroke:#000000;" x="620.827116" xlink:href="#m8b1a5e0cc5" y="117.790178"/>
     <use style="stroke:#000000;" x="627.386677" xlink:href="#m8b1a5e0cc5" y="117.790178"/>
     <use style="stroke:#000000;" x="633.946238" xlink:href="#m8b1a5e0cc5" y="117.790178"/>
     <use style="stroke:#000000;" x="640.505799" xlink:href="#m8b1a5e0cc5" y="117.790178"/>
     <use style="stroke:#000000;" x="647.065361" xlink:href="#m8b1a5e0cc5" y="114.235269"/>
     <use style="stroke:#000000;" x="653.624922" xlink:href="#m8b1a5e0cc5" y="114.235269"/>
     <use style="stroke:#000000;" x="660.184483" xlink:href="#m8b1a5e0cc5" y="110.68036"/>
     <use style="stroke:#000000;" x="666.744044" xlink:href="#m8b1a5e0cc5" y="110.68036"/>
     <use style="stroke:#000000;" x="673.303605" xlink:href="#m8b1a5e0cc5" y="110.68036"/>
     <use style="stroke:#000000;" x="679.863166" xlink:href="#m8b1a5e0cc5" y="96.460723"/>
     <use style="stroke:#000000;" x="686.422727" xlink:href="#m8b1a5e0cc5" y="96.460723"/>
    </g>
   </g>
   <g id="line2d_136">
    <path clip-path="url(#p8fe178cf62)" d="M 496.195455 240.11736 
L 502.755016 227.799854 
L 509.314577 217.933196 
L 515.874138 210.03649 
L 522.433699 203.720743 
L 528.99326 198.672204 
L 535.552821 194.638383 
L 542.112382 191.416456 
L 548.671944 188.84373 
L 555.231505 186.789853 
L 561.791066 185.150479 
L 568.350627 183.842141 
L 574.910188 182.798112 
L 581.469749 181.965072 
L 588.02931 181.30043 
L 594.588871 180.770175 
L 601.148433 180.347155 
L 607.707994 180.009694 
L 614.267555 179.740497 
L 620.827116 179.525759 
L 627.386677 179.354466 
L 633.946238 179.217831 
L 640.505799 179.108842 
L 647.065361 179.021907 
L 653.624922 178.952563 
L 660.184483 178.897252 
L 666.744044 178.853133 
L 673.303605 178.817942 
L 679.863166 178.789873 
L 686.422727 178.767484 
" style="fill:none;stroke:#008000;stroke-linecap:square;stroke-width:1.5;"/>
   </g>
   <g id="line2d_137">
    <path clip-path="url(#p8fe178cf62)" d="M 692.982288 178.735382 
L 699.54185 178.724021 
L 706.101411 178.714958 
L 712.660972 178.70773 
L 719.220533 178.701965 
L 725.780094 178.697366 
L 732.339655 178.693698 
L 738.899216 178.690772 
L 745.458777 178.688439 
L 752.018339 178.686577 
L 758.5779 178.685093 
L 765.137461 178.683908 
L 771.697022 178.682964 
L 778.256583 178.682211 
L 784.816144 178.68161 
L 791.375705 178.68113 
L 797.935266 178.680748 
L 804.494828 178.680443 
L 811.054389 178.6802 
L 817.61395 178.680006 
L 824.173511 178.679851 
L 830.733072 178.679728 
L 837.292633 178.679629 
L 843.852194 178.679551 
L 850.411755 178.679488 
L 856.971317 178.679438 
L 863.530878 178.679398 
L 870.090439 178.679366 
L 876.65 178.679341 
" style="fill:none;stroke:#ff0000;stroke-linecap:square;stroke-width:1.5;"/>
   </g>
   <g id="patch_9">
    <path d="M 496.195455 315 
L 496.195455 43.2 
" style="fill:none;stroke:#000000;stroke-linecap:square;stroke-linejoin:miter;stroke-width:0.8;"/>
   </g>
   <g id="patch_10">
    <path d="M 876.65 315 
L 876.65 43.2 
" style="fill:none;stroke:#000000;stroke-linecap:square;stroke-linejoin:miter;stroke-width:0.8;"/>
   </g>
   <g id="patch_11">
    <path d="M 496.195455 315 
L 876.65 315 
" style="fill:none;stroke:#000000;stroke-linecap:square;stroke-linejoin:miter;stroke-width:0.8;"/>
   </g>
   <g id="patch_12">
    <path d="M 496.195455 43.2 
L 876.65 43.2 
" style="fill:none;stroke:#000000;stroke-linecap:square;stroke-linejoin:miter;stroke-width:0.8;"/>
   </g>
   <g id="text_33">
    <!-- Zoom on the last 30 observations -->
    <defs>
     <path d="M 5.609375 72.90625 
L 62.890625 72.90625 
L 62.890625 65.375 
L 16.796875 8.296875 
L 64.015625 8.296875 
L 64.015625 0 
L 4.5 0 
L 4.5 7.515625 
L 50.59375 64.59375 
L 5.609375 64.59375 
z
" id="DejaVuSans-90"/>
     <path d="M 54.890625 33.015625 
L 54.890625 0 
L 45.90625 0 
L 45.90625 32.71875 
Q 45.90625 40.484375 42.875 44.328125 
Q 39.84375 48.1875 33.796875 48.1875 
Q 26.515625 48.1875 22.3125 43.546875 
Q 18.109375 38.921875 18.109375 30.90625 
L 18.109375 0 
L 9.078125 0 
L 9.078125 75.984375 
L 18.109375 75.984375 
L 18.109375 46.1875 
Q 21.34375 51.125 25.703125 53.5625 
Q 30.078125 56 35.796875 56 
Q 45.21875 56 50.046875 50.171875 
Q 54.890625 44.34375 54.890625 33.015625 
z
" id="DejaVuSans-104"/>
     <path d="M 40.578125 39.3125 
Q 47.65625 37.796875 51.625 33 
Q 55.609375 28.21875 55.609375 21.1875 
Q 55.609375 10.40625 48.1875 4.484375 
Q 40.765625 -1.421875 27.09375 -1.421875 
Q 22.515625 -1.421875 17.65625 -0.515625 
Q 12.796875 0.390625 7.625 2.203125 
L 7.625 11.71875 
Q 11.71875 9.328125 16.59375 8.109375 
Q 21.484375 6.890625 26.8125 6.890625 
Q 36.078125 6.890625 40.9375 10.546875 
Q 45.796875 14.203125 45.796875 21.1875 
Q 45.796875 27.640625 41.28125 31.265625 
Q 36.765625 34.90625 28.71875 34.90625 
L 20.21875 34.90625 
L 20.21875 43.015625 
L 29.109375 43.015625 
Q 36.375 43.015625 40.234375 45.921875 
Q 44.09375 48.828125 44.09375 54.296875 
Q 44.09375 59.90625 40.109375 62.90625 
Q 36.140625 65.921875 28.71875 65.921875 
Q 24.65625 65.921875 20.015625 65.03125 
Q 15.375 64.15625 9.8125 62.3125 
L 9.8125 71.09375 
Q 15.4375 72.65625 20.34375 73.4375 
Q 25.25 74.21875 29.59375 74.21875 
Q 40.828125 74.21875 47.359375 69.109375 
Q 53.90625 64.015625 53.90625 55.328125 
Q 53.90625 49.265625 50.4375 45.09375 
Q 46.96875 40.921875 40.578125 39.3125 
z
" id="DejaVuSans-51"/>
     <path d="M 2.984375 54.6875 
L 12.5 54.6875 
L 29.59375 8.796875 
L 46.6875 54.6875 
L 56.203125 54.6875 
L 35.6875 0 
L 23.484375 0 
z
" id="DejaVuSans-118"/>
    </defs>
    <g transform="translate(585.203665 37.2)scale(0.12 -0.12)">
     <use xlink:href="#DejaVuSans-90"/>
     <use x="68.505859" xlink:href="#DejaVuSans-111"/>
     <use x="129.6875" xlink:href="#DejaVuSans-111"/>
     <use x="190.869141" xlink:href="#DejaVuSans-109"/>
     <use x="288.28125" xlink:href="#DejaVuSans-32"/>
     <use x="320.068359" xlink:href="#DejaVuSans-111"/>
     <use x="381.25" xlink:href="#DejaVuSans-110"/>
     <use x="444.628906" xlink:href="#DejaVuSans-32"/>
     <use x="476.416016" xlink:href="#DejaVuSans-116"/>
     <use x="515.625" xlink:href="#DejaVuSans-104"/>
     <use x="579.003906" xlink:href="#DejaVuSans-101"/>
     <use x="640.527344" xlink:href="#DejaVuSans-32"/>
     <use x="672.314453" xlink:href="#DejaVuSans-108"/>
     <use x="700.097656" xlink:href="#DejaVuSans-97"/>
     <use x="761.376953" xlink:href="#DejaVuSans-115"/>
     <use x="813.476562" xlink:href="#DejaVuSans-116"/>
     <use x="852.685547" xlink:href="#DejaVuSans-32"/>
     <use x="884.472656" xlink:href="#DejaVuSans-51"/>
     <use x="948.095703" xlink:href="#DejaVuSans-48"/>
     <use x="1011.71875" xlink:href="#DejaVuSans-32"/>
     <use x="1043.505859" xlink:href="#DejaVuSans-111"/>
     <use x="1104.6875" xlink:href="#DejaVuSans-98"/>
     <use x="1168.164062" xlink:href="#DejaVuSans-115"/>
     <use x="1220.263672" xlink:href="#DejaVuSans-101"/>
     <use x="1281.787109" xlink:href="#DejaVuSans-114"/>
     <use x="1322.900391" xlink:href="#DejaVuSans-118"/>
     <use x="1382.080078" xlink:href="#DejaVuSans-97"/>
     <use x="1443.359375" xlink:href="#DejaVuSans-116"/>
     <use x="1482.568359" xlink:href="#DejaVuSans-105"/>
     <use x="1510.351562" xlink:href="#DejaVuSans-111"/>
     <use x="1571.533203" xlink:href="#DejaVuSans-110"/>
     <use x="1634.912109" xlink:href="#DejaVuSans-115"/>
    </g>
   </g>
  </g>
  <g id="text_34">
   <!-- New Zealand's COVID-19 Outbreak Forecasting to Date -->
   <defs>
    <path d="M 9.8125 72.90625 
L 23.09375 72.90625 
L 55.421875 11.921875 
L 55.421875 72.90625 
L 64.984375 72.90625 
L 64.984375 0 
L 51.703125 0 
L 19.390625 60.984375 
L 19.390625 0 
L 9.8125 0 
z
" id="DejaVuSans-78"/>
    <path d="M 4.203125 54.6875 
L 13.1875 54.6875 
L 24.421875 12.015625 
L 35.59375 54.6875 
L 46.1875 54.6875 
L 57.421875 12.015625 
L 68.609375 54.6875 
L 77.59375 54.6875 
L 63.28125 0 
L 52.6875 0 
L 40.921875 44.828125 
L 29.109375 0 
L 18.5 0 
z
" id="DejaVuSans-119"/>
    <path d="M 17.921875 72.90625 
L 17.921875 45.796875 
L 9.625 45.796875 
L 9.625 72.90625 
z
" id="DejaVuSans-39"/>
    <path d="M 64.40625 67.28125 
L 64.40625 56.890625 
Q 59.421875 61.53125 53.78125 63.8125 
Q 48.140625 66.109375 41.796875 66.109375 
Q 29.296875 66.109375 22.65625 58.46875 
Q 16.015625 50.828125 16.015625 36.375 
Q 16.015625 21.96875 22.65625 14.328125 
Q 29.296875 6.6875 41.796875 6.6875 
Q 48.140625 6.6875 53.78125 8.984375 
Q 59.421875 11.28125 64.40625 15.921875 
L 64.40625 5.609375 
Q 59.234375 2.09375 53.4375 0.328125 
Q 47.65625 -1.421875 41.21875 -1.421875 
Q 24.65625 -1.421875 15.125 8.703125 
Q 5.609375 18.84375 5.609375 36.375 
Q 5.609375 53.953125 15.125 64.078125 
Q 24.65625 74.21875 41.21875 74.21875 
Q 47.75 74.21875 53.53125 72.484375 
Q 59.328125 70.75 64.40625 67.28125 
z
" id="DejaVuSans-67"/>
    <path d="M 39.40625 66.21875 
Q 28.65625 66.21875 22.328125 58.203125 
Q 16.015625 50.203125 16.015625 36.375 
Q 16.015625 22.609375 22.328125 14.59375 
Q 28.65625 6.59375 39.40625 6.59375 
Q 50.140625 6.59375 56.421875 14.59375 
Q 62.703125 22.609375 62.703125 36.375 
Q 62.703125 50.203125 56.421875 58.203125 
Q 50.140625 66.21875 39.40625 66.21875 
z
M 39.40625 74.21875 
Q 54.734375 74.21875 63.90625 63.9375 
Q 73.09375 53.65625 73.09375 36.375 
Q 73.09375 19.140625 63.90625 8.859375 
Q 54.734375 -1.421875 39.40625 -1.421875 
Q 24.03125 -1.421875 14.8125 8.828125 
Q 5.609375 19.09375 5.609375 36.375 
Q 5.609375 53.65625 14.8125 63.9375 
Q 24.03125 74.21875 39.40625 74.21875 
z
" id="DejaVuSans-79"/>
    <path d="M 28.609375 0 
L 0.78125 72.90625 
L 11.078125 72.90625 
L 34.1875 11.53125 
L 57.328125 72.90625 
L 67.578125 72.90625 
L 39.796875 0 
z
" id="DejaVuSans-86"/>
    <path d="M 9.8125 72.90625 
L 19.671875 72.90625 
L 19.671875 0 
L 9.8125 0 
z
" id="DejaVuSans-73"/>
    <path d="M 19.671875 64.796875 
L 19.671875 8.109375 
L 31.59375 8.109375 
Q 46.6875 8.109375 53.6875 14.9375 
Q 60.6875 21.78125 60.6875 36.53125 
Q 60.6875 51.171875 53.6875 57.984375 
Q 46.6875 64.796875 31.59375 64.796875 
z
M 9.8125 72.90625 
L 30.078125 72.90625 
Q 51.265625 72.90625 61.171875 64.09375 
Q 71.09375 55.28125 71.09375 36.53125 
Q 71.09375 17.671875 61.125 8.828125 
Q 51.171875 0 30.078125 0 
L 9.8125 0 
z
" id="DejaVuSans-68"/>
    <path d="M 4.890625 31.390625 
L 31.203125 31.390625 
L 31.203125 23.390625 
L 4.890625 23.390625 
z
" id="DejaVuSans-45"/>
    <path d="M 9.078125 75.984375 
L 18.109375 75.984375 
L 18.109375 31.109375 
L 44.921875 54.6875 
L 56.390625 54.6875 
L 27.390625 29.109375 
L 57.625 0 
L 45.90625 0 
L 18.109375 26.703125 
L 18.109375 0 
L 9.078125 0 
z
" id="DejaVuSans-107"/>
   </defs>
   <g transform="translate(278.924375 16.318125)scale(0.12 -0.12)">
    <use xlink:href="#DejaVuSans-78"/>
    <use x="74.804688" xlink:href="#DejaVuSans-101"/>
    <use x="136.328125" xlink:href="#DejaVuSans-119"/>
    <use x="218.115234" xlink:href="#DejaVuSans-32"/>
    <use x="249.902344" xlink:href="#DejaVuSans-90"/>
    <use x="318.408203" xlink:href="#DejaVuSans-101"/>
    <use x="379.931641" xlink:href="#DejaVuSans-97"/>
    <use x="441.210938" xlink:href="#DejaVuSans-108"/>
    <use x="468.994141" xlink:href="#DejaVuSans-97"/>
    <use x="530.273438" xlink:href="#DejaVuSans-110"/>
    <use x="593.652344" xlink:href="#DejaVuSans-100"/>
    <use x="657.128906" xlink:href="#DejaVuSans-39"/>
    <use x="684.619141" xlink:href="#DejaVuSans-115"/>
    <use x="736.71875" xlink:href="#DejaVuSans-32"/>
    <use x="768.505859" xlink:href="#DejaVuSans-67"/>
    <use x="838.330078" xlink:href="#DejaVuSans-79"/>
    <use x="915.291016" xlink:href="#DejaVuSans-86"/>
    <use x="983.699219" xlink:href="#DejaVuSans-73"/>
    <use x="1013.191406" xlink:href="#DejaVuSans-68"/>
    <use x="1090.193359" xlink:href="#DejaVuSans-45"/>
    <use x="1126.277344" xlink:href="#DejaVuSans-49"/>
    <use x="1189.900391" xlink:href="#DejaVuSans-57"/>
    <use x="1253.523438" xlink:href="#DejaVuSans-32"/>
    <use x="1285.310547" xlink:href="#DejaVuSans-79"/>
    <use x="1364.021484" xlink:href="#DejaVuSans-117"/>
    <use x="1427.400391" xlink:href="#DejaVuSans-116"/>
    <use x="1466.609375" xlink:href="#DejaVuSans-98"/>
    <use x="1530.085938" xlink:href="#DejaVuSans-114"/>
    <use x="1568.949219" xlink:href="#DejaVuSans-101"/>
    <use x="1630.472656" xlink:href="#DejaVuSans-97"/>
    <use x="1691.751953" xlink:href="#DejaVuSans-107"/>
    <use x="1749.662109" xlink:href="#DejaVuSans-32"/>
    <use x="1781.449219" xlink:href="#DejaVuSans-70"/>
    <use x="1835.34375" xlink:href="#DejaVuSans-111"/>
    <use x="1896.525391" xlink:href="#DejaVuSans-114"/>
    <use x="1935.388672" xlink:href="#DejaVuSans-101"/>
    <use x="1996.912109" xlink:href="#DejaVuSans-99"/>
    <use x="2051.892578" xlink:href="#DejaVuSans-97"/>
    <use x="2113.171875" xlink:href="#DejaVuSans-115"/>
    <use x="2165.271484" xlink:href="#DejaVuSans-116"/>
    <use x="2204.480469" xlink:href="#DejaVuSans-105"/>
    <use x="2232.263672" xlink:href="#DejaVuSans-110"/>
    <use x="2295.642578" xlink:href="#DejaVuSans-103"/>
    <use x="2359.119141" xlink:href="#DejaVuSans-32"/>
    <use x="2390.90625" xlink:href="#DejaVuSans-116"/>
    <use x="2430.115234" xlink:href="#DejaVuSans-111"/>
    <use x="2491.296875" xlink:href="#DejaVuSans-32"/>
    <use x="2523.083984" xlink:href="#DejaVuSans-68"/>
    <use x="2600.085938" xlink:href="#DejaVuSans-97"/>
    <use x="2661.365234" xlink:href="#DejaVuSans-116"/>
    <use x="2700.574219" xlink:href="#DejaVuSans-101"/>
   </g>
  </g>
 </g>
 <defs>
  <clipPath id="p9874eba0d0">
   <rect height="271.8" width="380.454545" x="39.65" y="43.2"/>
  </clipPath>
  <clipPath id="p8fe178cf62">
   <rect height="271.8" width="380.454545" x="496.195455" y="43.2"/>
  </clipPath>
 </defs>
</svg>
